<svg id="Capa_1" data-name="Capa 1" xmlns="http://www.w3.org/2000/svg" viewBox="0 0 512 512"><path d="M431,170.78a136.78,136.78,0,0,1-37.8,10.36,65.23,65.23,0,0,0,28.86-36.26,131.1,131.1,0,0,1-41.6,15.88A65.6,65.6,0,0,0,267,205.62a67.55,67.55,0,0,0,1.52,15A185.69,185.69,0,0,1,133.28,152a65.62,65.62,0,0,0,20.16,87.68,64.79,64.79,0,0,1-29.64-8.08v.72a65.9,65.9,0,0,0,52.56,64.46,65.48,65.48,0,0,1-17.2,2.16,58,58,0,0,1-12.42-1.12,66.23,66.23,0,0,0,61.3,45.7,131.82,131.82,0,0,1-81.34,28,122.88,122.88,0,0,1-15.7-.9A184.69,184.69,0,0,0,211.64,400c120.72,0,186.72-100,186.72-186.68,0-2.9-.1-5.7-.24-8.48A130.87,130.87,0,0,0,431,170.78Z"/><path d="M256,20a236.06,236.06,0,0,1,91.86,453.46A236.07,236.07,0,0,1,164.14,38.54,234.56,234.56,0,0,1,256,20m0-20C114.62,0,0,114.62,0,256S114.62,512,256,512,512,397.38,512,256,397.38,0,256,0Z"/></svg>