<svg id="Capa_1" data-name="Capa 1" xmlns="http://www.w3.org/2000/svg" viewBox="0 0 512 512"><path d="M405.21,194.2c-.7-15.94-3.28-26.9-7-36.39a76.86,76.86,0,0,0-43.9-43.9c-9.55-3.69-20.45-6.27-36.39-7s-21.16-.94-61.89-.94-45.83.18-61.83.88-26.9,3.28-36.39,7a76.86,76.86,0,0,0-43.9,43.9c-3.69,9.55-6.27,20.45-7,36.39S106,215.3,106,256s.17,45.83.88,61.83,3.28,26.9,7,36.39a76.86,76.86,0,0,0,43.9,43.9c9.55,3.69,20.45,6.27,36.39,7s21.1.88,61.83.88,45.83-.17,61.83-.88,26.9-3.28,36.39-7a76.78,76.78,0,0,0,43.9-43.9c3.69-9.55,6.27-20.45,7-36.39s.88-21.1.88-61.83S405.91,210.2,405.21,194.2Zm-27,122.49c-.64,14.65-3.1,22.56-5.15,27.83A49.81,49.81,0,0,1,344.55,373c-5.27,2.05-13.24,4.51-27.84,5.15-15.82.71-20.56.88-60.59.88s-44.84-.17-60.6-.88c-14.65-.64-22.56-3.1-27.84-5.15a49.47,49.47,0,0,1-28.42-28.43c-2-5.27-4.51-13.24-5.16-27.83-.7-15.83-.88-20.58-.88-60.6s.18-44.84.88-60.6c.65-14.65,3.11-22.56,5.16-27.84a45.62,45.62,0,0,1,11.25-17.23,46.52,46.52,0,0,1,17.23-11.19c5.28-2,13.25-4.51,27.84-5.16,15.82-.7,20.57-.88,60.6-.88s44.83.18,60.59.88c14.66.65,22.57,3.11,27.84,5.16a46,46,0,0,1,17.23,11.19A46.83,46.83,0,0,1,373,167.71c2,5.28,4.51,13.25,5.15,27.84.71,15.82.88,20.57.88,60.6S378.9,300.86,378.19,316.69Z"/><path d="M256.06,179A77.07,77.07,0,1,0,333.12,256,77.09,77.09,0,0,0,256.06,179Zm0,127.06a50,50,0,1,1,50-50A50,50,0,0,1,256.06,306Z"/><path d="M354.17,175.92a18,18,0,1,1-18-18A18,18,0,0,1,354.17,175.92Z"/><path d="M256,20a236.06,236.06,0,0,1,91.86,453.46A236.07,236.07,0,0,1,164.14,38.54,234.56,234.56,0,0,1,256,20m0-20C114.62,0,0,114.62,0,256S114.62,512,256,512,512,397.38,512,256,397.38,0,256,0Z"/></svg>