<svg id="Capa_1" data-name="Capa 1" xmlns="http://www.w3.org/2000/svg" viewBox="0 0 512 512"><path d="M357,373.38c25.48-63,37.49-123.61,38.08-191.62,1.4-17.93-25.43-26.48-41.13-31.52.12-.06.24-.06.35-.12C336.85,144.2,209.13,119.66,177.21,119c-11-.35-17.35,6.27-21.62,15.06-26.07,63.09-38,124.43-38.67,192.8-1.4,17.93,25.43,26.54,41.13,31.52-.12.06-.24.06-.35.11,17.4,6,34.74,11.08,52.14,15.29a62.09,62.09,0,0,1-20.1,37.2c-2.34,1.64-2.69,2.58-1.64,4.81,4.4,14.64,49.91-25.13,54.25-35.15a584.57,584.57,0,0,0,92.33,8.9C346.34,390,352.66,382.52,357,373.38Z"/><path d="M256,20a236.06,236.06,0,0,1,91.86,453.46A236.07,236.07,0,0,1,164.14,38.54,234.56,234.56,0,0,1,256,20m0-20C114.62,0,0,114.62,0,256S114.62,512,256,512,512,397.38,512,256,397.38,0,256,0Z"/></svg>