<svg id="Capa_1" data-name="Capa 1" xmlns="http://www.w3.org/2000/svg" viewBox="0 0 512 512"><path d="M197.82,425.15c8.1-13.13,20.09-34.53,24.47-51.7l12.32-46.84c6.32,12.31,25.12,22.69,45.05,22.69,59.32,0,102.11-54.62,102.11-122.53,0-65.15-53.16-113.77-121.39-113.77-85.09,0-130.15,57.05-130.15,119.12,0,29,15.4,64.83,40,76.34,3.72,1.78,5.83,1,6.64-2.6.65-2.75,4.05-16.2,5.51-22.36a5.87,5.87,0,0,0-1.3-5.68c-8.1-9.88-14.58-28-14.58-44.89,0-43.43,32.9-85.41,89-85.41,48.46,0,82.33,32.9,82.33,80.06,0,53.16-26.9,90.11-61.91,90.11-19.28,0-33.87-16-29.17-35.65,5.67-23.5,16.37-48.78,16.37-65.64,0-15.07-8.1-27.71-25-27.71-19.77,0-35.65,20.42-35.65,47.81,0,17.34,5.83,29.17,5.83,29.17s-19.45,82.49-23,97.89c-3.89,17-2.4,47.54-.65,56.56L186.8,431S189.71,438.27,197.82,425.15Z"/><path d="M256,20a236.06,236.06,0,0,1,91.86,453.46A236.07,236.07,0,0,1,164.14,38.54,234.56,234.56,0,0,1,256,20m0-20C114.62,0,0,114.62,0,256S114.62,512,256,512,512,397.38,512,256,397.38,0,256,0Z"/></svg>