<svg id="Capa_1" data-name="Capa 1" xmlns="http://www.w3.org/2000/svg" viewBox="0 0 512 512"><path d="M256,118.55c-88.22,0-160,58.25-160,129.84,0,64.19,56.92,117.94,133.81,128.1,5.21,1.13,12.3,3.44,14.1,7.89,1.61,4.05,1.05,10.38.51,14.47,0,0-1.87,11.29-2.28,13.7-.7,4-3.21,15.82,13.86,8.62s92.14-54.25,125.71-92.89h0C404.89,302.85,416,277,416,248.39,416,176.8,344.23,118.55,256,118.55ZM199.55,286.62a3.11,3.11,0,0,1-3.11,3.11H151.6a3.07,3.07,0,0,1-2.15-.87l0,0,0-.05a3.07,3.07,0,0,1-.87-2.15h0V216.91a3.12,3.12,0,0,1,3.11-3.12h11.23a3.12,3.12,0,0,1,3.11,3.12v55.36h30.5a3.12,3.12,0,0,1,3.11,3.12Zm27.06,0a3.12,3.12,0,0,1-3.12,3.11H212.27a3.12,3.12,0,0,1-3.12-3.11V216.91a3.12,3.12,0,0,1,3.12-3.12h11.22a3.12,3.12,0,0,1,3.12,3.12Zm77.25,0a3.12,3.12,0,0,1-3.12,3.11H289.52a3,3,0,0,1-.8-.11h-.05l-.21-.06-.09,0-.15-.06-.15-.08-.09,0-.19-.12,0,0a3.16,3.16,0,0,1-.79-.76l-32-43.2v41.4a3.12,3.12,0,0,1-3.12,3.11H240.64a3.12,3.12,0,0,1-3.12-3.11V216.91a3.12,3.12,0,0,1,3.12-3.12h11.49l.16,0,.13,0,.18,0,.11,0,.18.07.11,0,.18.08.09,0,.17.1.09.05.17.11.08.07.16.14.06.05.19.19,0,0a3.81,3.81,0,0,1,.24.32l31.95,43.14V216.91a3.12,3.12,0,0,1,3.12-3.12h11.22a3.12,3.12,0,0,1,3.12,3.12Zm62-58.49a3.11,3.11,0,0,1-3.11,3.12h-30.5V243h30.5a3.12,3.12,0,0,1,3.11,3.12v11.22a3.11,3.11,0,0,1-3.11,3.12h-30.5v11.78h30.5a3.12,3.12,0,0,1,3.11,3.12v11.23a3.11,3.11,0,0,1-3.11,3.11H317.88a3.06,3.06,0,0,1-2.15-.87l-.05,0,0-.05a3.07,3.07,0,0,1-.87-2.15h0V216.91h0a3.11,3.11,0,0,1,.86-2.15l.05-.06,0,0a3.11,3.11,0,0,1,2.16-.88h44.84a3.12,3.12,0,0,1,3.11,3.12Z"/><path d="M256,20a236.06,236.06,0,0,1,91.86,453.46A236.07,236.07,0,0,1,164.14,38.54,234.56,234.56,0,0,1,256,20m0-20C114.62,0,0,114.62,0,256S114.62,512,256,512,512,397.38,512,256,397.38,0,256,0Z"/></svg>