<svg id="Capa_1" data-name="Capa 1" xmlns="http://www.w3.org/2000/svg" viewBox="0 0 512 512"><path d="M256,114c-82.84,0-150,62.17-150,138.88,0,43.71,21.81,82.69,55.89,108.15v53L213,386a161.26,161.26,0,0,0,43,5.81c82.84,0,150-62.17,150-138.88S338.84,114,256,114Zm14.91,187-38.2-40.74L158.18,301l82-87,39.13,40.75L352.9,214Z"/><path d="M256,20a236.06,236.06,0,0,1,91.86,453.46A236.07,236.07,0,0,1,164.14,38.54,234.56,234.56,0,0,1,256,20m0-20C114.62,0,0,114.62,0,256S114.62,512,256,512,512,397.38,512,256,397.38,0,256,0Z"/></svg>