<svg id="Capa_1" data-name="Capa 1" xmlns="http://www.w3.org/2000/svg" viewBox="0 0 512 512"><path d="M195.57,305.42l-5.3,74.45c7.58,0,10.86-3.25,14.79-7.16l35.51-33.93,73.57,53.88c13.5,7.52,23,3.56,26.64-12.41L389.08,154h0c4.28-19.95-7.21-27.75-20.36-22.86L84.86,239.76c-19.38,7.52-19.08,18.32-3.3,23.22l72.58,22.57L322.72,180.07c7.93-5.25,15.14-2.35,9.21,2.91Z"/><path d="M256,20a236.06,236.06,0,0,1,91.86,453.46A236.07,236.07,0,0,1,164.14,38.54,234.56,234.56,0,0,1,256,20m0-20C114.62,0,0,114.62,0,256S114.62,512,256,512,512,397.38,512,256,397.38,0,256,0Z"/></svg>