<svg id="Capa_1" data-name="Capa 1" xmlns="http://www.w3.org/2000/svg" viewBox="0 0 512 512"><path d="M336.39,258.18c-4.51-1.34-7.6-2.27-5.24-8.18,5.11-12.86,5.64-23.95.1-31.86-10.38-14.84-38.8-14-71.39-.4,0,0-10.23,4.48-7.62-3.64,5-16.11,4.26-29.6-3.54-37.39-17.67-17.69-64.68.67-105,41C113.52,247.86,96,279.85,96,307.52c0,52.91,67.86,85.09,134.26,85.09,87,0,144.91-50.56,144.91-90.71C375.17,277.64,354.74,263.88,336.39,258.18Zm-106,115.47c-53,5.22-98.7-18.72-102.14-53.5S165,252.94,218,247.7s98.71,18.7,102.15,53.48S283.4,368.41,230.42,373.65Z"/><path d="M357.24,237.63a10.55,10.55,0,0,0,13.27-6.8,41.24,41.24,0,0,0-47.88-53.05A10.54,10.54,0,0,0,327,198.4h0a20.16,20.16,0,0,1,23.42,25.94h0A10.57,10.57,0,0,0,357.24,237.63Z"/><path d="M235.72,274.46c-25.2-6.56-53.7,6-64.65,28.22-11.15,22.64-.37,47.8,25.1,56,26.38,8.5,57.48-4.54,68.29-29C275.12,305.82,261.81,281.21,235.72,274.46Zm-19.25,57.86c-5.12,8.18-16.1,11.76-24.36,8s-10.55-13.21-5.42-21.17,15.66-11.47,23.87-8S221.5,324.06,216.47,332.32Zm16.88-21.67a7.64,7.64,0,0,1-9.16,3.37c-3.15-1.29-4.14-4.83-2.35-7.95a7.56,7.56,0,0,1,8.94-3.36C234,303.88,235.12,307.46,233.35,310.65Z"/><path d="M313.55,135.25h0a12.26,12.26,0,1,0,5.12,24,60.24,60.24,0,0,1,69.92,77.45v0a12.26,12.26,0,0,0,23.32,7.56v-.05a84.76,84.76,0,0,0-98.35-108.95Z"/><path d="M256,20a236.06,236.06,0,0,1,91.86,453.46A236.07,236.07,0,0,1,164.14,38.54,234.56,234.56,0,0,1,256,20m0-20C114.62,0,0,114.62,0,256S114.62,512,256,512,512,397.38,512,256,397.38,0,256,0Z"/></svg>