<svg id="Capa_1" data-name="Capa 1" xmlns="http://www.w3.org/2000/svg" viewBox="0 0 512 512"><path d="M381,150.69C356.07,144,256,144,256,144s-100.07,0-125,6.69A40.07,40.07,0,0,0,102.69,179C96,203.93,96,256,96,256s0,52.07,6.69,77A40.07,40.07,0,0,0,131,361.31c25,6.69,125,6.69,125,6.69s100.07,0,125-6.69A40.07,40.07,0,0,0,409.31,333C416,308.07,416,256,416,256s0-52.07-6.69-77A40.07,40.07,0,0,0,381,150.69ZM224,304V208l83.13,48Z"/><path d="M256,20a236.06,236.06,0,0,1,91.86,453.46A236.07,236.07,0,0,1,164.14,38.54,234.56,234.56,0,0,1,256,20m0-20C114.62,0,0,114.62,0,256S114.62,512,256,512,512,397.38,512,256,397.38,0,256,0Z"/></svg>