<svg id="Capa_1" data-name="Capa 1" xmlns="http://www.w3.org/2000/svg" viewBox="0 0 512 512"><path d="M266.94,239.45c-96.45,49.7-32.3,183.05,88,148.24,11.21,4.35,21.2,11.41,32.07,16.66-2.81-9.46-5.81-18.81-9-28.12,37.29-26.57,45.47-64.16,31.69-95.06-21.52-49-90.24-69-142.78-41.72Zm33.69,48.71c-2.78,8.73-15.39,11.34-21.51,4.7-6.73-6.14-4.11-19,4.73-21.7,9.78-4.13,21.07,7.2,16.78,17Zm63.66,1.25h.19c-3.43,7.82-15.2,9.66-21,3.6-2.78-2.56-3.59-6.41-4.58-9.76,1.39-6.13,5.59-12.48,12.39-12.77,9.38-1.31,17.79,10.33,13,18.93Z"/><path d="M328.12,221.2c-5.81-28.55-25.78-52.67-50.93-66.59h.36C188.32,104.18,77.23,174.51,98.7,257.45c5.76,24.61,22.78,45.24,43.44,59-4,11.36-7.79,22.72-11.39,34.16,13-6.82,26-13.94,39-20.87a144.16,144.16,0,0,0,48.74,6.93c-20.48-58.76,32.06-121,109.66-115.48Zm-80.93-34.11c10.45-4.2,22.81,4.6,22,15.85l0,.16c.11,12.85-17,20.87-26.57,12.16C232.69,208.1,235.51,190.69,247.19,187.09Zm-58.67,19.28c-2.29,11.16-17.19,16.55-25.91,9-10.11-7.15-7.27-24.88,4.59-28.49,11.63-4.5,24.84,7.36,21.32,19.44Z"/><path d="M256,20a236.06,236.06,0,0,1,91.86,453.46A236.07,236.07,0,0,1,164.14,38.54,234.56,234.56,0,0,1,256,20m0-20C114.62,0,0,114.62,0,256S114.62,512,256,512,512,397.38,512,256,397.38,0,256,0Z"/></svg>