<svg id="Capa_1" data-name="Capa 1" xmlns="http://www.w3.org/2000/svg" viewBox="0 0 512 512"><path d="M259,406C345.53,406,403,345.24,403,259.48a128.17,128.17,0,0,0-2.44-25H259v51.56h85.14c-3.48,21.9-25.78,64.66-85.14,64.66-51.14,0-92.9-42.36-92.9-94.74s41.74-94.76,92.9-94.76c29.26,0,48.7,12.48,59.76,23.12l40.72-39.08C333.25,120.74,299.49,106,259,106a150,150,0,0,0,0,300Z"/><path d="M256,20a236.06,236.06,0,0,1,91.86,453.46A236.07,236.07,0,0,1,164.14,38.54,234.56,234.56,0,0,1,256,20m0-20C114.62,0,0,114.62,0,256S114.62,512,256,512,512,397.38,512,256,397.38,0,256,0Z"/></svg>