<svg id="Capa_1" data-name="Capa 1" xmlns="http://www.w3.org/2000/svg" viewBox="0 0 512 512"><path d="M418.25,212.25H386.36V244H354.61v31.89h31.75v31.75h31.89V275.89H450V244H418.25Z"/><path d="M209.37,365.38c63.12,0,105.05-44.31,105.05-106.84a93.08,93.08,0,0,0-1.78-18.2H209.39v37.59h62.08c-2.54,16-18.8,47.15-62.08,47.15-37.29,0-67.74-30.89-67.74-69.08s30.44-69.1,67.74-69.1c21.34,0,35.51,9.1,43.57,16.86l29.7-28.49c-19.12-17.9-43.74-28.65-73.28-28.65a109.38,109.38,0,0,0,0,218.76Z"/><path d="M256,20a236.06,236.06,0,0,1,91.86,453.46A236.07,236.07,0,0,1,164.14,38.54,234.56,234.56,0,0,1,256,20m0-20C114.62,0,0,114.62,0,256S114.62,512,256,512,512,397.38,512,256,397.38,0,256,0Z"/></svg>