<svg id="Capa_1" data-name="Capa 1" xmlns="http://www.w3.org/2000/svg" viewBox="0 0 512 512"><path d="M408.35,222.06c-6.34-2.7-33.51.3-41-6.5-5.33-4.92-5.67-13.8-7.75-25.65-3.49-19.86-4.93-24.36-8.55-32.18C337.83,129.87,306.26,106,277.57,106H211.06C158.75,106,116,148.69,116,200.82V311.37c0,52,42.75,94.63,95.06,94.63H320.32c52.31,0,94.78-42.6,95.08-94.63l.6-76.56S416,225.34,408.35,222.06ZM212.26,183.49H265a18.09,18.09,0,1,1,0,36.17H212.26a18.09,18.09,0,1,1,0-36.17ZM319.42,328H212.26a18,18,0,1,1,0-36.08H319.42a18,18,0,1,1,0,36.08Z"/><path d="M256,20a236.06,236.06,0,0,1,91.86,453.46A236.07,236.07,0,0,1,164.14,38.54,234.56,234.56,0,0,1,256,20m0-20C114.62,0,0,114.62,0,256S114.62,512,256,512,512,397.38,512,256,397.38,0,256,0Z"/></svg>