<svg id="圖層_1" data-name="圖層 1" xmlns="http://www.w3.org/2000/svg" viewBox="0 0 512 512"><path d="M61.63,347.69a12,12,0,1,0-22.86,7.54,225.53,225.53,0,0,0,19.54,43.28,12,12,0,0,0,10.4,6,12.17,12.17,0,0,0,6.09-1.64,12,12,0,0,0,4.3-16.48A201.91,201.91,0,0,1,61.63,347.69Z"/><path d="M135.88,449a205.78,205.78,0,0,1-31.64-28.36A12,12,0,1,0,86.42,436.8a229.88,229.88,0,0,0,35.3,31.7A12,12,0,0,0,135.88,449Z"/><path d="M297.62,483.7A207.47,207.47,0,0,1,256,487.92a12.34,12.34,0,0,0-12.4,12,11.72,11.72,0,0,0,11.67,12,232.35,232.35,0,0,0,47.2-4.72,12,12,0,0,0-4.84-23.58Z"/><path d="M213.07,483.41a202.92,202.92,0,0,1-40.39-13.16,12,12,0,1,0-9.83,22A228.15,228.15,0,0,0,208,507a12.26,12.26,0,0,0,2.54.27,12,12,0,0,0,2.5-23.82Z"/><path d="M41.94,319.24a12,12,0,0,0,10.61-13.32,200.33,200.33,0,0,1-1.27-22.71,12,12,0,0,0-24.08,0,226.84,226.84,0,0,0,1.41,25.41,12,12,0,0,0,12,10.69A12.75,12.75,0,0,0,41.94,319.24Z"/><path d="M256,54.42a229.38,229.38,0,0,0-78.88,14L206.2,18.07A12,12,0,1,0,185.36,6l-48,83.06a12.48,12.48,0,0,0-.74,1.4c0,.06-.06.14-.09.21q-.18.4-.33.84c0,.13-.09.26-.13.4s-.13.45-.19.68-.08.35-.11.52-.08.4-.11.6l-.06.57c0,.2,0,.4,0,.6s0,.36,0,.55,0,.41,0,.62,0,.35,0,.52.05.43.08.65l.09.5c0,.21.08.42.14.63s.09.36.15.55.11.36.17.54.17.44.26.66l.17.39a9.33,9.33,0,0,0,.43.83l.07.15,0,0a12,12,0,0,0,4.36,4.35L225,154.07a12,12,0,0,0,12.05-20.87L172.84,96.13A204.92,204.92,0,0,1,256,78.5c112.87,0,204.71,91.83,204.71,204.71A204.67,204.67,0,0,1,338.09,470.79a12,12,0,0,0,4.82,23.08,11.9,11.9,0,0,0,4.83-1,226,226,0,0,0,22.67-11.48A229.68,229.68,0,0,0,484.8,283.21C484.8,157.05,382.17,54.42,256,54.42Z"/></svg>