<svg id="圖層_1" data-name="圖層 1" xmlns="http://www.w3.org/2000/svg" viewBox="0 0 512 512"><path d="M256,487.92a207.47,207.47,0,0,1-41.63-4.22,12,12,0,0,0-4.84,23.58,232.35,232.35,0,0,0,47.2,4.72,11.72,11.72,0,0,0,11.67-12A12.34,12.34,0,0,0,256,487.92Z"/><path d="M339.32,470.25a202.92,202.92,0,0,1-40.39,13.16,12,12,0,0,0,2.5,23.82A12.26,12.26,0,0,0,304,507a228.15,228.15,0,0,0,45.18-14.72,12,12,0,1,0-9.83-22Z"/><path d="M465.57,340a12,12,0,0,0-15.2,7.66,201.91,201.91,0,0,1-17.47,38.66,12,12,0,0,0,4.3,16.48,12.17,12.17,0,0,0,6.09,1.64,12,12,0,0,0,10.4-6,225.53,225.53,0,0,0,19.54-43.28A12,12,0,0,0,465.57,340Z"/><path d="M407.76,420.64A205.78,205.78,0,0,1,376.12,449a12,12,0,0,0,14.16,19.5,229.88,229.88,0,0,0,35.3-31.7,12,12,0,1,0-17.82-16.16Z"/><path d="M472.76,271.17a12,12,0,0,0-12,12,200.33,200.33,0,0,1-1.27,22.71,12,12,0,0,0,10.61,13.32,12.75,12.75,0,0,0,1.38.07,12,12,0,0,0,11.95-10.69,226.84,226.84,0,0,0,1.41-25.41A12,12,0,0,0,472.76,271.17Z"/><path d="M374.77,101.55l0,0,.07-.15a9.33,9.33,0,0,0,.43-.83l.17-.39c.09-.22.18-.44.26-.66s.12-.36.17-.54.11-.37.16-.55.09-.42.13-.63l.09-.5c0-.22.06-.43.08-.65s0-.34,0-.52,0-.42,0-.62,0-.37,0-.55,0-.4-.05-.6l-.06-.57c0-.2-.07-.4-.11-.6s-.07-.35-.11-.52-.12-.45-.19-.68-.09-.27-.13-.4q-.15-.44-.33-.84c0-.07-.06-.15-.09-.21a12.48,12.48,0,0,0-.74-1.4L326.64,6a12,12,0,1,0-20.84,12l29.07,50.34a229.38,229.38,0,0,0-78.88-14C129.83,54.42,27.2,157.05,27.2,283.21A229.68,229.68,0,0,0,141.59,481.38a226,226,0,0,0,22.67,11.48,11.9,11.9,0,0,0,4.83,1,12,12,0,0,0,4.82-23.08A204.67,204.67,0,0,1,51.28,283.21C51.28,170.33,143.12,78.5,256,78.5a204.92,204.92,0,0,1,83.17,17.63L274.94,133.2A12,12,0,0,0,287,154.07l83.42-48.17A12,12,0,0,0,374.77,101.55Z"/></svg>