<svg id="圖層_1" data-name="圖層 1" xmlns="http://www.w3.org/2000/svg" viewBox="0 0 512 512"><path d="M384.93,127.07a12,12,0,0,0-17,0L256,239,144.1,127.07a12,12,0,1,0-17,17L239,256,127.07,367.9a12,12,0,1,0,17,17L256,273l111.9,111.9a12,12,0,0,0,17-17L273,256l111.9-111.9A12,12,0,0,0,384.93,127.07Z"/><path d="M256,3.12C116.56,3.12,3.12,116.57,3.12,256S116.56,508.88,256,508.88,508.88,395.43,508.88,256,395.44,3.12,256,3.12Zm0,481.67C129.84,484.79,27.21,382.16,27.21,256S129.84,27.21,256,27.21,484.79,129.84,484.79,256,382.16,484.79,256,484.79Z"/></svg>