<svg id="圖層_1" data-name="圖層 1" xmlns="http://www.w3.org/2000/svg" viewBox="0 0 512 512"><path d="M274,508.88H238a36.62,36.62,0,0,1-35.89-43.73L206.33,444,158.21,424l-11.86,17.77a36.62,36.62,0,0,1-56.51,5.36L62.49,419.4a36.59,36.59,0,0,1,6.65-56.72c7.2-4.48,13.22-8.23,18.3-11-4.75-11.63-12.79-30.93-19.5-46.89L47.51,309.2A36.61,36.61,0,0,1,3.12,273.44V238a36.6,36.6,0,0,1,43.73-35.89L65,205.74,87.56,158,70,146.23a36.56,36.56,0,0,1-5.55-56.3L89.91,64.5A36,36,0,0,1,119.4,54,36.52,36.52,0,0,1,146.24,70l12,17.95,48.12-19.93-4.21-21.19A36.58,36.58,0,0,1,238,3.12h36a36.62,36.62,0,0,1,35.89,43.74l-4.23,21.19L353.79,88l12-17.95a36.59,36.59,0,0,1,56.31-5.54l25.44,25.42A36.62,36.62,0,0,1,442,146.23l-18,12,20,48.11,21.17-4.21A36.61,36.61,0,0,1,508.88,238v36a36.59,36.59,0,0,1-43.75,35.89L447,306.27l-22.58,47.79,17.52,11.73a36.56,36.56,0,0,1,5.57,56.29l-25.44,25.43A36.61,36.61,0,0,1,365.76,442l-12-18-48,19.94,4.19,21.21A36.61,36.61,0,0,1,274,508.88ZM153.69,397.07a12,12,0,0,1,4.61.91l66.37,27.52a12,12,0,0,1,7.2,13.48l-6.14,30.87A12.52,12.52,0,0,0,238,484.79h36a12.52,12.52,0,0,0,12.27-14.94L280.18,439a12,12,0,0,1,7.19-13.47L353.67,398a12,12,0,0,1,14.63,4.44l17.5,26.17a12.41,12.41,0,0,0,9.17,5.49A12.64,12.64,0,0,0,405,430.49l25.45-25.44a12.51,12.51,0,0,0-1.91-19.24l-26.17-17.5a12,12,0,0,1-4.21-15.15l31-65.68a11.8,11.8,0,0,1,13.24-6.66l27.35,5.45a12.5,12.5,0,0,0,15-12.28V238a12.5,12.5,0,0,0-15-12.28L439,231.88a12,12,0,0,1-13.48-7.2L398,158.31a12,12,0,0,1,4.45-14.62l26.2-17.49A12.55,12.55,0,0,0,430.49,107L405,81.53A12.82,12.82,0,0,0,395,77.92a12.46,12.46,0,0,0-9.17,5.5l-17.47,26.17A12.08,12.08,0,0,1,353.7,114L287.3,86.51A12,12,0,0,1,280.11,73l6.16-30.86a12.52,12.52,0,0,0-12.28-15H238a12.5,12.5,0,0,0-12.28,14.94l6.14,30.9a12,12,0,0,1-7.2,13.47L158.3,114a12,12,0,0,1-14.63-4.44L126.2,83.42a12.46,12.46,0,0,0-9.17-5.5,12.72,12.72,0,0,0-10.09,3.61L81.51,107A12.21,12.21,0,0,0,77.92,117a12.42,12.42,0,0,0,5.5,9.19l26.15,17.49a12.06,12.06,0,0,1,4.21,15.16l-31,65.67a12,12,0,0,1-13.24,6.66l-27.36-5.45A12.51,12.51,0,0,0,27.21,238v35.42a12.51,12.51,0,0,0,15.17,12.23l30.22-6.59a12.12,12.12,0,0,1,13.66,7.11c14.54,34.51,22.58,53.62,26.13,64.7a7.06,7.06,0,0,1,.54.77l-.23.17c4,12.86,1.46,14.21-4,17.17a11.84,11.84,0,0,1-4.89,1.38c-2.28,1.1-8.16,4.19-21.87,12.74a12.29,12.29,0,0,0-5.76,9.08,12.47,12.47,0,0,0,3.53,10.3L107,430.24a12.32,12.32,0,0,0,10.06,3.67,12.48,12.48,0,0,0,9.25-5.5l17.35-26A12.07,12.07,0,0,1,153.69,397.07Z"/><path d="M256,364.38A108.38,108.38,0,1,1,364.38,256,108.5,108.5,0,0,1,256,364.38Zm0-192.67A84.29,84.29,0,1,0,340.29,256,84.4,84.4,0,0,0,256,171.71Z"/></svg>