<?xml version="1.0" encoding="utf-8"?>
<!-- Generator: Adobe Illustrator 25.2.1, SVG Export Plug-In . SVG Version: 6.00 Build 0)  -->
<svg version="1.1" id="圖層_1" xmlns="http://www.w3.org/2000/svg" xmlns:xlink="http://www.w3.org/1999/xlink" x="0px" y="0px"
	 viewBox="0 0 512 512" style="enable-background:new 0 0 512 512;" xml:space="preserve">
<style type="text/css">
	.st0{fill:#FFFFFF;}
	.st1{fill:#EE0000;}
</style>
<g>
	<path class="st0" d="M256,512c-17.9,0-32.5-14.6-32.5-32.5l-7.9-192.7l-98.2,0c-8.7,0-16.9-3.4-23-9.5c-6.1-6.1-9.5-14.3-9.5-23
		c0-50.6,35.7-93.1,83.2-103.8l0-34.5c-7.5-3-14.2-7.6-20-13.5c-11.3-11.5-17.4-26.7-17.3-42.8C131,26.8,158.1,0,191,0l129.7,0
		c33.2,0,60.2,27.1,60.2,60.2c0,25-15.3,46.4-37,55.6l0,34.6c47.5,10.6,83.2,53.2,83.2,103.9c0,17.9-14.6,32.5-32.5,32.5h-98.2
		l-7.9,193.6C288.5,497.4,273.9,512,256,512z"/>
	<path d="M320.7,23.3l-129.4,0c-20.4-0.2-37.1,16.2-37.3,36.6s16.2,37.1,36.6,37.3c0.2,0,0.4,0,0.7,0l0,0l0,73.9
		c-45.9,0-83.1,37.3-83.2,83.2c0,5.1,4.1,9.2,9.2,9.2c0,0,0,0,0,0l120.6,0l8.8,215.9c0,5.1,4.1,9.2,9.2,9.2c5.1,0,9.2-4.1,9.2-9.2
		l8.8-215.9h120.6c5.1,0,9.2-4.1,9.2-9.2c0,0,0,0,0,0c0-45.9-37.2-83.2-83.1-83.2c0,0,0,0,0,0l0,0l0-73.9l0,0c20.4,0,37-16.5,37-37
		C357.6,39.8,341.1,23.3,320.7,23.3L320.7,23.3L320.7,23.3z"/>
	<g>
		<path class="st1" d="M366.4,208.6c9.9,9.9,16.3,22.7,18.3,36.5l-119.2,0c-0.1,0-0.2,0-0.3,0h-18.4l-0.3,0H127.3
			c4.6-31.8,31.9-55.4,64-55.5l62.7,0l57.4,0l0,0h9.2C337.9,189.6,354.3,196.4,366.4,208.6z"/>
		<polygon class="st1" points="302.2,171.2 256.9,171.2 209.8,171.2 209.8,97.2 302.2,97.2 		"/>
		<path class="st1" d="M339.2,60.2c0,9.9-8.6,18.5-18.5,18.5l-129.4,0c-10.2-0.1-18.4-8.5-18.2-18.7c0.1-10,8.2-18.1,18.2-18.2
			l129.4,0C330.9,41.8,339.2,50,339.2,60.2L339.2,60.2z"/>
	</g>
</g>
</svg>
