<svg id="圖層_1" data-name="圖層 1" xmlns="http://www.w3.org/2000/svg" viewBox="0 0 512 512"><path d="M195.79,291.67h144.5a12,12,0,0,0,0-24.08H195.79a12,12,0,1,0,0,24.08Z"/><path d="M436.63,412.55H195.79a12,12,0,0,0,0,24.08H436.63a12,12,0,1,0,0-24.08Z"/><path d="M436.63,340.07H195.79a12,12,0,0,0,0,24.09H436.63a12,12,0,0,0,0-24.09Z"/><path d="M508.87,169.36v0a35.91,35.91,0,0,0-10.58-25.24L416.07,61.86a35.86,35.86,0,0,0-24.93-10.57l-.76,0-230.71,0a36.17,36.17,0,0,0-36.13,36.12V472.74a36.17,36.17,0,0,0,36.13,36.13H472.75a36.17,36.17,0,0,0,36.13-36.13V169.63C508.88,169.54,508.87,169.45,508.87,169.36Zm-31.13-11.77H402.57V82.41L440.15,120Zm-5,327.2H159.67a12.06,12.06,0,0,1-12-12.05V87.41a12.06,12.06,0,0,1,12-12H378.49v94.27a12,12,0,0,0,12,12h94.26V472.74A12.06,12.06,0,0,1,472.75,484.79Z"/><path d="M87.42,436.64H39.25a12.05,12.05,0,0,1-12-12V39.27a12.05,12.05,0,0,1,12-12l230.86,0a12,12,0,0,0,0-24.08H39.25A36.17,36.17,0,0,0,3.12,39.27V424.6a36.17,36.17,0,0,0,36.13,36.13H87.42a12,12,0,0,0,0-24.09Z"/></svg>