<svg id="圖層_1" data-name="圖層 1" xmlns="http://www.w3.org/2000/svg" viewBox="0 0 512 512"><path d="M496.83,292.89H15.17a12,12,0,0,0-12,12V497.6a12,12,0,0,0,12.05,12H496.83a12,12,0,0,0,12.05-12V304.93A12,12,0,0,0,496.83,292.89Zm-12,192.67H27.21V317H484.79Z"/><path d="M76.27,449.43a12,12,0,0,0,12-12V365.14a12,12,0,0,0-24.08,0v72.25A12,12,0,0,0,76.27,449.43Z"/><path d="M128,449.43a12,12,0,0,0,12-12V365.14a12,12,0,0,0-24.08,0v72.25A12,12,0,0,0,128,449.43Z"/><path d="M179.68,449.43a12,12,0,0,0,12-12V365.14a12,12,0,1,0-24.08,0v72.25A12,12,0,0,0,179.68,449.43Z"/><path d="M358.36,419.33h0a18.07,18.07,0,0,0,18.06-18.06h0a18.06,18.06,0,0,0-18.06-18.06h0a18.05,18.05,0,0,0-18.06,18.06h0A18.06,18.06,0,0,0,358.36,419.33Z"/><path d="M425.3,419.33h0a18.07,18.07,0,0,0,18.06-18.06h0a18.06,18.06,0,0,0-18.06-18.06h0a18.06,18.06,0,0,0-18.07,18.06h0A18.07,18.07,0,0,0,425.3,419.33Z"/><path d="M247.42,261.27a11.62,11.62,0,0,0,1,.88h0c.3.24.61.47.94.69l.25.15q.38.24.75.45l.36.17c.23.11.46.23.71.33l.39.14c.24.09.47.18.71.25l.45.12c.22.05.45.12.68.16l.58.09c.2,0,.39.07.58.08a11.85,11.85,0,0,0,1.19.06c.4,0,.79,0,1.19-.05l.58-.09.58-.09c.23,0,.45-.11.68-.16l.45-.12c.24-.07.47-.16.71-.25l.4-.14c.24-.1.47-.22.7-.33l.36-.17.75-.44.25-.16c.33-.22.64-.45.94-.69h0a11.62,11.62,0,0,0,1-.88l85.1-85.09a12,12,0,0,0-17-17L268,223.75V14.4a12,12,0,0,0-24.08,0V223.74l-64.58-64.59a12,12,0,0,0-17,17Z"/></svg>