<svg id="圖層_1" data-name="圖層 1" xmlns="http://www.w3.org/2000/svg" viewBox="0 0 512 512"><path d="M498.79,201.8,330.42,33.42c-13-13-35.77-13-48.75,0L13.25,301.84a34.43,34.43,0,0,0,0,48.76L143.31,480.66a26,26,0,0,0,18.53,7.68h88.31a26.2,26.2,0,0,0,18.51-7.68l45.81-45.8.08-.07.06-.07L498.79,250.55A34.53,34.53,0,0,0,498.79,201.8ZM250.15,464.26l-89.82-.62L30.27,333.56a10.36,10.36,0,0,1,0-14.68L106,243.19,288.64,425.91ZM481.77,233.53,305.7,408.92,123,226.17,298.7,50.46a10.37,10.37,0,0,1,14.69,0L481.77,218.83A10.43,10.43,0,0,1,481.77,233.53Z"/></svg>