<svg id="圖層_1" data-name="圖層 1" xmlns="http://www.w3.org/2000/svg" viewBox="0 0 512 512"><path d="M99.46,171.71H27.21V27.21h144.5V99.46a12,12,0,1,0,24.08,0V15.17a12,12,0,0,0-12-12H15.17a12,12,0,0,0-12,12.05V183.75a12,12,0,0,0,12.05,12H99.46a12,12,0,1,0,0-24.08Z"/><path d="M496.83,316.21H412.54a12,12,0,1,0,0,24.08h72.25v144.5H340.29V412.54a12,12,0,1,0-24.08,0v84.29a12,12,0,0,0,12,12.05H496.83a12,12,0,0,0,12.05-12.05V328.25A12,12,0,0,0,496.83,316.21Z"/><path d="M388.46,376.42V135.58a12,12,0,0,0-12-12H135.58a12,12,0,0,0-12,12V376.42a12,12,0,0,0,12,12H376.42A12,12,0,0,0,388.46,376.42Zm-24.08-12H147.62V147.62H364.38Z"/></svg>