<svg id="圖層_1" data-name="圖層 1" xmlns="http://www.w3.org/2000/svg" viewBox="0 0 512 512"><path d="M496.83,244H448.28C442.29,147.3,364.7,69.71,268,63.72V15.17a12,12,0,1,0-24.08,0V63.72C147.3,69.71,69.72,147.29,63.72,244H15.17a12,12,0,1,0,0,24.08H63.72c6,96.67,83.57,174.25,180.24,180.24v48.55a12,12,0,1,0,24.08,0V448.28c96.66-6,174.25-83.58,180.24-180.24h48.55a12,12,0,1,0,0-24.08ZM256,424.58C163.05,424.58,87.42,349,87.42,256S163.05,87.42,256,87.42,424.58,163.05,424.58,256,349,424.58,256,424.58Z"/></svg>