<svg id="圖層_1" data-name="圖層 1" xmlns="http://www.w3.org/2000/svg" viewBox="0 0 512 512"><path d="M321.48,411.4A167.53,167.53,0,0,1,256,424.58C163.05,424.58,87.42,349,87.42,256a167.68,167.68,0,0,1,13.17-65.49,12,12,0,1,0-22.2-9.34A191.32,191.32,0,0,0,63.71,244H15.17a12,12,0,1,0,0,24.08H63.72c6,96.66,83.58,174.25,180.24,180.24v48.55a12,12,0,1,0,24.08,0V448.28a190.92,190.92,0,0,0,62.8-14.7,12,12,0,1,0-9.36-22.18Z"/><path d="M190.38,100.66A167.3,167.3,0,0,1,256,87.42C349,87.42,424.58,163,424.58,256a167.4,167.4,0,0,1-13.19,65.46,12,12,0,0,0,6.42,15.77,11.88,11.88,0,0,0,4.68,1,12.08,12.08,0,0,0,11.1-7.36A191.22,191.22,0,0,0,448.28,268h48.55a12,12,0,1,0,0-24.08H448.28C442.29,147.3,364.7,69.71,268,63.72V15.17a12,12,0,1,0-24.08,0V63.71a191,191,0,0,0-63,14.77,12,12,0,0,0,9.41,22.18Z"/><path d="M244,159.67a12,12,0,0,0,12,12A84.4,84.4,0,0,1,340.29,256a12,12,0,0,0,24.09,0A108.5,108.5,0,0,0,256,147.62,12,12,0,0,0,244,159.67Z"/><path d="M268,352.33a12,12,0,0,0-12-12A84.4,84.4,0,0,1,171.71,256a12,12,0,0,0-24.09,0A108.5,108.5,0,0,0,256,364.38,12,12,0,0,0,268,352.33Z"/><path d="M23.68,6.65a12,12,0,0,0-17,17L488.32,505.35a12,12,0,1,0,17-17Z"/></svg>