<svg id="圖層_1" data-name="圖層 1" xmlns="http://www.w3.org/2000/svg" viewBox="0 0 512 512"><path d="M195.79,183.75V15.17a12,12,0,0,0-12-12H15.17a12,12,0,0,0-12,12.05V183.75a12,12,0,0,0,12.05,12H183.75A12,12,0,0,0,195.79,183.75Zm-24.08-12H27.21V27.21h144.5Z"/><path d="M496.83,316.21H328.25a12,12,0,0,0-12,12V496.83a12,12,0,0,0,12,12.05H496.83a12,12,0,0,0,12.05-12.05V328.25A12,12,0,0,0,496.83,316.21Zm-12,168.58H340.29V340.29h144.5Z"/><path d="M280.08,364.38H147.62V231.92a12,12,0,1,0-24.08,0v144.5a12,12,0,0,0,12,12h144.5a12,12,0,1,0,0-24.08Z"/><path d="M231.92,147.62H364.38V280.08a12,12,0,1,0,24.08,0V135.58a12,12,0,0,0-12-12H231.92a12,12,0,1,0,0,24.08Z"/></svg>