<svg id="圖層_1" data-name="圖層 1" xmlns="http://www.w3.org/2000/svg" viewBox="0 0 512 512"><path d="M44.24,27.21h91.34a12,12,0,0,0,0-24.09H15.17c-.4,0-.8,0-1.19.06l-.58.09c-.19,0-.39,0-.58.09s-.46.11-.68.16-.31.07-.45.12-.48.16-.71.25l-.4.14c-.24.1-.47.22-.71.33l-.35.17c-.26.14-.5.29-.75.44-.08.06-.17.1-.26.16q-.48.33-.93.69h0A11.93,11.93,0,0,0,5.83,7.57h0q-.36.45-.69.93L5,8.77c-.15.25-.3.49-.44.75s-.11.24-.17.35-.23.47-.33.71-.09.27-.14.4-.18.47-.25.71-.08.29-.11.44-.13.46-.17.69-.06.38-.09.58-.07.38-.09.58c0,.39-.05.78-.05,1.16V135.58a12,12,0,0,0,24.09,0V44.24l148,148a12,12,0,0,0,17-17Z"/><path d="M508.82,14c0-.2-.06-.38-.09-.58s-.05-.39-.09-.58-.11-.46-.16-.68-.07-.31-.12-.45-.16-.48-.25-.71-.09-.27-.14-.4-.22-.47-.33-.71-.11-.23-.17-.35-.29-.5-.44-.75c-.06-.08-.1-.17-.16-.26q-.33-.48-.69-.93h0a11.93,11.93,0,0,0-1.74-1.74h0q-.45-.36-.93-.69c-.09-.06-.18-.1-.26-.16-.25-.15-.49-.3-.75-.44l-.35-.17c-.24-.11-.47-.23-.71-.33l-.4-.14c-.23-.09-.47-.18-.71-.25s-.3-.08-.45-.12-.45-.12-.68-.16-.39-.06-.58-.09-.38-.07-.58-.09c-.39,0-.79-.06-1.19-.06H376.42a12,12,0,0,0,0,24.09h91.34l-148,148a12,12,0,1,0,17,17l148-148v91.34a12,12,0,0,0,24.09,0V15.17C508.88,14.77,508.85,14.37,508.82,14Z"/><path d="M496.83,364.38a12,12,0,0,0-12,12v91.34l-148-148a12,12,0,0,0-17,17l148,148H376.42a12,12,0,0,0,0,24.09H496.83c.4,0,.8,0,1.19-.06.2,0,.39-.06.58-.09s.39-.05.58-.09.46-.11.69-.16.3-.07.44-.12.48-.16.71-.25l.4-.14c.24-.1.47-.22.71-.33l.35-.17c.26-.14.5-.29.75-.44.08-.06.17-.1.26-.16q.48-.33.93-.69h0a11.93,11.93,0,0,0,1.74-1.74h0q.36-.45.69-.93c.06-.09.1-.18.16-.26.15-.25.3-.49.44-.75s.11-.24.17-.35.23-.47.33-.71.09-.27.14-.4.18-.47.25-.71.08-.3.12-.45.12-.45.16-.68.06-.39.09-.58.07-.39.09-.58c0-.39.06-.79.06-1.19V376.42A12,12,0,0,0,496.83,364.38Z"/><path d="M175.24,319.74l-148,148V376.42a12,12,0,0,0-24.09,0V496.86c0,.38,0,.77.05,1.16,0,.2.06.39.09.58s0,.39.09.58.11.46.17.69.07.3.11.44.16.48.25.71.09.27.14.4.22.47.33.71.11.23.17.35.29.5.44.75c.06.08.1.17.16.26q.33.48.69.93h0a11.93,11.93,0,0,0,1.74,1.74h0q.45.36.93.69l.26.16c.25.15.49.3.75.44l.35.17c.24.11.47.23.71.33l.4.14c.23.09.47.18.71.25s.29.08.44.12.46.12.69.16.39.06.58.09.38.07.58.09c.39,0,.79.06,1.19.06H135.58a12,12,0,0,0,0-24.09H44.24l148-148a12,12,0,0,0-17-17Z"/></svg>