<svg id="圖層_1" data-name="圖層 1" xmlns="http://www.w3.org/2000/svg" viewBox="0 0 512 512"><path d="M357.32,340.29h91.35a12,12,0,0,0,0-24.08H328.25a11.85,11.85,0,0,0-1.19.06l-.57.08-.59.09-.68.17-.45.11-.71.25-.4.15-.7.32-.36.17c-.25.14-.5.29-.74.45l-.26.15c-.33.22-.64.45-.94.69h0a11.93,11.93,0,0,0-1.74,1.74h0c-.24.3-.47.61-.69.94l-.15.26c-.16.24-.31.49-.45.74l-.17.36c-.11.23-.22.46-.32.7s-.1.27-.15.4-.17.47-.25.71-.07.3-.11.45-.12.45-.17.68-.06.39-.09.59-.06.38-.08.57a11.85,11.85,0,0,0-.06,1.19V448.67a12,12,0,0,0,24.08,0V357.32l148,148a12,12,0,1,0,17-17Z"/><path d="M195.65,326.49c0-.2-.05-.39-.09-.59s-.11-.45-.17-.68-.07-.3-.11-.45-.16-.47-.25-.71-.09-.26-.15-.4-.21-.47-.32-.7l-.17-.36c-.14-.25-.29-.5-.45-.74l-.15-.26c-.22-.33-.45-.64-.69-.94h0a11.93,11.93,0,0,0-1.74-1.74h0c-.3-.24-.61-.47-.94-.69l-.26-.15c-.24-.16-.49-.31-.74-.45l-.36-.17-.7-.32-.4-.15-.71-.25-.45-.11-.68-.17-.59-.09-.57-.08a11.85,11.85,0,0,0-1.19-.06H63.33a12,12,0,1,0,0,24.08h91.35l-148,148a12,12,0,1,0,17,17l148-148v91.35a12,12,0,0,0,24.08,0V328.25a11.85,11.85,0,0,0-.06-1.19C195.71,326.87,195.68,326.68,195.65,326.49Z"/><path d="M183.75,51.29a12,12,0,0,0-12,12v91.35l-148-148a12,12,0,0,0-17,17l148,148H63.33a12,12,0,0,0,0,24.08H183.75a11.85,11.85,0,0,0,1.19-.06l.58-.08.58-.09.68-.17.45-.11.71-.25.4-.15.7-.32.36-.17q.38-.21.75-.45l.25-.15c.33-.22.64-.45.94-.69h0a11.93,11.93,0,0,0,1.74-1.74h0c.24-.3.47-.61.69-.94l.15-.26c.16-.24.31-.49.45-.74l.17-.36c.11-.23.22-.46.32-.7s.1-.27.15-.4.17-.47.25-.71.07-.3.11-.45.12-.45.17-.68.06-.39.09-.59.06-.38.08-.57a11.85,11.85,0,0,0,.06-1.19V63.33A12,12,0,0,0,183.75,51.29Z"/><path d="M316.35,185.51c0,.2,0,.39.09.59s.11.45.17.68.07.3.11.45.16.47.25.71.09.26.15.4.21.47.32.7l.17.36c.14.25.29.5.45.74l.15.26c.22.33.45.64.69.94h0a11.93,11.93,0,0,0,1.74,1.74h0c.3.24.61.47.94.69l.25.15q.38.24.75.45l.36.17.7.32.4.15.71.25.45.11.68.17.58.09.58.08a11.85,11.85,0,0,0,1.19.06H448.67a12,12,0,0,0,0-24.08H357.32l148-148a12,12,0,1,0-17-17l-148,148V63.33a12,12,0,1,0-24.08,0V183.75a11.85,11.85,0,0,0,.06,1.19C316.29,185.13,316.32,185.32,316.35,185.51Z"/></svg>