<svg id="圖層_1" data-name="圖層 1" xmlns="http://www.w3.org/2000/svg" viewBox="0 0 512 512"><path d="M135.58,268a12,12,0,0,0,0-24.08H111.5a12,12,0,1,0,0,24.08Z"/><path d="M231.92,268a12,12,0,1,0,0-24.08H207.83a12,12,0,0,0,0,24.08Z"/><path d="M400.5,268h24.08a12,12,0,1,0,0-24.08H400.5a12,12,0,0,0,0,24.08Z"/><path d="M15.17,268H39.25a12,12,0,0,0,0-24.08H15.17a12,12,0,1,0,0,24.08Z"/><path d="M328.25,268a12,12,0,1,0,0-24.08H304.17a12,12,0,1,0,0,24.08Z"/><path d="M470.54,432.44H426.4c55.43-61.06,82.48-119,82.48-176.46,0-63.88-33.4-128.31-102.08-197l-17,17c63.92,63.93,95,122.78,95,180,0,50.65-24.41,102.65-74.46,158.32V372.23a12,12,0,1,0-24.08,0V444.5a11.46,11.46,0,0,0,.06,1.17c0,.19.05.39.08.58s.05.39.09.58.11.46.17.69.07.29.11.44.16.48.25.71.09.26.14.4.22.47.34.71.1.23.16.35.29.5.45.75l.15.25c.22.33.45.64.7.95h0a11.93,11.93,0,0,0,1.74,1.74h0c.31.25.62.48.95.7l.25.15.75.45.36.17c.23.11.46.23.7.32l.4.15c.24.09.47.18.71.25l.45.11.68.17.58.09.58.08a11.85,11.85,0,0,0,1.19.06h72.25a12,12,0,0,0,0-24.08Z"/><path d="M192.8,296.24a12.39,12.39,0,0,0-18.1,0L6.11,488.91a12,12,0,0,0,9.06,20H352.33a12,12,0,0,0,9.06-20ZM41.7,484.79,183.75,322.45,325.8,484.79Z"/><path d="M352.33,3.12H15.17a12,12,0,0,0-9.06,20L174.7,215.76a12,12,0,0,0,18.1,0L361.39,23.09a12,12,0,0,0-9.06-20ZM183.75,189.55,41.7,27.21H325.8Z"/></svg>