<svg id="圖層_1" data-name="圖層 1" xmlns="http://www.w3.org/2000/svg" viewBox="0 0 512 512"><path d="M498.31,64.8,447.22,13.71a36.17,36.17,0,0,0-51.1,0L37.83,372a12.08,12.08,0,0,0-2.73,4.2s0,.07,0,.11c-.11.29-.2.58-.29.87,0,.07-.05.14-.07.22L3.54,493.7l0,.16c-.06.22-.1.44-.15.66s-.07.34-.09.51,0,.43-.07.65,0,.36-.05.54,0,.4,0,.6,0,.4,0,.6,0,.35.05.53,0,.44.07.66.06.34.09.51.09.44.15.66l0,.16c0,.16.1.33.16.49l.12.4c.09.25.19.49.3.73,0,.09.07.19.11.28a10.64,10.64,0,0,0,.49,1l.22.35a5,5,0,0,0,.35.54c.1.16.22.31.33.46l.29.36c.14.17.29.34.44.5l.23.24c.18.18.36.36.55.53l.12.1a12.09,12.09,0,0,0,3,1.93l.28.12.64.25.48.15.39.13.18,0,.11,0c.25.07.51.12.77.17l.23,0c.23,0,.46.07.7.09l.23,0c.3,0,.61,0,.91,0s.61,0,.92,0l.22,0,.72-.09.2,0,.83-.17.05,0,.19,0,116.3-31.16.18-.06c.19-.05.37-.12.56-.18l.6-.22.42-.18.69-.32.28-.16a7.31,7.31,0,0,0,.76-.46,1.88,1.88,0,0,0,.18-.12c.27-.18.54-.38.8-.59l.1-.09a9.23,9.23,0,0,0,.8-.73h0L447.19,167l0,0,0,0,51.06-51.05A36.17,36.17,0,0,0,498.31,64.8ZM353.54,90.34l68.14,68.11L138.87,441.23l-4.1-20.51a12,12,0,0,0-3.29-6.15l-34-34.06a11.91,11.91,0,0,0-6.17-3.3l-20.48-4.1ZM81.36,466.62l-36-36,9.67-36.11L83,400.11,111.87,429,117.46,457ZM38.19,457.5,54.5,473.81l-22.28,6ZM481.28,98.86l-42.57,42.56L370.57,73.31l42.57-42.58a12.08,12.08,0,0,1,17.06,0l51.08,51.1A12,12,0,0,1,481.28,98.86Z"/></svg>