<svg id="圖層_1" data-name="圖層 1" xmlns="http://www.w3.org/2000/svg" viewBox="0 0 512 512"><path d="M498.3,64.79,447.21,13.71a36.17,36.17,0,0,0-51.1,0L37.82,372a12.09,12.09,0,0,0-2.25,3.11v0c-.17.34-.32.69-.46,1,0,.07-.05.13-.07.2-.1.26-.18.53-.26.8,0,.08-.06.15-.08.23L3.53,493.7l0,.16c-.06.22-.1.44-.14.66a4.59,4.59,0,0,0-.1.51c0,.21,0,.43-.07.65s0,.36,0,.54,0,.4,0,.6,0,.4,0,.6,0,.36,0,.55,0,.42.07.64.07.35.1.53.08.42.14.63l0,.17c.05.18.11.36.17.53s.07.23.11.34q.16.46.36.9s0,.08,0,.11c.16.34.33.67.52,1l.1.16c.15.25.31.5.48.74s.15.2.22.31.28.36.43.53l.31.36.39.41.39.37.38.33.46.37.31.22c.31.22.63.43,1,.62l.47.26c.14.08.3.15.45.22l.6.26.38.15c.28.1.57.19.86.27l.15.05.07,0,.35.08.58.12.28.05.67.08.24,0c.3,0,.61,0,.91,0s.61,0,.92,0l.22,0,.72-.09.2,0,.83-.17.05,0,.19,0,116.3-31.18.18,0,.56-.18c.2-.07.41-.14.6-.22l.42-.18.69-.32.28-.16c.26-.15.52-.29.76-.46l.17-.12c.28-.19.55-.38.81-.59a.39.39,0,0,1,.1-.08c.28-.24.55-.48.8-.74h0L447.16,167l0,0,.05-.06,51-51h0a36.12,36.12,0,0,0,0-51.08ZM353.54,90.33l8.51,8.51L85,376l-14.2-2.84ZM81.36,466.61l-36-36,9.67-36.11,21.81,4.37,0,24.19a12.05,12.05,0,0,0,12,12.05h24.2l4.37,21.81Zm-43.18-9.12L54.5,473.81l-22.29,6Zm100.68-16.27L136,427l277.12-277.1,8.51,8.51ZM118,411h-17l0-17L379.08,115.87l17,17ZM481.27,98.83h0l-42.58,42.58L370.57,73.3l42.57-42.57a12.07,12.07,0,0,1,17.05,0l51.08,51.09a12,12,0,0,1,0,17Z"/></svg>