<svg id="圖層_1" data-name="圖層 1" xmlns="http://www.w3.org/2000/svg" viewBox="0 0 512 512"><path d="M494.77,136.42,375.55,17.21a48.17,48.17,0,1,0-68.11,68.13h0l-68.11,68.12a108.49,108.49,0,0,0-153.28,0,12,12,0,0,0,0,17L197.12,281.55,6.3,488.66a12,12,0,0,0,17,17L230.41,314.84,341.49,425.92a12,12,0,0,0,17,0,108.35,108.35,0,0,0,0-153.26h0l68.13-68.14h0a48.16,48.16,0,1,0,68.12-68.11ZM366.19,349.29a83.65,83.65,0,0,1-16.77,50.49L239.56,289.93c-.09-.1-.18-.21-.28-.31l-16.93-16.93-.28-.25L112.21,162.58a84.4,84.4,0,0,1,110.09,7.91l57.8,57.8L333,281.18h0l8.5,8.5A83.75,83.75,0,0,1,366.19,349.29Zm-24.7-93.66-41.78-41.78-43.36-43.36,68.11-68.13,85.14,85.15Zm136.25-68.12c-9.13,9.14-25,9.09-34.06,0L324.46,68.31a24.09,24.09,0,0,1,34.06-34.07L477.74,153.45A24.13,24.13,0,0,1,477.74,187.51Z"/></svg>