<svg id="圖層_1" data-name="圖層 1" xmlns="http://www.w3.org/2000/svg" viewBox="0 0 512 512"><path d="M23.68,6.65a12,12,0,0,0-17,17L488.32,505.35a12,12,0,1,0,17-17Z"/><path d="M184.74,148.73A84.31,84.31,0,0,1,222.3,170.5l8.5,8.49v0L333,281.19a.52.52,0,0,1,.11.1l8.41,8.4a84.78,84.78,0,0,1,21.77,37.57,12.05,12.05,0,0,0,11.62,8.89,11.82,11.82,0,0,0,3.15-.42A12,12,0,0,0,386.53,321a108.49,108.49,0,0,0-28-48.29h0l68.12-68.12a48.16,48.16,0,1,0,68.11-68.11L375.57,17.24c-18.2-18.23-49.95-18.18-68.11,0a48.15,48.15,0,0,0,0,68.11l-68.13,68.12h0a108.41,108.41,0,0,0-48.33-28,12,12,0,0,0-6.26,23.26ZM324.49,34.25a24.09,24.09,0,0,1,34.05,0l119.2,119.21a24.08,24.08,0,1,1-34.06,34.05l-59.59-59.6L333,76.83h0l-8.5-8.51a24.08,24.08,0,0,1,0-34.07Zm0,68.13,41.78,41.78,43.36,43.36-68.11,68.13-42.58-42.58L256.36,170.5Z"/><path d="M365.48,398.77a12,12,0,0,0-16,1.08l-110-110c-.08-.09-.15-.18-.23-.26l-16.93-16.93-.21-.18-110-110a12,12,0,0,0-15.73-18.18,106.81,106.81,0,0,0-10.35,9.13,12,12,0,0,0,0,17L197.15,281.57,6.3,488.67a12,12,0,0,0,17,17L230.44,314.86,341.52,425.94a12,12,0,0,0,17,0,111.88,111.88,0,0,0,9.06-10.27A12,12,0,0,0,365.48,398.77Z"/></svg>