<svg id="圖層_1" data-name="圖層 1" xmlns="http://www.w3.org/2000/svg" viewBox="0 0 512 512"><path d="M494.77,136.44,375.58,17.23a48.18,48.18,0,0,0-68.13,68.13h0l-68.12,68.1h0a108.4,108.4,0,0,0-153.28,0,12,12,0,0,0,0,17L197.15,281.58,6.31,488.67a12,12,0,0,0,17,17l207.1-190.83L341.52,425.94a12,12,0,0,0,17,0,108.52,108.52,0,0,0,0-153.26h0l68.11-68.12a48.16,48.16,0,1,0,68.11-68.12ZM349.43,399.79,239.66,290c-.12-.12-.23-.26-.35-.38l-16.93-16.93c-.13-.13-.27-.24-.4-.36L112.22,162.58c32.15-24.18,81.09-21.08,110.09,7.91L341.52,289.71A84.44,84.44,0,0,1,349.43,399.79Zm-7.91-144.15-85.16-85.15,68.13-68.1,85.14,85.14Zm136.23-68.11a24.11,24.11,0,0,1-34.06,0l-8.5-8.49v0L333,76.84c-.11-.11-.23-.21-.35-.31l-8.19-8.19a24.1,24.1,0,0,1,34.08-34.08l119.2,119.21A24.13,24.13,0,0,1,477.75,187.53Z"/><path d="M15.18,316.21H63.34v48.16a12,12,0,0,0,24.09,0V316.21h48.16a12,12,0,1,0,0-24.09H87.43V244a12,12,0,1,0-24.09,0v48.16H15.18a12,12,0,0,0,0,24.09Z"/></svg>