<svg id="圖層_1" data-name="圖層 1" xmlns="http://www.w3.org/2000/svg" viewBox="0 0 512 512"><path d="M494.77,136.42,375.56,17.21a48.17,48.17,0,1,0-68.11,68.13h0l-68.12,68.12a108.49,108.49,0,0,0-153.27,0,12,12,0,0,0,0,17L197.13,281.55,6.31,488.66a12,12,0,0,0,17,17L230.42,314.84,341.5,425.92a12,12,0,0,0,17,0,108.35,108.35,0,0,0,0-153.26h0l68.13-68.14h0a48.16,48.16,0,1,0,68.11-68.11ZM366.2,349.29a83.65,83.65,0,0,1-16.77,50.49L239.57,289.93c-.09-.1-.18-.21-.28-.31l-16.94-16.93a4.14,4.14,0,0,0-.38-.35L112.22,162.58a84.38,84.38,0,0,1,110.09,7.91l57.8,57.8L333,281.18h0l8.5,8.5A83.75,83.75,0,0,1,366.2,349.29Zm-24.7-93.66-42.57-42.57-42.57-42.57,68.11-68.13,85.14,85.15Zm136.25-68.12c-9.15,9.14-25,9.09-34.06,0L324.47,68.31a24.09,24.09,0,0,1,34.06-34.07L477.75,153.45A24.13,24.13,0,0,1,477.75,187.51Z"/><path d="M15.18,316.2H135.59a12,12,0,1,0,0-24.09H15.18a12,12,0,0,0,0,24.09Z"/></svg>