<svg id="圖層_1" data-name="圖層 1" xmlns="http://www.w3.org/2000/svg" viewBox="0 0 512 512"><path d="M508.85,121.48a35.9,35.9,0,0,0-10.58-25.54L416.07,13.7A36.38,36.38,0,0,0,390.53,3.11H39.25A36.17,36.17,0,0,0,3.12,39.26v433.5a36.17,36.17,0,0,0,36.13,36.13h433.5a36.17,36.17,0,0,0,36.13-36.13ZM364.38,27.21V159.67a12.06,12.06,0,0,1-12.05,12H135.58a12.06,12.06,0,0,1-12-12V27.21H364.38ZM99.46,484.8V268.05H412.54V484.8Zm373.29,0H436.63V256a12,12,0,0,0-12.05-12H87.42a12,12,0,0,0-12,12V484.8H39.25a12.05,12.05,0,0,1-12-12V39.26a12.06,12.06,0,0,1,12-12H99.46V159.67a36.16,36.16,0,0,0,36.12,36.12H352.33a36.17,36.17,0,0,0,36.13-36.12V27.2h2.07A12.09,12.09,0,0,1,399,30.72L481.24,113a12.2,12.2,0,0,1,3.53,8.51l0,351.28A12.05,12.05,0,0,1,472.75,484.8Z"/><path d="M292.12,153.65h36.13a12,12,0,0,0,12-12.05V57.31a12,12,0,0,0-12-12H292.12a12,12,0,0,0-12,12V141.6A12,12,0,0,0,292.12,153.65Zm12.05-84.3h12v60.21h-12Z"/></svg>