<svg id="圖層_1" data-name="圖層 1" xmlns="http://www.w3.org/2000/svg" viewBox="0 0 512 512"><path d="M403.32,174.42l-65.73-65.77a31.44,31.44,0,0,0-22.16-9.19h-281a31.34,31.34,0,0,0-31.31,31.3V477.56a31.36,31.36,0,0,0,31.31,31.32H381.21a31.35,31.35,0,0,0,31.31-31.32l0-281A31.41,31.41,0,0,0,403.32,174.42ZM292.1,123.55V227.1a7.24,7.24,0,0,1-7.22,7.23H111.5a7.24,7.24,0,0,1-7.24-7.23V123.55ZM85,484.79V316.21H330.65V484.79Zm296.22,0H354.73V304.17a12,12,0,0,0-12-12.05H73a12,12,0,0,0-12,12.05V484.79H34.43a7.23,7.23,0,0,1-7.22-7.23V130.77a7.23,7.23,0,0,1,7.22-7.22H80.17V227.1a31.37,31.37,0,0,0,31.33,31.31H284.88a31.34,31.34,0,0,0,31.3-31.31V123.58a7.25,7.25,0,0,1,4.36,2.08l65.78,65.8a7.31,7.31,0,0,1,2.09,5.1l0,281A7.23,7.23,0,0,1,381.21,484.79Z"/><path d="M236.71,224.7h28.91a12,12,0,0,0,12-12V145.23a12,12,0,0,0-12-12H236.71a12,12,0,0,0-12,12v67.42A12,12,0,0,0,236.71,224.7Zm12-67.43h4.82v43.34h-4.82Z"/><path d="M496.83,63.33H448.67V15.17a12,12,0,1,0-24.09,0V63.33H376.42a12,12,0,0,0,0,24.09h48.16v48.16a12,12,0,0,0,24.09,0V87.42h48.16a12,12,0,1,0,0-24.09Z"/></svg>