<svg id="圖層_1" data-name="圖層 1" xmlns="http://www.w3.org/2000/svg" viewBox="0 0 512 512"><path d="M27.21,400.5a12,12,0,0,0,24.08,0v-12a12,12,0,0,0-24.08,0Z"/><path d="M27.21,219.88a12,12,0,0,0,24.08,0V195.79a12,12,0,0,0-24.08,0Z"/><path d="M27.21,316.21a12,12,0,1,0,24.08,0V292.12a12,12,0,0,0-24.08,0Z"/><path d="M39.25,135.58a12,12,0,0,0,12-12v-12a12,12,0,1,0-24.08,0v12A12,12,0,0,0,39.25,135.58Z"/><path d="M400.5,460.71h-12a12,12,0,1,0,0,24.08h12a12,12,0,0,0,0-24.08Z"/><path d="M316.21,460.71H292.12a12,12,0,0,0,0,24.08h24.09a12,12,0,1,0,0-24.08Z"/><path d="M219.88,460.71H195.79a12,12,0,1,0,0,24.08h24.09a12,12,0,0,0,0-24.08Z"/><path d="M123.54,460.71h-12a12,12,0,1,0,0,24.08h12a12,12,0,0,0,0-24.08Z"/><path d="M472.75,135.58a12,12,0,0,0,12-12v-12a12,12,0,1,0-24.08,0v12A12,12,0,0,0,472.75,135.58Z"/><path d="M460.71,219.88a12,12,0,0,0,24.08,0V195.79a12,12,0,1,0-24.08,0Z"/><path d="M460.71,316.21a12,12,0,1,0,24.08,0V292.12a12,12,0,0,0-24.08,0Z"/><path d="M460.71,400.5a12,12,0,0,0,24.08,0v-12a12,12,0,0,0-24.08,0Z"/><path d="M123.54,27.21h-12a12,12,0,0,0,0,24.08h12a12,12,0,1,0,0-24.08Z"/><path d="M219.88,27.21H195.79a12,12,0,1,0,0,24.08h24.09a12,12,0,0,0,0-24.08Z"/><path d="M316.21,27.21H292.12a12,12,0,0,0,0,24.08h24.09a12,12,0,1,0,0-24.08Z"/><path d="M400.5,27.21h-12a12,12,0,1,0,0,24.08h12a12,12,0,1,0,0-24.08Z"/><path d="M63.33,3.12H15.17a12,12,0,0,0-12,12.05V63.33a12,12,0,0,0,12.05,12H63.33a12,12,0,0,0,12-12V15.17A12,12,0,0,0,63.33,3.12Zm-12,48.17H27.21V27.21H51.29Z"/><path d="M496.83,3.12H448.67a12,12,0,0,0-12,12.05V63.33a12,12,0,0,0,12,12h48.16a12,12,0,0,0,12.05-12V15.17A12,12,0,0,0,496.83,3.12Zm-12,48.17H460.71V27.21h24.08Z"/><path d="M63.33,436.63H15.17a12,12,0,0,0-12,12v48.16a12,12,0,0,0,12.05,12.05H63.33a12,12,0,0,0,12-12.05V448.67A12,12,0,0,0,63.33,436.63Zm-12,48.16H27.21V460.71H51.29Z"/><path d="M496.83,436.63H448.67a12,12,0,0,0-12,12v48.16a12,12,0,0,0,12,12.05h48.16a12,12,0,0,0,12.05-12.05V448.67A12,12,0,0,0,496.83,436.63Zm-12,48.16H460.71V460.71h24.08Z"/></svg>