<svg id="圖層_1" data-name="圖層 1" xmlns="http://www.w3.org/2000/svg" viewBox="0 0 512 512"><path d="M424.58,340.29a84.24,84.24,0,0,0-69.18,36.23l-188-94a84,84,0,0,0,0-53.06l188-94A84,84,0,1,0,344.59,114l-188,94a84.29,84.29,0,1,0,0,96.12l188,94a84.29,84.29,0,1,0,80-57.76Zm0-313.08a60.21,60.21,0,1,1-53.64,87.49l-.17-.38c-.09-.18-.2-.35-.3-.53a60.2,60.2,0,0,1,54.11-86.58Zm-337.16,289a60.24,60.24,0,1,1,54.64-35,11.06,11.06,0,0,0-1,1.59,11.83,11.83,0,0,0-.7,1.75A60.25,60.25,0,0,1,87.42,316.21ZM424.58,484.79A60.18,60.18,0,0,1,370,399.13a13,13,0,0,0,.83-1.41,12.8,12.8,0,0,0,.59-1.44,60.2,60.2,0,1,1,53.12,88.51Z"/></svg>