<svg id="圖層_1" data-name="圖層 1" xmlns="http://www.w3.org/2000/svg" viewBox="0 0 512 512"><path d="M496.83,99.47H364.38V39.26A36.17,36.17,0,0,0,328.25,3.14H183.75a36.17,36.17,0,0,0-36.13,36.12V99.47H15.17a12,12,0,1,0,0,24.08H52.75l48.92,374.84a12.06,12.06,0,0,0,12,10.47l286.88,0a12,12,0,0,0,11.95-10.55L459.3,123.55h37.53a12,12,0,1,0,0-24.08ZM171.71,39.26a12.06,12.06,0,0,1,12-12h144.5a12.06,12.06,0,0,1,12,12V99.47H171.71Zm218.16,445.5-265.67,0L77,123.55H435Z"/><path d="M172,182.57A12.05,12.05,0,0,0,148,185l23.76,240.83a12.06,12.06,0,0,0,12,10.86c.4,0,.8,0,1.2-.06a12.05,12.05,0,0,0,10.81-13.17Z"/><path d="M340.34,182.61,317.17,423.44A12.07,12.07,0,0,0,328,436.58c.4,0,.78.06,1.18.06a12.06,12.06,0,0,0,12-10.89l23.17-240.84a12.05,12.05,0,0,0-10.84-13.13A12.28,12.28,0,0,0,340.34,182.61Z"/><path d="M256,171.72a12,12,0,0,0-12,12V424.6a12,12,0,0,0,24.08,0V183.76A12,12,0,0,0,256,171.72Z"/></svg>