<svg id="圖層_1" data-name="圖層 1" xmlns="http://www.w3.org/2000/svg" viewBox="0 0 512 512"><path d="M417.16,41.93a132.44,132.44,0,0,0-187.32,0L80.11,191.66V100.31a12,12,0,0,0-24.08,0V220.73a11.66,11.66,0,0,0,.06,1.18c0,.2.06.39.08.58s0,.39.09.58.11.46.17.69.07.3.12.45.16.47.24.7.09.27.15.4.21.48.33.71a3.78,3.78,0,0,0,.17.35,7,7,0,0,0,.44.75,2.26,2.26,0,0,0,.16.26,9.07,9.07,0,0,0,.69.94h0a11.93,11.93,0,0,0,1.74,1.74h0a9.07,9.07,0,0,0,.94.69,2.26,2.26,0,0,0,.26.16c.24.15.49.31.75.44l.35.17c.23.12.47.23.71.33l.39.15c.24.08.47.17.71.24s.3.08.45.12l.69.17c.19,0,.38.06.57.09l.59.08a11.12,11.12,0,0,0,1.16.06H188.49a12,12,0,0,0,0-24.08H97.14L246.86,59A108.38,108.38,0,1,1,400.14,212.21L124.05,488.31a12,12,0,1,0,17,17l276.09-276.1a132.41,132.41,0,0,0,0-187.31Z"/></svg>