<svg id="圖層_1" data-name="圖層 1" xmlns="http://www.w3.org/2000/svg" viewBox="0 0 512 512"><path d="M496.83,292.89H15.17a12,12,0,0,0-12,12V497.6a12,12,0,0,0,12.05,12H496.83a12,12,0,0,0,12.05-12V304.93A12,12,0,0,0,496.83,292.89Zm-12,192.67H27.21V317H484.79Z"/><path d="M76.25,449.43a12,12,0,0,0,12-12V365.14a12,12,0,0,0-24.09,0v72.25A12,12,0,0,0,76.25,449.43Z"/><path d="M128,449.43a12,12,0,0,0,12-12V365.14a12,12,0,0,0-24.08,0v72.25A12,12,0,0,0,128,449.43Z"/><path d="M179.68,449.43a12,12,0,0,0,12-12V365.14a12,12,0,1,0-24.08,0v72.25A12,12,0,0,0,179.68,449.43Z"/><path d="M358.35,419.33h0a18.06,18.06,0,0,0,18.06-18.06h0a18.06,18.06,0,0,0-18.06-18.07h0a18.06,18.06,0,0,0-18.06,18.07h0A18.06,18.06,0,0,0,358.35,419.33Z"/><path d="M425.29,419.33h0a18.07,18.07,0,0,0,18.06-18.06h0a18.07,18.07,0,0,0-18.06-18.07h0a18.06,18.06,0,0,0-18.06,18.07h0A18.06,18.06,0,0,0,425.29,419.33Z"/><path d="M170.84,111.58a12,12,0,0,0,8.51-3.53L244,43.47V252.81a12,12,0,0,0,24.08,0V43.47l64.58,64.58a12,12,0,0,0,17-17L264.58,6c-.31-.31-.64-.61-1-.89h0a9.07,9.07,0,0,0-.94-.69,2.26,2.26,0,0,0-.26-.16,8,8,0,0,0-.74-.44,2.92,2.92,0,0,0-.36-.17c-.23-.12-.46-.23-.7-.33l-.4-.15c-.24-.08-.47-.17-.71-.24L259,2.76l-.68-.17-.59-.09-.57-.08a11.83,11.83,0,0,0-2.38,0l-.57.08-.59.09-.68.17c-.15,0-.3.07-.45.12s-.47.16-.71.24l-.4.15c-.24.1-.47.21-.7.33a2.92,2.92,0,0,0-.36.17,8,8,0,0,0-.74.44,2.26,2.26,0,0,0-.26.16,9.07,9.07,0,0,0-.94.69h0c-.34.28-.67.58-1,.89L162.32,91a12,12,0,0,0,8.52,20.55Z"/></svg>