<svg id="圖層_1" data-name="圖層 1" xmlns="http://www.w3.org/2000/svg" viewBox="0 0 512 512"><path d="M505.35,488.32,340.2,323.18a191.84,191.84,0,0,0,48.26-127.39C388.46,89.56,302,3.12,195.79,3.12S3.12,89.56,3.12,195.79,89.56,388.46,195.79,388.46A191.84,191.84,0,0,0,323.18,340.2L488.32,505.35a12,12,0,1,0,17-17ZM27.21,195.79c0-93,75.63-168.58,168.58-168.58s168.59,75.62,168.59,168.58a168,168,0,0,1-48.19,117.87,10.85,10.85,0,0,0-2.53,2.53,168,168,0,0,1-117.87,48.19C102.84,364.38,27.21,288.75,27.21,195.79Z"/><path d="M292.12,183.75H207.83V99.46a12,12,0,0,0-24.08,0v84.29H99.46a12,12,0,1,0,0,24.08h84.29v84.29a12,12,0,1,0,24.08,0V207.83h84.29a12,12,0,1,0,0-24.08Z"/></svg>