<svg id="圖層_1" data-name="圖層 1" xmlns="http://www.w3.org/2000/svg" xmlns:xlink="http://www.w3.org/1999/xlink" viewBox="0 0 650 650"><defs><style>.cls-1{fill:none;}.cls-2{clip-path:url(#clip-path);}.cls-3{fill:#fff;}</style><clipPath id="clip-path"><rect class="cls-1" width="650" height="650"/></clipPath></defs><title>工作區域 4 複本</title><g class="cls-2"><path class="cls-3" d="M475,303.8c0-67.12-67.29-121.72-150-121.72S175,236.68,175,303.8c0,60.18,53.36,110.57,125.45,120.1,4.88,1.05,11.53,3.22,13.21,7.4,1.51,3.79,1,9.73.49,13.56,0,0-1.76,10.58-2.14,12.84-.66,3.79-3,14.83,13,8.09s86.38-50.87,117.85-87.09h0C464.59,354.86,475,330.67,475,303.8ZM272.08,339.64a2.92,2.92,0,0,1-2.92,2.92h-42a2.89,2.89,0,0,1-2-.81l-.05,0,0,0a2.9,2.9,0,0,1-.81-2h0V274.29a2.92,2.92,0,0,1,2.92-2.92h10.52a2.92,2.92,0,0,1,2.92,2.92v51.9h28.59a2.93,2.93,0,0,1,2.92,2.93Zm25.36,0a2.92,2.92,0,0,1-2.92,2.92H284a2.92,2.92,0,0,1-2.92-2.92V274.29a2.92,2.92,0,0,1,2.92-2.92h10.52a2.92,2.92,0,0,1,2.92,2.92Zm72.42,0a2.91,2.91,0,0,1-2.92,2.92H356.42a3.08,3.08,0,0,1-.75-.1h0l-.2-.06-.09,0-.14-.06-.14-.06-.08-.05-.18-.11,0,0a2.81,2.81,0,0,1-.74-.72l-30-40.5v38.81a2.92,2.92,0,0,1-2.92,2.92H310.6a2.92,2.92,0,0,1-2.93-2.92V274.29a2.93,2.93,0,0,1,2.93-2.92h10.77l.15,0,.13,0,.16,0,.11,0,.17.06.09,0,.17.07.09.05a.83.83,0,0,1,.16.09l.09.05.15.1.08.06.15.13.06.05.17.18,0,0a3.4,3.4,0,0,1,.23.3l29.95,40.45V274.29a2.92,2.92,0,0,1,2.92-2.92h10.52a2.92,2.92,0,0,1,2.92,2.92ZM428,284.81a2.91,2.91,0,0,1-2.91,2.92H396.46v11h28.59a2.92,2.92,0,0,1,2.91,2.93v10.52a2.91,2.91,0,0,1-2.91,2.92H396.46V326.2h28.59a2.91,2.91,0,0,1,2.91,2.92v10.52a2.91,2.91,0,0,1-2.91,2.92H383a2.9,2.9,0,0,1-2-.82l0,0,0,0a2.91,2.91,0,0,1-.82-2h0V274.29h0a2.89,2.89,0,0,1,.81-2l.05-.06,0,0a2.91,2.91,0,0,1,2-.82h42a2.91,2.91,0,0,1,2.91,2.92Z"/></g></svg>