<svg id="圖層_1" data-name="圖層 1" xmlns="http://www.w3.org/2000/svg" xmlns:xlink="http://www.w3.org/1999/xlink" viewBox="0 0 650 650"><defs><style>.cls-1{fill:none;}.cls-2{clip-path:url(#clip-path);}</style><clipPath id="clip-path"><rect class="cls-1" width="650" height="650"/></clipPath></defs><title>工作區域 3</title><g class="cls-2"><path d="M269.34,422.8c113.21,0,175.13-93.79,175.13-175.12,0-2.67,0-5.32-.18-8A125,125,0,0,0,475,207.86a122.68,122.68,0,0,1-35.35,9.68,61.78,61.78,0,0,0,27.06-34,123.34,123.34,0,0,1-39.09,14.94,61.61,61.61,0,0,0-104.89,56.14,174.74,174.74,0,0,1-126.85-64.31,61.59,61.59,0,0,0,19.06,82.16,61.1,61.1,0,0,1-27.94-7.7v.78a61.56,61.56,0,0,0,49.38,60.33,61.27,61.27,0,0,1-27.79,1.06,61.61,61.61,0,0,0,57.5,42.74A123.65,123.65,0,0,1,175,395.16a174.32,174.32,0,0,0,94.34,27.6"/></g></svg>