<svg id="圖層_1" data-name="圖層 1" xmlns="http://www.w3.org/2000/svg" xmlns:xlink="http://www.w3.org/1999/xlink" viewBox="0 0 650 650"><defs><style>.cls-1{fill:none;}.cls-2{clip-path:url(#clip-path);}</style><clipPath id="clip-path"><rect class="cls-1" width="650" height="650"/></clipPath></defs><title>工作區域 2</title><g class="cls-2"><path d="M475,361.21c0-41.68-40.31-75.68-89.95-75.68s-89.68,34-89.68,75.68,40.32,75.68,90,75.68a96.75,96.75,0,0,0,27.14-3.56,12.36,12.36,0,0,1,7.68.83l22.22,12.06a1.9,1.9,0,0,0,2.73-2.2l-4.39-17.82a6.67,6.67,0,0,1,2.74-7.13C462.66,405.09,475,384.52,475,361.21Zm-122-9.86A12.34,12.34,0,1,1,365.31,339,12.3,12.3,0,0,1,353,351.35Zm60.61,0A12.34,12.34,0,1,1,425.91,339,12.47,12.47,0,0,1,413.58,351.35Z"/><path d="M288,361.49c0-46.34,43.88-83.92,98.17-83.92h4.12c-8.79-41.95-53.2-74-106.68-74-60.06,0-108.59,40-108.59,89.67,0,27.42,15.09,52.1,38.67,68.55a4.88,4.88,0,0,1,1.92,4.94l-8.22,29.06a2.46,2.46,0,0,0,3.56,2.74L243,379.31a8.2,8.2,0,0,1,7.13-.83,134.91,134.91,0,0,0,33.46,4.39,75.7,75.7,0,0,0,7.68-.27,68.8,68.8,0,0,1-3.3-21.11ZM320.06,251a14.53,14.53,0,1,1-14.53,14.53A14.62,14.62,0,0,1,320.06,251ZM247.12,280a14.53,14.53,0,1,1,14.53-14.53A14.44,14.44,0,0,1,247.12,280Z"/></g></svg>