<svg xmlns="http://www.w3.org/2000/svg" viewBox="0 0 1620.39 512.9"><defs><style>.cls-1{fill:#643232;}</style></defs><title>資產 1</title><g id="圖層_2" data-name="圖層 2"><g id="圖層_1-2" data-name="圖層 1"><path class="cls-1" d="M390.43,174.1q-4.31,6-13.34,17-4.3,5.39-13.12,16.57Q348.68,227,340.09,236.91a183.06,183.06,0,0,0,24.09-4.52l34.42-8.6a145.7,145.7,0,0,1,34.63-4.3q29.47,0,48.73,17.31t19.25,43.78q0,37.86-32.16,66.47T394.3,375.66q-31.2,0-55.5-15.17t-62.38-58.4l-4.52,4.09q-79.59,69.9-146.06,69.91-54.65,0-90.24-34.31T0,255q0-57.64,44.1-90.78Q78.73,138,120.89,138q35.07,0,66.47,24.74,19.78,15.7,69.91,76.36,16.35,19.8,28.4,33.56l4.95,5.38a178.77,178.77,0,0,0,18.07-18.07q-31.2-20.22-31.2-57,0-22.36,22.81-22.37-14,15.93-14,29,0,12.48,10.11,20.55t25.82,8.06q1.71,0,6.45-.43l1.29-1.51q10.75-12,34.42-41.73t30.76-40l7.31-10.75,3.87-5.38q.87-1.08,2.8-4.09l7.53,2.37a33.45,33.45,0,0,0-4.09,17q0,14.64,12.8,28.29T452,195.61q14.19,0,24.31-12.8t10.11-30.87q0-26.24-18.5-40.33T414.73,97.52q-37.43,0-151.65,14.41-51.63,6.67-76.58,6.67-22.38,0-32.48-7.1l1.29-4.3q7.31-24.3,12.48-46.46l8,1.72a69.11,69.11,0,0,0-2.15,15.05q0,14.64,29.68,14.63,18.28,0,71.2-7.1Q379,71.29,416.89,71.28q40.44,0,62.92,17t22.47,47.54q0,49.91-46.67,71.63-17.64,8.17-24.1,8.18Q418.18,215.62,390.43,174.1ZM271,296.28l-1.94-2.15q-12.69-14.42-32.69-38.93-48.84-60.45-77-81.85t-58.73-21.41q-36.57,0-61.52,27.21T14.2,246.59q0,46.26,38,80.13T142,360.6Q201.78,360.6,271,296.28ZM296,284.45a598.78,598.78,0,0,0,42.81,42.81q37.43,34.64,71.63,34.63,31.19,0,54.21-21.3t23-50.12q0-20.85-13.77-33.77t-35.71-12.91q-17,0-64.53,11.84-29,7.31-45.18,7.31a54.45,54.45,0,0,1-10.75-1.08,19.83,19.83,0,0,0-2.15,2.37l-8.18,8.6-9.25,9.26C297.86,282.37,297.14,283.16,296,284.45Z"/><path class="cls-1" d="M1053.51,242.72q10.74,6.67,10.75,24.31,0,27.75-23.23,61.09-41.52,60-94.87,60-38.71,0-63.56-25.59t-24.85-65.4q0-43.67,22.37-86.79A223.76,223.76,0,0,1,941,136.88q72.71-57.21,174-57.21,46.9,0,74.22,18.28t27.32,49.9q0,34.86-33.88,60.56t-79.48,25.7q-26.68,0-97.67-17.42Q966.17,207,947.89,207a81.5,81.5,0,0,0-28,5.16L922.5,209q14.41-16.35,21.08-25.6,10.11-.85,14.2-.86,25.59,0,98.09,19.57,50.55,13.77,75.72,13.77,29.48,0,49.58-16.56t20.11-40.66q0-29-31.08-47.75t-79.27-18.72a226.87,226.87,0,0,0-82.71,15.92q-41,15.91-68.72,43-59.16,57.66-59.16,131.43,0,38.3,22.26,60.77t60.13,22.48q39.15,0,65-32.91T1053.51,250Z"/><path class="cls-1" d="M569.29,367.28q0,5.79,12.65,5.8,2.84,0,2.84,3.54,0,4.2-14.3,4.2-16.25,0-16.25-15.49,0-18.06,48-75.5l-58.72,48Q491.42,380.39,468,380.39q-2.58,0-2.58-2.88c0-2.65,1.44-4.27,4.3-4.86a81.68,81.68,0,0,0,24.74-8.81q14-7.72,59.37-43.58l65.83-55.17a36.24,36.24,0,0,1,11.61-1.5q7.32,0,7.32,8.37,0,9-34.64,48.63T569.29,367.28Z"/><path class="cls-1" d="M724.82,315.21q59.14-50.11,83-50.12,15.27,0,15.27,14.41,0,12.71-34.63,45.93t-34.63,40.12q0,6.88,7.85,7.42t7.85,3.76q0,4.31-15.59,4.31-18,0-18-16,0-13.36,17.21-33.85,8.82-10.56,31.84-32.54,17.21-16.4,17.21-19.84c0-1.86-1.3-2.8-3.88-2.8q-12.25,0-53.34,32.77Q710.83,336,694.27,353.45q-21.09,22.21-25.6,22.21-3.43,0-6.24-3.33a10.8,10.8,0,0,1-2.79-7q0-4.95,29.68-40l35.5-41.94-55.07,44.74-40.66,31.19q-31,21.07-47.54,21.08-2.79,0-2.79-2.58,0-3.87,6-5.16a85.93,85.93,0,0,0,19.14-6.46q15.71-6.88,64.11-46,43.44-35.28,62.59-54a67.37,67.37,0,0,1,10.11-7.75,20.73,20.73,0,0,1,7.32-1.29,13.5,13.5,0,0,1,7.42,2.48q3.76,2.47,3.76,5.91Q759.23,269.39,724.82,315.21Z"/><path class="cls-1" d="M1113.52,335.14q-57.43,45.26-79.16,45.25-2.58,0-2.58-2.88,0-4,5.16-4.86,20.24-3.22,55.93-31.19l27.75-21.73,44.53-35.49q30.54-21.09,52.27-21.08,16.14,0,18.07,16.16,8.38-8,11.62-8,7.1,0,7.1,5.83,0,7.54-33,46.12t-33,44.93q0,4.44,7.09,4.66c4.74.14,7.1,1.39,7.1,3.74q0,4.44-14.63,4.43-14.4,0-14.41-12.72,0-10.12,11.62-28.88l-26.68,22.64q-19.58,14.66-31.19,14.65-18.49,0-18.5-18.74Q1108.57,347.64,1113.52,335.14ZM1220.43,272q-12.69,0-52.48,37.95t-39.8,50.67q0,5.82,5.59,5.82,12.27,0,52.6-37.19t40.33-50.13Q1226.67,272,1220.43,272Z"/><path class="cls-1" d="M1337.88,285.1l-72.71,59.8q-43.44,35.49-66.25,35.49-2.58,0-2.58-2.88c0-2.36,1.86-4,5.59-4.86a84.65,84.65,0,0,0,18.5-6.45q17-7.31,64.32-46,38.71-31.38,63.67-54.59,33.76-31.38,127.78-137.12,12-13.56,18.93-13.56,7.95,0,8,8,0,5.38-4.09,11.62l-36.14,40.66-42.38,46.89-86.9,100.45q15.27-.21,15.27,18.08,0,33.34-48.61,101.74Q1249.9,512.9,1220,512.9a17.36,17.36,0,0,1-14.41-6.88,25.45,25.45,0,0,1-5.38-16.14q0-10.54,7.1-27.1,11.19-25.81,61.3-91ZM1328,381q-23.87-.44-23.87-22.59-89.91,111.85-89.92,137.24,0,9.46,8.39,9.47,19.8,0,58.94-51.63Q1313.14,411.8,1328,381Zm2.8-7.1q9.46-20,9.47-34.42,0-10.11-8-10.11-7.11,0-14,11.62-6.24,10.75-6.23,18.71,0,14.2,15,14.2Z"/><path class="cls-1" d="M1485.7,345.54q-10.77,2.58-40.44,19.79-26.25,15.06-39.8,15.06-2.58,0-2.58-2.88c0-2.65,1.87-4.27,5.59-4.86q13.13-2.14,37-16,26.25-15,42.81-18.81,9.88-23.88,40.87-50.12,32.91-28.18,56.14-28.18,17.22,0,17.22,14.63,0,19.14-36.36,41.73a258,258,0,0,1-54.64,26.24,35.1,35.1,0,0,0-3,14.31q0,11.11,7.8,14.53,3.9,1.5,14.73,1.92,7.8.22,7.8,3.75,0,5.5-26.56,5.5-28.08,0-28.08-24.31A55.72,55.72,0,0,1,1485.7,345.54Zm28.39-12q19.8-9.69,41.73-26.25,29.27-21.72,29.26-34.42,0-5.16-4.73-5.16-14,0-38.08,25.81Q1520.76,316.94,1514.09,333.5Z"/><path class="cls-1" d="M630,225.56c-5.18-9.12-1.66-23.44,9-34.14,12.16-12.16,29-15.06,37.55-6.48l0,0c-1.72,5-7.19,15.63-23.58,21.38C638,211.62,632.24,220,630,225.56Z"/><path class="cls-1" d="M671.56,199a45.42,45.42,0,0,1-17.39,10.54c-16,5.62-20.5,14.82-21.75,19.28l.16.17c8.59,8.59,25.4,5.69,37.55-6.47,10.82-10.82,14.3-25.31,8.89-34.43A35,35,0,0,1,671.56,199Z"/><path class="cls-1" d="M100.41,61c-29.24,21-33.88,45.39-34.37,56.34l.09,0c22.09,12,53.82-3.58,70.88-34.88C152,55,150.64,24.44,135,9.32,133.81,21.69,127.2,41.74,100.41,61Z"/><path class="cls-1" d="M57,38.94c-15.18,27.85-13.6,58.72,2.49,73.67A72.52,72.52,0,0,1,68,86.55c5.5-10.09,14.33-21,28.41-31.15,28.57-20.56,32.09-41.48,32-51.08l-.43-.25C105.79-8,74.05,7.64,57,38.94Z"/><path class="cls-1" d="M1582.72,103.75c20.59-14.17,24.16-31,24.66-38.57l-.06,0c-15.15-8.67-37.38,1.7-49.67,23.16-10.82,18.9-10.3,40.09.33,50.8C1559,130.54,1563.86,116.73,1582.72,103.75Z"/><path class="cls-1" d="M1611.85,68.56a50.2,50.2,0,0,1-6.25,18c-4,6.93-10.24,14.38-20.15,21.2-20.12,13.84-22.86,28.3-22.91,35l.3.19c15.15,8.67,37.38-1.7,49.66-23.16C1623.44,100.6,1622.79,79.17,1611.85,68.56Z"/></g></g></svg>