<?xml version="1.0" encoding="utf-8"?>
<!-- Generator: Adobe Illustrator 25.0.1, SVG Export Plug-In . SVG Version: 6.00 Build 0)  -->
<svg version="1.1" id="圖層_1" xmlns="http://www.w3.org/2000/svg" xmlns:xlink="http://www.w3.org/1999/xlink" x="0px" y="0px"
	 viewBox="0 0 1000 1000" style="enable-background:new 0 0 1000 1000;" xml:space="preserve">
<style type="text/css">
	.st0{fill:#5C3327;}
</style>
<path class="st0" d="M547.1,650.7c-1.4-4-4.1-7.4-7.7-9.7c-4-3-8.9-4.6-13.8-4.6h-51.2c-5,0-9.8,1.6-13.8,4.5
	c-3.6,2.3-6.3,5.7-7.7,9.7l-0.1,0.5l0,0c-0.6,2-1,4-1,6.1c0,0.5,0,1.1,0.1,1.6c0.1,1,0.1,2.1,0,3.1c-0.1,1.7-0.4,3.3-0.8,5
	c-2,7.6-7,14.1-13.9,18l-6.5,3.4C397,705.1,361.6,718.5,325,728C219.5,755.5,112,750.7,5.4,713.5c-1.2-0.4-2.6-0.3-3.7,0.5
	c-1.1,0.7-1.8,1.9-1.7,3.2v24.5c0,4.1,2.6,7.7,6.5,8.9c59.5,19.4,121.7,29.4,184.3,29.6c48.3,0,96.4-6.1,143.1-18.3
	c48.6-12.6,95.3-31.6,138.9-56.5c3.5-2,6.8-3.9,9.8-5.8c10.7-6.5,24.2-6.5,34.9,0c3,1.9,6.3,3.8,9.8,5.8
	c43.6,24.9,90.3,43.9,138.9,56.5c46.7,12.2,94.8,18.3,143.1,18.3c62.5-0.2,124.7-10.1,184.2-29.5c3.9-1.2,6.5-4.9,6.5-8.9v-24.6
	c0-1.3-0.6-2.5-1.7-3.2c-1.1-0.8-2.4-1-3.7-0.5c-106.5,37.1-214,42-319.5,14.4c-36.4-9.4-71.8-22.7-105.4-39.7l-6.7-3.5
	c-6.9-3.8-11.9-10.3-13.8-18c-0.4-1.6-0.7-3.3-0.8-5c-0.1-1-0.1-2.1,0-3.1c0-0.6,0.1-1.1,0.1-1.7c0-2.1-0.3-4.1-1-6.1"/>
<g>
	<g>
		<path class="st0" d="M858.2,601.5h-68.3c-0.7,0-1.3,0.6-1.4,1.4v52.3c0,0.7,0.6,1.3,1.4,1.4h88.4c0.7,0,1.3-0.6,1.4-1.4v-52.3
			c0-0.7-0.6-1.3-1.4-1.4H858.2z M810,633.6v-9.3c0-0.7,0.6-1.3,1.4-1.4h45.5c0.7,0,1.3,0.6,1.4,1.4v9.3c0,0.7-0.6,1.3-1.4,1.4
			h-45.5c-0.7,0-1.3-0.5-1.3-1.2C810,633.7,810,633.7,810,633.6z"/>
		<path class="st0" d="M743.4,656.5h37.3c0.7,0,1.3-0.6,1.4-1.4v-52.3c0-0.7-0.6-1.3-1.4-1.4h-57.4c-0.7,0-1.3,0.6-1.4,1.4v52.3
			c0,0.7,0.6,1.3,1.4,1.4L743.4,656.5z M743.4,633.6v-9.3c0-0.7,0.6-1.3,1.4-1.4h14.4c0.7,0,1.3,0.6,1.4,1.4v9.3
			c0,0.7-0.6,1.3-1.4,1.4h-14.4C744,635,743.4,634.4,743.4,633.6C743.4,633.7,743.4,633.6,743.4,633.6z"/>
		<path class="st0" d="M878.4,500.1H772.6v-1.7l0,0c0-0.3-0.2-0.5-0.5-0.5h-40.3c-0.3,0-0.5,0.2-0.5,0.5c0,0,0,0,0,0l0,0v1.8h-7.9
			c-0.7,0-1.3,0.6-1.4,1.4V522c0,0.7,0.6,1.3,1.4,1.4h87.2c0.8,0,1.4,0.6,1.4,1.4c0,0.2-0.1,0.4-0.1,0.6l-5.5,11
			c-0.2,0.5-0.7,0.8-1.2,0.8h-81.7c-0.7,0-1.3,0.6-1.4,1.4v19.6c0,0.7,0.6,1.3,1.4,1.4h69.3c0.8,0,1.4,0.6,1.4,1.4
			c0,0.2-0.1,0.4-0.1,0.6l-4.2,8.6c-0.2,0.5-0.7,0.8-1.2,0.8h-65c-0.7,0-1.3,0.6-1.4,1.4v19.6c0,0.7,0.6,1.3,1.4,1.4h155.1
			c0.7,0,1.3-0.6,1.4-1.4v-19.6c0-0.7-0.6-1.3-1.4-1.4h-4.3l5.1-10.2c0,0,0-0.1,0.1-0.1c0,0,0,0,0,0c0.1-0.1,0.1-0.1,0.1-0.3
			c0.3-0.6,0.4-1.2,0.4-1.9l0,0v-20c0-0.7-0.6-1.3-1.4-1.4h-40.7c-0.8,0-1.4-0.6-1.4-1.4c0-0.2,0.1-0.4,0.1-0.6l5.5-11
			c0.2-0.5,0.7-0.8,1.2-0.8h35.2c0.7,0,1.3-0.6,1.4-1.4v-20.5C879.7,500.7,879.1,500.1,878.4,500.1z M850.5,559.5
			c0.8,0,1.4,0.6,1.4,1.4c0,0.2-0.1,0.4-0.1,0.6l-4.6,8.6c-0.2,0.4-0.7,0.7-1.2,0.7H821c-0.8,0-1.4-0.6-1.4-1.4
			c0-0.2,0.1-0.4,0.1-0.6l4.2-8.6c0.2-0.5,0.7-0.8,1.2-0.8L850.5,559.5L850.5,559.5z"/>
	</g>
	<path class="st0" d="M272.2,501.2H123.8c-1.6,0-2.8,1.3-2.8,2.8v147.7c0,1.6,1.3,2.8,2.8,2.8h148.4c1.6,0,2.8-1.3,2.8-2.8V504.1
		C275,502.5,273.7,501.2,272.2,501.2z M243.8,617c0,3.5-2.8,6.4-6.3,6.4c0,0,0,0,0,0h-78.9c-3.5,0-6.4-2.8-6.4-6.3c0,0,0,0,0,0
		v-78.2c0-3.5,2.8-6.4,6.3-6.4c0,0,0,0,0,0h78.9c3.5,0,6.4,2.8,6.4,6.3c0,0,0,0,0,0V617z"/>
	<g>
		<path class="st0" d="M776.6,340H840c1,0,1.8-0.8,1.8-1.8c0,0,0,0,0,0V227.7c0-1-0.8-1.8-1.8-1.8c0,0,0,0,0,0h-19.9
			c-1,0-1.8-0.8-1.8-1.8c0,0,0,0,0,0v-2.6c0-1-0.8-1.8-1.8-1.8c0,0,0,0,0,0h-44c-1,0-1.8,0.8-1.8,1.8c0,0,0,0,0,0v2.7
			c0,1-0.8,1.8-1.8,1.8c0,0,0,0,0,0h-19.7c-1,0-1.8,0.8-1.8,1.8c0,0,0,0,0,0v110.5c0,1,0.8,1.8,1.8,1.8c0,0,0,0,0,0L776.6,340
			L776.6,340z M776.6,310.2v-10.9c0-1,0.8-1.8,1.8-1.8c0,0,0,0,0,0h32.2c1,0,1.8,0.8,1.8,1.8c0,0,0,0,0,0v10.9c0,1-0.8,1.8-1.8,1.8
			c0,0,0,0,0,0h-32.2C777.4,312,776.6,311.2,776.6,310.2C776.6,310.2,776.6,310.2,776.6,310.2L776.6,310.2z M812.4,255.8v12.4
			c0,1-0.8,1.8-1.8,1.8c0,0,0,0,0,0h-32.2c-1,0-1.8-0.8-1.8-1.8c0,0,0,0,0,0v-12.4c0-1,0.8-1.8,1.8-1.8c0,0,0,0,0,0h32.2
			C811.6,254,812.4,254.8,812.4,255.8C812.4,255.8,812.4,255.8,812.4,255.8z"/>
		<path class="st0" d="M686.5,374.5h53.3c1,0,1.8,0.8,1.8,1.8c0,0.5-0.2,1-0.6,1.4c-15.9,12.6-34.8,21.2-54.8,24.8
			c-0.8,0.2-1.4,0.9-1.4,1.7v21.8c0,1,0.9,1.8,1.9,1.8c0.1,0,0.2,0,0.2,0c53.1-9.4,79.9-37.5,91-53.2h0.8v53.7c0,1,0.8,1.8,1.8,1.8
			c0,0,0,0,0,0h27.7c1,0,1.8-0.8,1.8-1.8c0,0,0,0,0,0v-53.6h0.8c11.1,15.6,37.9,43.8,91,53.2c1,0.2,1.9-0.5,2.1-1.5
			c0-0.1,0-0.2,0-0.3v-21.8c0-0.8-0.6-1.5-1.4-1.7c-20-3.6-38.9-12.1-54.8-24.8c-0.8-0.6-0.9-1.8-0.2-2.5c0.3-0.4,0.9-0.6,1.4-0.6
			h53.3c1,0,1.8-0.8,1.8-1.8c0,0,0,0,0,0v-22.1c0-1-0.8-1.8-1.8-1.8c0,0,0,0,0,0H686.6c-1,0-1.8,0.8-1.8,1.8c0,0,0,0,0,0v22.1
			C684.8,373.7,685.5,374.5,686.5,374.5C686.5,374.5,686.5,374.5,686.5,374.5z"/>
		<path class="st0" d="M737.8,243.2L686.9,232c-1-0.2-1.9,0.4-2.1,1.3c0,0.1,0,0.3,0,0.4v28.7c0,0.8,0.6,1.6,1.4,1.7l50.9,11.2
			c1,0.2,1.9-0.4,2.1-1.3c0-0.1,0-0.3,0-0.4v-28.7C739.2,244.1,738.6,243.4,737.8,243.2z"/>
		<path class="st0" d="M737,295.9l-50.9,11.2c-0.8,0.2-1.4,0.9-1.4,1.7v28.7c0,1,0.8,1.8,1.7,1.8c0.2,0,0.3,0,0.4-0.1l50.9-11.2
			c0.8-0.2,1.4-0.9,1.4-1.7v-28.7c0-1-0.8-1.8-1.8-1.8C737.3,295.9,737.1,295.9,737,295.9z"/>
		<path class="st0" d="M849.8,244.9v28.7c0,1,0.8,1.8,1.7,1.8c0.2,0,0.3,0,0.4-0.1l50.5-11.1c0.8-0.2,1.4-0.9,1.4-1.7v-28.7
			c0-1-0.8-1.8-1.7-1.8c-0.1,0-0.3,0-0.4,0l-50.5,11.1C850.4,243.3,849.8,244,849.8,244.9z"/>
		<path class="st0" d="M851.1,328.2l50.5,11.1c1,0.2,1.9-0.4,2.1-1.3c0-0.1,0-0.3,0-0.4v-28.7c0-0.8-0.6-1.6-1.4-1.7L851.9,296
			c-1-0.2-1.9,0.4-2.1,1.3c0,0.1,0,0.3,0,0.4v28.7C849.8,327.3,850.3,328,851.1,328.2z"/>
	</g>
	<g>
		<path class="st0" d="M600.7,225.6H383.1c-1,0-1.8,0.8-1.8,1.8V252c0,1,0.8,1.8,1.8,1.8h172.4c1,0,1.8,0.8,1.8,1.8v112.3
			c0,0.8-0.3,1.7-0.8,2.3c-14.8,19.5-35.9,33.3-59.8,39c-0.8,0.2-1.3,0.9-1.4,1.7v26.3c0,1,0.9,1.9,1.9,1.8c0.1,0,0.2,0,0.3,0
			c60.9-13.7,84.5-52.1,89.2-61c0.6-1.1,0.9-2.3,0.9-3.6V255.6c0-1,0.8-1.8,1.8-1.8h11.1c1,0,1.8-0.8,1.8-1.8v-24.7
			C602.5,226.4,601.7,225.6,600.7,225.6z"/>
		<path class="st0" d="M534.7,358.1v-77.8c0-2.3-1.9-4.2-4.2-4.2H405.5c-2.3,0-4.2,1.9-4.2,4.2v83.7c0,2.3,1.9,4.2,4.2,4.2h124.9
			c2.3,0,4.2-1.9,4.2-4.2L534.7,358.1L534.7,358.1z M435.4,304.4h65.3c2.3,0,4.2,1.9,4.2,4.2v27.2c0,2.3-1.9,4.2-4.2,4.2h-65.3
			c-2.3,0-4.2-1.9-4.2-4.2v-27.2C431.1,306.3,433,304.4,435.4,304.4z"/>
	</g>
	<path class="st0" d="M302.4,252.5v-25.2c0-1-0.8-1.8-1.8-1.8c0,0,0,0,0,0H98c-1,0-1.8,0.8-1.8,1.8c0,0,0,0,0,0v25.2
		c0,1,0.8,1.8,1.8,1.8c0,0,0,0,0,0h81.3c1,0,1.8,0.8,1.8,1.8c0,0,0,0,0,0v55.3c0,1-0.8,1.8-1.8,1.8c0,0,0,0,0,0H98
		c-1,0-1.8,0.8-1.8,1.8c0,0,0,0,0,0v25.2c0,1,0.8,1.8,1.8,1.8c0,0,0,0,0,0h81.3c1,0,1.8,0.8,1.8,1.8c0,0,0,0,0,0v54.8
		c0,1-0.8,1.8-1.8,1.8c0,0,0,0,0,0H98c-1,0-1.8,0.8-1.8,1.8c0,0,0,0,0,0v25.2c0,1,0.8,1.8,1.8,1.8c0,0,0,0,0,0h202.7
		c1,0,1.8-0.8,1.8-1.8c0,0,0,0,0,0v-25.2c0-1-0.8-1.8-1.8-1.8c0,0,0,0,0,0h-83.5c-1,0-1.8-0.8-1.8-1.8c0,0,0,0,0,0v-54.8
		c0-1,0.8-1.8,1.8-1.8c0,0,0,0,0,0h83.5c1,0,1.8-0.8,1.8-1.8c0,0,0,0,0,0v-25.2c0-1-0.8-1.8-1.8-1.8c0,0,0,0,0,0h-83.5
		c-1,0-1.8-0.8-1.8-1.8c0,0,0,0,0,0v-55.3c0-1,0.8-1.8,1.8-1.8c0,0,0,0,0,0h83.5C301.7,254.3,302.5,253.5,302.4,252.5
		C302.4,252.6,302.4,252.6,302.4,252.5z"/>
</g>
</svg>
