<?xml version="1.0" encoding="utf-8"?>
<!-- Generator: Adobe Illustrator 25.0.0, SVG Export Plug-In . SVG Version: 6.00 Build 0)  -->
<svg version="1.1" id="圖層_1" xmlns="http://www.w3.org/2000/svg" xmlns:xlink="http://www.w3.org/1999/xlink" x="0px" y="0px"
	 viewBox="0 0 513.1 141.4" style="enable-background:new 0 0 513.1 141.4;" xml:space="preserve">
<style type="text/css">
	.st0{fill:#796957;}
</style>
<g>
	<path class="st0" d="M48.2,44.7H4.4c-2.1,0-3.9,1.7-3.9,3.9c0,2.1,1.7,3.9,3.9,3.9h43.9c13.2,0,19.2,9.4,19.2,18.2
		s-6,18.2-19.2,18.2h-22c-8.9,0-25.8,5.4-25.8,26V137c0,2.1,1.7,3.9,3.9,3.9c2.1,0,3.9-1.8,3.9-3.9v-22.1
		c0-17.6,16.2-18.2,18.1-18.2h21.9c17.7,0,26.9-13.1,26.9-26C75.1,57.8,65.9,44.7,48.2,44.7z"/>
	<path class="st0" d="M92.1,0.5c-2.1,0-3.9,1.7-3.9,3.9v88.4c0,2.1,1.7,3.9,3.9,3.9c2.1,0,3.9-1.8,3.9-3.9V4.4
		C96,2.3,94.2,0.5,92.1,0.5z"/>
	<path class="st0" d="M179.8,44.7h-43.9c-8.9,0-25.8,5.4-25.8,26s16.9,26,25.8,26h21.9l0,0c2.1,0,3.9-1.8,3.9-3.9s-1.7-3.9-3.9-3.9
		h-21.9c-1.8,0-18.1-0.7-18.1-18.2s16.2-18.2,18.1-18.2h40v40.3c0,2.1,1.7,3.9,3.9,3.9c2.1,0,3.9-1.8,3.9-3.9V48.6
		C183.7,46.5,181.9,44.7,179.8,44.7z"/>
	<path class="st0" d="M201.7,44.7c-2.1,0-3.9,1.7-3.9,3.9v44.2c0,2.2,1.7,3.9,3.9,3.9s3.9-1.7,3.9-3.9V48.6
		C205.6,46.5,203.9,44.7,201.7,44.7z"/>
	<path class="st0" d="M267.5,44.7h-43.8c-2.1,0-3.9,1.7-3.9,3.9v44.2c0,2.2,1.7,3.9,3.9,3.9c2.1,0,3.9-1.7,3.9-3.9V52.5h40
		c1.9,0,18.1,0.6,18.1,18.2v22.1c0,2.2,1.7,3.9,3.9,3.9c2.1,0,3.9-1.8,3.9-3.9v-22C293.3,50.1,276.4,44.7,267.5,44.7z"/>
	<path class="st0" d="M399,44.7h-43.8c-2.1,0-3.9,1.7-3.9,3.9v44.2c0,2.1,1.7,3.9,3.9,3.9c2.1,0,3.9-1.8,3.9-3.9V52.5h25.1v40.3
		c0,2.1,1.7,3.9,3.9,3.9c2.1,0,3.9-1.8,3.9-3.9V52.5h7.1c1.8,0,18.1,0.6,18.1,18.2v22.1c0,2.1,1.7,3.9,3.9,3.9
		c2.1,0,3.9-1.8,3.9-3.9V70.7C424.8,50.1,408,44.7,399,44.7z"/>
	<path class="st0" d="M486.7,44.7h-21.9c-8.9,0-25.8,5.4-25.8,26s16.9,26,25.8,26h21.9c2.1,0,3.9-1.8,3.9-3.9s-1.7-3.9-3.9-3.9
		h-21.9c-1.7,0-15.5-0.6-17.7-14.3h61.6c2.1,0,3.9-1.7,3.9-3.9C512.5,61.7,507.1,44.7,486.7,44.7z M447.1,66.8
		c2.2-13.7,16.1-14.3,17.8-14.3h21.9c12.8,0,16.5,8.9,17.6,14.3H447.1z"/>
	<path class="st0" d="M333.3,66.8h-21.9c-2.1,0-3.9,1.7-3.9,3.9c0,2.2,1.7,3.9,3.9,3.9h21.9c2.1,0,3.9-1.7,3.9-3.9
		C337.1,68.5,335.4,66.8,333.3,66.8z"/>
</g>
</svg>
