<?xml version="1.0" encoding="utf-8"?>
<!-- Generator: Adobe Illustrator 27.0.0, SVG Export Plug-In . SVG Version: 6.00 Build 0)  -->
<svg version="1.1" id="圖層_1" xmlns="http://www.w3.org/2000/svg" xmlns:xlink="http://www.w3.org/1999/xlink" x="0px" y="0px"
	 viewBox="0 0 500 140" style="enable-background:new 0 0 500 140;" xml:space="preserve">
<style type="text/css">
	.st0{fill:#796957;}
</style>
<g>
	<path class="st0" d="M46.6,44.6H3.8c-2.1,0-3.8,1.7-3.8,3.8c0,2.1,1.7,3.8,3.8,3.8h42.9c12.9,0,18.7,9.2,18.7,17.8
		s-5.9,17.8-18.7,17.8H25.2C16.5,87.8,0,93,0,113.2v21.6c0,2.1,1.7,3.8,3.8,3.8c2.1,0,3.8-1.8,3.8-3.8v-21.6
		c0-17.2,15.8-17.8,17.7-17.8h21.4C64,95.4,72.9,82.6,72.9,70C72.8,57.4,63.9,44.6,46.6,44.6z"/>
	<path class="st0" d="M89.4,1.5c-2.1,0-3.8,1.7-3.8,3.8v86.3c0,2.1,1.7,3.8,3.8,3.8c2.1,0,3.8-1.8,3.8-3.8V5.3
		C93.2,3.2,91.5,1.5,89.4,1.5z"/>
	<path class="st0" d="M175.1,44.6h-42.9c-8.7,0-25.2,5.3-25.2,25.4s16.5,25.4,25.2,25.4h21.4l0,0c2.1,0,3.8-1.8,3.8-3.8
		c0-2.1-1.7-3.8-3.8-3.8h-21.4c-1.8,0-17.7-0.7-17.7-17.8s15.8-17.8,17.7-17.8h39.1v39.3c0,2.1,1.7,3.8,3.8,3.8
		c2.1,0,3.8-1.8,3.8-3.8V48.4C178.9,46.4,177.1,44.6,175.1,44.6z"/>
	<path class="st0" d="M196.4,44.6c-2.1,0-3.8,1.7-3.8,3.8v43.2c0,2.1,1.7,3.8,3.8,3.8c2.1,0,3.8-1.7,3.8-3.8V48.4
		C200.3,46.4,198.6,44.6,196.4,44.6z"/>
	<path class="st0" d="M260.7,44.6h-42.8c-2.1,0-3.8,1.7-3.8,3.8v43.2c0,2.1,1.7,3.8,3.8,3.8c2.1,0,3.8-1.7,3.8-3.8V52.2h39.1
		c1.9,0,17.7,0.6,17.7,17.8v21.6c0,2.1,1.7,3.8,3.8,3.8c2.1,0,3.8-1.8,3.8-3.8V70.1C285.9,49.9,269.4,44.6,260.7,44.6z"/>
	<path class="st0" d="M389.1,44.6h-42.8c-2.1,0-3.8,1.7-3.8,3.8v43.2c0,2.1,1.7,3.8,3.8,3.8c2.1,0,3.8-1.8,3.8-3.8V52.2h24.5v39.3
		c0,2.1,1.7,3.8,3.8,3.8c2.1,0,3.8-1.8,3.8-3.8V52.2h6.9c1.8,0,17.7,0.6,17.7,17.8v21.6c0,2.1,1.7,3.8,3.8,3.8
		c2.1,0,3.8-1.8,3.8-3.8V70C414.3,49.9,397.9,44.6,389.1,44.6z"/>
	<path class="st0" d="M474.7,44.6h-21.4c-8.7,0-25.2,5.3-25.2,25.4s16.5,25.4,25.2,25.4h21.4c2.1,0,3.8-1.8,3.8-3.8
		c0-2.1-1.7-3.8-3.8-3.8h-21.4c-1.7,0-15.1-0.6-17.3-14h60.1c2.1,0,3.8-1.7,3.8-3.8C499.9,61.2,494.6,44.6,474.7,44.6z M436,66.2
		c2.1-13.4,15.7-14,17.4-14h21.4c12.5,0,16.1,8.7,17.2,14H436z"/>
	<path class="st0" d="M324.9,66.2h-21.4c-2.1,0-3.8,1.7-3.8,3.8c0,2.1,1.7,3.8,3.8,3.8h21.4c2.1,0,3.8-1.7,3.8-3.8
		C328.6,67.9,327,66.2,324.9,66.2z"/>
</g>
</svg>
