<svg xmlns="http://www.w3.org/2000/svg" xmlns:xlink="http://www.w3.org/1999/xlink" viewBox="0 0 500 211.01"><defs><style>.cls-1{fill:none;}.cls-2{clip-path:url(#clip-path);}.cls-3{fill:#000;}</style><clipPath id="clip-path" transform="translate(0 -1.99)"><rect class="cls-1" width="500" height="215"/></clipPath></defs><g id="圖層_2" data-name="圖層 2"><g id="圖層_1-2" data-name="圖層 1"><g class="cls-2"><path class="cls-3" d="M73.94,32.34,86.56,2h21L94.92,32.34ZM0,210.43,63.39,57.75h21L21,210.43Z" transform="translate(0 -1.99)"/><path class="cls-3" d="M232.15,131.88q0-40.08,17.27-62.74T294,46.47a52.84,52.84,0,0,1,32.26,10.65q14.37,10.65,21.9,29.69t7.54,43.2q0,24.48-7.93,43.8t-22.48,29.26A54.61,54.61,0,0,1,293.93,213a52.37,52.37,0,0,1-32.61-11q-14.37-11-21.77-30A109.47,109.47,0,0,1,232.15,131.88Zm17.62.33q0,29.08,12.57,45.83t31.5,16.74q19.31,0,31.78-16.9t12.47-48q0-19.65-5.33-34.31t-15.6-22.72a36.37,36.37,0,0,0-23.05-8.07q-18.17,0-31.24,15.53T249.77,132.21Z" transform="translate(0 -1.99)"/><path class="cls-3" d="M376.43,131.88q0-40.08,17.28-62.74t44.6-22.67a52.83,52.83,0,0,1,32.25,10.65q14.37,10.65,21.9,29.69T500,130q0,24.48-7.93,43.8t-22.48,29.26A54.56,54.56,0,0,1,438.21,213a52.37,52.37,0,0,1-32.61-11q-14.36-11-21.77-30A109.47,109.47,0,0,1,376.43,131.88Zm17.63.33q0,29.08,12.55,45.83t31.52,16.74q19.31,0,31.77-16.9t12.48-48q0-19.65-5.34-34.31t-15.6-22.72a36.35,36.35,0,0,0-23.05-8.07q-18.15,0-31.25,15.53T394.06,132.21Z" transform="translate(0 -1.99)"/><path class="cls-3" d="M191.48,151.52c-4.24-6.41-9-12.25-13.13-15q16.34-3.52,24.48-14.4,8.78-11.76,8.78-28.88A55.13,55.13,0,0,0,206.31,69Q201,58,192.13,53.66t-25.9-4.34h-56.5V210.26H126.6V138.79h19.55a40.44,40.44,0,0,1,9.39.77,23.25,23.25,0,0,1,7.69,4.28q3.78,3.07,8.57,10.76c3.18,5.13,8,12.16,12.93,21.81l18.15,33.85h21.21S194.82,156.55,191.48,151.52Zm-28.64-31.17H126.6V67.11h40.33q14.16,0,20.73,7.36t6.56,18.76a31.3,31.3,0,0,1-3.39,14.44,20.66,20.66,0,0,1-9.91,9.67Q174.41,120.34,162.84,120.35Z" transform="translate(0 -1.99)"/></g></g></g></svg>