<?xml version="1.0" encoding="utf-8"?>
<!-- Generator: Adobe Illustrator 24.3.0, SVG Export Plug-In . SVG Version: 6.00 Build 0)  -->
<svg version="1.1" id="圖層_1" xmlns="http://www.w3.org/2000/svg" xmlns:xlink="http://www.w3.org/1999/xlink" x="0px" y="0px"
	 viewBox="0 0 512 512" style="enable-background:new 0 0 512 512;" xml:space="preserve">
<style type="text/css">
	.st0{clip-path:url(#SVGID_2_);fill:#FFFFFF;}
</style>
<g>
	<defs>
		<rect id="SVGID_1_" width="512" height="512"/>
	</defs>
	<clipPath id="SVGID_2_">
		<use xlink:href="#SVGID_1_"  style="overflow:visible;"/>
	</clipPath>
	<path class="st0" d="M315.6,264.1l-92.4,92.4c-4.5,4.5-11.7,4.5-16.1,0c0,0,0,0,0,0l-10.8-10.8c-4.4-4.5-4.4-11.7,0-16.1l73.2-73.6
		l-73.2-73.6c-4.4-4.5-4.4-11.7,0-16.1l10.8-10.8c4.5-4.5,11.7-4.5,16.1,0c0,0,0,0,0,0l92.4,92.4c4.5,4.4,4.6,11.6,0.2,16.1
		C315.8,264,315.7,264.1,315.6,264.1z"/>
</g>
</svg>
