<?xml version="1.0" encoding="utf-8"?>
<!-- Generator: Adobe Illustrator 25.0.0, SVG Export Plug-In . SVG Version: 6.00 Build 0)  -->
<svg version="1.1" id="圖層_1" xmlns="http://www.w3.org/2000/svg" xmlns:xlink="http://www.w3.org/1999/xlink" x="0px" y="0px"
	 viewBox="0 0 512 400" style="enable-background:new 0 0 512 400;" xml:space="preserve">
<style type="text/css">
	.st0{fill:#B5ECC8;}
	.st1{fill:#9EE2B5;}
	.st2{fill:#8DD6A6;}
	.st3{enable-background:new    ;}
	.st4{fill:#FFFFFF;}
	.st5{fill:#CAF3D8;}
	.st6{fill:#FFFFFF;stroke:#CAF3D8;stroke-width:2.7603;stroke-miterlimit:10;}
</style>
<g transform="translate(-378 -1022)">
	<g transform="translate(-26 25)">
		<g>
			<circle class="st0" cx="657.4" cy="1166.5" r="158.3"/>
		</g>
		<g>
			<circle class="st1" cx="657.9" cy="1167" r="107.2"/>
		</g>
		<g>
			<circle class="st2" cx="657.4" cy="1166.5" r="59.8"/>
		</g>
	</g>
	<g class="st3">
		<path class="st4" d="M399.3,1132.2c-7.1-5.1-12.4-11.3-15.8-18.5c-3.4-7.2-5.2-15.1-5.5-23.7c-0.3-8.6,1-16.6,4-24.1
			c2.9-7.5,7.8-14.1,14.5-19.8c6.8-5.7,15-9.3,24.5-10.7c5.6-0.8,11.4-0.8,17.4,0.1c6.1,0.9,11.5,2.6,16.5,5.2
			c1.6,0.8,2.5,1.6,2.7,2.4c0.2,0.8,0.3,4.2,0.4,10.2c0,0.7,0,1.7,0.1,3c0.1,3.8,0,6.1-0.2,6.8c-0.2,0.7-1.1,1-2.5,1
			c-0.4,0-0.7,0-1,0c-2.1,0-3.3-0.2-3.6-0.7c-0.3-0.5-0.8-3-1.5-7.5c-1-5.7-2.1-9.3-3.2-10.7c-1.1-1.4-4-2.6-8.7-3.5
			c-10-2.1-19-0.5-27,4.8c-8,5.3-13.6,13.3-16.9,23.8c-3.3,10.6-3.4,21.9-0.4,34.1c2.8,11.8,8.7,20.4,17.6,25.7
			c8.9,5.3,19.2,6.4,30.7,3.2c3.6-0.9,5.7-2.1,6.6-3.5c0.8-1.4,1.8-5.5,3-12.4c0.5-3.2,1-5,1.3-5.4c0.3-0.4,1.5-0.6,3.5-0.6
			c1.9,0,3,0.2,3.1,0.5c0.4,0.5,0.5,4.1,0.3,10.5c-0.2,6.5-0.4,10-0.7,10.7c-0.3,0.5-1.3,1.3-3.1,2.2c-9.1,4.4-19.5,6.2-31.1,5.5
			C414.8,1140.2,406.4,1137.3,399.3,1132.2z"/>
		<path class="st4" d="M478.9,1136.6c0.1-1.1,0.3-1.7,0.7-1.9c0.4-0.2,2.1-0.5,5.2-1c0.3-0.1,0.7-0.1,1.4-0.1
			c0.6-0.1,1.1-0.2,1.4-0.3c1.4-0.3,2.3-1.4,2.7-3.4c0.6-3.1,1-16.5,1-40.2c0-5.1,0-9.1,0-12c0-3.1,0-7.2,0-12.4
			c0-5.7,0-10.4-0.1-13.9c-0.1-3.5-0.2-6.3-0.2-8.3c0-2-0.3-3.5-0.8-4.4c-0.5-0.9-1-1.4-1.4-1.6c-0.5-0.2-1.3-0.3-2.6-0.3
			c-0.9,0-1.7,0-2.3-0.1c-2.6-0.3-4.2-0.5-4.6-0.8c-0.5-0.2-0.7-0.8-0.7-1.8c0-1,0.4-1.7,1.3-2.1c0.9-0.4,4-1.3,9.4-2.8
			c6.6-1.8,10-2.7,10.1-2.7c0.3-0.1,0.7,0,1.3,0.3c0.6,0.3,0.9,0.5,1,0.8c0.3,0.3,0.3,3.1,0.1,8.6c-0.3,7.8-0.4,16.4-0.3,25.7
			c0.1,9.3,0.3,14.1,0.7,14.5c0.6,0.8,1.6,0.8,3-0.1c0.2-0.2,0.5-0.4,0.8-0.7c0.4-0.3,0.8-0.6,1.4-1c0.5-0.4,1-0.8,1.4-1
			c7.2-5.6,14.4-8.3,21.6-8.2c7.2,0.1,12.2,2.9,15.2,8.5c1.5,2.9,2.5,6.1,2.9,9.7c0.4,3.6,0.6,11.8,0.7,24.9c0,1.5,0,3.4,0,5.9
			c0,5,0,8.7,0.1,10.9c0,2.3,0.3,4.1,0.8,5.5c0.5,1.4,1,2.2,1.5,2.5c0.5,0.2,1.6,0.4,3.3,0.6c0.7,0.1,1.3,0.2,1.8,0.3
			c1.9,0.4,3.1,0.7,3.5,1c0.4,0.3,0.6,0.9,0.6,1.9c0,0.9-0.1,1.5-0.3,1.6c-0.6,0.4-6.2,0.5-16.8,0.5c-10.1,0-15.6-0.1-16.4-0.4
			c-0.5-0.2-0.7-0.8-0.7-1.8c0-1,0.2-1.6,0.7-1.9c0.5-0.3,1.8-0.6,4.1-1c3.6-0.5,5.6-1.1,6.2-1.9c0.6-0.8,1-3.7,1.2-8.7
			c0.7-24.2,0-38.5-2-42.9c-2-4.2-5.8-6.4-11.4-6.5c-5.6-0.1-11.2,1.8-16.9,5.8c-0.2,0.2-0.6,0.5-1.4,1c-2.3,1.6-3.7,3.1-4.2,4.4
			c-0.5,1.5-0.7,6.8-0.8,16c0,8.5,0,13.7,0,15.6c0,8.9,0.6,14.1,1.8,15.6c0.6,0.7,2.4,1.3,5.3,1.8c2,0.4,3.2,0.7,3.7,1
			c0.5,0.3,0.7,0.9,0.7,1.9c0,0.9-0.1,1.5-0.3,1.6c-0.6,0.4-6.3,0.5-16.9,0.5c-10.9,0-16.5-0.1-16.7-0.4
			C478.9,1138.3,478.9,1137.6,478.9,1136.6z"/>
		<path class="st4" d="M617.1,1095.9c2.5-0.5,4-1.3,4.6-2.3c0.6-1,0.8-3,0.6-6.2c-0.2-6.1-1.4-10.4-3.8-12.9
			c-2.3-2.5-6.1-3.8-11.4-3.8c-4,0-6.7,0.4-8.1,1.2s-2.5,2.7-3.4,5.7c-1.5,4.8-2.6,7.7-3.4,8.7c-2.3,2.7-4.8,3.3-7.6,1.8
			c-2.8-1.5-3.6-4-2.3-7.2c1.5-4.2,4.6-7.7,9-10.4c4.5-2.8,9.2-4.5,14.1-5.2c5-0.7,9.8-0.2,14.4,1.3c4.6,1.5,7.9,4.2,9.8,7.9
			c1.5,2.8,2.4,5.6,2.7,8.3c0.2,2.7,0.4,10.6,0.6,23.6c0.1,11.7,0.2,18.7,0.5,20.8c0.2,2.1,0.9,3.8,2,4.8c2.5,2.5,5.4,2.4,8.9-0.3
			c0.8-0.6,1.5-0.6,2.2,0c0.9,1.1,0.8,2.3-0.3,3.6c-3.3,3.7-7.2,5.4-11.7,5.1c-4.5-0.4-7.9-2.7-10.2-7c-0.6-1.5-1.2-2.4-1.8-2.7
			c-0.5-0.4-1.2-0.4-2,0c-0.8,0.4-2,1.3-3.7,2.7c-6,5.4-11.9,7.8-17.6,7.4c-6.7,0-12-2.3-15.8-6.8c-3.8-4.6-5-9.8-3.6-15.8
			C582,1108.7,594.4,1101.3,617.1,1095.9z M615.2,1128.5c3.1-2,5.1-3.8,6.1-5.1c0.8-1.2,1.2-5.2,1.1-12c-0.1-6.8-0.5-10.5-1.4-11.1
			c-0.9-0.6-3.9-0.1-8.9,1.6c-5.1,1.7-9.3,3.5-12.6,5.5c-3,1.8-5.3,4-6.8,6.6c-1.5,2.6-2.2,5-2,7.4c0.2,2.4,1,4.6,2.2,6.6
			c1.2,2,3.2,3.4,5.9,4.2c2.7,0.8,5.7,0.8,8.9,0C609.6,1131.8,612.1,1130.5,615.2,1128.5z"/>
		<path class="st4" d="M661,1135.9c0.8-0.9,2.3-1.5,4.5-1.9c3-0.4,5-0.8,5.9-1.3c0.9-0.5,1.5-1.3,1.9-2.5c0.4-1.1,0.5-16.4,0.5-46
			c0-29.5-0.2-44.6-0.5-45.1c-0.7-1.2-3.1-2-7-2.3c-2.6-0.3-4.2-0.5-4.6-0.8c-0.5-0.2-0.7-0.8-0.7-1.8c0-1,0.4-1.7,1.3-2.1
			c0.9-0.4,4.1-1.4,9.8-2.9c0.8-0.3,2-0.6,3.4-1h0.1l0.1-0.1h0.1h0.1h0.1c4.3-1.3,6.8-1.5,7.5-0.8c0.7,0.6,1,3.4,1,8.3
			c-0.1,1.5-0.1,2.8-0.1,3.7c-0.3,10.3-0.4,22.8-0.3,37.6c0.1,14.8,0.3,22.4,0.7,22.9c0.5,0.7,1,1,1.5,0.8c1-0.4,5.1-4.4,12.4-12
			c2.1-2.2,3.6-3.7,4.4-4.5c4.8-5,7.1-8.1,6.8-9.2c-0.2-0.7-1.9-1.4-5.2-2c-2.2-0.4-3.7-1.1-4.5-2.2s-0.7-2.1,0.4-3.1
			c0.4-0.3,6-0.4,17-0.3c11,0,16.6,0.2,16.9,0.5c1,0.9,1.2,1.9,0.5,3c-0.7,1.1-1.9,1.7-3.6,1.9c-5.6,0.6-8.9,1.3-10.2,1.9
			c-1.2,0.6-4.2,3.3-8.8,7.9c-4.6,4.6-7.3,7.4-8.1,8.6c-0.7,1.2-0.7,2.6,0,4.1c0.5,0.8,4.1,6.7,10.9,17.6
			c6.8,10.9,10.7,16.9,11.5,18c0.8,1.2,1.7,2,2.6,2.4c0.9,0.4,2.5,0.8,4.9,1c2.5,0.4,3.9,0.6,4.1,0.7c0.2,0.1,0.3,0.7,0.3,1.9
			c0,1.2-0.1,1.9-0.3,2.2c-0.2,0.2-3.1,0.3-8.8,0.3c-5.7,0-8.9,0-9.5-0.1c-0.5-0.2-4.4-6.3-11.8-18.2c-7.4-12-11.5-18.2-12.4-18.6
			c-0.8-0.5-1.6-0.5-2.4,0c-0.8,0.5-2.2,1.7-4.2,3.8c-2.6,2.6-4.1,4.4-4.5,5.5c-0.4,1.1-0.5,4.3-0.5,9.6c0,0.3,0,0.6,0,1.1
			c0.1,5.6,0.5,8.8,1.1,9.8c0.6,0.8,2.6,1.5,5.9,2c0.5,0.1,0.8,0.1,1,0.1c2.1,0.4,3.4,0.7,3.8,1c0.5,0.3,0.7,0.9,0.7,1.9
			c0,0.9-0.1,1.5-0.3,1.6c-0.6,0.4-6.6,0.5-17.8,0.5c-11.3,0-17.1-0.1-17.5-0.3C660.2,1137.8,660.1,1136.8,661,1135.9z"/>
		<path class="st4" d="M752.6,1135.9c0.8-0.9,2.3-1.5,4.4-1.9c2.1-0.3,3.2-0.5,3.4-0.5c1.7-0.4,2.8-1.5,3.3-3.4
			c0.5-2.1,0.7-11.1,0.5-27c0-1.7,0-4.1,0-7.1c0-3.7,0-6.7-0.1-8.8c-0.1-2.1-0.2-3.9-0.3-5.3c-0.1-1.4-0.4-2.3-1-2.9
			c-0.6-0.5-1.2-0.9-1.7-1s-1.6-0.2-3.1-0.3c-0.7-0.1-1.3-0.1-1.8-0.1c-2.3-0.2-3.6-0.4-4-0.6c-0.4-0.2-0.6-0.9-0.6-2
			s0.3-1.8,0.9-2.1c0.6-0.3,3.6-1.5,9.1-3.6l0.1-0.1h0.1h0.1l0.1-0.1h0.1h0.1l0.1-0.1h0.1c5.6-2.1,8.9-3,9.7-2.6
			c0.7,0.3,1.2,1.9,1.4,4.9c0.1,0.5,0.1,0.8,0.1,1.1c0.2,2.6,0.4,4.4,0.6,5.7c0.2,1.2,0.6,2,1,2.3c0.5,0.3,1,0.2,1.6-0.3
			c0.6-0.5,1.4-1.5,2.5-3c3.6-5.1,7.6-8.5,12.2-10.2c4.6-1.7,8.9-1.5,13,0.5c2.4,1.3,3.5,2.7,3.4,4.4c-0.1,4-1.7,6.6-4.7,7.6
			c-3.1,1.1-6.5,0.3-10.3-2.3c-1.8-1.2-3.3-1.7-4.3-1.5c-1,0.2-2.5,1.2-4.3,3.1c-4.6,4.6-7.6,9.7-9,15.3c-0.4,1.3-0.5,7.7-0.4,19.2
			c0.1,11.5,0.3,17.6,0.7,18.2c0.4,0.9,1,1.5,1.8,1.8c0.9,0.3,2.8,0.6,5.8,1.1c2.3,0.4,3.6,0.7,4.1,1c0.5,0.3,0.7,0.9,0.7,1.9
			c0,0.9-0.1,1.5-0.4,1.6c-0.5,0.4-6.4,0.5-17.5,0.5c-11.2,0-17-0.1-17.3-0.3C751.9,1137.8,751.8,1136.8,752.6,1135.9z"/>
		<path class="st4" d="M860,1095.9c2.5-0.5,4-1.3,4.6-2.3c0.6-1,0.8-3,0.6-6.2c-0.2-6.1-1.4-10.4-3.8-12.9
			c-2.3-2.5-6.1-3.8-11.4-3.8c-4,0-6.7,0.4-8.1,1.2s-2.5,2.7-3.4,5.7c-1.5,4.8-2.6,7.7-3.4,8.7c-2.3,2.7-4.8,3.3-7.6,1.8
			c-2.8-1.5-3.6-4-2.3-7.2c1.5-4.2,4.6-7.7,9-10.4c4.5-2.8,9.2-4.5,14.1-5.2c5-0.7,9.8-0.2,14.4,1.3c4.6,1.5,7.9,4.2,9.8,7.9
			c1.5,2.8,2.4,5.6,2.7,8.3c0.2,2.7,0.4,10.6,0.6,23.6c0.1,11.7,0.2,18.7,0.5,20.8c0.2,2.1,0.9,3.8,2,4.8c2.5,2.5,5.4,2.4,8.9-0.3
			c0.8-0.6,1.5-0.6,2.2,0c0.9,1.1,0.8,2.3-0.3,3.6c-3.3,3.7-7.2,5.4-11.7,5.1c-4.5-0.4-7.9-2.7-10.2-7c-0.6-1.5-1.2-2.4-1.8-2.7
			c-0.5-0.4-1.2-0.4-2,0c-0.8,0.4-2,1.3-3.7,2.7c-6,5.4-11.9,7.8-17.6,7.4c-6.7,0-12-2.3-15.8-6.8c-3.8-4.6-5-9.8-3.6-15.8
			C824.9,1108.7,837.3,1101.3,860,1095.9z M858.1,1128.5c3.1-2,5.1-3.8,6.1-5.1c0.8-1.2,1.2-5.2,1.1-12c-0.1-6.8-0.5-10.5-1.4-11.1
			c-0.9-0.6-3.9-0.1-8.9,1.6c-5.1,1.7-9.3,3.5-12.6,5.5c-3,1.8-5.3,4-6.8,6.6c-1.5,2.6-2.2,5-2,7.4c0.2,2.4,1,4.6,2.2,6.6
			c1.2,2,3.2,3.4,5.9,4.2c2.7,0.8,5.7,0.8,8.9,0C852.5,1131.8,855,1130.5,858.1,1128.5z"/>
	</g>
	<g transform="translate(-41.764 1093)">
		<g transform="translate(688.517 123.898)">
			<g>
				<path class="st4" d="M-7.1-16.9c0.3-0.2,0.5-0.3,0.7-0.5C-6.7-17.2-6.9-17-7.1-16.9z"/>
				<path class="st5" d="M-6.4-15.7L-7.9-18c0.2-0.1,0.5-0.3,0.7-0.4l1.5,2.3c0,0,0,0,0,0l0,0c0,0,0,0,0,0
					C-5.9-16-6.2-15.8-6.4-15.7z"/>
			</g>
			<g>
				<path class="st4" d="M-6.1-17.6c0.2-0.2,0.4-0.3,0.7-0.5C-5.6-17.9-5.8-17.7-6.1-17.6z"/>
				<path class="st5" d="M-5.3-16.4l-1.6-2.3c0.1-0.1,0.2-0.2,0.3-0.2c0.1-0.1,0.2-0.1,0.3-0.2l1.6,2.2c-0.1,0.1-0.2,0.2-0.3,0.2
					C-5-16.6-5.2-16.5-5.3-16.4z"/>
			</g>
			<g>
				<path class="st4" d="M-5.1-18.3c0.2-0.2,0.4-0.3,0.6-0.5C-4.6-18.6-4.8-18.5-5.1-18.3z"/>
				<path class="st5" d="M-4.2-17.2l-1.7-2.2c0.2-0.2,0.4-0.3,0.6-0.5l1.8,2.1C-3.8-17.6-4-17.4-4.2-17.2z"/>
			</g>
			<g>
				<path class="st4" d="M-10.5-15.3c0.2-0.1,0.5-0.2,0.7-0.3C-10.1-15.4-10.3-15.3-10.5-15.3z"/>
				<path class="st5" d="M-10.1-14l-0.9-2.6l0,0c0.2-0.1,0.4-0.1,0.5-0.2c0,0,0.1,0,0.1,0l0,0c0,0,0,0,0,0l1,2.6c0,0-0.1,0-0.1,0
					C-9.7-14.1-9.9-14-10.1-14z"/>
			</g>
			<g>
				<path class="st4" d="M-11.6-14.9c0.2-0.1,0.4-0.1,0.7-0.2C-11.2-15.1-11.4-15-11.6-14.9z"/>
				<path class="st5" d="M-11.2-13.6l-0.7-2.7c0.2-0.1,0.4-0.1,0.6-0.2l0.8,2.6C-10.8-13.7-11-13.7-11.2-13.6z"/>
			</g>
			<g>
				<path class="st4" d="M-9.5-15.7c0.3-0.1,0.6-0.3,0.9-0.4C-8.9-15.9-9.2-15.8-9.5-15.7z"/>
				<path class="st5" d="M-8.9-14.4l-1.1-2.5c0.3-0.1,0.5-0.2,0.8-0.4l1.2,2.5C-8.3-14.7-8.6-14.5-8.9-14.4z"/>
			</g>
			<g>
				<path class="st4" d="M-8.4-16.1c0.3-0.2,0.7-0.4,1-0.6C-7.8-16.5-8.1-16.3-8.4-16.1z"/>
				<path class="st5" d="M-7.8-14.9l-1.2-2.5c0.3-0.2,0.6-0.3,1-0.5c0,0,0,0,0,0l0,0l1.4,2.4l0,0l0,0c0,0,0,0,0,0
					C-7.1-15.3-7.5-15.1-7.8-14.9z"/>
			</g>
			<g>
				<path class="st4" d="M-4.1-19.1c0.2-0.2,0.4-0.4,0.7-0.6C-3.7-19.5-3.9-19.3-4.1-19.1z"/>
				<path class="st5" d="M-3.2-18L-5-20.1c0,0,0,0,0,0l0,0c0,0,0,0,0,0c0.1,0,0.1-0.1,0.2-0.1c0.2-0.1,0.3-0.3,0.5-0.4c0,0,0,0,0,0
					c0,0,0,0,0,0l1.9,2c0,0,0,0,0,0l0,0c0,0,0,0,0,0c-0.2,0.2-0.3,0.3-0.5,0.4C-3.1-18.1-3.1-18.1-3.2-18C-3.2-18-3.2-18-3.2-18z"/>
			</g>
			<g>
				<path class="st4" d="M-2.2-20.8c0.3-0.3,0.6-0.7,0.9-1C-1.6-21.5-1.9-21.1-2.2-20.8z"/>
				<path class="st5" d="M-1.2-19.9l-2-1.9c0,0,0,0,0,0l0,0c0,0,0,0,0,0c0.3-0.3,0.6-0.6,0.9-1l2.1,1.8C-0.6-20.5-0.9-20.2-1.2-19.9
					C-1.2-19.9-1.2-19.9-1.2-19.9z"/>
			</g>
			<g>
				<path class="st4" d="M-28.4-20.8c-0.3-0.3-0.6-0.7-0.9-1C-29.1-21.5-28.7-21.1-28.4-20.8z"/>
				<path class="st5" d="M-29.4-19.9c-0.3-0.3-0.7-0.7-1-1l2.1-1.8c0.3,0.3,0.6,0.6,0.9,1c0,0,0,0,0,0L-29.4-19.9z"/>
			</g>
			<g>
				<path class="st4" d="M-3.2-19.9c0.3-0.3,0.5-0.5,0.8-0.8C-2.6-20.4-2.9-20.2-3.2-19.9z"/>
				<path class="st5" d="M-2.2-18.9l-1.9-2c0,0,0,0,0,0l0,0c0,0,0,0,0,0c0.3-0.2,0.5-0.5,0.8-0.7l2,1.9C-1.6-19.5-1.9-19.2-2.2-18.9
					C-2.2-18.9-2.2-18.9-2.2-18.9C-2.2-18.9-2.2-18.9-2.2-18.9z"/>
			</g>
			<g>
				<path class="st4" d="M-15.3-14.4c0.4,0,0.7,0,1.1,0C-14.6-14.4-15-14.4-15.3-14.4z"/>
				<path class="st5" d="M-15.3-13.1v-2.8c0.3,0,0.7,0,1,0l0.2,2.8C-14.5-13.1-14.9-13.1-15.3-13.1z"/>
			</g>
			<g>
				<path class="st4" d="M-15.3-14.4c-0.4,0-0.7,0-1.1,0C-16.1-14.4-15.7-14.4-15.3-14.4z"/>
				<path class="st5" d="M-15.3-13.1c-0.4,0-0.8,0-1.2-0.1l0.2-2.8c0.3,0,0.7,0,1,0V-13.1z"/>
			</g>
			<g>
				<path class="st4" d="M-21.2-15.7c-0.3-0.1-0.6-0.3-0.9-0.4C-21.8-15.9-21.5-15.8-21.2-15.7z"/>
				<path class="st5" d="M-21.7-14.4C-21.7-14.4-21.7-14.4-21.7-14.4L-21.7-14.4C-21.7-14.4-21.7-14.4-21.7-14.4c0,0-0.1,0-0.1,0
					c-0.3-0.1-0.6-0.3-0.8-0.4l1.2-2.5c0.2,0.1,0.5,0.2,0.7,0.3c0,0,0.1,0,0.1,0L-21.7-14.4z"/>
			</g>
			<g>
				<path class="st4" d="M-19.1-14.9c-0.2-0.1-0.4-0.1-0.7-0.2C-19.5-15.1-19.3-15-19.1-14.9z"/>
				<path class="st5" d="M-19.4-13.6C-19.4-13.6-19.4-13.6-19.4-13.6c-0.2-0.1-0.5-0.1-0.7-0.2c0,0,0,0,0,0l0.8-2.6
					c0.2,0.1,0.4,0.1,0.6,0.2L-19.4-13.6z"/>
			</g>
			<g>
				<path class="st4" d="M-20.1-15.3c-0.2-0.1-0.5-0.2-0.7-0.3C-20.6-15.4-20.4-15.3-20.1-15.3z"/>
				<path class="st5" d="M-20.6-14c-0.3-0.1-0.5-0.2-0.8-0.3l1-2.6c0.2,0.1,0.4,0.2,0.6,0.2l0,0c0,0,0,0,0,0L-20.6-14z M-20.2-15
					l-0.1,0.4l0.2-0.6L-20.2-15z"/>
			</g>
			<g>
				<path class="st4" d="M-22.2-16.1c-0.3-0.2-0.7-0.4-1-0.6C-22.9-16.5-22.6-16.3-22.2-16.1z"/>
				<path class="st5" d="M-22.8-14.9C-22.8-14.9-22.8-14.9-22.8-14.9L-22.8-14.9C-22.9-14.9-22.9-14.9-22.8-14.9
					c-0.4-0.2-0.7-0.4-1.1-0.6l1.4-2.4c0.3,0.2,0.6,0.4,1,0.5c0,0,0,0,0,0L-22.8-14.9z"/>
			</g>
			<g>
				<path class="st4" d="M-16.8-14.5c-0.2,0-0.5-0.1-0.7-0.1C-17.3-14.6-17-14.5-16.8-14.5z"/>
				<path class="st5" d="M-16.9-13.1c-0.3,0-0.5-0.1-0.8-0.1l0.4-2.7c0.2,0,0.5,0.1,0.7,0.1L-16.9-13.1z"/>
			</g>
			<g>
				<path class="st4" d="M-18-14.7c-0.2,0-0.5-0.1-0.7-0.1C-18.4-14.8-18.2-14.7-18-14.7z"/>
				<path class="st5" d="M-18.2-13.3c-0.2,0-0.5-0.1-0.7-0.2l0.6-2.7c0.2,0,0.4,0.1,0.6,0.1c0,0,0,0,0,0L-18.2-13.3z"/>
			</g>
			<g>
				<path class="st4" d="M-27.5-19.9c-0.3-0.3-0.5-0.5-0.8-0.8C-28.1-20.4-27.8-20.2-27.5-19.9z"/>
				<path class="st5" d="M-28.5-18.9C-28.5-18.9-28.5-18.9-28.5-18.9L-28.5-18.9C-28.5-18.9-28.5-18.9-28.5-18.9
					c-0.3-0.3-0.6-0.5-0.8-0.8l0,0c0,0,0,0,0,0l2-1.9c0,0,0,0,0,0l0,0c0,0,0,0,0,0c0.3,0.3,0.5,0.5,0.8,0.7c0,0,0,0,0,0L-28.5-18.9z
					"/>
			</g>
			<g>
				<path class="st4" d="M-12.7-14.7c0.2,0,0.5-0.1,0.7-0.1C-12.3-14.8-12.5-14.7-12.7-14.7z"/>
				<path class="st5" d="M-12.5-13.3L-13-16c0,0,0,0,0,0c0.2,0,0.4-0.1,0.6-0.1l0.6,2.7C-12-13.4-12.2-13.4-12.5-13.3z"/>
			</g>
			<g>
				<path class="st4" d="M-13.9-14.5c0.2,0,0.5-0.1,0.7-0.1C-13.4-14.6-13.6-14.5-13.9-14.5z"/>
				<path class="st5" d="M-13.7-13.1l-0.3-2.7c0.2,0,0.5,0,0.7-0.1l0.4,2.7C-13.2-13.2-13.4-13.2-13.7-13.1z"/>
			</g>
			<g>
				<path class="st4" d="M-26.6-19.1c-0.2-0.2-0.4-0.4-0.7-0.6C-27-19.5-26.8-19.3-26.6-19.1z"/>
				<path class="st5" d="M-27.5-18c-0.2-0.2-0.5-0.4-0.7-0.6l1.9-2c0.2,0.2,0.4,0.4,0.6,0.6L-27.5-18z"/>
			</g>
			<g>
				<path class="st4" d="M-24.6-17.6c-0.2-0.2-0.4-0.3-0.7-0.5C-25-17.9-24.8-17.7-24.6-17.6z"/>
				<path class="st5" d="M-25.4-16.4c-0.2-0.2-0.5-0.3-0.7-0.5l1.6-2.2c0,0,0,0,0,0c0.2,0.1,0.4,0.3,0.6,0.4L-25.4-16.4z"/>
			</g>
			<g>
				<path class="st4" d="M-25.6-18.3c-0.2-0.2-0.4-0.3-0.6-0.5C-26-18.6-25.8-18.5-25.6-18.3z"/>
				<path class="st5" d="M-26.5-17.2c-0.2-0.2-0.4-0.4-0.7-0.5l1.8-2.1c0.2,0.2,0.4,0.3,0.6,0.5L-26.5-17.2z"/>
			</g>
			<g>
				<path class="st4" d="M-23.5-16.9c-0.2-0.2-0.5-0.3-0.7-0.5C-24-17.2-23.8-17-23.5-16.9z"/>
				<path class="st5" d="M-24.2-15.7c-0.2-0.1-0.4-0.3-0.7-0.4c0,0-0.1-0.1-0.1-0.1l0,0c0,0,0,0,0,0l1.5-2.3c0,0,0.1,0.1,0.1,0.1
					c0.1,0.1,0.3,0.2,0.4,0.2l0.2,0.1L-24.2-15.7z"/>
			</g>
		</g>
		<g transform="translate(547.469 305.886)">
			<g>
				<path class="st4" d="M-17.1,3.7c4.3,7.8,21.7,19,75,10.3s148-29.7,148.2-33.5c0.2-3.8-8.7-11-20.4-11s-13.4,3.4-20.2,3.4
					c-6.7,0-15.2-10.6-22.4-9.1s-11.4,16-11.4,16s-67.8-4.5-103.9-2.2S-22.1-5.2-17.1,3.7z"/>
				<path class="st5" d="M23.2,18.6c-29.8,0-38.8-9.3-41.5-14.2l0,0c-1.6-3-1.5-6.5,0.4-10c4.3-7.7,18.5-16.6,45.7-18.3
					c33.2-2.1,94.1,1.6,103,2.2c1.2-3.5,5.4-14.5,12.1-15.9c4.4-0.9,9,2,13.4,4.8c3.3,2.1,6.6,4.2,9.3,4.2c2.7,0,4.6-0.6,6.7-1.3
					c2.9-0.9,6.6-2.1,13.4-2.1c8.5,0,15.9,3.8,19.4,7.5c1.7,1.8,2.5,3.5,2.4,5c-0.1,1.2-0.1,2.4-16.8,6.9
					c-9.5,2.6-22.8,5.8-38.5,9.3C120,4,83.1,11.3,58.1,15.4C44.1,17.7,32.6,18.6,23.2,18.6z M52.4-21.7c-8.9,0-17.3,0.2-24.4,0.6
					C1.9-19.4-11.6-11.3-15.5-4.2c-1.4,2.6-1.6,5.2-0.4,7.3l0,0c2.6,4.7,15.4,19.1,73.6,9.6c52.6-8.6,140.1-28.1,147-32.6
					c-0.1-0.6-0.6-1.5-1.6-2.5c-3.1-3.3-9.7-6.6-17.4-6.6c-6.4,0-9.7,1-12.6,2c-2.3,0.7-4.4,1.4-7.6,1.4c-3.5,0-7-2.3-10.8-4.7
					c-3.9-2.5-8-5.1-11.3-4.4c-5.2,1.1-9.2,11.2-10.4,15l-0.3,1.1l-1.1-0.1C131.1-18.9,87.8-21.7,52.4-21.7z"/>
			</g>
		</g>
		<g>
			<path class="st4" d="M764.5,286.3c-3.2-0.1-6.9,0-11,0.1c-0.2,2.8-52.4,15.1-101.1,24.8c25.2,4.5,50.6,7.8,76.1,9.8
				c55.1,4,83.6-3.4,87.5-11.4C820.1,301.3,803.3,287,764.5,286.3z"/>
			<path class="st5" d="M757.8,323.6c-8.8,0-18.6-0.4-29.4-1.2c-25.5-2-51.1-5.3-76.2-9.8l-7.2-1.3l7.1-1.4
				c49.5-9.9,95.6-20.9,100.1-24l0.1-0.8l1.3,0c4.2-0.1,7.9-0.1,11-0.1l0,0c30.9,0.5,47.2,9.5,51.9,17.1c1.7,2.8,2,5.7,0.8,8.2
				C813.7,317.5,794.2,323.6,757.8,323.6z M659.9,311.2c22.7,3.9,45.8,6.7,68.7,8.5c57.4,4.2,83-4.1,86.2-10.6c1-2,0.2-4.1-0.7-5.5
				c-4.6-7.5-21.7-15.3-49.6-15.8l0,0c-2.9-0.1-6.4,0-10.2,0c-1.8,1.4-8.3,3.9-32.7,9.8C704.2,301.8,682.1,306.6,659.9,311.2z"/>
		</g>
		<g transform="translate(544.659 294.72)">
			<g>
				<path class="st4" d="M188.4-1.4l-0.5,0.1L188.4-1.4z"/>
				<rect x="187.9" y="-2.8" transform="matrix(0.9682 -0.25 0.25 0.9682 6.3211 47.0014)" class="st5" width="0.5" height="2.8"/>
			</g>
			<g>
				<path class="st4" d="M189.8-1.8l-0.4,0.1L189.8-1.8z"/>
				
					<rect x="189.4" y="-3.1" transform="matrix(0.9672 -0.2539 0.2539 0.9672 6.6589 48.0788)" class="st5" width="0.5" height="2.8"/>
			</g>
			<g>
				<path class="st4" d="M186.9-1.1l-0.5,0.1L186.9-1.1z"/>
				
					<rect x="186.4" y="-2.4" transform="matrix(0.9691 -0.2467 0.2467 0.9691 6.0148 46.0217)" class="st5" width="0.5" height="2.8"/>
			</g>
			<g>
				<path class="st4" d="M192.6-2.6l-0.4,0.1L192.6-2.6z"/>
				
					<rect x="192.2" y="-3.9" transform="matrix(0.9662 -0.2578 0.2578 0.9662 7.1528 49.5308)" class="st5" width="0.4" height="2.8"/>
			</g>
			<g>
				<path class="st4" d="M194-2.9l-0.4,0.1L194-2.9z"/>
				
					<rect x="193.6" y="-4.3" transform="matrix(0.965 -0.2624 0.2624 0.965 7.5438 50.7481)" class="st5" width="0.4" height="2.8"/>
			</g>
			<g>
				<path class="st4" d="M195.2-3.3l-0.3,0.1L195.2-3.3z"/>
				
					<rect x="194.9" y="-4.6" transform="matrix(0.9664 -0.2572 0.2572 0.9664 7.3939 50.0673)" class="st5" width="0.4" height="2.8"/>
			</g>
			<g>
				<path class="st4" d="M185.3-0.7l-0.4,0.1L185.3-0.7z"/>
				
					<rect x="184.9" y="-2" transform="matrix(0.9694 -0.2454 0.2454 0.9694 5.8076 45.4112)" class="st5" width="0.5" height="2.8"/>
			</g>
			<g>
				<path class="st4" d="M191.3-2.2l-0.4,0.1L191.3-2.2z"/>
				
					<rect x="190.8" y="-3.5" transform="matrix(0.9666 -0.2564 0.2564 0.9666 6.938 48.9244)" class="st5" width="0.4" height="2.8"/>
			</g>
			<g>
				<path class="st4" d="M157,6.1L157,6.1L157,6.1z"/>
				<polygon class="st5" points="157.3,7.4 156.7,4.7 157.3,7.4 				"/>
			</g>
			<g>
				<path class="st4" d="M196.5-3.6l-0.2,0.1L196.5-3.6z"/>
				<rect x="196.2" y="-5" transform="matrix(0.963 -0.2696 0.2696 0.963 8.2343 52.7954)" class="st5" width="0.2" height="2.8"/>
			</g>
			<g>
				<path class="st4" d="M159.1,5.6L159.1,5.6L159.1,5.6z"/>
				<polygon class="st5" points="159.3,7 158.8,4.3 159.4,7 				"/>
			</g>
			<g>
				<path class="st4" d="M161.1,5.1L161.1,5.1L161.1,5.1z"/>
				<polygon class="st5" points="161.4,6.5 160.8,3.8 161.5,6.5 				"/>
			</g>
			<g>
				<path class="st4" d="M183.7-0.2l-0.4,0.1L183.7-0.2z"/>
				
					<rect x="183.3" y="-1.6" transform="matrix(0.9698 -0.2441 0.2441 0.9698 5.594 44.7745)" class="st5" width="0.4" height="2.8"/>
			</g>
			<g>
				<path class="st4" d="M208.7-8C208.7-8,208.7-8,208.7-8C208.7-8,208.7-8,208.7-8z"/>
				<polygon class="st5" points="209.6,-7 207.7,-9 207.8,-9.1 209.7,-7 				"/>
			</g>
			<g>
				<path class="st4" d="M178.4,1.1l-0.1,0L178.4,1.1z"/>
				<rect x="178.3" y="-0.3" transform="matrix(0.972 -0.235 0.235 0.972 4.7419 41.9483)" class="st5" width="0.1" height="2.8"/>
			</g>
			<g>
				<path class="st4" d="M182,0.2l-0.4,0.1L182,0.2z"/>
				
					<rect x="181.6" y="-1.2" transform="matrix(0.9689 -0.2474 0.2474 0.9689 5.5981 44.998)" class="st5" width="0.4" height="2.8"/>
			</g>
			<g>
				<path class="st4" d="M180.2,0.6L180,0.7L180.2,0.6z"/>
				
					<rect x="180" y="-0.7" transform="matrix(0.9706 -0.2409 0.2409 0.9706 5.1453 43.3988)" class="st5" width="0.2" height="2.8"/>
			</g>
			<g>
				<path class="st4" d="M205.4-6.4l-0.3,0.1L205.4-6.4z"/>
				
					<rect x="205.1" y="-7.7" transform="matrix(0.9393 -0.343 0.343 0.9393 14.633 70.0225)" class="st5" width="0.3" height="2.8"/>
			</g>
			<g>
				<path class="st4" d="M206.6-6.9l-0.2,0.1L206.6-6.9z"/>
				
					<rect x="206.4" y="-8.2" transform="matrix(0.9268 -0.3755 0.3755 0.9268 17.6792 77.0473)" class="st5" width="0.3" height="2.8"/>
			</g>
			<g>
				<path class="st4" d="M208.3-7.7c0,0-0.1,0.1-0.1,0.1C208.2-7.6,208.3-7.7,208.3-7.7z"/>
				<polygon class="st5" points="208.9,-6.5 207.5,-8.8 207.5,-8.8 209,-6.5 				"/>
			</g>
			<g>
				<path class="st4" d="M207.6-7.3l-0.2,0.1L207.6-7.3z"/>
				
					<rect x="207.4" y="-8.6" transform="matrix(0.902 -0.4318 0.4318 0.902 23.4763 88.8814)" class="st5" width="0.2" height="2.8"/>
			</g>
			<g>
				<path class="st4" d="M207.1-7.1c-0.1,0-0.1,0.1-0.2,0.1C207-7,207.1-7.1,207.1-7.1z"/>
				<path class="st5" d="M207.4-5.7l-1-2.6l0.2-0.1l1.1,2.5c0,0,0,0,0,0C207.6-5.8,207.5-5.8,207.4-5.7z"/>
			</g>
			<g>
				<path class="st4" d="M208-7.5l-0.2,0.1L208-7.5z"/>
				
					<rect x="207.8" y="-8.8" transform="matrix(0.8865 -0.4628 0.4628 0.8865 27.0569 95.3627)" class="st5" width="0.2" height="2.8"/>
			</g>
			<g>
				<path class="st4" d="M197.6-4L197.6-4L197.6-4z"/>
				<polygon class="st5" points="197.9,-2.6 197.2,-5.3 198,-2.6 				"/>
			</g>
			<g>
				<path class="st4" d="M208.9-8.2C208.9-8.2,208.8-8.2,208.9-8.2C208.8-8.2,208.9-8.2,208.9-8.2z"/>
				<polygon class="st5" points="209.9,-7.3 209.5,-7.7 207.6,-8.8 207.8,-9 208,-8.9 210.1,-7.5 				"/>
			</g>
			<g>
				<path class="st4" d="M258.5-16.3c-1.3,0.4-2.6,0.5-3.9,0.3c-4.2-0.8-17.7-7.9-20.8-9.6c-27.1-7.5-57.5-9.8-57.5-9.8H80.8
					c0,0-30.5,2.3-57.5,9.8C20.2-24,6.7-16.9,2.5-16.1c-1.3,0.2-2.6,0.1-3.9-0.3C-15.2-8.9-22.7,1.2-14.3,14.9l0,0
					c-4.9-9,9-24,45-26.2S134.6-9,134.6-9s4.3-14.6,11.4-16c7.2-1.5,15.7,9.1,22.4,9.1s8.5-3.4,20.2-3.4s20.6,7.2,20.4,11l0,0
					c4-0.1,7.7-0.1,11-0.1c38.7,0.7,55.5,15,51.5,23.3C279.8,1.2,272.3-8.9,258.5-16.3z"/>
				<path class="st5" d="M-15.5,15.6C-19,10-20,4.6-18.7-0.4c1.7-6.4,7.3-12.1,16.6-17.1l0.5-0.3l0.5,0.2c1.1,0.3,2.2,0.4,3.3,0.2
					c3.1-0.6,12.9-5.5,20.4-9.5l0.3-0.1c26.9-7.5,57.5-9.8,57.8-9.8l0.1,0l95.5,0c0.3,0,30.9,2.4,57.8,9.8l0.3,0.1
					c7.4,4,17.2,8.9,20.4,9.5c1,0.2,2.2,0.1,3.2-0.2l0.5-0.2l0.5,0.3c9.3,5,14.9,10.8,16.6,17.1c1.4,5,0.3,10.4-3.2,16.1l-2.4-1.3
					c1-2,0.2-4.1-0.7-5.5C264.8,1.3,247.7-6.5,219.8-7c-3.1-0.1-6.8,0-10.9,0.1l-1.5,0l0.1-1.5c0-0.5-0.4-1.6-1.6-2.9
					c-3.1-3.3-9.7-6.6-17.4-6.6c-6.4,0-9.7,1-12.6,2c-2.3,0.7-4.4,1.4-7.6,1.4c-3.5,0-7-2.3-10.8-4.7c-3.9-2.5-8-5.1-11.3-4.4
					c-5.2,1.1-9.2,11.2-10.4,15l-0.3,1.1l-1.1-0.1c-0.7,0-68.2-4.4-103.7-2.2C4.7-8.3-8.8-0.1-12.7,7c-1.4,2.6-1.6,5.2-0.4,7.3
					L-15.5,15.6z M216.1-9.8c1.3,0,2.6,0,3.8,0c30.9,0.5,47.2,9.5,51.9,17.1c0.3,0.6,0.6,1.1,0.9,1.7c1-3.1,1.2-6,0.4-8.8
					c-1.5-5.5-6.4-10.6-14.8-15.2c-1.3,0.3-2.6,0.4-3.9,0.2c-4.4-0.8-17.1-7.5-21.1-9.7c-26.1-7.2-55.7-9.6-57.1-9.7H80.9
					c-1.4,0.1-31,2.5-57.1,9.7c-4,2.2-16.8,8.9-21.1,9.7c-1.3,0.2-2.7,0.2-4-0.2C-9.6-10.3-14.5-5.2-16,0.3c-0.6,2.3-0.6,4.8,0,7.3
					c0.2-0.7,0.5-1.3,0.9-2C-10.9-2.1,3.4-11,30.6-12.7c33.2-2.1,94.1,1.6,103,2.2c1.2-3.5,5.4-14.5,12.1-15.9c4.4-0.9,9,2,13.4,4.8
					c3.3,2.1,6.6,4.2,9.3,4.2c2.7,0,4.6-0.6,6.7-1.3c2.9-0.9,6.6-2.1,13.4-2.1c9.1,0,16.1,4,19.4,7.5c1.1,1.2,1.9,2.4,2.2,3.5
					C212.2-9.8,214.2-9.8,216.1-9.8z"/>
			</g>
			<g>
				<path class="st4" d="M208.6-7.9c0,0-0.1,0-0.1,0.1C208.5-7.8,208.5-7.9,208.6-7.9z"/>
				<path class="st5" d="M209.3-6.7l-1.6-2.2l0.2-0.1l1.6,2.3L209.3-6.7z M209.3-6.8L209.3-6.8L209.3-6.8z"/>
			</g>
			<g>
				<path class="st4" d="M202.1-5.3l-0.3,0.1L202.1-5.3z"/>
				
					<rect x="201.8" y="-6.6" transform="matrix(0.9523 -0.3053 0.3053 0.9523 11.2464 61.4113)" class="st5" width="0.3" height="2.8"/>
			</g>
			<g>
				<path class="st4" d="M201.2-5l-0.3,0.1L201.2-5z"/>
				
					<rect x="200.9" y="-6.3" transform="matrix(0.9553 -0.2956 0.2956 0.9553 10.4494 59.2068)" class="st5" width="0.3" height="2.8"/>
			</g>
			<g>
				<path class="st4" d="M206-6.6l-0.3,0.1L206-6.6z"/>
				
					<rect x="205.8" y="-8" transform="matrix(0.9337 -0.3581 0.3581 0.9337 16.0171 73.2967)" class="st5" width="0.3" height="2.8"/>
			</g>
			<g>
				<path class="st4" d="M200-4.6l-0.1,0L200-4.6z"/>
				<rect x="199.9" y="-6" transform="matrix(0.9573 -0.2891 0.2891 0.9573 9.877 57.6122)" class="st5" width="0.1" height="2.8"/>
			</g>
			<g>
				<path class="st4" d="M203.1-5.6l-0.3,0.1L203.1-5.6z"/>
				
					<rect x="202.7" y="-6.9" transform="matrix(0.9497 -0.3131 0.3131 0.9497 11.9389 63.2493)" class="st5" width="0.4" height="2.8"/>
			</g>
			<g>
				<path class="st4" d="M204.7-6.1L204.4-6L204.7-6.1z"/>
				
					<rect x="204.4" y="-7.5" transform="matrix(0.9435 -0.3314 0.3314 0.9435 13.5779 67.4387)" class="st5" width="0.3" height="2.8"/>
			</g>
			<g>
				<path class="st4" d="M203.9-5.9l-0.3,0.1L203.9-5.9z"/>
				
					<rect x="203.6" y="-7.2" transform="matrix(0.9473 -0.3203 0.3203 0.9473 12.6018 64.9571)" class="st5" width="0.3" height="2.8"/>
			</g>
		</g>
		<g>
			<path class="st6" d="M717.3,170.4L717.3,170.4z"/>
		</g>
		<g>
			<path class="st4" d="M822.2,257.5c-0.5-1.4-2.7-0.8-4.4,1c-0.5,0.6-1.7,1.7-3.2,3.1c0.5-0.5,0.9-0.9,1.4-1.3v-7.4
				c0-1.6-1.8-2.1-3.1-1.3l0,0c-0.6-1.4-2.6-1.3-3.8-0.4c-1.8,1.3-5.8,2.4-9.1,2.8s-12.1,0.9-14.9,4.6L745,212.4
				c-2-2.3-3.2-5.2-3.3-8.2c-0.7-16-3.5-68.1-11-74.4c-9-7.4-42.8-15.2-42.8-15.2v-13.4c-4.2,5-9.3,8.2-14.8,8.2s-10.6-3.2-14.8-8.2
				v13.4c0,0-33.8,7.8-42.8,15.2c-7.6,6.2-10.3,58.3-11,74.4c-0.1,3-1.3,5.9-3.3,8.2l-40.1,46.1c-2.7-3.7-11.6-4.3-14.9-4.6
				s-7.4-1.5-9.1-2.8c-1.3-0.9-3.3-0.9-3.8,0.4l0,0c-1.3-0.9-3.1-0.4-3.1,1.3v7.4c0.4,0.4,0.9,0.8,1.4,1.3c-1.4-1.3-2.6-2.5-3.2-3.1
				c-1.7-1.8-3.9-2.4-4.4-1c-0.5,1.4,7,12.2,8.7,14.6c1.8,2.4,9.5,7.5,14.3,6.5s21.5-10,21.5-10s47.9-36,52.4-48.8
				c2.8-8,5.3-25.6,6.7-37.5c-0.4-4.3-0.1-8.5,1.3-12c5.6-13.3,7.7-27.8,6.3-42.1l-0.7-7c4.3-1.4,8.6-2.7,12.4-3.7l3.7,18.5
				c2.5,12.3,14.5,20.3,26.9,17.9c9-1.8,16-8.9,17.9-17.9l3.7-18.5c3.8,1,8.1,2.3,12.4,3.7l-0.7,7c-1.4,14.3,0.8,28.8,6.3,42.1l0,0
				c0,0,3.6,36.7,8.1,49.5c4.5,12.8,52.4,48.8,52.4,48.8s16.7,9.1,21.5,10c4.8,0.9,12.5-4.1,14.3-6.5
				C815.2,269.7,822.7,258.9,822.2,257.5z"/>
			<path class="st5" d="M800.4,280.1c-0.5,0-1,0-1.5-0.1c-4.9-1-21.2-9.8-21.9-10.1l-0.2-0.1c-2-1.5-48.3-36.5-52.9-49.5
				c-4.3-12.3-7.8-45.8-8.1-49.6c-5.6-13.4-7.8-28.1-6.3-42.6l0.6-5.9c-3.4-1.1-6.8-2.1-9.9-3l-3.4,17c-1.9,9.6-9.4,17-18.9,18.9
				c-13.1,2.6-25.9-5.9-28.5-18.9l-3.4-17c-3.1,0.9-6.5,1.9-9.9,3l0.6,5.9c1.4,14.5-0.8,29.3-6.4,42.8c-1.3,3-1.7,6.8-1.2,11.4
				l0,0.1l0,0.1c-1.6,12.8-4,29.8-6.8,37.7c-4.6,13-50.9,48-52.9,49.5l-0.2,0.1c-0.7,0.4-16.9,9.2-21.9,10.1
				c-5.5,1.1-13.8-4.5-15.7-7.1c-4.5-6.1-9.6-13.9-8.9-15.9c0.3-0.9,1-1.5,1.9-1.7c1.3-0.3,2.8,0.4,4.2,1.6v-4.1
				c0-1.2,0.6-2.2,1.6-2.7c0.7-0.4,1.6-0.5,2.4-0.3c0.3-0.3,0.7-0.5,1.2-0.6c1.2-0.3,2.8-0.1,3.9,0.8c1.5,1.1,5.3,2.2,8.5,2.5
				l0.8,0.1c3.8,0.4,10.4,1,13.9,3.9l39.1-45c1.8-2.1,2.8-4.7,2.9-7.4c0.9-20.5,3.7-69,11.5-75.4c8.3-6.8,36.3-13.8,42.3-15.3V97.4
				l2.4,2.9c3,3.5,7.7,7.8,13.7,7.8s10.8-4.2,13.7-7.8l2.4-2.9v16.1c5.9,1.4,34,8.4,42.3,15.3c7.8,6.4,10.6,54.9,11.5,75.4
				c0.1,2.7,1.2,5.3,2.9,7.4l39.1,45c3.5-2.9,10.1-3.5,13.9-3.9l0.8-0.1c3.2-0.3,7-1.5,8.5-2.5c1.1-0.8,2.7-1.1,3.9-0.8
				c0.5,0.1,0.9,0.3,1.2,0.6c0.8-0.2,1.7-0.1,2.4,0.3c1,0.5,1.6,1.5,1.6,2.7v4.1c1.4-1.3,2.9-1.9,4.2-1.6c0.9,0.2,1.6,0.8,1.9,1.7
				l0,0h0l0,0c0.4,1.1-0.9,4.7-8.9,15.9C812.9,275.3,805.9,280.1,800.4,280.1z M778.5,267.5c4.7,2.5,17.3,9.1,21,9.8
				c4.2,0.8,11.4-3.9,12.9-6c3.1-4.3,7.5-10.9,8.3-13.2c-0.4,0.1-1.1,0.5-1.8,1.3c-0.3,0.3-0.8,0.8-1.5,1.5v0l-0.4,0.4
				c-0.4,0.4-0.9,0.8-1.4,1.3c0,0,0,0,0,0c0,0,0,0,0,0l-1.9-2c0.3-0.3,0.6-0.6,0.9-0.9v-6.8c0-0.2-0.1-0.2-0.1-0.2
				c-0.2-0.1-0.5-0.1-0.8,0.1l-1.4,1l-0.7-1.6c0,0-0.1-0.1-0.2-0.2c-0.4-0.1-1.1,0-1.5,0.3c-2.1,1.5-6.6,2.7-9.8,3l-0.8,0.1
				c-3.3,0.3-10.9,1-13.1,4l-1,1.4L744,213.4c-2.2-2.5-3.5-5.7-3.6-9.1c-1.4-32.4-4.9-68.7-10.5-73.4c-3.2-2.7-9.9-5.4-17-7.8
				l-0.5,5.3c-1.4,14.1,0.8,28.4,6.2,41.5l0.1,0.2l0,0.2c0,0.4,3.6,36.6,8,49.2C730.9,231.4,776.3,265.8,778.5,267.5z M525.7,258.1
				c0.9,2.2,5.3,8.9,8.3,13.2c1.5,2.1,8.7,6.8,12.9,6c3.7-0.7,16.3-7.3,21-9.8c2.2-1.7,47.6-36.1,51.8-48.1c2.7-7.7,5.1-24.4,6.6-37
				c-0.5-5,0-9.1,1.5-12.5c5.5-13,7.6-27.4,6.2-41.5l-0.5-5.3c-7.1,2.4-13.8,5.2-17,7.8c-5.7,4.7-9.1,41-10.5,73.4
				c-0.1,3.3-1.4,6.6-3.6,9.1l-41.2,47.4l-1-1.4c-2.2-2.9-9.8-3.7-13.1-4l-0.8-0.1c-3.1-0.3-7.6-1.5-9.8-3c-0.4-0.3-1.1-0.5-1.5-0.3
				c-0.2,0.1-0.2,0.1-0.2,0.2l-0.7,1.6l-1.4-1c-0.3-0.2-0.6-0.2-0.8-0.1c0,0-0.1,0.1-0.1,0.2v6.8c0,0,0,0,0,0
				c0.3,0.3,0.6,0.5,0.9,0.8c0,0,0,0,0,0c0,0,0,0,0,0l-1.9,2c-0.4-0.4-0.7-0.7-1-1c-0.1-0.1-0.2-0.2-0.3-0.3l-0.4-0.4
				c-0.7-0.7-1.2-1.1-1.5-1.5C526.8,258.7,526.1,258.3,525.7,258.1z M648.7,118.5l3.5,17.2c2.3,11.6,13.7,19.1,25.2,16.8
				c8.5-1.7,15.1-8.3,16.8-16.8l3.5-17.2c-5.7-1.6-9.9-2.5-10-2.6l-1.1-0.2v-11c-4.2,4-8.8,6.1-13.4,6.1c-4.6,0-9.2-2.1-13.4-6.1v11
				l-1.1,0.2C658.6,116,654.4,117,648.7,118.5z"/>
		</g>
		<g>
			<path class="st4" d="M533.2,263c0.8,0.7,1.6,1.4,2.3,2.1C534.8,264.4,534,263.7,533.2,263z"/>
			<path class="st5" d="M534.6,266.2c-0.7-0.7-1.5-1.4-2.3-2.1c0,0,0,0,0,0l0,0l1.9-2c0.8,0.7,1.6,1.4,2.3,2.1c0,0,0,0,0,0
				c0,0,0,0,0,0L534.6,266.2z"/>
		</g>
		<g>
			<path class="st4" d="M533.8,254.4C533.8,254.4,533.8,254.5,533.8,254.4C533.8,254.5,533.8,254.4,533.8,254.4z"/>
			<polygon class="st5" points="532.6,255.2 532.6,255.1 534.9,253.7 535,253.8 			"/>
		</g>
		<g>
			<path class="st4" d="M534,254.8C534.1,254.9,534.1,254.9,534,254.8C534.1,254.9,534.1,254.9,534,254.8z"/>
			<path class="st5" d="M533,255.7l-0.1-0.1l1.1-0.8l1.1-0.8l0.1,0.1L533,255.7z M535,254.2L535,254.2l0.2-0.1L535,254.2z
				 M535,254.2l0.2-0.1L535,254.2z"/>
		</g>
		<g>
			<path class="st4" d="M534.4,255.3L534.4,255.3L534.4,255.3z"/>
			<polygon class="st5" points="533.4,256.3 535.4,254.4 535.5,254.4 			"/>
		</g>
		<g>
			<path class="st4" d="M542,266.5c-1.4,1.2-3.6,1.2-5-0.1c-0.5-0.4-0.9-0.9-1.5-1.3l0.7,0.7c-1-1.7-1.1-6.6-1.4-10l0,0
				c2,1.8,4.2,3.3,6.6,4.5c1.8,1,2.5,3.3,1.4,5.2C542.7,265.9,542.4,266.2,542,266.5z"/>
			<path class="st5" d="M541.8,272.6l-7.1-6.4l0.2-0.2c-0.6-1.5-0.9-4-1.1-7.4c-0.1-0.9-0.1-1.8-0.2-2.6l-0.4-3.5l2.6,2.3
				c1.9,1.7,4,3.2,6.3,4.3c2.5,1.4,3.4,4.6,2,7.1c-0.3,0.5-0.7,1-1.2,1.4c-1,0.8-2.1,1.2-3.3,1.2L541.8,272.6z M537.4,265l0.5,0.5
				c0.9,0.8,2.3,0.8,3.2,0l0,0c0.2-0.2,0.4-0.4,0.5-0.7c0.7-1.2,0.2-2.6-0.9-3.3c-1.5-0.8-2.9-1.7-4.2-2.6
				C536.7,261.1,536.9,263.9,537.4,265z"/>
		</g>
		<g>
			<path class="st4" d="M814.6,261.6c-0.2,0.2-0.5,0.4-0.7,0.7C814.2,262,814.4,261.8,814.6,261.6z"/>
			<path class="st5" d="M814.9,263.3l-1.9-2l0.7-0.7l1.9,2C815.4,262.8,815.1,263.1,814.9,263.3z"/>
		</g>
		<g>
			<path class="st4" d="M813.1,252.7c0-0.1,0-0.2,0-0.3C813.1,252.5,813.1,252.6,813.1,252.7z"/>
			<path class="st5" d="M814.5,252.8l-2.8-0.2c0,0,0-0.1,0-0.1c0,0,0,0,0-0.1l2.8-0.1c0,0.1,0,0.1,0,0.2
				C814.5,252.6,814.5,252.7,814.5,252.8z"/>
		</g>
		<g>
			<path class="st4" d="M813.1,252.1c0,0,0-0.1,0-0.1C813.1,252,813.1,252.1,813.1,252.1z"/>
			<polygon class="st5" points="811.7,252.3 811.7,252.2 812.4,252.1 812.7,252.1 812.4,252.1 812.7,252.1 812.4,252.1 814.4,251.8 
				814.5,252.1 813.1,252.1 			"/>
		</g>
		<g>
			<path class="st4" d="M813,253.4c0,0.2-0.1,0.4-0.2,0.6C812.9,253.8,812.9,253.6,813,253.4z"/>
			<path class="st5" d="M814.1,254.5l-2.6-1c0.1-0.1,0.1-0.3,0.1-0.4l2.7,0.7C814.3,254,814.2,254.2,814.1,254.5z"/>
		</g>
		<g>
			<path class="st4" d="M813.1,252.8c0,0.2,0,0.3-0.1,0.4C813.1,253.1,813.1,253,813.1,252.8z"/>
			<path class="st5" d="M814.4,253.6l-2.7-0.6c0-0.1,0-0.2,0.1-0.3l2.7,0.3C814.4,253.2,814.4,253.4,814.4,253.6z"/>
		</g>
		<g>
			<path class="st4" d="M812.6,254.4C812.6,254.4,812.6,254.5,812.6,254.4C812.6,254.5,812.6,254.4,812.6,254.4z"/>
			<polygon class="st5" points="813.7,255.2 811.9,254.1 811.4,253.8 811.8,254 811.4,253.8 811.4,253.7 811.4,253.7 811.4,253.7 
				811.5,253.7 813.9,254.9 			"/>
		</g>
		<g>
			<path class="st4" d="M812.3,254.8C812.3,254.9,812.3,254.9,812.3,254.8C812.3,254.9,812.3,254.9,812.3,254.8z"/>
			<polygon class="st5" points="813.4,255.7 811.1,254.1 811.2,254 813.5,255.6 			"/>
		</g>
		<g>
			<path class="st4" d="M811.9,255.3L811.9,255.3L811.9,255.3z"/>
			<polygon class="st5" points="812.9,256.3 810.9,254.4 813,256.2 			"/>
		</g>
		<g>
			<path class="st4" d="M804.3,266.5c-1.6-1.4-1.8-3.7-0.5-5.4c0.3-0.3,0.6-0.6,1-0.9c2.4-1.2,4.6-2.8,6.6-4.5
				c-0.3,3.4-0.5,8.3-1.4,10l-0.7,0.7C807.9,267.7,805.8,267.8,804.3,266.5z"/>
			<path class="st5" d="M806.8,268.8c-1.2,0-2.4-0.4-3.3-1.2l0,0c-2.2-1.8-2.5-5.1-0.6-7.3c0.4-0.5,0.9-0.9,1.4-1.2
				c2.3-1.2,4.4-2.7,6.3-4.4l2.6-2.3l-0.4,3.5c-0.1,0.8-0.2,1.7-0.2,2.6c-0.3,3.9-0.6,6.5-1.4,7.9l-0.1,0.2l-0.9,0.8
				C809.3,268.4,808,268.8,806.8,268.8z M809.8,258.9c-1.4,1-2.8,1.9-4.3,2.7c-0.2,0.1-0.4,0.3-0.6,0.5c-0.4,0.5-0.6,1.1-0.6,1.8
				c0.1,0.6,0.4,1.2,0.8,1.6l0,0c0.9,0.8,2.3,0.8,3.2,0l0.5-0.5C809.4,263.9,809.7,261.1,809.8,258.9z"/>
		</g>
		<g>
			<path class="st4" d="M811.6,264.4c0.8-0.7,1.6-1.4,2.3-2.1C813.1,263,812.3,263.7,811.6,264.4z"/>
			<path class="st5" d="M812.5,265.5l-1.9-2c0,0,0,0,0,0l0,0c0,0,0,0,0,0c0.8-0.7,1.5-1.4,2.3-2.1l1.9,2
				C814.1,264,813.3,264.8,812.5,265.5z"/>
		</g>
		<g>
			<path class="st4" d="M810.1,265.8l0.7-0.6L810.1,265.8z"/>
			
				<rect x="810" y="264.1" transform="matrix(0.7414 -0.6711 0.6711 0.7414 31.4249 612.5187)" class="st5" width="0.9" height="2.8"/>
		</g>
		<g>
			<path class="st4" d="M810.8,265.1l0.7-0.7L810.8,265.1z"/>
			
				<rect x="810.7" y="263.4" transform="matrix(0.7399 -0.6728 0.6728 0.7399 32.9033 614.6365)" class="st5" width="1" height="2.8"/>
		</g>
		<g>
			<path class="st4" d="M699.6,65.7c-0.2-0.1-1.9-0.7-3.2-4l0,0c-0.3-1-0.6-1.9-0.8-2.9h-44.9c-0.2,1-0.4,2-0.8,2.9
				c-1.3,3.2-3,3.9-3.2,4c0,0.5,0,1,0,1.5c0,19.5,11.8,42.3,26.4,42.3c14.6,0,26.4-22.8,26.4-42.3C699.6,66.7,699.6,66.2,699.6,65.7
				z"/>
			<path class="st5" d="M673.2,110.9c-15.7,0-27.8-23.5-27.8-43.7c0-0.5,0-1.1,0-1.6l0-1l0.9-0.3c0,0,1.3-0.5,2.4-3.2
				c0.3-0.8,0.5-1.7,0.7-2.6l0.2-1.2h47.2l0.2,1.2c0.1,0.9,0.4,1.8,0.7,2.7c1.1,2.6,2.3,3.1,2.4,3.1l0.9,0.3l0.1,0.9
				c0,0.5,0,1,0,1.6C701,87.4,688.8,110.9,673.2,110.9z M648.1,66.5c0,0.2,0,0.5,0,0.7c0,18.5,11.2,40.9,25,40.9s25-22.4,25-40.9
				c0-0.2,0-0.5,0-0.7c-0.9-0.6-2.1-1.8-3.1-4.3c-0.3-0.7-0.5-1.4-0.6-2.1h-42.6c-0.2,0.7-0.4,1.4-0.6,2
				C650.3,64.7,649,65.9,648.1,66.5z"/>
		</g>
		<g>
			<path class="st4" d="M703.7,65.2c-1.4-0.5-2.9-0.3-4.1,0.5c0,0.5,0,1,0,1.5c0,4.9-0.7,9.8-2,14.6
				C704.9,77.9,708.1,66.6,703.7,65.2z"/>
			<path class="st5" d="M695.4,84.5l0.8-3.1c1.3-4.6,1.9-9.4,2-14.2c0-0.5,0-1,0-1.4l0-0.8l0.7-0.4c1.6-1,3.5-1.2,5.3-0.7
				c1.7,0.5,2.7,2,2.9,4.2c0.4,4.6-3.1,11.9-8.8,14.9L695.4,84.5z M701,66.5c0,0.2,0,0.4,0,0.7c0,3.8-0.4,7.6-1.2,11.3
				c3.1-3.1,4.7-7.5,4.5-10.1c-0.1-1-0.4-1.6-1-1.8l0,0C702.5,66.2,701.7,66.2,701,66.5z"/>
		</g>
		<g transform="translate(719.041 94.72)">
			<g>
				<path class="st4" d="M-20.3-18c0.1-0.5,0.2-1,0.2-1.4C-20.1-19-20.2-18.5-20.3-18z"/>
				<path class="st5" d="M-18.9-17.8l-2.7-0.5c0,0,0,0,0,0l0,0c0,0,0,0,0,0c0-0.1,0-0.1,0-0.2c0.1-0.4,0.1-0.8,0.2-1.2c0,0,0,0,0,0
					l2.7,0.4c0,0,0,0,0,0l0,0c0,0,0,0,0,0c-0.1,0.4-0.1,0.8-0.2,1.3C-18.9-17.9-18.9-17.9-18.9-17.8C-18.9-17.8-18.9-17.8-18.9-17.8
					C-18.9-17.8-18.9-17.8-18.9-17.8z"/>
			</g>
			<g>
				<path class="st4" d="M-12.5-12l-4.1-5.2c-1.3,1.8-2.9,3.2-4.8,4.3c0.1-0.2,0.1-0.5,0.2-0.7c-2.1,8.1-5.8,15.7-10.5,21
					c0.2-0.3,0.5-0.6,0.7-0.8v4.9c5.7-2.6,11-6.2,15.5-10.5c1-0.9,1.4-2.3,1.1-3.6l-0.1-0.2c-0.3-1.4,0.2-2.9,1.3-3.8
					C-11.6-8-11.3-10.4-12.5-12C-12.5-12-12.5-12-12.5-12z"/>
				<path class="st5" d="M-32.5,13.6V6.8l-0.4-0.3c0.2-0.2,0.3-0.4,0.5-0.6c4.3-5,7.7-12,9.7-19.8l0.7,0.2l-0.2-0.3
					c1.7-1,3.2-2.3,4.4-3.9l1.1-1.5l5.2,6.7c1.7,2.3,1.3,5.5-0.9,7.2c-0.7,0.6-1.1,1.5-0.9,2.4l0.1,0.2c0.4,1.8-0.1,3.7-1.5,4.9
					c-4.7,4.4-10,8-15.9,10.7L-32.5,13.6z M-29.7,7v2.2c4.8-2.4,9.3-5.6,13.2-9.3c0.6-0.6,0.9-1.5,0.7-2.3l-0.1-0.2
					c-0.5-2,0.2-4,1.8-5.3c1-0.8,1.2-2.3,0.4-3.3l1.1-0.9l-1.1,0.9l-3-3.8c-1.1,1.2-2.3,2.2-3.6,3C-22.3-4.6-25.6,2-29.7,7z"/>
			</g>
			<g>
				<path class="st4" d="M-20.7-16.2c0.1-0.4,0.2-0.9,0.3-1.3C-20.5-17.1-20.6-16.6-20.7-16.2z"/>
				<path class="st5" d="M-19.3-15.9l-2.7-0.6c0.1-0.4,0.2-0.9,0.3-1.3l2.7,0.5C-19.1-16.8-19.2-16.3-19.3-15.9z"/>
			</g>
			<g>
				<path class="st4" d="M-21.1-14.3c0.1-0.4,0.2-0.8,0.3-1.2C-20.9-15.1-21-14.7-21.1-14.3z"/>
				<path class="st5" d="M-19.8-14l-2.7-0.6c0.1-0.4,0.2-0.8,0.3-1.2c0,0,0,0,0,0l2.7,0.6C-19.6-14.8-19.7-14.4-19.8-14z"/>
			</g>
		</g>
		<g transform="translate(732.091 87.742)">
			<g>
				<path class="st4" d="M-32.7-15.8c0,0.4-0.1,0.8-0.1,1.3C-32.8-15-32.7-15.4-32.7-15.8z"/>
				<path class="st5" d="M-31.5-14.4l-2.7-0.3c0,0,0,0,0,0l0,0c0,0,0,0,0,0c0-0.4,0.1-0.8,0.1-1.2l2.7,0.3
					C-31.4-15.2-31.4-14.8-31.5-14.4z"/>
			</g>
			<g>
				<path class="st4" d="M-32.5-18.9c0,0.3,0,0.6,0,0.8C-32.5-18.4-32.5-18.6-32.5-18.9z"/>
				<path class="st5" d="M-31.2-18l-2.8-0.1l0-0.8l2.8,0.1c0,0.2,0,0.4,0,0.6L-31.2-18z"/>
			</g>
			<g>
				<path class="st4" d="M-32.6-17.3c0,0.4-0.1,0.7-0.1,1.1C-32.6-16.6-32.6-17-32.6-17.3z"/>
				<path class="st5" d="M-31.3-16.1l-2.8-0.2c0,0,0,0,0,0l0,0c0,0,0,0,0,0c0-0.1,0-0.3,0-0.4c0-0.2,0-0.4,0-0.6l2.8,0.2
					c0,0.2,0,0.4,0,0.7C-31.3-16.4-31.3-16.3-31.3-16.1z"/>
			</g>
		</g>
		<g>
			<path class="st4" d="M646.8,67.2c0-0.5,0-1,0-1.5c-1.2-0.8-2.7-1-4.1-0.5c-4.4,1.4-1.2,12.7,6.1,16.6
				C647.5,77,646.8,72.1,646.8,67.2z"/>
			<path class="st5" d="M651,84.5l-2.8-1.5c-5.7-3-9.2-10.3-8.8-14.9c0.2-2.2,1.2-3.7,2.9-4.2c1.8-0.6,3.7-0.3,5.3,0.7l0.7,0.4
				l0,0.8c0,0.5,0,1,0,1.5c0,4.8,0.7,9.6,2,14.2L651,84.5z M644.2,66.3c-0.4,0-0.7,0.1-1.1,0.2c-0.6,0.2-0.9,0.8-1,1.8
				c-0.2,2.6,1.4,7.1,4.5,10.1c-0.8-3.7-1.2-7.5-1.2-11.3v0c0-0.2,0-0.4,0-0.7C645,66.4,644.6,66.3,644.2,66.3z"/>
		</g>
		<g transform="translate(675.737 94.724)">
			<g>
				<path class="st4" d="M-28.1-18c-0.1-0.5-0.2-1-0.2-1.4C-28.3-19-28.2-18.5-28.1-18z"/>
				<path class="st5" d="M-29.5-17.8c-0.1-0.5-0.2-1-0.2-1.5l2.7-0.4c0.1,0.5,0.1,0.9,0.2,1.4L-29.5-17.8z"/>
			</g>
			<g>
				<path class="st4" d="M-27.3-14.3c-0.1-0.4-0.2-0.8-0.3-1.2C-27.5-15.1-27.4-14.7-27.3-14.3z"/>
				<path class="st5" d="M-28.7-14C-28.7-14-28.7-14-28.7-14L-28.7-14C-28.7-14-28.7-14-28.7-14c-0.1-0.2-0.1-0.4-0.1-0.6
					c0-0.2-0.1-0.4-0.1-0.6c0,0,0,0,0,0c0,0,0,0,0,0l2.7-0.6c0,0,0,0,0,0l0,0c0,0,0,0,0,0c0,0.2,0.1,0.4,0.1,0.6
					c0,0.2,0.1,0.4,0.1,0.6c0,0,0,0,0,0L-28.7-14z"/>
			</g>
			<g>
				<path class="st4" d="M-27.7-16.2c-0.1-0.4-0.2-0.9-0.3-1.3C-27.9-17.1-27.8-16.6-27.7-16.2z"/>
				<path class="st5" d="M-29.1-15.9C-29.1-15.9-29.1-15.9-29.1-15.9L-29.1-15.9C-29.1-15.9-29.1-15.9-29.1-15.9
					c-0.1-0.4-0.2-0.9-0.3-1.3l2.7-0.5c0.1,0.4,0.2,0.8,0.3,1.3c0,0,0,0,0,0v0L-29.1-15.9z"/>
			</g>
		</g>
		<g transform="translate(665.033 37)">
			<g>
				<path class="st4" d="M-18,34.9c0,0.4,0.1,0.8,0.1,1.3C-18,35.8-18,35.4-18,34.9z"/>
				<path class="st5" d="M-19.3,36.4c-0.1-0.4-0.1-0.9-0.1-1.3l2.7-0.3c0,0,0,0,0,0l0,0c0,0,0,0,0,0c0,0.4,0.1,0.8,0.1,1.2
					L-19.3,36.4z"/>
			</g>
			<g>
				<path class="st4" d="M40.6,2.8C34.1-11.2,20-18.3,9-13.2c-0.3,0.1-0.6,0.3-0.8,0.4c-0.3-0.1-0.6-0.3-0.8-0.4
					c-11-5.1-25.1,2.1-31.6,16c-4.5,9.7-4.1,20,0.2,27.2c0.2-0.8,0.9-1.5,1.7-1.8c1.4-0.5,2.9-0.3,4.1,0.5c0,0.5,0,1,0,1.5
					c0-0.5,0-1,0-1.5c0.2-0.1,1.9-0.7,3.2-4c0.3-1,0.6-1.9,0.8-2.9l0,0c0.9-4.5,1.5-11.5,4.5-12.7C-9.2,8.8-8.6,8.7-8,8.7l0,0
					c3.2,0,6.9,2.9,16.1,2.9l0,0c9.2,0,12.9-2.9,16.1-2.9l0,0c0.6,0,1.2,0.1,1.8,0.3c3,1.2,3.7,8.1,4.5,12.7c0.2,1,0.4,2,0.8,2.9
					l0,0c1.3,3.2,3,3.9,3.2,4c0,0.5,0,1,0,1.5c0-0.5,0-1,0-1.5c1.2-0.8,2.7-1,4.1-0.5c0.8,0.3,1.5,0.9,1.7,1.8
					C44.7,22.8,45.1,12.4,40.6,2.8z"/>
				<path class="st5" d="M-23.6,33.4l-1.6-2.7c-4.7-7.8-4.8-18.7-0.3-28.5c3.3-7,8.5-12.6,14.7-15.8c6.3-3.2,13-3.5,18.7-0.9
					c0.1,0,0.2,0.1,0.3,0.1c0.1,0,0.2-0.1,0.3-0.1c5.7-2.7,12.3-2.3,18.7,0.9c6.2,3.2,11.5,8.8,14.7,15.8l0,0
					c4.5,9.8,4.4,20.7-0.3,28.5l-1.6,2.7l-0.9-3c-0.1-0.4-0.4-0.7-0.8-0.9c-0.8-0.2-1.6-0.2-2.3,0c0,0.2,0,0.4,0,0.7h-2.8
					c0-0.2,0-0.5,0-0.7c-0.9-0.6-2.1-1.8-3.1-4.3c-0.4-1.1-0.7-2.2-0.8-3.2c-0.1-0.7-0.3-1.4-0.4-2.2c-0.6-3.5-1.5-8.7-3.3-9.4
					c-0.4-0.2-0.8-0.2-1.2-0.2c0,0,0,0,0,0c-1,0-2.1,0.4-3.6,0.8c-2.7,0.9-6.5,2.1-12.6,2.1c-6,0-9.8-1.2-12.6-2.1
					C-5.9,10.5-7,10.1-8,10.1c-0.4,0-0.8,0.1-1.2,0.2c-1.8,0.7-2.7,6-3.3,9.4c-0.1,0.8-0.3,1.5-0.4,2.2c-0.2,1-0.4,2.1-0.8,3.1
					c-1,2.5-2.3,3.7-3.2,4.3c0,0.2,0,0.5,0,0.7h-2.8c0-0.2,0-0.4,0-0.7c-0.7-0.3-1.5-0.3-2.3,0c-0.4,0.1-0.7,0.5-0.8,0.9L-23.6,33.4
					z M37.1,26.5c0.7,0,1.3,0.1,2,0.3c0.4,0.1,0.8,0.3,1.1,0.6c3.2-6.9,3-15.9-0.9-24.1l0,0c-3-6.5-7.8-11.6-13.5-14.5
					C20.3-14,14.5-14.3,9.6-12c-0.3,0.1-0.5,0.3-0.8,0.4l-0.7,0.4l-0.7-0.4C7.2-11.7,7-11.9,6.7-12C1.8-14.3-4-14-9.5-11.1
					C-15.2-8.3-20-3.1-23,3.3c-3.8,8.2-4.1,17.2-0.9,24.1c0.3-0.2,0.7-0.4,1.1-0.6c1.5-0.5,3.1-0.4,4.5,0.2c0.5-0.4,1.3-1.2,2-2.9
					c0.3-0.8,0.5-1.7,0.7-2.6c0.1-0.7,0.3-1.4,0.4-2.2c0.8-4.8,1.7-10.2,5-11.5C-9.5,7.5-8.8,7.4-8,7.4c1.4,0,2.8,0.5,4.4,1
					c2.6,0.8,6.1,2,11.7,2s9.1-1.1,11.7-2c1.6-0.5,3-1,4.4-1c0.8,0,1.5,0.1,2.3,0.4c3.3,1.3,4.2,6.7,5,11.5c0.1,0.8,0.3,1.5,0.4,2.2
					c0.2,1,0.4,1.9,0.7,2.7c0.7,1.7,1.5,2.5,2,2.9C35.4,26.7,36.3,26.5,37.1,26.5z"/>
			</g>
			<g>
				<path class="st4" d="M-18.2,33.4c0,0.4,0.1,0.7,0.1,1.1C-18.1,34.1-18.1,33.8-18.2,33.4z"/>
				<path class="st5" d="M-19.5,34.6c0-0.4-0.1-0.8-0.1-1.2l2.8-0.2c0,0.4,0.1,0.7,0.1,1.1L-19.5,34.6z"/>
			</g>
			<g>
				<path class="st4" d="M-18.2,31.8c0,0.3,0,0.6,0,0.8C-18.2,32.4-18.2,32.1-18.2,31.8z"/>
				<path class="st5" d="M-19.6,32.7l0-0.2c0-0.2,0-0.4,0-0.6c0,0,0,0,0,0v0l2.8-0.1c0,0.2,0,0.4,0,0.6l0,0.2L-19.6,32.7z"/>
			</g>
		</g>
		<g transform="translate(679.383 62.662)">
			<g>
				<path class="st4" d="M-6.2-14c-9.2,0-12.9-2.9-16.1-2.9l0,0c-0.6,0-1.2,0.1-1.8,0.3c-3,1.2-3.7,8.1-4.5,12.7h44.9
					c-0.9-4.5-1.5-11.5-4.5-12.7c-0.6-0.2-1.2-0.3-1.8-0.3l0,0C6.7-16.9,3-14-6.2-14L-6.2-14z"/>
				<path class="st5" d="M17.9-2.5h-48.2l0.3-1.6c0.1-0.7,0.3-1.4,0.4-2.2c0.8-4.8,1.7-10.2,5-11.5c0.7-0.3,1.5-0.4,2.3-0.4
					c1.4,0,2.8,0.5,4.4,1c2.6,0.8,6.1,2,11.7,2h0c5.6,0,9.1-1.1,11.7-2c1.6-0.5,3-1,4.4-1c0.8,0,1.5,0.1,2.3,0.4
					c3.3,1.3,4.2,6.7,5,11.5c0.1,0.8,0.3,1.5,0.4,2.2L17.9-2.5z M-27-5.3h41.6c0-0.2-0.1-0.4-0.1-0.6c-0.6-3.5-1.5-8.7-3.3-9.4
					c-0.4-0.2-0.8-0.2-1.2-0.2c0,0,0,0,0,0c-1,0-2.1,0.4-3.6,0.8c-2.7,0.9-6.5,2.1-12.6,2.1h0c-6,0-9.8-1.2-12.5-2.1
					c-1.5-0.5-2.6-0.8-3.6-0.8c-0.4,0-0.8,0.1-1.2,0.2c-1.8,0.7-2.7,6-3.3,9.4C-26.9-5.7-26.9-5.5-27-5.3z"/>
			</g>
		</g>
		<g transform="translate(651.931 140.678)">
			<g>
				<path class="st4" d="M58.2,71.9c1.3-7.1,7.2-42.2,7.2-42.2C59.8,16.4,57.6,1.9,59-12.4l0.7-7c-4.3-1.4-8.6-2.7-12.4-3.7
					L43.6-4.7C41.1,7.7,29.1,15.6,16.8,13.2c-9-1.8-16-8.9-17.9-17.9l-3.7-18.5c-3.8,1-8.1,2.3-12.4,3.7l0.7,7
					c1.4,14.3-0.8,28.8-6.3,42.1C-28.4,43-17,64.8-15.7,71.9s-10.7,46.7-10.7,46.7h95.4C68.9,118.6,56.9,78.9,58.2,71.9L58.2,71.9z"
					/>
				<path class="st5" d="M70.8,120h-99.1l0.5-1.8c3.3-10.9,11.8-40.5,10.7-46c-0.3-1.7-1.3-4.4-2.5-7.6c-3.6-9.9-9-24.9-4.6-35.4
					c5.5-13,7.6-27.4,6.2-41.5l-0.8-8.1l1-0.3c3.8-1.2,7.9-2.5,12.5-3.7l1.4-0.4L0.2-5C2,3.5,8.5,10.1,17,11.8
					C28.6,14.1,39.9,6.6,42.3-5l4-19.9l1.4,0.4c4.5,1.3,8.7,2.5,12.5,3.7l1,0.3l-0.8,8.1C59,1.8,61.2,16.1,66.6,29.2l0.2,0.4
					l-0.1,0.4c-0.1,0.4-5.8,35.2-7.2,42.2c-1,5.5,7.4,35.1,10.7,46L70.8,120z M-24.6,117.2h91.7c-2.5-8.4-11.5-39-10.2-45.6h0
					c1.2-6.6,6.5-37.9,7.1-41.8c-5.5-13.4-7.7-28-6.3-42.4l0.6-5.9c-3-1-6.3-2-9.9-3L45-4.4C42.3,8.6,29.6,17.1,16.5,14.5
					C6.9,12.6-0.5,5.1-2.5-4.4l-3.4-17c-3.5,1-6.8,2-9.9,3l0.6,5.9C-13.7,2-16,16.8-21.6,30.2c-3.9,9.4,1.2,23.8,4.7,33.4
					c1.2,3.4,2.2,6.2,2.6,8.1C-13.1,78.2-22,108.8-24.6,117.2z"/>
			</g>
		</g>
		<g>
			<path class="st4" d="M542.7,267.2c0,0,1.3-7.5,9.5-6.1"/>
			<path class="st5" d="M544,267.4l-2.7-0.5c0-0.1,0.4-2.2,1.9-4.2c1.5-1.8,4.2-3.9,9.2-3l-0.5,2.7c-2.9-0.5-5.1,0.2-6.5,2
				C544.3,265.8,544,267.4,544,267.4z"/>
		</g>
		<g>
			<path class="st4" d="M804.8,267.2c0,0-1.3-7.5-9.5-6.1"/>
			<path class="st5" d="M803.4,267.4c-0.1-0.6-1.3-6.1-7.9-5l-0.5-2.7c4.9-0.8,7.7,1.2,9.2,3c1.5,2,1.9,4.1,1.9,4.2L803.4,267.4z"/>
		</g>
	</g>
</g>
</svg>
