<?xml version="1.0" encoding="utf-8"?>
<!-- Generator: Adobe Illustrator 25.0.0, SVG Export Plug-In . SVG Version: 6.00 Build 0)  -->
<svg version="1.1" id="圖層_1" xmlns="http://www.w3.org/2000/svg" xmlns:xlink="http://www.w3.org/1999/xlink" x="0px" y="0px"
	 viewBox="0 0 512 512" style="enable-background:new 0 0 512 512;" xml:space="preserve">
<style type="text/css">
	.st0{fill:#333333;}
	.st1{fill:#FFE8DC;}
	.st2{fill:#FFFFFF;}
	.st3{fill:#9DC1E4;}
</style>
<g>
	<g>
		<path class="st0" d="M459.9,43.4c-4.8,0-8.7-3.9-8.7-8.7l0,0v-26c0-4.8,3.9-8.7,8.7-8.7s8.7,3.9,8.7,8.7v26
			C468.6,39.5,464.7,43.4,459.9,43.4L459.9,43.4z"/>
		<path class="st0" d="M459.9,104.1c-4.8,0-8.7-3.9-8.7-8.7v-26c0-4.8,3.9-8.7,8.7-8.7s8.7,3.9,8.7,8.7l0,0v26
			C468.6,100.2,464.7,104.1,459.9,104.1z"/>
		<path class="st0" d="M442.6,60.7h-26c-4.8,0-8.7-3.9-8.7-8.7c0-4.8,3.9-8.7,8.7-8.7h26c4.8,0,8.7,3.9,8.7,8.7
			C451.3,56.9,447.4,60.7,442.6,60.7z"/>
		<path class="st0" d="M503.3,60.7h-26c-4.8,0-8.7-3.9-8.7-8.7c0-4.8,3.9-8.7,8.7-8.7l0,0h26c4.8,0,8.7,3.9,8.7,8.7
			C512,56.9,508.1,60.7,503.3,60.7z"/>
	</g>
	<ellipse class="st0" cx="375.3" cy="154.1" rx="7.5" ry="9.9"/>
	<ellipse class="st0" cx="382.8" cy="484.7" rx="5" ry="7.5"/>
	<ellipse class="st0" cx="42.3" cy="238.6" rx="7.5" ry="9.9"/>
	<path class="st0" d="M30.4,95.5C13.6,95.5,0,81.9,0,65.1s13.6-30.4,30.4-30.4c16.8,0,30.4,13.6,30.4,30.4
		C60.7,81.8,47.1,95.4,30.4,95.5z M30.4,52.1c-7.2,0-13,5.8-13,13s5.8,13,13,13s13-5.8,13-13l0,0C43.4,57.9,37.6,52.1,30.4,52.1
		L30.4,52.1z"/>
	<path class="st0" d="M472.9,477.3c-16.8,0-30.4-13.6-30.4-30.4s13.6-30.4,30.4-30.4s30.4,13.6,30.4,30.4
		C503.3,463.7,489.7,477.3,472.9,477.3z M472.9,433.9c-7.2,0-13,5.8-13,13c0,7.2,5.8,13,13,13c7.2,0,13-5.8,13-13
		C486,439.7,480.1,433.9,472.9,433.9L472.9,433.9z"/>
	<g>
		<g>
			<path class="st0" d="M415.5,231.4c-16-11.7-38.4-8.2-50.1,7.8l-53,72.6V182.2c0,0,0,0,0,0c0,0,0-0.1,0-0.1v-78
				c0-19.2-15.5-34.7-34.7-34.7c-6.3,0-12.2,1.7-17.4,4.7v-4.7c0,0,0,0,0-0.1c0-19.2-15.6-34.7-34.7-34.7
				c-17.9,0-32.6,13.5-34.5,30.9c-5.2-3-11.1-4.8-17.6-4.8c-19.2,0-34.7,15.5-34.7,34.7v4.7c-5.1-3-11-4.7-17.3-4.7
				c-19.2,0-34.7,15.5-34.7,34.7v60.7v60.7v182.9c0.1,42.8,34.9,77.5,77.8,77.4h82.7v0c40.4-0.1,77.2-23.2,94.8-59.6l84.6-176.7
				C434.1,260.2,429.4,241.5,415.5,231.4z M411,268.2l-84.6,176.7c-14.7,30.3-45.4,49.6-79.1,49.7h-82.7
				c-33.3,0.1-60.3-26.8-60.4-60.1V190.9c0,0,0,0,0-0.1v-60.7c0.2-9.4,7.7-16.9,17.1-17.1c9.6-0.2,17.5,7.5,17.6,17v86.8
				c0,0,0,0,0,0c0,0,0,0,0,0.1v8.6c0,4.8,3.9,8.7,8.7,8.7c4.8,0,8.7-3.9,8.7-8.7v-95.4c0,0,0-0.1,0-0.1V95.5
				c0.2-9.4,7.7-16.9,17.1-17.1c9.6-0.2,17.5,7.5,17.6,17.1v121.5v8.7c0,4.8,3.9,8.7,8.7,8.7c4.8,0,8.7-3.9,8.7-8.7V69.4
				c0.2-9.4,7.7-16.9,17.1-17.1c9.6-0.2,17.5,7.5,17.6,17.1V104c0,0,0,0.1,0,0.1V243c0,4.8,3.9,8.7,8.7,8.7c4.8,0,8.7-3.9,8.7-8.7
				v-17.4V104.1c0.2-9.4,7.7-16.9,17.1-17.1c9.6-0.2,17.5,7.5,17.6,17.1v156.2c0,0,0,0,0,0.1v78.1c0,2.8,1.3,5.4,3.6,7
				c3.9,2.8,9.3,2,12.1-1.9l68.7-94.2c5.2-7.2,14.9-9.6,22.9-5.8C411.6,248,415.4,259,411,268.2z"/>
			<path class="st1" d="M411,268.2c4.4-9.2,0.5-20.2-8.7-24.6c-8-3.9-17.7-1.4-22.9,5.8l-68.7,94.2c-2.8,3.9-8.3,4.7-12.1,1.9
				c-2.2-1.6-3.6-4.2-3.6-7v-78.1c0,0,0,0,0-0.1V104.1c-0.2-9.6-8.1-17.2-17.6-17.1c-9.4,0.2-16.9,7.7-17.1,17.1v121.5V243
				c0,4.8-3.9,8.7-8.7,8.7c-4.8,0-8.7-3.9-8.7-8.7V104.1c0,0,0-0.1,0-0.1V69.4c-0.2-9.6-8.1-17.2-17.6-17.1
				c-9.4,0.2-16.9,7.7-17.1,17.1v156.2c0,4.8-3.9,8.7-8.7,8.7c-4.8,0-8.7-3.9-8.7-8.7v-8.7V95.5c-0.2-9.6-8.1-17.2-17.6-17.1
				c-9.4,0.2-16.9,7.7-17.1,17.1v34.6c0,0,0,0.1,0,0.1v95.4c0,4.8-3.9,8.7-8.7,8.7c-4.8,0-8.7-3.9-8.7-8.7V217c0,0,0,0,0-0.1
				c0,0,0,0,0,0v-86.8c-0.2-9.6-8.1-17.2-17.6-17c-9.4,0.2-16.9,7.7-17.1,17.1v60.7c0,0,0,0,0,0.1v243.6
				c0.1,33.3,27.2,60.1,60.4,60.1h82.7c33.7-0.1,64.4-19.4,79.1-49.7L411,268.2z M275.3,366.1c-1.3,1.4-32.4,34.1-71.4,34.1
				c-39,0-70.1-32.7-71.4-34.1c-3.1-3.3-3.1-8.5,0-11.9c1.3-1.4,32.4-34.1,71.4-34.1c39,0,70.1,32.7,71.4,34.1
				C278.5,357.5,278.5,362.7,275.3,366.1z"/>
		</g>
		<g>
			<path class="st2" d="M151.6,360.1c9.9,8.4,30,22.7,52.3,22.7c22.4,0,42.5-14.3,52.3-22.6c-9.9-8.4-30-22.7-52.3-22.7
				C181.5,337.5,161.4,351.7,151.6,360.1z"/>
			<path class="st0" d="M275.3,354.2c-1.3-1.4-32.4-34.1-71.4-34.1c-39,0-70.1,32.7-71.4,34.1c-3.1,3.3-3.1,8.5,0,11.9
				c1.3,1.4,32.4,34.1,71.4,34.1c39,0,70.1-32.7,71.4-34.1C278.5,362.7,278.5,357.5,275.3,354.2z M203.9,373.2c-7.2,0-13-5.8-13-13
				c0-7.2,5.8-13,13-13v0c7.2,0,13,5.8,13,13C216.9,367.3,211.1,373.2,203.9,373.2z M178.9,342.9c-3.4,4.9-5.4,10.8-5.4,17.2
				c0,6.3,1.9,12.2,5.3,17.1c-11.6-4.9-21.3-12.1-27.2-17.1C157.5,355,167.2,347.8,178.9,342.9z M229,377.3
				c3.3-4.9,5.3-10.8,5.3-17.1c0-6.4-2-12.3-5.3-17.2c11.6,4.9,21.3,12.1,27.3,17.2C250.3,365.2,240.6,372.4,229,377.3z"/>
			<path class="st3" d="M216.9,360.1c0-7.2-5.8-13-13-13v0c-7.2,0-13,5.8-13,13c0,7.2,5.8,13,13,13
				C211.1,373.2,216.9,367.3,216.9,360.1z"/>
		</g>
	</g>
</g>
</svg>
