<?xml version="1.0" encoding="utf-8"?>
<!-- Generator: Adobe Illustrator 25.0.1, SVG Export Plug-In . SVG Version: 6.00 Build 0)  -->
<svg version="1.1" id="圖層_1" xmlns="http://www.w3.org/2000/svg" xmlns:xlink="http://www.w3.org/1999/xlink" x="0px" y="0px"
	 viewBox="0 0 512 512" style="enable-background:new 0 0 512 512;" xml:space="preserve">
<style type="text/css">
	.st0{fill:#768830;}
	.st1{fill:#FFFFFF;}
</style>
<path class="st0" d="M463.5,404.9c82.1-115,55.6-274.9-59.3-357.1S129.8-7.9,47.7,107.1S-7.9,382,107,464.2
	c95.3,68.3,224.8,62.9,314.1-13.1L512,484L463.5,404.9z"/>
<g>
	<path class="st1" d="M83.2,127.1h82.9c4.8,0,7.2,2.8,7.2,8.5c0,5.7-2.5,8.5-7.2,8.5h-34.5v43.4h41.4c4.9,0,7.5,2.9,7.5,8.6
		c0,5.7-2.6,8.6-7.5,8.6h-41.4v38.8c0,5.7-2.5,8.5-7.4,8.5s-7.5-2.8-7.5-8.5v-38.8H77c-5.1,0-7.5-2.9-7.5-8.6c0-5.7,2.5-8.6,7.5-8.6
		h39.7v-43.4H83.2c-4.9,0-7.2-2.8-7.2-8.5C76,129.9,78.3,127.1,83.2,127.1z M106.9,160.4c-3.5,7.1-7.6,13.9-12.2,20.3
		c-3.1,3.9-6.3,4.4-9.7,1.4c-3.4-2.6-4.1-7.6-1.5-11c0.4-0.5,0.9-1,1.5-1.5c3.5-4.8,6.4-10,8.8-15.4c1-3.9,4.9-6.2,8.8-5.2
		c0.3,0.1,0.6,0.2,0.9,0.3C108.2,151,109.4,154.7,106.9,160.4z M153.1,178.2c-3.1-6.1-6.6-11.9-10.6-17.4c-3.7-4.9-2.9-8.8,2.2-11.4
		c2.9-2,6.8-1.2,8.8,1.7c0,0,0,0,0,0c4.8,6.4,9.2,13,13.2,19.9c1,1.9,1.3,4.1,0.9,6.2c-0.9,1.9-2.3,3.4-4.2,4.3
		c-2.6,2.3-6.6,2.1-8.9-0.5C153.8,180.1,153.3,179.2,153.1,178.2z"/>
	<path class="st1" d="M260.8,207.9h15.4c3.8,0,5.8,2.2,5.8,6.6c0,4.5-2,6.9-5.8,6.9h-13.8c4.9,4,9.5,8.3,13.8,12.9
		c2.6,2.6,2.6,6.9,0,9.5c-1.1,1.6-2.6,2.7-4.5,3.2c-1.9-0.2-3.5-1.3-4.5-2.9c-3.5-3.8-7.1-7.5-10.5-10.8
		c-3.3,6.4-8.3,11.7-14.5,15.4c-4.5,2.3-7.8,1.8-9.8-1.7s-1.2-8.6,5.1-11.8c4.6-3.5,8-8.4,9.7-14h-12.6c-3.8,0-5.7-2.3-5.7-6.9
		c0-4.6,1.8-6.6,5.7-6.6h14c0-2.3,0-4.6,0-7.2h-8.8c-2.2,0.1-4.4-0.8-5.8-2.5c-1.5-1.9-2.2-4.2-2-6.6v-26.8l-4.2-4.2
		c0,1.2-0.8,2.9-2.3,5.1c-0.9,1.4-1.6,2.9-2.3,4.5v74.5c0,5.1-2.2,7.5-6.5,7.5c-4.3,0-6.9-2.5-6.9-7.5v-52c0,0,0,0.9-0.8,1.1
		c-2.2,2.9-4,4.3-5.7,4.3s-3.5-1.7-5.1-4.9c-2.2-3.9-1.6-8.8,1.4-12.2c5.9-7.8,11-16.1,15.4-24.8c0.8-2.1,2.3-3.9,4.3-4.9
		c1.9-0.9,4.2-0.9,6.2,0l2.2,0.9c5.4-8.3,9.5-17.4,12.2-26.9c0.4-3.3,3.3-5.7,6.6-5.3c0.4,0,0.7,0.1,1.1,0.2c4.5,0.9,6,3.8,4.6,9.1
		l0,0h13.1c2.4-0.2,4.6,1,5.8,3.1c1.1,2.8,1.1,5.9,0,8.8c0,1.8-1.7,5.4-3.7,10.2h6c3.5,0,5.2,2,5.2,6v34c0.1,2.4-0.6,4.8-2.2,6.8
		c-1.5,1.7-3.7,2.6-6,2.5h-9.2C261.2,200.4,261.5,203.4,260.8,207.9z M225.1,131c-4.8,7.7-10.4,15-16.6,21.7c-2.1,2.1-3.7,3-5.1,2.8
		c-1.4,0-2.8-1.4-4.2-3.8c-2.2-3.8-1.5-8.6,1.7-11.5c4.4-4.8,8.5-10,12.2-15.4c1.2-3.3,4.9-4.9,8.1-3.7c0.2,0.1,0.4,0.2,0.6,0.3
		c5.5,1.7,6.5,4.9,3.7,9.8L225.1,131z M249.8,162.8h-7.7v7.7h7.7V162.8z M249.8,181.3h-7.7v4.5c0,2.3,1.1,3.5,2.9,3.5h4.8V181.3z
		 M245.4,146.8c-0.6,1.6-1.2,3.1-2,4.6h11.1c1.2-2.9,2.1-6,2.8-9.1h-9.5C247.2,143.1,246.6,144.7,245.4,146.8z M260.8,170.7h7.4
		v-4.3c0-2.3-0.9-3.4-2.9-3.4h-4.5V170.7z M260.8,189.4h5.8c1.1,0,1.5,0,1.5-1.8v-6.2h-7.4V189.4z M287.4,162.2H306
		c4.5,0,6.6,2.6,6.6,7.7s-2.2,7.8-6.6,7.8h-2.2v56.3c0.1,3.3-0.2,6.5-0.9,9.7c-0.5,2.2-1.9,4.1-3.8,5.2c-2.5,1.6-5.5,2.5-8.5,2.6
		c-5.4,0-8.6-2-9.5-6.6c-1-2.3-1-4.9,0-7.2c1.8-1.6,4.2-2.2,6.6-1.8l0,0c1,0,1.8-0.8,1.9-1.8c0-0.1,0-0.1,0-0.2v-56.2h-2.9
		c-4.5,0-6.8-2.6-6.8-7.8S282.9,162.2,287.4,162.2z M289.1,125.9h14.6c4.5,0,6.6,2.5,6.6,7.5s-2.2,7.5-6.6,7.5h-14.6
		c-4.3,0-6.6-2.6-6.6-7.5C282.5,128.5,284.8,125.9,289.1,125.9z"/>
	<path class="st1" d="M339.7,127h22.5c2.3-0.1,4.4,0.9,5.8,2.6c1.5,1.9,2.2,4.3,2.2,6.8v78.9c0.1,2.4-0.7,4.8-2.2,6.8
		c-1.5,1.7-3.6,2.6-5.8,2.5h-22.5c-2.2,0.1-4.3-0.8-5.7-2.5c-1.5-1.9-2.3-4.3-2.2-6.8v-78.9c-0.2-2.4,0.6-4.9,2.2-6.8
		C335.4,127.8,337.5,126.9,339.7,127z M356.5,167.4v-21.9c0-2.3-0.9-3.4-2.9-3.4h-5.2c-2.2,0-3.1,1.1-3.1,3.4v21.9H356.5z
		 M345.3,182.8v23.5c0,2.3,0.9,3.5,3.1,3.5h4.8c2,0,2.9-1.2,2.9-3.5v-24.2L345.3,182.8z M415.7,176.4h-36.9c-4.3,0-6.5-2.6-6.5-7.5
		c0-4.9,2.2-7.4,6.5-7.4H400v-13.2H383c-4.3,0-6.5-2.5-6.5-7.5s2.2-7.4,6.5-7.4H400v-6.8c0-5.5,2.5-8.3,7.2-8.3s7.2,2.8,7.2,8.3v6.8
		h18c4.3,0,6.5,2.5,6.5,7.4c0,5.1-2.2,7.5-6.5,7.5h-17.9v12.6H436c4.3,0,6.5,2.5,6.5,7.4s-2.2,7.5-6.5,7.5h-6v12.3h5.4
		c4.3,0,6.3,2.5,6.3,7.4s-2,7.4-6.3,7.4H430v30.8c0.1,3.3-0.3,6.7-1.4,9.8c-0.9,2.3-2.6,4.1-4.8,5.2c-2.6,1.2-5.3,2-8.2,2.5
		c-2.8,0.7-5.8,0.7-8.6,0c-2.7-0.8-4.9-2.8-5.7-5.5c-0.9-3.4,0-5.7,1.1-7.2c2.1-1.7,4.9-2.4,7.5-2h3.2c1.8,0,2.8-0.9,2.8-2.6V203
		H379c-4.3,0-6.3-2.5-6.3-7.4s2-7.4,6.3-7.4h36.8V176.4z M392.8,209.9c3.9,5.5,6.7,9.7,8.3,12.5c2.1,3.5,0.9,8-2.7,10.1
		c0,0-0.1,0-0.1,0.1c-4.6,3.2-8,2.3-10.2-2.9c-0.8-1.4-2.6-4.5-5.8-9.4c-3.2-4.9-2.8-8.8,1.7-11.5c2.3-2.3,6-2.3,8.3,0
		c0.2,0.2,0.3,0.4,0.5,0.6V209.9z"/>
	<path class="st1" d="M162.3,299.6h21.5c2.2,0,4.2,1.3,5.1,3.4c1.3,4,1.8,8.2,1.4,12.3c0,24.3-1.4,41.4-2.3,51.1
		c0.1,6.5-1.4,13-4.2,18.9c-1.5,2.8-3.9,4.9-6.9,6c-4,1-8.1,1.4-12.2,1.2c-2,0-3.9-0.8-5.4-2.2c-1.5-1.4-2.5-3.2-2.8-5.2l0,0
		c-0.9-1.4-0.9-3.2,0-4.6c0.8-1.1,2.3-1.5,4.8-1.4h8c1.7,0.1,3.4-0.7,4.5-2c2.3-5.1,3.5-10.6,3.4-16.2c0.8-8.8,1.5-23.1,2-42.6
		c0.4-1.5,0.4-3,0-4.5c-0.4-0.7-1.1-1.1-1.8-1.1h-19.5c-0.9,2.6-2.8,6.8-5.4,12.3c-0.9,1.7-2.4,2.9-4.2,3.4c-2,0.3-4-0.3-5.4-1.7
		l-1.1-0.9l-1.1-0.9v48.5c0.1,2.1-0.6,4.1-1.8,5.7c-1.3,1.4-3,2.2-4.9,2.2h-25.1c-1.9,0.1-3.7-0.7-4.9-2.2c-1.3-1.6-1.9-3.6-1.8-5.7
		v-65.1c-0.1-2.1,0.5-4.1,1.8-5.7c1.2-1.4,3-2.2,4.9-2.2h4.9c0-3.2,1.4-7.1,2.2-11.7c0.1-2,0.8-4,2.2-5.5c1.4-1.1,3.3-1.5,5.1-1.1
		c4.6,0,6.2,4,4.5,9.7c0,1.5-1.4,4.5-2.9,8.6h9.2c1.9,0,3.7,0.8,4.9,2.2c1.3,1.6,2,3.6,1.8,5.7v11.5c5.6-10,9.8-20.7,12.3-31.9
		c1.1-4.5,3.5-6.2,7.4-5.2c3.8,0.9,5.2,3.7,4.3,8.2C163.8,295.5,163.4,296.2,162.3,299.6z M113.2,332.6h16.5v-16.6
		c0-1.8-0.8-2.9-2.5-2.9h-11.4c-1.7,0-2.6,1.1-2.6,2.9V332.6z M129.7,344.9h-16.5v20.8c0,1.8,0.9,2.8,2.6,2.8h11.4
		c1.7,0,2.5-0.9,2.5-2.8V344.9z M160.4,355.8c-2.8-5.5-5.7-10.9-8.6-16.2c-1.9-2.7-1.3-6.4,1.4-8.4c0.2-0.1,0.4-0.3,0.6-0.4
		c2-1.7,5-1.6,6.7,0.4c0.3,0.4,0.6,0.8,0.8,1.3c3.2,5.2,6.5,10.9,9.5,16.9c1.7,2.8,0.8,6.5-2,8.2c-0.1,0.1-0.3,0.2-0.4,0.2
		c-2.8,2.8-5.5,2-7.2-2.2H160.4z"/>
	<path class="st1" d="M279.5,315h17.5c3.8,0,5.7,2.3,5.7,6.8s-1.8,6.5-5.7,6.5h-5.5v10.9h4.9c3.7,0,5.5,2.2,5.5,6.6
		s-1.8,6.6-5.5,6.6h-4.9v25.1c0.1,3-0.2,5.9-0.9,8.8c-0.8,2-2.2,3.6-4.2,4.6c-3.4,1.4-7,2.2-10.6,2.3c-3.9,0.7-7.7-1.9-8.5-5.8
		c-0.9-2.1-0.5-4.5,0.9-6.3c1.9-1.4,4.3-2,6.6-1.7h2.6c0.6,0.1,1.1,0.1,1.7,0c0,0,0,0,0-1.4v-25.5h-21.5c3.6,4.1,6.8,8.4,9.7,12.9
		c1.8,2.6,1.2,6.1-1.4,7.9c-0.2,0.1-0.4,0.3-0.6,0.4c-1.2,1.2-2.9,1.9-4.6,1.8c-1.2,0-2.3-1.4-3.4-3.5c-1.1-2.2-3.4-5.5-4.5-7.1
		c-1.2-1.6-1.7-3.7-1.5-5.7c0.3-1.9,1.4-3.6,3.1-4.6l2.9-2.2h-7.2c-1.5,0-2.9-0.6-3.8-1.7c-1-1.2-1.5-2.8-1.4-4.3l0,0l-4.5,1.5
		l-4.6,1.7v37.7c0,4.3-1.8,6.5-5.7,6.5s-5.5-2.2-5.5-6.5v-33.5l-4.9,1.7l-4.9,1.7c-3.8,1.2-6.2,0-7.1-5.1c-0.6-1.8-0.6-3.6,0-5.4
		c0.7-1.5,2.1-2.5,3.7-2.8l7.2-2.2l5.8-1.8v-22.6h-6.9c0,3.7-1.2,6.6-1.8,8.9c-0.6,2.3-3.5,5.2-6.8,2.8c-1.2-0.7-2.1-1.8-2.6-3.1
		c-0.5-1.3-0.5-2.8,0-4.2c2.1-9.1,3.4-18.4,4-27.7c0-4.5,2.3-6.5,5.8-5.7c3.5,0.8,4.6,2.6,4.3,6.5c-0.3,3.8,0,6.5-0.9,8.9h4.8v-15.4
		c0-4.3,1.8-6.5,5.5-6.5c3.8,0,5.7,2.2,5.7,6.5v15.4h4.6c1.1-0.1,2.2,0.4,2.9,1.2c0.8,0.9,1.2,2.2,1.1,3.4v6.6h22.6v-10.2h-12.6
		c-3.7,0-5.5-2.2-5.5-6.5s1.8-6.5,5.5-6.5h12.6v-3.8c0-4.6,2-6.9,6.2-6.9c4.2,0,6,2.3,6,6.9v4.2h13.4c3.7,0,5.5,2.2,5.5,6.5
		c0,4.3-1.8,6.5-5.5,6.5h-13.4L279.5,315z M279.5,328.2h-29.9c-1.9,0.1-3.7-0.6-4.9-2c-1.3-1.6-1.9-3.6-1.8-5.7v-3.2h-6.8v18.5
		l5.1-1.7c3-0.9,4.7,0.3,5.1,3.7v1.4h33.1L279.5,328.2z"/>
	<path class="st1" d="M370.6,316.4h-25.1c-0.7,0.1-1.3-0.2-1.7-0.8c-0.3-0.6-0.3-1.4,0-2l0,0c-0.8,1.8-2.5,5.7-5.2,11.4v62.5
		c0,4.2-1.8,6.3-5.5,6.3s-5.7-2.2-5.7-6.3v-44c0,0,0,0.8-0.8,0.9c-0.8,0.2-3.4,3.5-4.8,3.5s-2.9-1.4-4.2-4
		c-1.9-3.3-1.5-7.5,1.1-10.3c4.9-6.5,9.1-13.4,12.6-20.8c0.8-1.7,2.1-3.1,3.7-4c1.6-0.8,3.5-0.8,5.1,0l3.7,1.4V293
		c0-2.9,1.4-4.5,4-4.5s3.8,1.5,3.8,4.5v9.7c0,2,0.8,2.9,2.5,2.9h2v-19.2c0-3.4,1.5-5.1,4.5-5.1c2.9,0,4.5,1.7,4.5,5.1v19.2h2.8
		c1.5,0,2.2-0.9,2.2-2.6v-9.7c0-3.1,1.4-4.8,4.2-4.8c2.8,0,4,1.7,4,4.8v15.4c0.1,2.1-0.6,4.1-1.8,5.7
		C374.9,316,372.8,316.8,370.6,316.4z M339.9,291.9c-4,6.6-8.6,12.7-13.8,18.3c-1.1,1.3-2.6,2.1-4.3,2.3c-1.1,0-2.3-1.2-3.4-3.2
		c-1.9-3.1-1.3-7.2,1.4-9.7c3.7-4.2,7.1-8.8,10.2-13.5c1.1-2.8,4.2-4.2,7-3.1c0.1,0.1,0.3,0.1,0.4,0.2c3.7,1.7,4.6,4.8,2.2,9.1
		L339.9,291.9z M347.4,338.4H374c2.8,0,4.2,1.5,4.2,4.9s-1.4,5.1-4.2,5.1h-8.6v6h7.1c2.9,0,4.3,1.7,4.3,4.9s-1.4,4.9-4.3,4.9h-7.1
		v6.6l8.3-0.9c1.4-0.2,2.7,0.3,3.7,1.2c1,1.1,1.5,2.5,1.5,4l0,0c3.7-4.4,6.9-9.3,9.4-14.5c-2.4-7.9-4.3-16.1-5.4-24.3l0,0v1.2
		c-0.2,0.4-0.5,0.7-0.8,1.1c0,0,0,0.8-0.8,0h-0.8c-1.1-2-2.8-4.5-4.8-7.4h-29.1c-3.1,0-4.8-1.8-4.8-5.5s1.7-5.5,4.8-5.5h30.8
		c3.3-10.3,5.4-21,6.3-31.9c0-4.7,2.2-6.7,6.5-6c3.5,0,5.1,3.1,4.5,7.2c-0.6,4.2-1.4,10.3-2.3,15.4h13.8c1.6-0.1,3.1,0.8,3.8,2.2
		c1,1.6,1.5,3.5,1.4,5.4c0,1.1-0.3,2.3-0.9,3.2c-0.5,0.8-1.4,1.2-2.3,1.2l0,0c-1.2,15.7-4.3,31.2-9.4,46.2c2.2,5.2,5.2,10,8.9,14.2
		c1.7,1.3,2.9,3.2,3.4,5.2c0.2,2.1-0.4,4.2-1.7,5.8c-1.4,2-2.8,3.1-4.2,3.1c-1.8-0.3-3.3-1.2-4.5-2.6c-3.2-3.9-5.9-8.2-8-12.8
		c-3.1,5.1-6.8,9.8-11.1,14c-1.9,2.4-5.3,2.9-7.8,1c-0.4-0.3-0.7-0.6-1-1c-2.2-1.6-2.6-4.7-0.9-6.9c0.3-0.4,0.6-0.7,0.9-0.9l0,0
		c-7.1,1.2-16.3,2.6-27.5,4.2c-1.2,0.3-2.6,0.1-3.5-0.8c-0.9-1.1-1.5-2.4-1.7-3.8c-0.5-1.6-0.5-3.2,0-4.8c0.9-1.1,2.2-1.7,3.5-1.7
		l10.2-1.1v-7.8h-5.5c-2.9,0-4.3-1.5-4.3-4.9s1.4-4.9,4.3-4.9h6.9v-6h-8c-2.9,0-4.3-1.7-4.3-5.1S344.5,338.4,347.4,338.4z
		 M393.6,345c2.2-9.5,3.6-19.1,4.3-28.8h-8c0,1.4,0,2.5,0,3.1c0.7,8.9,2,17.7,4,26.3L393.6,345z"/>
</g>
</svg>
