<?xml version="1.0" encoding="utf-8"?>
<!-- Generator: Adobe Illustrator 25.0.1, SVG Export Plug-In . SVG Version: 6.00 Build 0)  -->
<svg version="1.1" id="圖層_1" xmlns="http://www.w3.org/2000/svg" xmlns:xlink="http://www.w3.org/1999/xlink" x="0px" y="0px"
	 viewBox="0 0 512 512" style="enable-background:new 0 0 512 512;" xml:space="preserve">
<style type="text/css">
	.st0{fill:#981E27;}
	.st1{fill:#FFFFFF;}
</style>
<path class="st0" d="M463.5,404.9c82.1-115,55.6-274.9-59.3-357.1S129.8-7.9,47.7,107.1S-7.9,382,107,464.2
	c95.3,68.3,224.8,62.9,314.1-13.1L512,484L463.5,404.9z"/>
<g>
	<path class="st1" d="M78.9,126.9h91.4c4.9,0,7.4,2.9,7.4,8.8c0,5.8-2.5,8.8-7.4,8.8h-30.8c-2,4-4.3,8.3-7.2,13.1v15.4l5.7-5.1
		c1.1-1.2,2.7-1.9,4.3-2c1.5-0.2,3,0.3,4.2,1.4c11.2,9.2,21.8,19,31.7,29.5c1.5,1.7,2.4,3.9,2.5,6.2c-0.6,2.3-1.9,4.4-3.7,6
		c-1.4,1.8-3.4,3.2-5.5,4c-1.5,0-3.2-0.9-5.4-3.2c-10.4-11.7-21.6-22.7-33.5-32.9v65.1c0,6-2.6,9.1-8,9.1c-5.4,0-8-3.1-8-9.1v-61.6
		c-9.1,11.8-19.8,22.1-31.9,30.8c-2.9,2.8-7.5,2.7-10.2-0.2c-0.5-0.6-1-1.2-1.3-1.9c-3-4-2.2-9.7,1.8-12.7c0.5-0.4,1-0.7,1.6-1
		c9.2-6.4,17.5-14,24.8-22.6c7.4-8.6,13.8-18.1,19.1-28.2H78.9c-5.1,0-7.5-2.9-7.5-8.8C71.3,129.8,73.8,126.9,78.9,126.9z"/>
	<path class="st1" d="M213.1,126.1H296c4.8,0,7.2,2.9,7.2,8.6c0,5.7-2.5,8.5-7.2,8.5h-34.9v43.4h41.2c5.1,0,7.5,2.8,7.5,8.6
		c0,5.8-2.5,8.6-7.5,8.6h-41.2v38.8c0,5.7-2.5,8.5-7.4,8.5s-7.5-2.8-7.5-8.5v-38.8h-39.4c-4.9,0-7.4-2.9-7.4-8.6
		c0-5.7,2.5-8.6,7.4-8.6h39.9v-43.4h-33.5c-4.9,0-7.4-2.9-7.4-8.5S208.1,126.1,213.1,126.1z M236.8,159.5
		c-3.6,7.1-7.7,13.9-12.3,20.3c-1.7,3-5.4,4-8.4,2.4c-0.5-0.3-0.9-0.6-1.3-1c-3.3-2.6-3.9-7.5-1.2-10.8c0.4-0.5,0.9-1,1.4-1.3
		c3.5-4.8,6.4-10,8.8-15.4c0.9-3.8,4.7-6.2,8.5-5.2c0.3,0.1,0.7,0.2,1,0.3C237.7,150,239.2,153.7,236.8,159.5z M282.9,177.4
		c-3.1-6.1-6.6-11.9-10.6-17.4c-3.5-4.9-2.8-8.8,2.2-11.4c3-1.9,6.9-1.1,8.9,1.7c4.9,6.8,9.4,13.4,13.2,19.9c1,1.8,1.3,4,0.9,6
		c-0.8,1.9-2.4,3.5-4.3,4.3c-2.8,2.1-6.7,1.6-8.8-1.2c-0.4-0.6-0.8-1.2-1-1.9H282.9z"/>
	<path class="st1" d="M391.1,206.9h14.3c3.8,0,5.8,2.3,5.8,6.8c0,4.5-2,6.9-5.8,6.9h-14c4.9,4,9.6,8.2,14,12.8
		c2.6,2.6,2.6,6.9,0,9.5c-1.7,2.2-3.3,3.2-4.6,3.2c-1.2,0-2.8-0.8-4.3-2.8c-1.5-2-7.1-7.5-10.6-10.8c-3.3,6.4-8.3,11.7-14.5,15.4
		c-4.5,2.3-7.7,1.7-9.7-1.7c-2-3.4-1.4-8.6,5.1-11.8c4.6-3.6,8-8.5,9.7-14h-11.5c-3.8,0-5.8-2.3-5.8-6.9c0-4.6,2-6.8,5.8-6.8h13.8
		c0.2-2.4,0.2-4.7,0-7.1h-8.9c-2.2,0.1-4.3-0.8-5.7-2.5c-1.5-1.9-2.3-4.2-2.2-6.6v-26.9c-1.3-1.4-2.7-2.7-4.2-4
		c-0.7,1.7-1.4,3.3-2.3,4.9c-0.8,1.4-1.5,2.9-2.2,4.5v74.5c0,5.1-2.3,7.5-6.6,7.5c-4.3,0-6.8-2.5-6.8-7.5v-52l-0.8,1.2
		c-2.2,2.8-4.2,4.3-5.8,4.2s-3.4-1.5-5.1-4.8c-2.2-3.9-1.6-8.8,1.4-12.2c5.9-7.8,11.1-16,15.4-24.8c0.7-2.1,2.3-3.9,4.3-4.9
		c1.9-0.9,4.1-0.9,6,0l2.2,0.8c5.4-8.3,9.6-17.3,12.3-26.8c0.3-3.2,3.1-5.6,6.3-5.3c0.4,0,0.8,0.1,1.2,0.2c4.6,0,6.2,3.8,4.6,8.9
		l0,0h13.1c2.4-0.2,4.7,0.9,6,2.9c1,2.8,1,5.9,0,8.8c-1,3.5-2.2,6.9-3.5,10.3h6c3.4,0,5.2,2,5.2,6v34.5c0.1,2.5-0.7,4.9-2.3,6.8
		c-1.5,1.7-3.6,2.6-5.8,2.5h-9.4C391.3,199.8,391.4,202.5,391.1,206.9z M355.2,130c-4.9,7.9-10.7,15.3-17.2,22
		c-1.2,1.6-3,2.6-4.9,2.8c-1.4,0-2.8-1.5-4.2-3.8c-2.4-3.7-1.7-8.6,1.7-11.5c4.6-5.1,8.9-10.6,12.6-16.5c1.3-3.2,4.9-4.9,8.2-3.6
		c0.3,0.1,0.5,0.2,0.8,0.4c4.9,2.2,6,5.7,3.1,10.6V130z M380,161.7h-7.5v7.4h7.5V161.7z M380,180.1h-7.5v4.3c0,2.3,0.9,3.4,2.9,3.4
		h4.6V180.1z M375.3,146l-2,4.6h10.9c0.9-2.6,1.8-5.7,2.8-9.1h-9.7L375.3,146z M390.6,169.7h7.5v-4.2c0-2.3-1.1-3.5-3.1-3.5h-4.5
		L390.6,169.7z M390.6,188.5h6c1.1,0,1.5,0,1.5-1.8v-6.2h-7.5V188.5z M417.3,161.4h18.6c4.5,0,6.8,2.6,6.8,7.7s-2.3,7.8-6.8,7.8h-2
		v56.3c0.1,3.2-0.2,6.4-0.9,9.5c-0.5,2.2-1.9,4.2-3.8,5.4c-2.6,1.6-5.6,2.4-8.6,2.5c-4.4,0.8-8.7-2-9.5-6.5c-0.8-2.4-0.5-5,0.8-7.2
		c1.8-1.6,4.2-2.3,6.6-2l0,0c1.4,0,2,0,2-1.8v-56.2h-3.1c-4.5,0-6.6-2.6-6.6-7.8s2-7.7,6.5-7.7H417.3z M419.1,124.9h14.5
		c4.5,0,6.8,2.6,6.8,7.5c0,4.9-2.3,7.5-6.8,7.5h-14.5c-4.5,0-6.6-2.5-6.6-7.5c0-5.1,2.5-7.5,6.5-7.5H419.1z"/>
	<path class="st1" d="M52.7,287.6h18.8c1.9-0.1,3.7,0.7,4.9,2.2c1.3,1.6,1.9,3.6,1.8,5.7v66.2c0.1,2.1-0.6,4.1-1.8,5.7
		c-1.2,1.4-3.1,2.1-4.9,2H52.7c-1.8,0.1-3.6-0.6-4.8-2c-1.5-1.5-2.3-3.6-2.3-5.7v-66.2c-0.1-2.1,0.6-4.1,1.8-5.7
		C48.7,288.1,50.7,287.3,52.7,287.6z M66.7,321.6v-18.3c0-1.8,0-2.9-2.5-2.9h-4.5c-1.7,0-2.5,1.1-2.5,2.9v18.3H66.7z M57.3,334v19.7
		c0,2,0.8,2.9,2.5,2.9h4.5c1.7,0,2.5-0.9,2.5-2.9V334H57.3z M116.4,328.5H85.7c-3.7,0-5.4-2.2-5.4-6.3c0-4.2,1.7-6.2,5.4-6.2h17.7
		v-10.6H89c-3.7,0-5.5-2-5.5-6.3c0-4.3,1.8-6.2,5.5-6.2h14.3v-5.7c0-4.6,2-6.9,6-6.9c4,0,6,2.3,6,6.9v5.7h15.4c3.5,0,5.4,2,5.4,6.2
		c0,4.2-1.8,6.3-5.4,6.3h-15.4V316h18c3.7,0,5.4,2,5.4,6.2c0,4.2-1.7,6.3-5.4,6.3h-5.1v9.8h4.5c3.5,0,5.4,2.2,5.4,6.2
		c0,4-1.8,6.3-5.4,6.3h-4.5V377c0.1,2.8-0.3,5.6-1.2,8.3c-0.8,1.9-2.2,3.5-4,4.5c-2.2,0.9-4.4,1.6-6.8,2c-2.4,0.7-5,0.7-7.4,0
		c-2.3-0.6-4.1-2.3-4.6-4.6c0-2.8,0-4.8,0.8-6c1.8-1.4,4.2-2,6.5-1.7h2.8c1.1,0.1,2.1-0.7,2.2-1.8c0-0.1,0-0.2,0-0.3v-26H85.7
		c-3.4,0-5.2-2.2-5.2-6.3s1.8-6.2,5.2-6.2h30.8V328.5z M97.2,356.6c3.2,4.6,5.5,8.2,6.9,10.5c1.7,3,0.6,6.8-2.3,8.6
		c-3.8,2.6-6.6,1.8-8.5-2.5c0-1.2-2.2-3.8-4.8-7.8c-2.6-4-2.5-7.4,1.4-9.8c2-1.7,5-1.6,6.7,0.4C96.9,356.2,97,356.4,97.2,356.6z"/>
	<path class="st1" d="M216.4,298.8h22.3c2.2,0,4.2,1.3,4.9,3.4c1.3,3.9,1.8,8.1,1.4,12.2c0,24.5-1.2,41.4-2.2,51.2
		c-0.1,6.5-1.5,13-4.2,18.9c-1.5,2.8-3.9,4.9-6.9,6c-4,0.9-8.1,1.2-12.2,1.1c-2,0-4-0.7-5.5-2c-1.5-1.4-2.4-3.2-2.6-5.2l0,0
		c-0.8-1.4-0.8-3.2,0-4.6c0.8-1.1,2.5-1.5,4.9-1.4h8c1.7,0,3.3-0.7,4.5-2c2.1-5.1,3.3-10.6,3.4-16.2c0.8-8.8,1.4-23.1,2-42.8
		c0.2-1.4,0.2-2.9,0-4.3c-0.4-0.8-1.1-1.3-2-1.2H212c-1.6,4.2-3.4,8.4-5.4,12.5c-0.8,1.7-2.3,2.9-4.2,3.2c-1.9,0.4-3.8-0.2-5.2-1.5
		l-1.1-0.9l-1.2-0.9v48.3c0.1,2.1-0.5,4.1-1.8,5.7c-1.2,1.5-3,2.3-4.9,2.2h-25.1c-1.9,0.1-3.7-0.7-4.9-2.2c-1.3-1.6-1.9-3.7-1.7-5.7
		v-64.9c-0.1-2,0.5-4,1.7-5.5c1.2-1.5,3-2.3,4.9-2.2h5.7c0.9-3.9,1.6-7.8,2.2-11.7c0.1-2,0.9-4,2.2-5.5c1.5-1.1,3.4-1.5,5.2-1.1
		c4.6,0.8,6,4,4.3,9.5c0,1.6-0.9,4.6-2.8,8.8h9.1c1.9-0.1,3.7,0.7,4.9,2.2c1.3,1.5,2,3.5,1.8,5.5v11.7c5.6-10,9.8-20.7,12.5-31.9
		c0.9-4.5,3.4-6.2,7.2-5.2c3.8,0.9,5.4,3.7,4.3,8.2C218.6,294.8,217.5,295.2,216.4,298.8z M167.5,331.6h16.6v-16.5
		c0-2-0.8-2.9-2.3-2.9h-11.5c-1.7,0-2.5,0.9-2.5,2.9L167.5,331.6z M183.8,344h-16.3v20.8c0,1.8,0.8,2.8,2.5,2.8h11.5
		c1.5,0,2.3-0.9,2.3-2.8V344z M214.6,355c-2.8-5.7-5.5-11.1-8.5-16.3c-1.9-2.5-1.5-6.1,1-8c0.3-0.2,0.6-0.5,1-0.6
		c1.9-1.7,4.8-1.6,6.5,0.2c0.4,0.4,0.7,0.8,0.9,1.3c3.3,5.4,6.5,11.1,9.7,17.1c1.7,3,0.6,6.7-2.3,8.4c0,0-0.1,0.1-0.1,0.1
		c-2.9,2.8-5.7,2-7.8-2.2H214.6z"/>
	<path class="st1" d="M333.9,314.2h17.5c3.8,0,5.7,2.2,5.7,6.6c0,4.5-1.8,6.6-5.7,6.6h-5.7v10.9h4.8c3.8,0,5.7,2.3,5.7,6.8
		c0,4.5-1.8,6.5-5.7,6.5h-4.8v25.2c0.1,3-0.2,5.9-1.1,8.8c-0.7,2-2.1,3.6-4,4.6c-3.4,1.4-7,2.2-10.6,2.2c-3.9,0.7-7.7-1.8-8.6-5.7
		c-0.9-2.1-0.6-4.6,0.9-6.3c1.9-1.4,4.3-2,6.6-1.8h2.6c0.6,0.2,1.3,0.2,1.8,0c0,0,0-0.8,0-1.5v-25.5h-21.5c3.5,4.2,6.7,8.5,9.7,13.1
		c1.5,3.7-0.2,7.9-3.9,9.5c-0.9,0.4-1.8,0.5-2.7,0.6c-1.2,0-2.5-1.2-3.4-3.4c-0.9-2.2-3.4-5.5-4.5-7.2c-1.2-1.6-1.9-3.5-1.7-5.5
		c0.3-1.9,1.4-3.7,3.1-4.8l3.1-2.2h-7.4c-1.4,0.1-2.8-0.5-3.7-1.5c-1-1.2-1.4-2.8-1.4-4.3l0,0l-4.6,1.7L290,349v37.7
		c0,4.3-1.8,6.5-5.7,6.5s-5.5-2.2-5.5-6.5v-34.2l-4.9,1.7c-1.7,0.4-3.3,1-4.9,1.7c-3.8,1.2-6.3,0-7.2-5.1c-0.5-1.8-0.5-3.7,0-5.5
		c0.8-1.4,2.2-2.4,3.8-2.8l7.1-2l6-2v-22h-6.9c-0.8,3.5-1.4,6.6-2,8.9s-3.5,5.2-6.8,2.8c-1.1-0.8-2-1.9-2.6-3.1
		c-0.4-1.4-0.4-2.9,0-4.3c2.2-9,3.6-18.3,4.2-27.5c0-4.6,2.2-6.5,5.7-5.7c3.5,0.8,4.6,2.6,4.5,6.3c-0.2,3.7-0.8,6.5-1.1,8.9h4.9
		v-15.4c0-4.3,1.8-6.5,5.5-6.5c3.8,0,5.7,2.2,5.7,6.5v15.4h4.6c1.1-0.1,2.2,0.5,2.8,1.4c0.8,0.9,1.2,2.1,1.1,3.2v6.8h22.8v-10.3
		h-12.6c-3.8,0-5.7-2.2-5.7-6.5c0-4.3,1.8-6.5,5.7-6.5h12.6v-3.7c0-4.6,2-6.9,6-6.9c4.2,0,6.2,2.3,6.2,6.9v3.7h13.2
		c3.7,0,5.7,2.2,5.7,6.5c0,4.3-2,6.5-5.7,6.5h-13.2L333.9,314.2z M333.9,327.4H304c-1.9,0.1-3.7-0.7-4.9-2.2c-1.3-1.5-2-3.5-2-5.5
		v-3.2h-6.6v18.5l5.1-1.8c2.9-0.8,4.6,0,4.9,3.8v1.2h33.1L333.9,327.4z"/>
	<path class="st1" d="M424.8,315.6h-25.2c-0.6,0-1.3-0.3-1.7-0.8c-0.2-0.6-0.2-1.4,0-2l0,0c-1.5,3.9-3.3,7.7-5.2,11.4v62.5
		c0,4.3-1.8,6.5-5.5,6.5c-3.7,0-5.7-2.2-5.7-6.5v-44.2c0.1,0.4,0.1,0.7,0,1.1c-1.8,2.3-3.4,3.5-4.9,3.5c-1.5,0-2.8-1.4-4.2-4.2
		c-1.9-3.3-1.4-7.4,1.1-10.2c4.9-6.5,9.2-13.4,12.8-20.8c0.6-1.8,1.9-3.3,3.7-4.2c1.6-0.8,3.5-0.8,5.1,0l3.5,1.4v-17.1
		c0-2.9,1.4-4.5,4-4.5s3.8,1.5,3.8,4.5v9.7c0,1.8,0.9,2.9,2.6,2.9h2v-19.2c0-3.4,1.5-5.1,4.5-5.1c2.9,0,4.3,1.7,4.3,5.1v19.2h2.9
		c1.4,0,2.2-0.9,2.2-2.6v-10c0-3.2,1.2-4.8,4-4.8s4,1.5,4,4.8v15.4c0.1,2.1-0.6,4.1-1.8,5.7C429.5,315.1,427.1,316,424.8,315.6z
		 M394,291.1c-4.1,6.5-8.7,12.6-14,18.2c-1,1.4-2.5,2.2-4.2,2.3c-1.2,0-2.3-1.1-3.5-3.2c-1.9-3.1-1.3-7.1,1.4-9.5
		c3.7-4.3,7.1-8.9,10.2-13.7c1-2.7,4-4.1,6.7-3.1c0.2,0.1,0.4,0.2,0.7,0.3c4,1.7,4.8,4.6,2.5,8.8H394z M401.6,338.3h26.6
		c2.8,0,4.3,1.7,4.3,4.9s-1.5,5.1-4.3,5.1h-8.5v5.4h7.1c2.8,0,4.2,1.7,4.2,4.9c0,3.2-1.4,4.9-4.2,4.9h-7.1v6.6l8.3-0.9
		c1.3-0.2,2.7,0.2,3.7,1.1c1,1.1,1.5,2.6,1.4,4.2l0,0c3.9-4.2,7-9.1,9.4-14.3c-2.3-8-4.1-16.2-5.4-24.5v0.9c0.1,0.4,0.1,0.7,0,1.1
		c0,0,0,0,0,1.2c0,1.2,0,0-0.9,0h-0.8c-1.4-2.6-3-5-4.8-7.4h-29.5c-3.2,0-4.8-1.8-4.8-5.7c0-3.8,1.5-5.4,4.8-5.4h30.8
		c3.9-10.9,6.3-22.2,7.4-33.7c0.6-4.7,2.8-6.7,6.5-6c3.5,0,5.1,3.1,4.6,7.2c-0.5,4.2-1.5,10.2-2.5,15.4h13.2c1.6,0,3,0.8,3.8,2.2
		c1,1.6,1.4,3.5,1.4,5.4c0,1.1-0.3,2.2-0.8,3.2c-0.5,0.8-1.4,1.4-2.3,1.4l0,0c-1.1,15.5-4.2,30.7-9.2,45.4c2.1,5.2,5,10.1,8.8,14.3
		c1.7,1.3,2.9,3,3.5,5.1c0.1,2.1-0.5,4.2-1.8,5.8c-1.4,2.2-2.8,3.1-4,3.1c-1.8-0.2-3.5-1.1-4.6-2.6c-3.2-3.9-5.8-8.2-8-12.8
		c-3.1,5.2-6.8,9.9-11.1,14.2c-1.9,2.3-5.3,2.6-7.6,0.6c-0.5-0.4-0.9-0.9-1.2-1.4c-2.1-1.4-2.7-4.3-1.3-6.4c0.3-0.5,0.8-1,1.3-1.3
		l0,0l-27.1,4.9c-1.1,0.5-2.3,0.5-3.4,0c-1-1.1-1.6-2.5-1.8-4c-0.5-1.5-0.5-3.1,0-4.6c0-1.1,1.7-1.7,3.5-1.8l10-1.1v-7.7h-6.6
		c-2.8,0-4.2-1.7-4.2-4.9c0-3.2,1.1-6.6,4.2-6.6h6.9v-6.2h-8c-2.8,0-4.3-1.7-4.3-5.1S399.6,338.3,401.6,338.3z M447.7,345
		c2.2-9.4,3.7-19,4.5-28.6h-8l-0.8,3.1c1,8.5,2.6,16.9,4.6,25.2L447.7,345z"/>
</g>
</svg>
