<?xml version="1.0" encoding="utf-8"?>
<!-- Generator: Adobe Illustrator 24.3.0, SVG Export Plug-In . SVG Version: 6.00 Build 0)  -->
<svg version="1.1" id="圖層_1" xmlns="http://www.w3.org/2000/svg" xmlns:xlink="http://www.w3.org/1999/xlink" x="0px" y="0px"
	 viewBox="0 0 512 512" style="enable-background:new 0 0 512 512;" xml:space="preserve">
<style type="text/css">
	.st0{fill:#FFDD67;}
	.st1{fill:#B26D3C;}
</style>
<g transform="translate(-526 -467)">
	<circle class="st0" cx="782" cy="723" r="256"/>
	<path class="st1" d="M782,882.8c-67.2,0-127-42.6-149-106.1c-3.7-9.6,1-20.5,10.7-24.2c9.6-3.7,20.5,1,24.2,10.7
		c0.2,0.4,0.3,0.9,0.5,1.3c21.5,62.8,89.9,96.2,152.7,74.7c35.1-12,62.6-39.6,74.7-74.7c3-9.9,13.5-15.4,23.3-12.4
		s15.4,13.5,12.4,23.3c-0.1,0.4-0.3,0.9-0.5,1.3C909,840.2,849.2,882.8,782,882.8L782,882.8z"/>
	<circle class="st1" cx="872.3" cy="652.6" r="35.8"/>
	<circle class="st1" cx="691.7" cy="652.6" r="35.8"/>
</g>
</svg>
