<?xml version="1.0" encoding="utf-8"?>
<!-- Generator: Adobe Illustrator 24.3.0, SVG Export Plug-In . SVG Version: 6.00 Build 0)  -->
<svg version="1.1" id="圖層_1" xmlns="http://www.w3.org/2000/svg" xmlns:xlink="http://www.w3.org/1999/xlink" x="0px" y="0px"
	 viewBox="0 0 512 512" style="enable-background:new 0 0 512 512;" xml:space="preserve">
<style type="text/css">
	.st0{fill:#FFA7A7;}
	.st1{fill:#FFFFFF;}
	.st2{fill:#FFF1C1;}
</style>
<g transform="translate(-761.138 -460.783)">
	<path class="st0" d="M809.6,547.6c13.3,0,24.1,10.8,24.1,24.1s-10.8,24.1-24.1,24.1s-24.1-10.8-24.1-24.1
		C785.5,558.4,796.3,547.6,809.6,547.6z"/>
	<path class="st0" d="M829.9,853c8.8,0,16,7.2,16,16s-7.2,16-16,16s-16-7.2-16-16S821.1,853,829.9,853L829.9,853z"/>
	<path class="st1" d="M1257,865.6c1.2,3.7-0.8,7.7-4.5,9c-3.7,1.2-7.7-0.8-9-4.5c-1.2-3.7,0.8-7.7,4.5-9l0,0
		C1251.8,859.9,1255.8,861.9,1257,865.6z"/>
	<path class="st1" d="M775,673.1c1.2,3.7-0.8,7.7-4.5,9c-3.7,1.2-7.7-0.8-9-4.5c-1.2-3.7,0.8-7.7,4.5-9l0,0
		C769.7,667.3,773.7,669.3,775,673.1z"/>
	<path class="st2" d="M1266.9,573.8c2.1,6.3-1.3,13.1-7.6,15.2c-6.3,2.1-13.1-1.3-15.2-7.6s1.3-13.1,7.6-15.2
		S1264.8,567.5,1266.9,573.8z"/>
	<path class="st1" d="M904.6,494.9c2.1,6.3-1.3,13.1-7.6,15.2s-13.1-1.3-15.2-7.6s1.3-13.1,7.6-15.2l0,0
		C895.7,485.2,902.5,488.5,904.6,494.9C904.5,494.8,904.5,494.8,904.6,494.9z"/>
	<path class="st2" d="M856.5,767.3c2.1,6.3-1.3,13.1-7.6,15.2c-6.3,2.1-13.1-1.3-15.2-7.6c-2.1-6.3,1.3-13.1,7.6-15.2l0,0
		C847.6,757.6,854.4,760.9,856.5,767.3C856.5,767.2,856.5,767.2,856.5,767.3z"/>
	<path class="st1" d="M1182.5,833.6c10,0,18.1,8.1,18.1,18.1s-8.1,18.1-18.1,18.1s-18.1-8.1-18.1-18.1
		C1164.4,841.7,1172.5,833.6,1182.5,833.6z"/>
	<path class="st0" d="M1255.4,698.3c9.8,0,17.8,7.9,17.8,17.8c0,9.8-7.9,17.8-17.8,17.8c-9.8,0-17.8-7.9-17.8-17.8
		S1245.6,698.3,1255.4,698.3z"/>
</g>
</svg>
