<svg id="圖層_1" data-name="圖層 1" xmlns="http://www.w3.org/2000/svg" viewBox="0 0 512 512"><defs><style>.cls-1{fill:#fff;}.cls-2{fill:#595757;}.cls-3{fill:#9e9e9f;}</style></defs><path class="cls-1" d="M3.46,256c0,69.76,24.84,129.26,74.06,178.47S186.23,508.54,256,508.54s129.29-24.85,178.49-74.05c49.67-49.21,74.06-108.71,74.06-178.47S484.15,126.75,434.48,77.09C385.28,27.86,325.77,3.46,256,3.46S126.72,27.86,77.52,77.09C28.3,126.75,3.46,186.23,3.46,256"/><path class="cls-2" d="M256,512c-70.24,0-131.1-25.26-180.92-75.07S0,326.27,0,256C0,185.92,25.25,124.9,75.06,74.66,124.57,25.12,185.44,0,256,0S387.43,25.12,436.93,74.64C486.74,124.45,512,185.47,512,256c0,70.7-25.26,131.57-75.08,180.92C387.11,486.74,326.24,512,256,512ZM256,6.92c-68.65,0-127.87,24.43-176,72.61-48.47,48.9-73,108.28-73,176.49S31.49,383.59,80,432s107.69,73,176,73S383.57,480.51,432,432c48.47-48,73-107.23,73-176,0-69.62-23.89-127.35-73-176.49C383.88,31.35,324.65,6.92,256,6.92Z"/><path class="cls-3" d="M496.13,176.82l-2.58.42c-18.84,1.3-46.63,15.41-83.45,42.81-21.84,18-39,30.82-51,38.52-20.11,13.73-38.51,20.54-54.33,20.54-10.71,0-20.56-3.84-29.55-12S261.55,250,261.55,239.3a119.3,119.3,0,0,1,.88-12,208.24,208.24,0,0,1,6.42-26.1c5.14-15,7.68-26.12,7.68-32.93a43.12,43.12,0,0,0-10.24-28.71l-1.73,1.32c-.85-1.32-3.42-2.59-7.29-3.43l.88-5.15c-9.86-7.7-22.68-12.4-38.55-14.12h-.85a119.75,119.75,0,0,0-12.38-.86c-28.69,0-60,7.28-93.32,21.83a417.12,417.12,0,0,0-37.67,18,486.29,486.29,0,0,0-46.66,29.51C18.45,194.79,11.6,200.35,9,203.78c-.41.86-.41.86-.84,1.72-3,15.41-4.28,32.1-4.72,48.8v3.41A239.33,239.33,0,0,0,6,292.82a209.87,209.87,0,0,0,6.41,33.38c9-9.85,27.4-20.56,55.64-33s50.09-18.4,65.5-18.4c6.86,0,12.83,1.7,17.55,5.13,6,4.29,8.57,9.42,8.57,16.27q0,10.89-10.27,33.39c-6.44,14.95-9.87,27.39-9.87,37.24,0,18.84,6.85,33.39,21.43,43.65,12.82,9.42,29.51,14.12,50.49,14.12,31.67,0,62.91-7.26,92.87-21.41l-1.72-4.67c11.13-3.88,22.25-8.15,34.69-13.28,3.42-2.16,7.26-4.72,10.68-6.87,9.87-6.84,20.14-14.55,31.27-22.7q4.5-3.82,9-7.67,61.65-44.94,118.11-55.22c.88-6.43,1.32-12.85,1.73-19.28.44-5.12.44-10.71.44-15.83a279.63,279.63,0,0,0-1.73-33.37A239.49,239.49,0,0,0,496.13,176.82Z"/><path class="cls-2" d="M304.81,278.84c-11.18,0-21.45-4.16-30.51-12.35-9.55-8.65-14.19-18.1-14.19-28.89,0-10.44,2.48-23.41,7.37-38.53,5-14.53,7.61-25.76,7.61-32.52,0-14.31-5.83-25.7-17.81-34.82-12.69-9.74-29.82-14.67-50.91-14.67-38.53,0-82.38,13.34-130.29,39.63C57.43,167.19,42.23,177,29.6,186.53c-12.14,8.68-18.73,14.94-20.7,17.66a1.44,1.44,0,0,1-2,.32,1.43,1.43,0,0,1-.32-2c2.19-3,8.94-9.45,21.32-18.29,12.7-9.64,28-19.47,46.79-30,48.36-26.54,92.66-40,131.69-40,21.74,0,39.46,5.14,52.66,15.26C271.6,139,278,151.49,278,166.55c0,7.17-2.61,18.42-7.75,33.43-4.8,14.81-7.23,27.48-7.23,37.62,0,9.93,4.33,18.69,13.24,26.75,8.52,7.7,18.13,11.62,28.58,11.62,15.75,0,33.76-6.83,53.52-20.28,12.51-8.06,30.09-21.35,50.85-38.45,36.7-27.34,65-41.84,84.27-43.14a1.53,1.53,0,0,1,1.54,1.35,1.46,1.46,0,0,1-1.35,1.53C475,178.24,447.16,192.55,411,219.51c-20.8,17.12-38.47,30.48-51,38.59C339.7,271.86,321.15,278.84,304.81,278.84Z"/><path class="cls-2" d="M211.49,424.35c-21.34,0-38.14-4.7-51.34-14.37-14.81-10.43-22-25.1-22-44.84,0-9.82,3.27-22.19,10-37.78,6.74-14.76,10.15-25.81,10.15-32.85,0-6.46-2.46-11.11-8-15.07-4.46-3.24-10.09-4.89-16.72-4.89-15.48,0-37.32,6.16-64.91,18.31-29.29,12.86-46.53,23.2-54.27,32.56a1.44,1.44,0,1,1-2.21-1.84c8-9.71,25.61-20.31,55.32-33.35,28-12.31,50.19-18.55,66.07-18.55,7.25,0,13.44,1.82,18.4,5.42,6.25,4.5,9.17,10,9.17,17.41,0,7.57-3.4,18.69-10.4,34-6.55,15.21-9.74,27.19-9.74,36.62,0,18.74,6.81,32.64,20.81,42.5,12.72,9.31,29,13.83,49.67,13.83,31.31,0,62.35-7.15,92.25-21.24,22.05-10.17,46.47-25.65,74.66-47.36,32.8-27.49,56.76-45.45,64.63-51.36,24.59-17.11,45.63-27.26,64.37-31.08a1.44,1.44,0,1,1,.57,2.82c-18.34,3.74-39,13.74-63.25,30.59-7.82,5.87-31.74,23.8-64.52,51.27-28.41,21.88-53,37.47-75.24,47.73C274.68,417.11,243.23,424.35,211.49,424.35Z"/><path class="cls-2" d="M388.7,348.16a1.44,1.44,0,0,1-.86-2.6c41.06-30.24,80.85-49.05,118.28-55.89a1.41,1.41,0,0,1,1.67,1.16,1.44,1.44,0,0,1-1.15,1.68c-37,6.75-76.39,25.38-117.09,55.37A1.44,1.44,0,0,1,388.7,348.16Z"/><path class="cls-1" d="M3.46,254a1.38,1.38,0,0,1-.88-.3,1.43,1.43,0,0,1-.26-2c33.25-43.17,72.45-76,116.52-97.58C154,137,187.15,128.28,217.46,128.28a140.13,140.13,0,0,1,27.71,3c15.89,3.06,19.32,5.43,20.53,6.94a1.44,1.44,0,1,1-2.26,1.79c-.8-1-4.31-3.11-18.82-5.91a138.48,138.48,0,0,0-27.16-3c-29.87,0-62.62,8.6-97.36,25.57C76.44,178.11,37.58,210.66,4.6,253.47A1.42,1.42,0,0,1,3.46,254Z"/><path class="cls-1" d="M320.63,299c-42.41,0-63.91-19.92-63.91-59.2a149,149,0,0,0,1.25-15,1.43,1.43,0,0,1,1.44-1.43h.87a1.44,1.44,0,0,1,.55,2.77c-.1,3.21-.53,7.94-1.24,13.81,0,37.2,20.54,56.16,61,56.16,13.31,0,29.51-4.42,48.17-13.13,5.49-2.74,22.44-11.59,53.45-28.2,45.52-24.59,73.35-35.32,87.72-33.54a1.45,1.45,0,0,1,1.26,1.6,1.47,1.47,0,0,1-1.61,1.26c-13.71-1.59-41,8.94-86,33.22-31,16.62-48,25.49-53.56,28.25C351,294.45,334.36,299,320.63,299Z"/><path class="cls-1" d="M244.43,408.12c-35.88,0-54.07-13.59-54.07-40.39,0-9.72,4.78-26.19,14.22-48.94,9.26-23.76,13.58-40.73,13.58-53.37,0-23.76-17.08-35.81-50.75-35.81-27.71,0-59.63,7.88-94.87,23.44-30.24,13.77-51.82,26.57-66,39.11a1.41,1.41,0,0,1-2-.12,1.44,1.44,0,0,1,.13-2c14.37-12.74,36.18-25.69,66.7-39.59,35.62-15.72,67.94-23.69,96.05-23.69,35.59,0,53.63,13,53.63,38.69,0,13-4.39,30.31-13.79,54.45-9.3,22.42-14,38.52-14,47.86,0,25.24,16.74,37.51,51.19,37.51,28.48,0,63.56-9.47,104.27-28.14a1.43,1.43,0,0,1,1.91.7,1.44,1.44,0,0,1-.71,1.91C308.81,398.56,273.33,408.12,244.43,408.12Z"/></svg>