<svg id="圖層_1" data-name="圖層 1" xmlns="http://www.w3.org/2000/svg" viewBox="0 0 512 512"><defs><style>.cls-1{fill:#fff;}.cls-2{fill:#595757;}.cls-3{fill:#9e9e9f;}.cls-4{fill:none;}</style></defs><path class="cls-1" d="M3.46,256q0,104.65,73.62,178.49c49.67,49.2,109.15,74,178.92,74s129.28-24.84,178.48-74S508.54,325.78,508.54,256,483.72,126.75,434.48,77.09C385.28,27.84,325.77,3.46,256,3.46S126.75,27.84,77.08,77.09C27.87,126.75,3.46,186.21,3.46,256"/><path class="cls-2" d="M256,512C185.93,512,124.91,486.75,74.65,437,25.11,387.42,0,326.55,0,256,0,185.64,25.11,124.63,74.63,74.66,124.59,25.11,185.61,0,256,0c70.56,0,131.44,25.12,180.93,74.65C486.75,124.89,512,185.91,512,256c0,70.27-25.26,131.14-75.07,180.93S326.26,512,256,512ZM256,6.92c-68.5,0-127.88,24.43-176.49,72.62C31.35,128.15,6.92,187.53,6.92,256c0,68.64,24.42,127.86,72.6,176,48.91,48.46,108.29,73,176.48,73,68.35,0,127.58-24.57,176-73s73-107.66,73-176c0-68.21-24.57-127.59-73.05-176.49C383.89,31.35,324.67,6.92,256,6.92Z"/><path class="cls-3" d="M128.87,268.83a233.4,233.4,0,0,0-3.42,40.27c0,24.8,8.12,47,24.83,67.16a148.35,148.35,0,0,0,15.83,17.14c22.27,19.67,44.09,30,65.48,31.66q28.29,2.58,51.38,0c21.4-1.7,42.8-12,65.07-31.66,27.39-24.39,41.09-52.66,41.09-84.3,0-23.58-3.44-43.69-9.42-60.79-6-15.86-16.71-36-33-59.09-9.84-14.55-24.81-34.66-44.5-60.34-26.55-37.24-41.08-56.49-43.67-57.35h-3c-2.13.86-16.69,20.11-43.24,57.35-20.11,25.68-34.65,45.79-44.92,60.34-15.84,23.12-27,43.23-32.54,59.09A133.17,133.17,0,0,0,128.87,268.83Zm44.95,1.29c0,21,1.27,33.37,3.42,37.25-16.7,2.14-25.67,3.86-26.11,4.27v-9.85a111.65,111.65,0,0,1,1.29-26.94,80.88,80.88,0,0,1,7.7-24.4C167,235,179,216.2,196.93,194,181.5,223.91,173.82,249.59,173.82,270.12Zm-10.7,64.65c6.86,0,12-1.29,15.84-3.88,1.27,21.43,9.42,41.1,24.39,58.65-16.7-7.7-29.53-16.28-37.65-27.83-8.57-10.7-12.84-20.11-12-27.81C154.13,334.32,157.13,334.77,163.12,334.77Z"/><path class="cls-2" d="M258.58,427.79c-8.62,0-17.69-.44-27.12-1.3-21.37-1.27-43.69-12-66.3-32-27.31-24.29-41.15-52.88-41.15-85,0-24.16,3.11-44.21,9.51-61.29,5.57-16.3,16.58-36.29,32.71-59.37,10.75-15.71,25.88-36,45-60.44C223.05,111.6,251.14,72.18,255,70.6a1.45,1.45,0,0,1,1.09,2.68c-1.57.91-12.37,14-42.61,56.85-19.09,24.4-34.18,44.69-44.92,60.35-16,22.88-26.86,42.63-32.35,58.71-6.3,16.8-9.35,36.51-9.35,60.32,0,31.23,13.52,59.1,40.18,82.82,22.11,19.52,43.85,30.06,64.6,31.29,18.72,1.71,35.92,1.72,51.15,0,20.82-1.24,41.82-11.48,64.27-31.31,26.94-23.58,40.6-51.44,40.6-82.81,0-22.26-3.14-42.54-9.33-60.31-6.48-17.52-17.82-37.82-32.8-58.69-9.59-14.61-23.83-33.38-44.47-60.34-35.84-50.84-42-56.39-43-56.88a1.43,1.43,0,1,1,.94-2.71c1.16.38,4.69,1.55,44.4,57.89,20.65,27,34.91,45.76,44.52,60.41,15.09,21,26.57,41.56,33.13,59.35,6.31,18.09,9.51,38.7,9.51,61.28,0,32.23-14,60.82-41.58,85-22.95,20.27-44.51,30.74-65.93,32A222.86,222.86,0,0,1,258.58,427.79Z"/><path class="cls-4" d="M153.71,333.9c-.85,7.7,3.42,17.11,12,28.24,8.12,11.12,21,20.11,37.65,27.4-15-17.55-23.12-37.22-24.39-58.65-3.87,3-9,4.29-15.84,4.29-6-.41-9-.41-9.41-1.28"/><path class="cls-4" d="M196.93,194c-15.43,30.37-23.11,56-23.11,76.6s1.27,32.93,3.42,36.81c-16.7,2.55-25.67,3.86-26.11,4.27v-9.39q-1.92-28.31,9-51.39C167,235.49,179,216.2,196.93,194"/></svg>