<svg id="圖層_1" data-name="圖層 1" xmlns="http://www.w3.org/2000/svg" viewBox="0 0 512 512"><defs><style>.cls-1{fill:#fff;}.cls-2{fill:#595757;}.cls-3{fill:#9e9e9f;}</style></defs><path class="cls-1" d="M3.46,256c0,69.77,24.41,129.27,73.66,178.48,49.72,49.2,109.25,74.05,179.1,74.05s129.38-24.85,178.63-74.05S508.54,325.78,508.54,256,484.13,126.75,434.85,77.09C385.6,27.86,326,3.46,256.22,3.46S126.84,27.86,77.12,77.09C27.87,126.75,3.46,186.22,3.46,256"/><path class="cls-2" d="M256.22,512C186.09,512,125,486.75,74.69,436.94,25.13,387.43,0,326.55,0,256c0-70.38,25.12-131.4,74.67-181.35C124.7,25.11,185.78,0,256.22,0c70.6,0,131.53,25.12,181.08,74.64,49.57,50,74.7,111,74.7,181.37,0,70.56-25.13,131.43-74.7,180.92C387.44,486.74,326.52,512,256.22,512Zm0-505.08c-68.55,0-128,24.43-176.67,72.62C31.36,128.14,6.92,187.51,6.92,256c0,68.65,24.44,127.87,72.65,176,49,48.47,108.4,73,176.65,73s127.67-24.57,176.18-73c48.23-48.15,72.68-107.38,72.68-176,0-68.5-24.45-127.88-72.68-176.49C384.2,31.35,324.92,6.92,256.22,6.92Z"/><path class="cls-3" d="M113.54,264.13c-.85,3.43-1.69,7.26-2.55,10.72-12.43,60.78-.44,104,35.13,129.68a216.13,216.13,0,0,0,113.53,39.81,125.93,125.93,0,0,0,25.28-1.27,177.57,177.57,0,0,0,81.8-35.57c24.44-19.24,37.71-46.64,39.44-82.59.85-19.27-3.87-43.21-14.58-71.9-12-33-16.27-53.49-13.28-61.19-8.12,11.12-18,28.23-30,51.34-2.57,5.56-5.56,11.12-8.57,16.7l-5.58-2.56c-6-6.85-9.4-13.28-9.84-19.7a4.54,4.54,0,0,1-.44-2.11v-6c.44-5.11,2.14-13.23,5.57-25.23s5.15-21.84,5.56-30c1.29-25.26-10.25-50.07-33.81-75.33-24.43-24.4-48.87-36.82-74.15-36.39l-12-.43c.43,0,.87.43,1.3.43,4.29,2.15,7.69,5.57,10.68,11.13,2.58,5.15,4.3,9.85,3.89,13.68-.46,13.73-5.15,26.58-14.17,38.54-2.56,3.42-12,14.13-28.28,31.27-15,16.23-26.54,33.77-33.84,53q-8.32-30.8-59.09-27c17.55,18.39,25.69,33.39,24.4,45.37C118.27,240.16,116.14,252.15,113.54,264.13Z"/><path class="cls-2" d="M266.13,446.35c-2.18,0-4.36-.06-6.56-.17-42.49-3-80.94-16.59-114.29-40.48C109.11,379.59,97.1,335.61,109.58,275c.41-1.88.82-3.64,1.23-5.38.44-1.89.88-3.78,1.32-5.78,2.68-12.33,4.78-23.91,6.43-35.41,1.22-11-6.63-25.51-24-44.19a1.42,1.42,0,0,1-.28-1.51,1.44,1.44,0,0,1,1.25-.91c34.37-2.12,54.84,7.26,60.57,28a1.46,1.46,0,0,1-1,1.78,1.44,1.44,0,0,1-1.78-1c-5.15-18.68-23.57-27.39-54.58-26.08,16.56,18.27,24,32.77,22.72,44.26-1.66,11.62-3.78,23.26-6.48,35.67-.44,2-.88,3.91-1.33,5.81-.4,1.74-.81,3.48-1.22,5.33C100.17,335,111.8,378,147,403.36c33.38,23.91,70.27,37,112.79,39.95a123.14,123.14,0,0,0,25-1.26c30.5-5.23,57.8-17.24,81.13-35.68,24.11-18.58,37.19-45.86,38.89-81.1.85-19.19-4-43.34-14.49-71.77-12-33-16.49-53.94-13.28-62.21a1.44,1.44,0,1,1,2.69,1.05c-2,5.22-1.36,19.9,13.29,60.17,10.6,28.79,15.53,53.31,14.67,72.89-1.74,36.13-15.19,64.13-40,83.24-23.69,18.73-51.44,30.93-82.43,36.26A124.91,124.91,0,0,1,266.13,446.35Z"/><path class="cls-2" d="M334.18,259.14a1.4,1.4,0,0,1-1.11-.52c-6.39-7.77-9.62-14.21-10.14-20.24a6.71,6.71,0,0,1-.47-2.89v-6c.26-2.83,1.31-10.66,5.63-25.22,4-14,5.19-23.83,5.5-29.63,1.26-24.57-10-49.56-33.42-74.26C276.09,75.88,252.18,64,227.07,64l-12-.43a1.44,1.44,0,0,1,.05-2.88h.06l12,.43c25.87,0,50.46,12.18,75.13,37.24,24,25.32,35.52,51,34.22,76.41-.46,8.54-2.4,19-5.62,30.28-3,10-5,19.13-5.52,24.55v5.91a3.89,3.89,0,0,0,.28,1.86,1.52,1.52,0,0,1,.16.55c.39,5.41,3.5,11.59,9.51,18.89a1.43,1.43,0,0,1-1.11,2.35Z"/><path class="cls-2" d="M154.67,211.64a1.36,1.36,0,0,1-.52-.09,1.45,1.45,0,0,1-.82-1.87c7.29-18.84,19.1-37.21,34.13-53.1,15.92-17.14,25.64-27.74,28.17-31.1,8.77-11.66,13.44-24.36,13.89-37.73.37-3.89-1.16-7.85-3.74-13-3-5.51-6.23-8.94-9.93-10.43a1.42,1.42,0,0,1-.48-.31,5.16,5.16,0,0,1-1.29-.85,1.44,1.44,0,0,1,2-2.06,7.72,7.72,0,0,1,1.07.65c4.26,1.79,7.91,5.62,11.18,11.67,2.83,5.67,4.49,10,4.06,14.54-.47,13.88-5.34,27.13-14.46,39.27-2.62,3.47-12.38,14.11-28.37,31.34-14.79,15.63-26.39,33.68-33.55,52.18A1.45,1.45,0,0,1,154.67,211.64Z"/><path class="cls-2" d="M218.09,378.58a1.53,1.53,0,0,1-.59-.13c-20.38-9.1-38.17-25.12-52.87-47.63-15.46-24-22.55-47.34-21.68-71.44a161.16,161.16,0,0,1,10.37-49.68,1.45,1.45,0,0,1,1.86-.84,1.43,1.43,0,0,1,.84,1.85,158.35,158.35,0,0,0-10.19,48.79c-.85,23.47,6.09,46.29,21.22,69.75,14.39,22,31.76,37.7,51.63,46.57a1.44,1.44,0,0,1-.59,2.76Z"/><path class="cls-2" d="M325.63,327.21a1.41,1.41,0,0,1-1.21-.66c-5-7.71-7.12-13.44-6.67-18,.44-12.6,3.59-22.4,9.36-29,7.46-12.54,13.75-24.63,19.83-36.33,12.27-24.08,22.11-41.08,30.2-52.17a1.44,1.44,0,1,1,2.33,1.69c-8,11-17.77,27.84-29.85,51.58-6.22,12-12.52,24.1-20.18,36.91-5.48,6.34-8.39,15.53-8.82,27.54-.37,4,1.66,9.26,6.21,16.3a1.43,1.43,0,0,1-1.2,2.22Z"/></svg>