<?xml version="1.0" encoding="utf-8"?>
<!-- Generator: Adobe Illustrator 24.3.0, SVG Export Plug-In . SVG Version: 6.00 Build 0)  -->
<svg version="1.1" id="圖層_1" xmlns="http://www.w3.org/2000/svg" xmlns:xlink="http://www.w3.org/1999/xlink" x="0px" y="0px"
	 viewBox="0 0 512 512" style="enable-background:new 0 0 512 512;" xml:space="preserve">
<style type="text/css">
	.st0{fill:#FFFFFF;}
</style>
<path class="st0" d="M241.9,5.9c7.8-7.8,20.5-7.8,28.3,0l233.5,233.5c6.9,6.9,6.9,18.1,0,25l0,0c-6.9,6.9-18.1,6.9-25,0L273.8,59.4
	v434.9c0,9.8-7.9,17.7-17.7,17.7h0c-9.8,0-17.7-7.9-17.7-17.7V59.4l-205,204.9c-6.9,6.9-18.1,6.9-25,0l0,0c-6.9-6.9-6.9-18.1,0-25
	L241.9,5.9z"/>
</svg>
