<?xml version="1.0" encoding="utf-8"?>
<!-- Generator: Adobe Illustrator 24.3.0, SVG Export Plug-In . SVG Version: 6.00 Build 0)  -->
<svg version="1.1" id="圖層_1" xmlns="http://www.w3.org/2000/svg" xmlns:xlink="http://www.w3.org/1999/xlink" x="0px" y="0px"
	 viewBox="0 0 512 512" style="enable-background:new 0 0 512 512;" xml:space="preserve">
<style type="text/css">
	.st0{clip-path:url(#SVGID_2_);fill:#FFFFFF;}
</style>
<g>
	<defs>
		<rect id="SVGID_1_" x="0" y="0" width="512" height="512"/>
	</defs>
	<clipPath id="SVGID_2_">
		<use xlink:href="#SVGID_1_"  style="overflow:visible;"/>
	</clipPath>
	<path class="st0" d="M162.5,339.1c-16.4,0-29.7,13.3-29.7,29.8c0,16.4,13.3,29.7,29.8,29.7c16.4,0,29.7-13.3,29.7-29.7
		C192.2,352.4,178.9,339.1,162.5,339.1z M162.5,381.5c-7.1,0-12.8-5.7-12.8-12.8c0-7.1,5.7-12.8,12.8-12.8s12.8,5.7,12.8,12.8
		C175.3,375.8,169.6,381.5,162.5,381.5L162.5,381.5z M306.9,339.1c-16.4,0-29.7,13.3-29.7,29.7c0,16.4,13.3,29.7,29.7,29.7
		s29.7-13.3,29.7-29.7C336.6,352.4,323.3,339.1,306.9,339.1z M306.9,381.5c-7.1,0-12.8-5.7-12.8-12.8c0-7.1,5.7-12.8,12.8-12.8
		s12.8,5.7,12.8,12.8C319.7,375.8,314,381.5,306.9,381.5C306.9,381.5,306.9,381.5,306.9,381.5z M343,160.6l-5.1,34H114.5l19,136.6
		h202.4l17.6-126.8l4-26.7h47.1v-17H343z M335.4,211.6l-2.4,17H136.4l-2.4-17H335.4z M148.3,314.2l-9.5-68.6h191.9l-9.5,68.6H148.3z
		"/>
</g>
</svg>
