<?xml version="1.0" encoding="utf-8"?>
<!-- Generator: Adobe Illustrator 24.3.0, SVG Export Plug-In . SVG Version: 6.00 Build 0)  -->
<svg version="1.1" id="圖層_1" xmlns="http://www.w3.org/2000/svg" xmlns:xlink="http://www.w3.org/1999/xlink" x="0px" y="0px"
	 viewBox="0 0 512 384" style="enable-background:new 0 0 512 384;" xml:space="preserve">
<style type="text/css">
	.st0{fill:#FFFFFF;}
</style>
<path class="st0" d="M502.3,126.7c2.6-2,6.4-1.5,8.5,1.1c0.8,1,1.2,2.3,1.2,3.6V336c0,26.5-21.5,48-48,48H48c-26.5,0-48-21.5-48-48
	V131.6c0-3.3,2.6-6,5.9-6c1.4,0,2.7,0.5,3.8,1.3c22.4,17.4,52.1,39.5,154.1,113.6c21.1,15.4,56.7,47.8,92.2,47.6
	c35.7,0.3,72-32.8,92.3-47.6C450.3,166.4,479.9,144.2,502.3,126.7z M256,256c23.2,0.4,56.6-29.2,73.4-41.4
	C462.1,118.3,472.2,109.9,502.8,86c5.8-4.5,9.2-11.5,9.2-18.9V48c0-26.5-21.5-48-48-48H48C21.5,0,0,21.5,0,48v19
	c0,7.4,3.4,14.3,9.2,18.9c30.6,23.9,40.7,32.4,173.4,128.6C199.4,226.8,232.8,256.4,256,256z"/>
</svg>
