<?xml version="1.0" encoding="utf-8"?>
<!-- Generator: Adobe Illustrator 24.3.0, SVG Export Plug-In . SVG Version: 6.00 Build 0)  -->
<svg version="1.1" id="圖層_1" xmlns="http://www.w3.org/2000/svg" xmlns:xlink="http://www.w3.org/1999/xlink" x="0px" y="0px"
	 viewBox="0 0 501.8 512" style="enable-background:new 0 0 501.8 512;" xml:space="preserve">
<style type="text/css">
	.st0{fill:#7095AB;}
</style>
<g>
	
		<ellipse transform="matrix(0.7314 -0.6819 0.6819 0.7314 -87.3197 302.5152)" class="st0" cx="340.4" cy="262.1" rx="16.9" ry="16.9"/>
	
		<ellipse transform="matrix(0.7314 -0.6819 0.6819 0.7314 -131.1025 178.8309)" class="st0" cx="161.5" cy="255.9" rx="16.9" ry="16.9"/>
	<path class="st0" d="M489.3,263.6C489.3,263.6,489.3,263.6,489.3,263.6L263.1,21c-8.4-9-20-14.3-32.3-14.7L54.2,0
		C41.9-0.4,29.9,4,21,12.5c-9,8.4-14.3,20-14.7,32.3L0,221.4c-0.5,12.3,4,24.3,12.4,33.3l226.2,242.6c17.5,18.7,46.8,19.8,65.5,2.3
		c0,0,0,0,0,0L487,329.1C505.7,311.7,506.8,282.3,489.3,263.6z M207.8,257.6c-0.9,25.6-22.4,45.6-48,44.7
		c-25.6-0.9-45.6-22.4-44.7-48c0.9-25.6,22.4-45.6,48-44.7S208.7,232,207.8,257.6z M262.2,354.5c0.4,8.2-5.9,15.1-14.1,15.5
		c-8.2,0.4-15.1-5.9-15.5-14.1c0-0.8,0-1.6,0.1-2.4l6.6-189.7c1-8.1,8.3-13.9,16.4-13c7.2,0.8,12.7,6.8,13.1,14L262.2,354.5z
		 M386.7,263.9c-0.9,25.6-22.4,45.6-48,44.7s-45.6-22.4-44.7-48c0.9-25.6,22.4-45.6,48-44.7C367.5,216.8,387.5,238.3,386.7,263.9z"
		/>
</g>
</svg>
