<?xml version="1.0" encoding="utf-8"?>
<!-- Generator: Adobe Illustrator 24.3.0, SVG Export Plug-In . SVG Version: 6.00 Build 0)  -->
<svg version="1.1" id="圖層_1" xmlns="http://www.w3.org/2000/svg" xmlns:xlink="http://www.w3.org/1999/xlink" x="0px" y="0px"
	 viewBox="0 0 512 266.2" style="enable-background:new 0 0 512 266.2;" xml:space="preserve">
<g>
	<path d="M193.1,133.6h125.8c2.8,0,5-2.3,5-5V5c0-2.8-2.3-5-5-5H193.1c-2.8,0-5,2.3-5,5v123.5C188,131.3,190.3,133.6,193.1,133.6z
		 M204.9,125.4c0.9-1.8,45.8-115.9,45.8-115.9s0.5-1.4,2-1.4c2,0,11,0,11,0s1.6-0.2,2.1,1.4c0.7,2,39.8,115.1,39.8,115.1
		s1,2.8-2.2,2.8h-15.1c-1.2,0-2.3-0.8-2.7-1.9l-34.4-100l-39.2,100.4c-0.4,0.9-1.2,1.5-2.2,1.5h-4.6
		C204.4,127.4,204.3,126.7,204.9,125.4z"/>
	<g>
		<path d="M506.9,266.1h5.1v-106c-2.2,0-2.9,0-4.4,0c-2.2,0-3.6,0-4.4,0V240h-2.1l-73.4-79.9h-5.8v106c1.5-0.7,2.9-0.7,4.4-0.7
			c1.5,0,2.9,0,4.4,0.7v-83.5h1.5L506.9,266.1z"/>
		<path d="M374,160.1v106c2.2-0.7,4.4-0.7,6.5-0.7c2.2,0,4.3,0,7.3,0.7v-106c-2.9,0-5.1,0-7.3,0C378.4,160.1,376.2,160.1,374,160.1z
			"/>
		<path d="M153.9,212.4c16-2.2,32-10.9,32-29.1c0-15.3-10.2-23.2-34.2-23.2h-0.7h-32.7v106c2.2-0.7,4.4-0.7,7.3-0.7
			c2.2,0,4.4,0,6.5,0.7v-52.3h5.8l40.7,52.3c2.9-0.7,5.8-0.7,8.7-0.7c2.9,0,6.1,0,9,0.7L153.9,212.4z M132.2,208v-42.1
			c5.7-0.7,16.7-0.8,22.7,0c11.5,2.2,17.2,8.7,17.2,19.5c0,11.6-8.7,19.6-20.3,21.8C144.5,208.8,134.3,208,132.2,208z"/>
		<path d="M236,266.1c1.4-0.7,3.6-0.7,5.1-0.7c1.5,0,3.6,0,5.1,0.7l29.3-87.1h1.4c9.5,30.5,26.2,80.6,27.6,87.1
			c2.1-0.7,4.8-0.7,6.3-0.7c2.2,0,4.2,0.1,5.6,0.8l37.2-106.1c-2.2,0-3.7,0-5.8,0c-1.4,0-1.2,0-2.6,0l-30.8,88.6H313
			c-13.8-42.1-26.2-77.7-29.1-88.6c-2.2,0-4.1,0-5.6,0c-1.5,0-3.6,0-5.1,0c-3.6,13.1-18.4,60.3-28.6,88.6h-1.5l-26.9-88.6
			c-2.9,0-5.1,0-7.3,0c-2.2,0-5.1,0-7.3,0L236,266.1z"/>
		<path d="M51.6,157.9h-3.7L0,266.1c1.5-0.7,2.9-0.7,5.1-0.7c2.2,0,3.6,0,5.8,0.7L27.8,224h18.7H65l17.1,42.1
			c2.2-0.7,5.1-0.7,7.9-0.7c2.9,0,5.1,0,8,0.7L51.6,157.9z M46.5,217.5h-16l15.7-39.2h0.3l15.9,39.2H46.5z"/>
	</g>
</g>
</svg>
