<svg id="圖層_1" data-name="圖層 1" xmlns="http://www.w3.org/2000/svg" viewBox="0 0 85 260"><defs><style>.cls-1{fill:#9e9e9f;}.cls-2{fill:none;stroke:#595757;stroke-linecap:round;stroke-linejoin:round;stroke-width:0.25px;}</style></defs><path class="cls-1" d="M28.85,33.38a1.85,1.85,0,0,0,.08.61v.17a.89.89,0,0,1,.43.09c0-2.25,1.21-4.14,3.54-5.52a3.35,3.35,0,0,0,.86.77,7.23,7.23,0,0,1,.52,1.64,3.56,3.56,0,0,1-.78,2,3.49,3.49,0,0,1-2.93,1.3l.09.08a.08.08,0,0,1,.08.09c2,0,3.28-.43,4-1.29v-.18h.08a.3.3,0,0,0-.08.18,8.74,8.74,0,0,0-.43,2,4.69,4.69,0,0,0,.34,2.24c.34.95,1.55,1.9,3.62,2.93q.25-2.58.26-7.76c-.26-.34-.6-.69-.86-1A14.82,14.82,0,0,1,34.79,26a3.09,3.09,0,0,1-1.55-1.38,10.33,10.33,0,0,1-.77-1.72v-.09l-.09-.6a8.44,8.44,0,0,0,1.72-1.81l.09-.09A9.1,9.1,0,0,0,35.4,17.7a18.63,18.63,0,0,0,.6-3.19q.26-3.75,1.55-4.92A5.69,5.69,0,0,1,40.83,8a5.4,5.4,0,0,0,2.5-.86,23.59,23.59,0,0,0,3.61,1.29,6.74,6.74,0,0,1,2.94,1.55,8.58,8.58,0,0,1,1.37,4.39A21.11,21.11,0,0,0,52,19.16c.26,1,.43,1.47.43,1.29a9.3,9.3,0,0,0,1.47,2.42V23c-.18,1.73-.69,2.85-1.81,3.19v.26a12,12,0,0,1-3,6.21,3.78,3.78,0,0,0-.78.86c-.17,5.43.44,9.05,2,10.69a8.28,8.28,0,0,0,2.41,1.55,5,5,0,0,0-1-4.05C50.91,41,50.39,40.45,50,40a2.66,2.66,0,0,1-.77-1.73,2.09,2.09,0,0,1,.69-1.89,16.76,16.76,0,0,1,1.81-1.72.8.8,0,0,1,.43-.35c.25,0,.69.35,1.2,1a4,4,0,0,1,.87,2.24,8.44,8.44,0,0,1-.52,2,6,6,0,0,0,.69-2.76c0-1.72-.52-2.76-1.55-3.19a2,2,0,0,0,.25-.43,1.92,1.92,0,0,0,.44-1.29l-.09-.26a.09.09,0,0,1,.09-.09A2.22,2.22,0,0,0,55,30.11a2.47,2.47,0,0,1,.26-.86,4.37,4.37,0,0,1,1-.87c1.12-.69,1.63-1.29,1.63-1.63a21.2,21.2,0,0,0-1.37-2.59,8,8,0,0,1-1-3.1c0-.17-.09-2.59-.09-7.33-.17-3.62-.86-6.46-2.33-8.44C51,2.35,48.5.89,45.48.89c-1.38,0-2.15.09-2.33.43a2.11,2.11,0,0,0-1.38-.26,8.21,8.21,0,0,0-6.2,3.11,9.42,9.42,0,0,0-2.5,5,41.72,41.72,0,0,1-2.07,7,10.11,10.11,0,0,0-1.47,5.08A13.35,13.35,0,0,0,30,24.07a6.3,6.3,0,0,0,2.15,2.68,7.18,7.18,0,0,0,.43,1.38C30.14,28.64,28.85,30.37,28.85,33.38Z"/><path class="cls-1" d="M23.24,105.35c-1.55,7.76-2.58,13.62-2.93,17.5-.08.51-.08,1-.17,1.46a122.53,122.53,0,0,0,.26,15.52c.09.77.17,1.55.26,2.41,0,.34.08.77.08,1.29v.26a8.07,8.07,0,0,1,.09,1.47c.09.43.09.77.17,1.2v.09c.52,5.69,1.29,12.58,2.24,20.86v.34c-.17.78-.25,1.64-.43,2.41a4.59,4.59,0,0,0,.86,2.33c-.08.43-.43,2.33-1.29,5.69A9,9,0,0,0,23,181a12.9,12.9,0,0,1,.68,2.68,8.49,8.49,0,0,0-.86,1.81c0,.51-.08,1.29-.08,2.32-.52,7.42-.69,14.83-.61,22.24,0,4.83.26,9.65.52,14.48l.17,4q0,1-.77,23.79a17.91,17.91,0,0,1,4,.43v.77a9.75,9.75,0,0,0,.09,1.38c.08,0,.08.09.08.18l.35.08A1.52,1.52,0,0,1,28,254.8h.18c1.2-.09,3.27-.17,6.12-.26h.17a.32.32,0,0,1,.26.09,1.05,1.05,0,0,1,.94.6.31.31,0,0,0,.09.26l.6.95c0,.86-.77,1.21-2.32,1.12a.3.3,0,0,0-.26.09h-.61c-.25-.09-.43-.09-.51-.18a23.26,23.26,0,0,0-3.88-.34h-.35a4.28,4.28,0,0,0-.43.08c-.25,0-.34-.08-.43-.34a1.26,1.26,0,0,1-1.29-.17h-.09a3.21,3.21,0,0,0-.51-.18c-.26-.08-.35-.25-.35-.34s.09-.26.09-.35c-.35,0-.52.35-.52.87s.26.86.95,1.2a7,7,0,0,0,1.12.43,5,5,0,0,0,.6.18,43.39,43.39,0,0,0,6.29.51c2.76,0,4.14-1.29,4.23-4a20,20,0,0,1-.86-3.45,11.07,11.07,0,0,0,1.2-1c.18.52.26.78.35.78a24.71,24.71,0,0,1-.43,3.53c0,.43-.09.78-.09,1.21a.31.31,0,0,0-.09.26c0,1.81,1.3,2.67,3.88,2.67a17.54,17.54,0,0,0,5.09-.6c.51-.09,1.2-.26,2.24-.52a1.65,1.65,0,0,0,1-1.72.86.86,0,0,0-.08-.44c-.43-1.72-.78-2.75-.78-3.1h.35a10.72,10.72,0,0,0,3.36-.69c1.63-17.92,2.75-32,3.27-42,.61-9.4.61-15.26,0-17.84-.34-6-.52-9.83-.52-11.46,0-4.74.09-7.85.44-9.23L59,158.44c1-4.48,1.64-8.62,2.16-12.58a104.72,104.72,0,0,0,.69-24.48A74.84,74.84,0,0,0,60.3,111L58.93,106a6.07,6.07,0,0,0-.52-.77h0a.87.87,0,0,1-.86.17,7,7,0,0,1-2.33.6c-3.71,0-6.81,0-9.31-.08a19.71,19.71,0,0,0-4.48.43,22.3,22.3,0,0,1-3.71,1,4.37,4.37,0,0,1-2.15-.87,11.45,11.45,0,0,0-2.33-1.2,28,28,0,0,0-5.69-1H24.28c-.26,0-.52.09-.69.09h-.17A3.69,3.69,0,0,1,23.24,105.35ZM41.08,254.54a1.79,1.79,0,0,1,1.38.52c.52.09,1.56.17,3,.34h.17c.69.09,1.64.18,2.59.26a1.08,1.08,0,0,1,.52.09h0a.77.77,0,0,1,.86.86c0,.52-.43.78-1.3.69-.17.17-.6.26-1.46.26a1.71,1.71,0,0,1-.43.09.89.89,0,0,1-.43-.09H42.81a.83.83,0,0,1-.78.34,2.66,2.66,0,0,1-2.84-1.72l-.17-.43.08-.09h0a1.39,1.39,0,0,1,.69-.69A3.22,3.22,0,0,1,41.08,254.54Zm.09-103.25c.09,4.31.17,10.51.26,18.79,0,1.72-.09,3-.09,4l.09.86c0,.35-.17,2.07-.52,5.18a22.23,22.23,0,0,0,.52,2.75c0,1.3-.26,3.62-.6,7.16-.09,2.5-.26,5.43-.52,8.7l-.86,21.38c-.35-3.36-.69-6.64-1-10-.52-5.6-.78-11.38-.86-17.24V175.42c0-10.17.08-18.1.34-24s.61-11.55,1.12-17.41a4,4,0,0,1,.26-.6h.86C40.74,141,41.08,147,41.17,151.29Z"/><path class="cls-2" d="M65.73,123.79c1.64-1.29,3.54-1,5.61.78h.08l.18.17V123.1c.43-17.06,0-28.09-1.47-33-.43-8-.6-14.22-.52-18.44a81,81,0,0,0-.26-9.91c-.25-2.33-.69-4.91-1.2-7.5a7.62,7.62,0,0,0-4.31-5.6,27.27,27.27,0,0,0-2.93-1.21"/><path class="cls-2" d="M65.73,123.79v.09h-.08v-.09a37.68,37.68,0,0,0,.17-6.2A66.65,66.65,0,0,0,63.75,107,59.69,59.69,0,0,1,61.6,96.56l-.09-4.14a153.57,153.57,0,0,0-.26-19h0a3.78,3.78,0,0,1-.08-.95"/><path class="cls-2" d="M66.08,146l-1,.68c-2.41,0-3.62-.25-3.62-.77s.43-1,1.55-1c.17,0,.52.09,1,.09a4.93,4.93,0,0,0,1.12-1.21A3.29,3.29,0,0,0,66.34,142v-.34h.08c-.08,0-.08-.09-.08-.09l.08-1.81c-.08-2.67-.25-4-.6-4h-.17c0,.09-.35.52-.78,1.47,0,.17.17,1.38.52,3.79a6.47,6.47,0,0,1-.69,2.59,1.63,1.63,0,0,1-1.12-1.55,22.81,22.81,0,0,0-.26-2.33,18.53,18.53,0,0,1-.6-4.57,13.22,13.22,0,0,1,1.38-5.43,15.9,15.9,0,0,0,1.63-5.86v-.09"/><path class="cls-2" d="M71.25,124.91v-.08l-.09.08h.09"/><path class="cls-2" d="M28.93,34.16V34a1.85,1.85,0,0,1-.08-.61c0-3,1.29-4.74,3.7-5.25"/><path class="cls-2" d="M52.46,20.45c0,.18-.17-.25-.43-1.29a21.11,21.11,0,0,1-.78-4.83,8.58,8.58,0,0,0-1.37-4.39,6.74,6.74,0,0,0-2.94-1.55,9.34,9.34,0,0,1-3.53-1.81C43.07,7.27,42.2,7.7,40.83,8a5.69,5.69,0,0,0-3.28,1.63Q36.26,10.76,36,14.51a18.63,18.63,0,0,1-.6,3.19"/><path class="cls-2" d="M51,17.44l-.78-.35V17l-.52.08h0c.09-.17.09-.26.18-.26a2.24,2.24,0,0,1-.69.26,1.11,1.11,0,0,1,.25-.34h-.08a2.53,2.53,0,0,1-.69.34h0l.34-.34h-.17c-.17.17-.34.34-.52.34"/><path class="cls-2" d="M48.32,17.09c.18-.17.18-.26.26-.34H48.5l-.61.52a1.28,1.28,0,0,0,.26-.52l-.69.69h0a2.38,2.38,0,0,0,.26-.61,2.42,2.42,0,0,0-.78,1V17.7a4.42,4.42,0,0,1,.35-.69"/><path class="cls-2" d="M47.29,17v0"/><path class="cls-2" d="M47,17.27a4.65,4.65,0,0,0-.34.43v-.09c.08-.17.17-.34.34-.34"/><polyline class="cls-2" points="48.32 17.09 48.32 17.09 48.32 17.09"/><path class="cls-2" d="M47.29,17l-.26.26"/><path class="cls-2" d="M49.1,19.59a.76.76,0,0,1,.69.78c0,.52-.43.86-1.29.86-.69,0-1.12-.26-1-.78-.08-.43,0-.69.35-.86"/><path class="cls-2" d="M47.81,19.59a2.28,2.28,0,0,1,.77-.08H49l.09.08"/><path class="cls-2" d="M51,20.28a4,4,0,0,0-1.9-.69h0"/><path class="cls-2" d="M53.41,31.66a.09.09,0,0,1,.09-.09A2.22,2.22,0,0,0,55,30.11a2.47,2.47,0,0,1,.26-.86,4.37,4.37,0,0,1,1-.87c1.12-.69,1.63-1.29,1.63-1.63a21.2,21.2,0,0,0-1.37-2.59,8,8,0,0,1-1-3.1c0-.17-.09-2.59-.09-7.33-.17-3.62-.86-6.46-2.33-8.44C51,2.35,48.5.89,45.48.89c-1.38,0-2.15.09-2.33.43a2.11,2.11,0,0,0-1.38-.26,8.21,8.21,0,0,0-6.2,3.11,9.42,9.42,0,0,0-2.5,5,41.72,41.72,0,0,1-2.07,7,10.11,10.11,0,0,0-1.47,5.08A13.35,13.35,0,0,0,30,24.07a6.3,6.3,0,0,0,2.15,2.68"/><path class="cls-2" d="M37.21,17.27c.08-.18.25-.26.51-.18h.09c.09,0,.17.09.34.09a1.71,1.71,0,0,0,.44-.17l-.18.34h0a6.56,6.56,0,0,1,.61-.26l-.43.35a1.6,1.6,0,0,1,.77-.43.75.75,0,0,1-.09.43"/><path class="cls-2" d="M37.21,17.27l-.18.08c.09-.08.09-.08.18-.08"/><path class="cls-2" d="M35.4,17.7l.51-.09a6.14,6.14,0,0,1,1-.52v.09l-.08.26c.17-.26.25-.35.43-.35v.18"/><path class="cls-2" d="M34.1,20.37l.09-.09A9.1,9.1,0,0,0,35.4,17.7"/><path class="cls-2" d="M38.76,19.51a.92.92,0,0,1,.86.86c-.09.52-.52.86-1.29.86s-1.12-.26-1.12-.78a.94.94,0,0,1,.43-.86"/><path class="cls-2" d="M37.64,19.59a2,2,0,0,0-1.64.78"/><path class="cls-2" d="M39.88,17.78a6.1,6.1,0,0,1,.51-.34l-.08.08a.76.76,0,0,1-.43.26"/><path class="cls-2" d="M39.27,17.44a2.16,2.16,0,0,1,.52-.35c0,.09-.09.26-.43.52a3.24,3.24,0,0,0,.86-.34l-.08.17c-.09,0-.18.17-.44.34h.18"/><path class="cls-2" d="M39.1,17.52h0"/><path class="cls-2" d="M39.27,17.44c-.08,0-.08.08-.17.08h0"/><path class="cls-2" d="M38.76,19.51h-.43a1.79,1.79,0,0,0-.69.08"/><path class="cls-2" d="M40.83,20.28a4,4,0,0,0-1.9-.69c0-.08-.09-.08-.17-.08"/><path class="cls-2" d="M42,30.11a3.86,3.86,0,0,0-1,.08"/><path class="cls-2" d="M45.91,30.11l-1.29-.26a1.48,1.48,0,0,1-.86.26,2.09,2.09,0,0,0-.69-.17c-.35,0-.69.17-1,.17"/><path class="cls-2" d="M45.91,30.11a7.15,7.15,0,0,1-2.15.69c-.95-.35-1.56-.61-1.73-.69"/><polyline class="cls-2" points="45.31 26.49 45.48 26.32 45.22 26.57 45.31 26.49"/><path class="cls-2" d="M42.72,26.49a1.14,1.14,0,0,0-.52-.17"/><path class="cls-2" d="M34.79,26v-.26a17.23,17.23,0,0,1-.69-5.34"/><path class="cls-2" d="M32.47,22.87v-.09l-.09-.6"/><path class="cls-2" d="M32.12,26.75A3.13,3.13,0,0,1,32,25.8a17,17,0,0,1,.44-2.93"/><path class="cls-2" d="M34.79,26a3.09,3.09,0,0,1-1.55-1.38,10.33,10.33,0,0,1-.77-1.72"/><path class="cls-2" d="M31.86,22.52a1.72,1.72,0,0,0,.52-.34"/><path class="cls-2" d="M32.9,28.73a4,4,0,0,1-.35-.6"/><path class="cls-2" d="M32.55,28.13a7.18,7.18,0,0,1-.43-1.38"/><path class="cls-2" d="M34.79,33.12a3.15,3.15,0,0,0,.43-1.46,8.13,8.13,0,0,1-.43-1.29.35.35,0,0,1-.08-.26,3.44,3.44,0,0,1-1-.61"/><path class="cls-2" d="M30.22,34.42h.35a3.49,3.49,0,0,0,2.93-1.3,3.56,3.56,0,0,0,.78-2,7.23,7.23,0,0,0-.52-1.64"/><path class="cls-2" d="M38.5,32.69c-.26-.34-.6-.69-.86-1A14.82,14.82,0,0,1,34.79,26"/><path class="cls-2" d="M33.76,29.5a3.35,3.35,0,0,1-.86-.77"/><path class="cls-2" d="M38.24,40.45c-2.07-1-3.28-2-3.62-2.93a4.69,4.69,0,0,1-.34-2.24,8.74,8.74,0,0,1,.43-2"/><path class="cls-2" d="M34.71,33.3v-.18h.08"/><path class="cls-2" d="M34.71,33.3a.3.3,0,0,1,.08-.18"/><path class="cls-2" d="M29.71,36.31a4.31,4.31,0,0,1-.35-1.89v-.17"/><path class="cls-2" d="M29.36,34.25h0a1.74,1.74,0,0,0,.86.17"/><path class="cls-2" d="M30.22,34.42c.26.08.44.08.52.17,2,0,3.28-.43,4-1.29"/><path class="cls-2" d="M32.64,39.16a5,5,0,0,1-2.93-2.85"/><path class="cls-2" d="M48.32,33.47a13.71,13.71,0,0,1-2.41,2.41,4.76,4.76,0,0,1-2.5.26,3.57,3.57,0,0,1-2.84-1c-.52-.52-1.21-1.38-2.07-2.42"/><path class="cls-2" d="M38.24,40.45q.25-2.58.26-7.76"/><path class="cls-2" d="M45.05,32.18a3.43,3.43,0,0,1-2.24,0"/><path class="cls-2" d="M29.36,34.25c0-2.25,1.21-4.14,3.54-5.52"/><path class="cls-2" d="M52.12,26.14c1.12-.34,1.63-1.46,1.81-3.19v-.08"/><path class="cls-2" d="M52.12,26.14c.08-.6.08-1,.17-1.46a12.79,12.79,0,0,0,.17-2.16V20.45"/><path class="cls-2" d="M55.22,24.42A18.85,18.85,0,0,1,53.93,23v-.08"/><path class="cls-2" d="M48.32,33.47a3.78,3.78,0,0,1,.78-.86,12,12,0,0,0,3-6.21v-.26"/><path class="cls-2" d="M52.81,33.64a2,2,0,0,0,.25-.43"/><path class="cls-2" d="M53.67,39.59a8.44,8.44,0,0,0,.52-2,4,4,0,0,0-.87-2.24c-.51-.69-1-1-1.2-1"/><path class="cls-2" d="M55.22,37.26a3.13,3.13,0,0,0-.6-2.67,3.56,3.56,0,0,0-1.56-1.38"/><path class="cls-2" d="M52.12,34.33l.69-.69"/><path class="cls-2" d="M53.67,39.59a6,6,0,0,0,.69-2.76c0-1.72-.52-2.76-1.55-3.19"/><path class="cls-2" d="M52.72,45.71a5,5,0,0,0-1-4.05C50.91,41,50.39,40.45,50,40a2.66,2.66,0,0,1-.77-1.73,2.09,2.09,0,0,1,.69-1.89,16.76,16.76,0,0,1,1.81-1.72.8.8,0,0,1,.43-.35"/><path class="cls-2" d="M52.81,41.31c.17-.26.25-.6.43-.86s.26-.6.43-.86"/><path class="cls-2" d="M53.06,33.21a1.89,1.89,0,0,0,.35-1.55"/><path class="cls-2" d="M51.69,32.43a6.51,6.51,0,0,1,1.72-.77"/><path class="cls-2" d="M53.93,22.87a9.3,9.3,0,0,1-1.47-2.42"/><path class="cls-2" d="M46.86,30.11h-1"/><path class="cls-2" d="M47.81,19.59c-.78.09-1.38.35-1.55.78"/><path class="cls-2" d="M32.38,22.18a8.44,8.44,0,0,0,1.72-1.81"/><path class="cls-2" d="M28.93,34.16a.89.89,0,0,1,.43.09"/><path class="cls-2" d="M29.71,36.31a6,6,0,0,1-.78-2.15"/><path class="cls-2" d="M60.91,47.43a17.18,17.18,0,0,0-4.92-1,11.84,11.84,0,0,1-3.27-.69"/><path class="cls-2" d="M52.72,45.71a8.28,8.28,0,0,1-2.41-1.55c-1.55-1.64-2.16-5.26-2-10.69"/><path class="cls-2" d="M60.91,47.43c.08,4-1.81,7.24-5.78,9.83A22.33,22.33,0,0,1,43.5,61.13"/><path class="cls-2" d="M40,61.05a16.46,16.46,0,0,1-8.7-3.36A10.64,10.64,0,0,1,28,53.12a20.25,20.25,0,0,1-.86-5.52v-.26"/><path class="cls-2" d="M42.55,61.22V60.7c-.95.18-1.81.26-2.59.35"/><path class="cls-2" d="M27.12,47.34c1.47-.34,2.93-.77,4.4-1.12,3-.94,5.08-2.06,6.2-3.62a12,12,0,0,0,.52-2.15"/><path class="cls-2" d="M41.08,62.86a2.66,2.66,0,0,1,.52.26v.69a1.14,1.14,0,0,1-.69.17c-.26,0-.43-.09-.43-.35,0-.51.17-.77.6-.77"/><path class="cls-2" d="M43.5,61.13a3.37,3.37,0,0,0-1,.09"/><path class="cls-2" d="M41.86,68.89a.69.69,0,0,1-.78.78c-.25,0-.43-.26-.43-.69,0-.6.26-.86.61-.86s.6.26.6.77"/><path class="cls-2" d="M41.26,72.94c.43,0,.6.18.6.61s-.17.69-.6.69a.41.41,0,0,1-.43-.44,7.26,7.26,0,0,1,.43-.86"/><path class="cls-2" d="M40,61.05V75.87a3.42,3.42,0,0,0,3-.17c-.09-1-.09-1.81-.09-2.58V72.6"/><path class="cls-2" d="M58.41,105.18a.84.84,0,0,0,.08-.43,9.37,9.37,0,0,1-.34-1.47c-.17-1.21-.43-2.84-.6-4.91-.61-5.17-.61-8.88.08-11.29.52-2.33,1.47-6.29,2.67-11.81.18-.6.35-1.21.52-1.81a.09.09,0,0,1,.09-.09,8.2,8.2,0,0,1,.26-.86"/><line class="cls-2" x1="42.89" y1="72.6" x2="43.5" y2="61.13"/><path class="cls-2" d="M42.89,72.6c-.17-5.35-.25-9.14-.34-11.38"/><path class="cls-2" d="M61.17,72.51Q63.5,64.76,64,63"/><path class="cls-2" d="M15.74,122.76v-.09c-.08-2.67-.08-5.34-.08-7.84A134,134,0,0,1,16.52,101c.69-6.29,1.38-10.6,2.16-13q.26-6.33.25-11.89c-.08-5.87-.25-11.12-.6-15.69s-.09-7.67,1-9.22a5.67,5.67,0,0,1,3.45-2.85c1.29-.34,2.75-.6,4.3-.95h.09"/><path class="cls-2" d="M23.42,104.23c-.18-.09-.26-.17-.26-.35.17-.51.26-1,.34-1.37a74.84,74.84,0,0,0,1-23.1c-1.12-8.62-1.73-14.31-2-17.15"/><path class="cls-2" d="M58.41,105.18h0a.87.87,0,0,1-.86.17,7,7,0,0,1-2.33.6c-3.71,0-6.81,0-9.31-.08a19.71,19.71,0,0,0-4.48.43,22.3,22.3,0,0,1-3.71,1,4.37,4.37,0,0,1-2.15-.87,11.45,11.45,0,0,0-2.33-1.2,28,28,0,0,0-5.69-1H24.28c-.26,0-.52.09-.69.09h-.17"/><path class="cls-2" d="M20.31,122.85c.35-3.88,1.38-9.74,2.93-17.5a3.69,3.69,0,0,0,.18-1.12"/><path class="cls-2" d="M20.31,122.85c-1.81-1.21-3.36-1.21-4.48-.09h-.09"/><path class="cls-2" d="M20.66,142.24c-.09-.86-.17-1.64-.26-2.41a122.53,122.53,0,0,1-.26-15.52c.09-.43.09-1,.17-1.46"/><path class="cls-2" d="M49.53,252.73h.35a10.72,10.72,0,0,0,3.36-.69c1.63-17.92,2.75-32,3.27-42,.61-9.4.61-15.26,0-17.84-.34-6-.52-9.83-.52-11.46,0-4.74.09-7.85.44-9.23L59,158.44c1-4.48,1.64-8.62,2.16-12.58a104.72,104.72,0,0,0,.69-24.48A74.84,74.84,0,0,0,60.3,111L58.93,106a6.07,6.07,0,0,0-.52-.77"/><path class="cls-2" d="M39.45,220.07l.86-21.38c.26-3.27.43-6.2.52-8.7.34-3.54.6-5.86.6-7.16a22.23,22.23,0,0,1-.52-2.75c.35-3.11.52-4.83.52-5.18l-.09-.86c0-.95.09-2.24.09-4-.09-8.28-.17-14.48-.26-18.79s-.43-10.26-1-17.84h-.86a4,4,0,0,0-.26.6c-.51,5.86-.86,11.64-1.12,17.41s-.34,13.79-.34,24v17.41c.08,5.86.34,11.64.86,17.24.26,3.36.6,6.64,1,10"/><path class="cls-2" d="M13.5,137.58a3.83,3.83,0,0,1-.25-1.12,7.74,7.74,0,0,1,.77-2.41l.86-3.36a25.93,25.93,0,0,0,.86-7.93"/><path class="cls-2" d="M20.74,143.53a9.17,9.17,0,0,0-.94-.86,3.55,3.55,0,0,1-1.73-.86c-.86-.86-1.21-2.33-1.21-4.4a4.3,4.3,0,0,1,.69-2.24"/><path class="cls-2" d="M20.66,142.24c-1.38,0-1.9-1-1.73-3a12.84,12.84,0,0,0-.25-2.58,3.77,3.77,0,0,0-.87-1.81"/><path class="cls-2" d="M21,146.46l-.26.17a14.52,14.52,0,0,1-4.91-2.84c-.17-.34-.43-.78-.6-1.12h0c-1.38-2.41-2-3.88-2-4.48l.25-.61"/><path class="cls-2" d="M20.83,145.26a8.54,8.54,0,0,1-2.93-.95,6.17,6.17,0,0,1-2.33-1.81h0c-.26-.43-.69-1.38-1.29-2.67-.34-1-.6-1.64-.78-2.25"/><path class="cls-2" d="M20.83,145.26a8.07,8.07,0,0,0-.09-1.47v-.26"/><path class="cls-2" d="M26,252.82a17.91,17.91,0,0,0-4-.43q.77-22.75.77-23.79l-.17-4c-.26-4.83-.52-9.65-.52-14.48-.08-7.41.09-14.82.61-22.24,0-1,.08-1.81.08-2.32a8.49,8.49,0,0,1,.86-1.81A12.9,12.9,0,0,0,23,181a9,9,0,0,1-.61-2.84c.86-3.36,1.21-5.26,1.29-5.69a4.59,4.59,0,0,1-.86-2.33c.18-.77.26-1.63.43-2.41v-.34c-.95-8.28-1.72-15.17-2.24-20.86v-.09"/><path class="cls-2" d="M21,146.46c-.08-.43-.08-.77-.17-1.2"/><path class="cls-2" d="M20.74,143.53c0-.52-.08-.95-.08-1.29"/><path class="cls-2" d="M30.4,255.15a1.51,1.51,0,0,0-.95-.26h-.69"/><path class="cls-2" d="M30.4,255.15c.08-.09.26-.18.34-.26s.17-.09.26-.18a3.37,3.37,0,0,0,.52-.08,1.57,1.57,0,0,1,.6.43,1.6,1.6,0,0,1,.43.86"/><path class="cls-2" d="M32.55,255.92a.31.31,0,0,1,.09-.26,5.31,5.31,0,0,1,.6-.69.28.28,0,0,1,.17-.08,2.73,2.73,0,0,0,.87-.35"/><path class="cls-2" d="M37.21,251.61A10.32,10.32,0,0,1,35,253a13.73,13.73,0,0,1-4.48.6,14.28,14.28,0,0,1-4-.6c-.17-.08-.35-.08-.52-.17"/><path class="cls-2" d="M34.28,254.54h.17a.32.32,0,0,1,.26.09,1.05,1.05,0,0,1,.94.6.31.31,0,0,0,.09.26"/><path class="cls-2" d="M38.24,256.18c0-.43.09-.78.09-1.21a24.71,24.71,0,0,0,.43-3.53c-.09,0-.17-.26-.35-.78"/><path class="cls-2" d="M49.53,252.73a28.1,28.1,0,0,1-3.88-.26,33.13,33.13,0,0,1-7.15-1.81h-.09"/><path class="cls-2" d="M39.1,255.66h0a1.39,1.39,0,0,1,.69-.69,3.22,3.22,0,0,1,1.29-.43,1.79,1.79,0,0,1,1.38.52"/><path class="cls-2" d="M45.65,255.4h-.17"/><path class="cls-2" d="M45.48,255.4c-1.46-.17-2.5-.25-3-.34"/><polyline class="cls-2" points="38.41 250.66 38.33 249.89 39.45 220.07"/><path class="cls-2" d="M25.14,255.75c-.17.08-.26.43-.26.95s.26.86.95,1.2a7,7,0,0,0,1.12.43,5,5,0,0,0,.6.18,43.39,43.39,0,0,0,6.29.51c2.76,0,4.14-1.29,4.23-4a20,20,0,0,1-.86-3.45"/><path class="cls-2" d="M38.41,250.66a11.07,11.07,0,0,1-1.2,1"/><path class="cls-2" d="M26.09,255a9.75,9.75,0,0,1-.09-1.38v-.77"/><path class="cls-2" d="M26.52,255.23l-.35-.08c0-.09,0-.18-.08-.18"/><path class="cls-2" d="M26.52,255.23A1.52,1.52,0,0,1,28,254.8h.18"/><line class="cls-2" x1="28.16" y1="254.8" x2="28.76" y2="254.89"/><path class="cls-2" d="M28.76,254.89c-.09,0-.17,0-.17.08a1.65,1.65,0,0,0-1,1.73v.17"/><path class="cls-2" d="M32.47,256a5.73,5.73,0,0,1-2.76,1.12c-.35,0-.52-.17-.52-.35v-.08"/><path class="cls-2" d="M28.41,257.13h0"/><path class="cls-2" d="M32.64,257.47a23.26,23.26,0,0,0-3.88-.34h-.35"/><line class="cls-2" x1="28.41" y1="257.13" x2="28.41" y2="257.13"/><path class="cls-2" d="M29.19,256.7a8.35,8.35,0,0,1-.78.43"/><path class="cls-2" d="M28.41,257.13a4.28,4.28,0,0,0-.43.08c-.25,0-.34-.08-.43-.34"/><path class="cls-2" d="M26.26,256.7h-.09a3.21,3.21,0,0,0-.51-.18c-.26-.08-.35-.25-.35-.34a1.3,1.3,0,0,1,.78-1.21"/><path class="cls-2" d="M26.26,256.7a.76.76,0,0,1-.09-.43,1.37,1.37,0,0,1,.35-1"/><path class="cls-2" d="M27.55,256.87a1.26,1.26,0,0,1-1.29-.17"/><path class="cls-2" d="M48.32,257.3c.87.09,1.3-.17,1.3-.69a.77.77,0,0,0-.86-.86.71.71,0,0,0-.52.17"/><path class="cls-2" d="M50.31,255.83a.86.86,0,0,1,.08.44,1.65,1.65,0,0,1-1,1.72c-1,.26-1.73.43-2.24.52a17.54,17.54,0,0,1-5.09.6c-2.58,0-3.88-.86-3.88-2.67a.31.31,0,0,1,.09-.26"/><path class="cls-2" d="M48.32,257.3v-.17a1.44,1.44,0,0,0-.43-.95c-.26-.43-.51-.6-.77-.6s-.43.17-.61.43"/><path class="cls-2" d="M47,257.73a2.36,2.36,0,0,0,1.29-.43"/><path class="cls-2" d="M46,257.56a.89.89,0,0,0,.43.09c.43,0,.6-.18.6-.44a1.67,1.67,0,0,0-.52-1.12V256"/><path class="cls-2" d="M45.31,257.21V257a7.48,7.48,0,0,0-.78-1.21,1.63,1.63,0,0,1,.95-.43"/><path class="cls-2" d="M45.31,257.21c.26.18.43.35.69.35"/><path class="cls-2" d="M42.89,256.27a1.73,1.73,0,0,0,1.73,1.2,1.41,1.41,0,0,0,.69-.08v-.18"/><path class="cls-2" d="M42.89,256.27a1.61,1.61,0,0,0,.09.6c-.09.26-.09.52-.17.69"/><line class="cls-2" x1="46" y1="257.56" x2="42.81" y2="257.56"/><path class="cls-2" d="M42.81,257.56a.83.83,0,0,1-.78.34,2.66,2.66,0,0,1-2.84-1.72"/><line class="cls-2" x1="39.19" y1="256.18" x2="39.02" y2="255.75"/><path class="cls-2" d="M38.24,256.18c.09-.09.43-.17.78-.43"/><path class="cls-2" d="M34,257.56c1.55.09,2.32-.26,2.32-1.12l-.6-.95"/><path class="cls-2" d="M35.74,255.49a1.08,1.08,0,0,0,.09.52,2.34,2.34,0,0,1-.87,1.12,4.91,4.91,0,0,1-.94.43"/><path class="cls-2" d="M34,257.56a.3.3,0,0,0-.26.09h-.61"/><path class="cls-2" d="M33.15,257.65v-.18h-.51"/><path class="cls-2" d="M32.64,257.47a.74.74,0,0,1-.43-.77,1.29,1.29,0,0,1,.26-.69"/><path class="cls-2" d="M32.47,256s0-.09.08-.09"/><path class="cls-2" d="M33.15,257.65c-.25-.09-.43-.09-.51-.18"/><path class="cls-2" d="M34.28,254.54c-2.85.09-4.92.17-6.12.26"/><path class="cls-2" d="M29.19,256.7v-.18a6.64,6.64,0,0,1,1.21-1.37"/><path class="cls-2" d="M50.31,255.83c-1.9-.17-3.45-.34-4.66-.43"/><path class="cls-2" d="M49.53,252.73a26.86,26.86,0,0,0,.78,3.1"/><path class="cls-2" d="M46.51,256a1.3,1.3,0,0,0-.86-.61"/><path class="cls-2" d="M42.46,255.06a1.85,1.85,0,0,1,.43,1.21"/><path class="cls-2" d="M39,255.75l.08-.09"/><path class="cls-2" d="M39.19,256.18c0-.17-.09-.35-.09-.52"/><path class="cls-2" d="M69.61,143a5.41,5.41,0,0,1,1.12-1.63v-.09"/><path class="cls-2" d="M66.08,146a4.22,4.22,0,0,0,2.15-.52,3.37,3.37,0,0,0,1.38-1.81V143"/><line class="cls-2" x1="70.73" y1="141.29" x2="70.73" y2="138.88"/><path class="cls-2" d="M69,137.07l-.78,6.55a11,11,0,0,0-1.29,1.81l-.86.52"/><path class="cls-2" d="M69.61,143a38.78,38.78,0,0,1,.43-4.74"/><path class="cls-2" d="M70.73,141.29a10.1,10.1,0,0,0,.87-4.14c0-5.34-.09-9.39-.35-12.24"/></svg>