<svg id="圖層_1" data-name="圖層 1" xmlns="http://www.w3.org/2000/svg" viewBox="0 0 85 260"><defs><style>.cls-1{fill:#9e9e9f;}.cls-2{fill:none;stroke:#595757;stroke-linecap:round;stroke-linejoin:round;stroke-width:0.25px;}</style></defs><path class="cls-1" d="M42,5.65a6.9,6.9,0,0,0-2-.43c-1.81,0-3.88,1.38-6,4.05-1.29,1.55-2.41,4.22-3.36,8.1s-2,6.38-3,7.5a10.53,10.53,0,0,0-1.63,2.41A2.67,2.67,0,0,0,26.44,29a4.07,4.07,0,0,1,.61,1.72,8.83,8.83,0,0,1-.35,1.38v.35h0a5,5,0,0,0,1,2.32,5.07,5.07,0,0,1,1,2.93A10.53,10.53,0,0,1,27.91,40a22.18,22.18,0,0,0-1.73,5.35v.52h.35a2.64,2.64,0,0,0-.35.69.31.31,0,0,1-.08.25,10.81,10.81,0,0,0-.43,3.11,2.07,2.07,0,0,0,.43,1.55c-.17.34-.26.69-.43,1.12a9,9,0,0,0-.78,3.62,7.59,7.59,0,0,0-1.55,1.89,2.71,2.71,0,0,0-.43,1,13.59,13.59,0,0,0-.09,4.14A16.37,16.37,0,0,0,22,65.47a11.11,11.11,0,0,0-.6,3.1v1a7.33,7.33,0,0,0-.78,2.59,3.76,3.76,0,0,0,.43,2c-.17-1.64.09-2.58.78-3a4.66,4.66,0,0,0,.43,1.12l.35-.09a6.52,6.52,0,0,1-.26-1.47v-.43l.17.26a4.65,4.65,0,0,1,2.58-1.46c1.3-.35,2-1,2.07-2a4.39,4.39,0,0,0-.6-2.41v-.08s.09,0,.09.08c0-.08,0-.08.08-.08.43,0,1.21-.18,2.42-.35,1.29-.35,2.32-1.47,3-3.27a19.94,19.94,0,0,0,.61-3.19,4,4,0,0,0-.52-1.64,3,3,0,0,0,.69-1.55h0v0a9.56,9.56,0,0,1,1.29-1.38,2.36,2.36,0,0,0,.6-1.73l-.34-.86a6.74,6.74,0,0,0,1.21-1.81l-.18.52c.09-.09.35.17.78.77a3.21,3.21,0,0,1,.6,2,4.08,4.08,0,0,1-1,2.41,6.85,6.85,0,0,0-1.38,3.1,2.29,2.29,0,0,1,.34-.6c.26-.43.87-1.29,1.81-2.5a5.26,5.26,0,0,0,1.56-3c0-.86-.78-2.06-2.16-3.7a9.06,9.06,0,0,0,.34-2.67,2,2,0,0,0-.6-1.73,9.57,9.57,0,0,0,2-3.88V37.71l-1-1.29a.64.64,0,0,1-.17-.34c-.43-.18-.86-.78-1.38-1.9a5.4,5.4,0,0,1-.95-2.24c0-.09,0-.17.09-.17a6.24,6.24,0,0,1-.35-.86,2.27,2.27,0,0,1-1.12-1.21,6.44,6.44,0,0,0-.43-1l-.17.09a.54.54,0,0,0,.08-.34c.09-.18.18-.26.18-.44A6.71,6.71,0,0,0,33,26.34c.09.51.18,1,.26,1.55a.31.31,0,0,1,.09-.26,1.31,1.31,0,0,1-.17-.78v-.34l-.09-.09c0-.17.09-.26.09-.34V26a.5.5,0,0,1,.17-.43h0v-.08c0-.18,0-.26.08-.35.09-.6.18-1,.26-1.38V23a20,20,0,0,1,.18-3.62,3,3,0,0,1,.17-.95v-.17a2.37,2.37,0,0,1,.26-1.3.94.94,0,0,1,.43-.86,2.73,2.73,0,0,1,.43-1c.34-.69,1.38-1.3,3.19-1.9a9.6,9.6,0,0,1,3.27-.86,1.79,1.79,0,0,1,1.73.77h.08c1.3,0,2.24,1.21,3,3.62,0-.08.09-.08.26-.08A17,17,0,0,1,48,19.36c.26.6.6,1.46,1.21,2.75a11.81,11.81,0,0,0,1.29,2.68c.43.86.69,1.29.86,1.37a1.87,1.87,0,0,0,.35.44h.17c.34,0,.52.34.43.94a27.17,27.17,0,0,1-.43,3.62,14.53,14.53,0,0,1-.95,3.28,19.42,19.42,0,0,1-1.55,2.41c-.09,1.21-.09,2.33-.09,3.36,1.12.86,1.9,3.28,2.24,7.07a24.48,24.48,0,0,0,2.59,9.31,21.63,21.63,0,0,0,1.55,2.67,10,10,0,0,0,1,1c-.09.94.6,2.06,1.9,3.18a6.16,6.16,0,0,0-.69,2.42A3,3,0,0,0,59,68.31a3.82,3.82,0,0,1,1.3,1.55V70c0,.52-.35,1-1,1.47a2.54,2.54,0,0,1-1.55.6c-1,0-1.38-.34-1.38-.94a.77.77,0,0,1,.34-.69l-.08-.09a1.18,1.18,0,0,0-1,1.38,3.93,3.93,0,0,0,.26.77,2.38,2.38,0,0,0,1.64,1h.69a5.76,5.76,0,0,0,2.32-.78,6.38,6.38,0,0,1-2.75,4.31,6.48,6.48,0,0,0,3.79-4.91,6.32,6.32,0,0,1,.77,2.67A6,6,0,0,1,62,77a5.44,5.44,0,0,0,1.12-3.36,4.62,4.62,0,0,0-.43-2.42c.18-.17.35-.34.52-.52A6.1,6.1,0,0,0,65,67.53a3.09,3.09,0,0,0-1-2.67,10.48,10.48,0,0,0,.94-6.55,16.73,16.73,0,0,0-2.5-6.46c-.25-.43-.43-.69-.6-1l-.09-.09c-.51-.78-.86-1.47-1.2-1.9-.17-.34-.35-.51-.43-.69a10.81,10.81,0,0,1-.43-4.82,19.79,19.79,0,0,0,.43-3.88,5.82,5.82,0,0,0-.43-1.73A5.32,5.32,0,0,0,61,35.13a7.34,7.34,0,0,1-.44-2.24A10.42,10.42,0,0,0,61.35,30c0-.78-.6-1.81-1.9-3.19l-.34-.35c-.86-3.19-1.47-5.86-1.9-8a22.8,22.8,0,0,0-2.41-6.64,16.91,16.91,0,0,0-3.71-4.65,10.24,10.24,0,0,0-6.2-2.59A3.68,3.68,0,0,0,42,5.65Zm10.68,21.2c.09.09.26.18.35.26.17.61.35,1.12.52,1.73a1.2,1.2,0,0,1-1.21,1.29A31.08,31.08,0,0,0,52.64,26.85Z"/><path class="cls-1" d="M30.75,114.77c-.51-.09-.95-.18-1.46-.26a25.32,25.32,0,0,1-5.09-1.3,6,6,0,0,0-2.15-.68,16.43,16.43,0,0,1-.61,2.75c-.43,1.3-1.12,2.85-1.89,4.74a27.34,27.34,0,0,0-1.38,7.42,29.69,29.69,0,0,0,.17,3.36c.52,0,.78.86.78,2.41,0,.26-.09.43-.26.43H18.6V135a3.82,3.82,0,0,0,.09,1.21v.69c0,1,.17,3.36.34,7.06-.17-.08-.26-.08-.34-.17a1.56,1.56,0,0,0-.18.69c0,1.55-.08,2.67-.08,3.53a2.51,2.51,0,0,0,.43,1.81,4.84,4.84,0,0,0,.95.44h.08a34.37,34.37,0,0,0,4.49,1,60.55,60.55,0,0,0,19.3,0,21.26,21.26,0,0,1,2.16-.34,2.32,2.32,0,0,0-.09-.78,2.32,2.32,0,0,1,.78.09A59.75,59.75,0,0,0,60.06,150a42.36,42.36,0,0,0,4.91-.78,32.2,32.2,0,0,0,6.55-2.33,2.78,2.78,0,0,0,1.29-1.12l-1.55-6a13.71,13.71,0,0,0-.34,1.64,4.75,4.75,0,0,1-.18,1.72,3.15,3.15,0,0,1-.43,1.55A13.19,13.19,0,0,1,67,146.74,11.73,11.73,0,0,1,64.37,148a.39.39,0,0,1-.35-.43,6.38,6.38,0,0,1-1.38.26c-.51,0-.77-.17-.77-.34s0-.35.08-.43V147a1.93,1.93,0,0,1,.78-1.72c0-.09.26-.18.69-.43a2.12,2.12,0,0,1,.86-1.12,2,2,0,0,1-.6-1.12,6.22,6.22,0,0,1-.35-2.42,27.14,27.14,0,0,0,.35-3.45c-.86-1-1.12-2.58-.78-4.56a13.76,13.76,0,0,1,1.55-5.09,30.75,30.75,0,0,0-2-14.22,3.86,3.86,0,0,1-.09-.43,31.28,31.28,0,0,1-8.7,2,4.88,4.88,0,0,1-1.9.35,29.7,29.7,0,0,0-4.48-.35,17.6,17.6,0,0,0-3.62.35,2.19,2.19,0,0,0-1,.26,2,2,0,0,0-.61.17.69.69,0,0,0-.34.08,2.45,2.45,0,0,1-.78.18,14.79,14.79,0,0,1-1.81.34.89.89,0,0,1-.43.09l-2-.26a4.31,4.31,0,0,0-1.46-.43c-.09-.09-.18-.17-.26-.17a2.07,2.07,0,0,1-.69.08A7.1,7.1,0,0,1,33,115c-.34,0-.69-.09-1.12-.09S31.1,114.85,30.75,114.77Zm-8.18.69h.94a1.44,1.44,0,0,1,.87,1.37c0,.87-.44,1.3-1.12,1.3a1.35,1.35,0,0,1-1.47-1.55A1.11,1.11,0,0,1,22.57,115.46Zm-3.88,8.87c0-.34.08-.6.26-.69a.56.56,0,0,1,.6-.51c.77,0,1.12.51,1.12,1.63,0,.78-.26,1.21-.69,1.21C19.12,126,18.69,125.45,18.69,124.33Zm22.41-6.81v-.08l.69-.09a1.59,1.59,0,0,1,1.8,1.81c0,.78-.43,1.12-1.29,1.12-1.2,0-1.89-.51-1.89-1.64C40.41,117.87,40.58,117.52,41.1,117.52Zm10.17-2.58H52c1.29,0,2,.43,2,1.38,0,.77-.6,1.12-1.81,1.12-1,0-1.64-.35-1.64-1.21S50.75,115,51.27,114.94ZM61.52,113c.86,0,1.38.52,1.38,1.55,0,.87-.43,1.21-1.29,1.21-1.12,0-1.73-.34-1.73-1.21,0-.69.18-1.12.52-1.2C60.57,113.13,60.92,113,61.52,113Z"/><path class="cls-1" d="M44.8,189.58l-.17-1.38a18.65,18.65,0,0,1-.6,2c-2,4.57-4.74,6.21-8.28,4.83s-5.51-3.1-5.86-5.26A19.76,19.76,0,0,1,29.8,186a2.1,2.1,0,0,0-.86,2,8.3,8.3,0,0,0,.43,2.5c.09,1.47.18,2.41.26,2.84a4.75,4.75,0,0,1,.17.78,1.06,1.06,0,0,1,.09.52,24.57,24.57,0,0,0,3.45,2.93,13,13,0,0,0,3.62,2,1.39,1.39,0,0,0,.6.09c.78,0,2-1,3.79-2.93-1.81,1.89-3,2.93-3.79,2.93a1.39,1.39,0,0,1-.6-.09v.95c0,1.29.43,5,1.21,10.94a1.58,1.58,0,0,0,.08.61,4.69,4.69,0,0,0,3.45-2,4.69,4.69,0,0,1-3.45,2v1.55a4.05,4.05,0,0,0,1.64-.78,4.05,4.05,0,0,1-1.64.78h0a10,10,0,0,1,.09,1.64h.08c.52,0,1.12-.44,1.81-1.3-.69.86-1.29,1.3-1.81,1.3h-.08c.08.69.08,1.29.17,2.06a12.49,12.49,0,0,0,1.64-1.63,12.49,12.49,0,0,1-1.64,1.63c0,.95.09,2.07.17,3.11h.09c.34,0,.69-.35,1.21-1.21A12.59,12.59,0,0,0,41.53,216,12.59,12.59,0,0,1,40,219.14c-.52.86-.87,1.21-1.21,1.21h-.09a10,10,0,0,0,.09,1.64l-.09,1.8a12.91,12.91,0,0,1-.08,1.47v.43a3.29,3.29,0,0,0,2.58-.69l1.73-1.72c.17-2.07.17-3.54.17-4.4,0-2.93-.26-4.65-.78-5.08a17.42,17.42,0,0,0,.52-2.33v-.34l.09-1.21a2.3,2.3,0,0,1-.26-.78,9.27,9.27,0,0,0,.26-1.55,4.23,4.23,0,0,1-.44-1c0-.17.26-1.12.78-3.1a22,22,0,0,0,.34-4.83,8.54,8.54,0,0,1-3.44,4.49,8.54,8.54,0,0,0,3.44-4.49c.09-.34.18-.6.26-.94.18-1,.43-2.42.69-4.14C44.72,191.73,44.8,190.44,44.8,189.58Z"/><path class="cls-1" d="M47.9,187.85a1.14,1.14,0,0,1-.08-.51c-.52.17-.78.77-.78,1.89s.09,2.42.18,4.05c.08.44.08.95.17,1.47,0,1.64-.09,4-.35,7C47,203,46.87,204.4,46.7,206a5.67,5.67,0,0,0,.08,1.12,20.53,20.53,0,0,0,1,6.38c0,.09.08.35.08.43a12.14,12.14,0,0,1-1.12,4.23,4.69,4.69,0,0,0,.52,1.72,3.7,3.7,0,0,1,.43,1.9,32.26,32.26,0,0,1-1.2,3.53,10.84,10.84,0,0,0-.87,5.17,15.12,15.12,0,0,1-.51,5.26c0,.17-.09.34-.09.6l-.26,6.64a66.49,66.49,0,0,1-.52,6.64c.35,3.7,1.38,5.68,3.28,5.86a13.16,13.16,0,0,0,5.6-1,5,5,0,0,0,2.93-4.82,46.81,46.81,0,0,0-.17-7.67c-.17-2.76-.34-5.26-.34-7.5s-.09-3.88-.18-4.83-.17-1.21-.26-1.21A4.29,4.29,0,0,0,56,226l-.18-2.41A12.45,12.45,0,0,0,56.7,222l.51-2.16a30.41,30.41,0,0,1,1.21-4.39c.09-.44.17-.7.17-.78s-.08,0-.17-.09v-.17c.26-.6.34-.86.34-.86l-.25-.26a6.34,6.34,0,0,0,.77-2.41,3.71,3.71,0,0,1-.26-.78V210a11.69,11.69,0,0,0,.95-3.36L59.8,206a4.8,4.8,0,0,0,1-2.41v-4a7.62,7.62,0,0,0,.08-1.21c.09-.78.09-1.38.18-1.81,0-.26,0-.43.08-.52v-.34a7.78,7.78,0,0,0,.6-2.24l-.08-.43a12.88,12.88,0,0,0,.86-3.28c-.52-.52-.86-.95-1.12-1.21-.09.44-.09.87-.17,1.21C54.11,189.84,49.63,189.23,47.9,187.85Zm7.42,45.77h0ZM47.9,221.55v.09s0-.09-.08-.09ZM50.58,220h0v0Zm.51,5.61v.08h0Z"/><path class="cls-1" d="M30.84,199.66a7.72,7.72,0,0,0,.34,1.38c.09.61.35,1.29.52,2,.52,2.33.95,4.4,1.21,6.3a4.44,4.44,0,0,0,.26,1.37l.17.44.26.77c-.09.78-.09,1.64-.18,2.41,0,.61-.08,1.13-.08,1.64-.09.69-.17,1.38-.26,2.07-.09.17-.09.35-.26.52v10a17,17,0,0,0,1,6.63,7.36,7.36,0,0,1,.69,1.47,29.84,29.84,0,0,0,2.07,3.7c.77,1.12,1.55,1.64,2.24,1.64a4.25,4.25,0,0,0,2.24-.52,5.7,5.7,0,0,0,1.55-2.41,15.77,15.77,0,0,0,.86-4.48l-.69-7.84c.09-1.21.18-2.42.18-3.45L41.18,225a3.29,3.29,0,0,1-2.58.69v-.43a12.91,12.91,0,0,0,.08-1.47l.09-1.8a10,10,0,0,1-.09-1.64c-.08-1-.17-2.16-.17-3.11-.09-.77-.09-1.37-.17-2.06a10,10,0,0,0-.09-1.64h0V212a1.58,1.58,0,0,1-.08-.61c-.78-5.94-1.21-9.65-1.21-10.94v-.95a13,13,0,0,1-3.62-2,24.57,24.57,0,0,1-3.45-2.93c.09.51.26,1.2.43,2.07v.08h0a9.83,9.83,0,0,1,.52,2.85Z"/><path class="cls-2" d="M43.59,198.71c.09-.34.18-.6.26-.94.18-1,.43-2.42.69-4.14.18-1.9.26-3.19.26-4l-.17-1.38a18.65,18.65,0,0,1-.6,2c-2,4.57-4.74,6.21-8.28,4.83s-5.51-3.1-5.86-5.26A19.76,19.76,0,0,1,29.8,186a2.1,2.1,0,0,0-.86,2,8.3,8.3,0,0,0,.43,2.5c.09,1.47.18,2.41.26,2.84a4.75,4.75,0,0,1,.17.78,1.06,1.06,0,0,1,.09.52,24.57,24.57,0,0,0,3.45,2.93,13,13,0,0,0,3.62,2"/><path class="cls-2" d="M41.35,196.65c-1.81,1.89-3,2.93-3.79,2.93a1.39,1.39,0,0,1-.6-.09"/><path class="cls-2" d="M38.25,212a1.58,1.58,0,0,1-.08-.61c-.78-5.94-1.21-9.65-1.21-10.94v-.95"/><path class="cls-2" d="M38.68,220.35a10,10,0,0,0,.09,1.64l-.09,1.8a12.91,12.91,0,0,1-.08,1.47v.43a3.29,3.29,0,0,0,2.58-.69l1.73-1.72c.17-2.07.17-3.54.17-4.4,0-2.93-.26-4.65-.78-5.08a17.42,17.42,0,0,0,.52-2.33v-.34l.09-1.21a2.3,2.3,0,0,1-.26-.78,9.27,9.27,0,0,0,.26-1.55,4.23,4.23,0,0,1-.44-1c0-.17.26-1.12.78-3.1a22,22,0,0,0,.34-4.83"/><path class="cls-2" d="M41.7,210a4.69,4.69,0,0,1-3.45,2"/><path class="cls-2" d="M40.15,203.2a8.54,8.54,0,0,0,3.44-4.49"/><path class="cls-2" d="M38.34,215.18a10,10,0,0,0-.09-1.64h0"/><path class="cls-2" d="M38.51,217.24c-.09-.77-.09-1.37-.17-2.06"/><path class="cls-2" d="M40.23,213.88c-.69.86-1.29,1.3-1.81,1.3h-.08"/><path class="cls-2" d="M41.53,216A12.59,12.59,0,0,1,40,219.14c-.52.86-.87,1.21-1.21,1.21h-.09"/><path class="cls-2" d="M38.68,220.35c-.08-1-.17-2.16-.17-3.11"/><path class="cls-2" d="M40.15,215.61a12.49,12.49,0,0,1-1.64,1.63"/><path class="cls-2" d="M39.89,212.76a4.05,4.05,0,0,1-1.64.78"/><path class="cls-2" d="M38.25,213.54V212"/><path class="cls-2" d="M32.91,114.94a1.42,1.42,0,0,1-.09-.61c-.08-9-.17-15.08-.17-18.44a142.05,142.05,0,0,1,.86-16.37c1-6.56,1.81-12.33,2.41-17.41"/><path class="cls-2" d="M41.61,115.37v-13c.52-4.74,1-11.47,1.38-20.26.43-9.74.86-16.55,1.21-20.43"/><path class="cls-2" d="M43.51,114.59c.08-5.6.43-13.79,1.21-24.56.77-11,1.2-19.31,1.46-25-.17-1.73-.26-3.11-.26-4.14"/><path class="cls-2" d="M42.39,74.34a20.4,20.4,0,0,1,.17-2.41"/><path class="cls-2" d="M42.65,70.81c.26-3.62.6-6.64.86-8.88"/><path class="cls-2" d="M42.47,114.85v-5.77c1.38-21.72,2.16-34.56,2.16-38.36.34-4,.43-7.15.43-9.48"/><path class="cls-2" d="M34.11,101.92c-.17-7.06-.17-10.77-.17-11.11,0-2.07.43-7.07,1.38-15.26.86-7.84,1.38-12.32,1.64-13.19"/><path class="cls-2" d="M41.18,96.32c.09-1.81.17-3.45.26-5.08"/><path class="cls-2" d="M40.92,100.89c.09-1.29.18-2.67.26-4"/><path class="cls-2" d="M41.44,90.37c.09-1.55.17-3,.26-4.48"/><path class="cls-2" d="M34.11,111.49v-8.88"/><path class="cls-2" d="M21.62,116.66a1.11,1.11,0,0,1,.86-1.12h.86c.6.17.86.61.86,1.38s-.34,1.29-1.12,1.29c-.95,0-1.46-.51-1.46-1.55"/><path class="cls-2" d="M18.86,123.64c0-.34.17-.51.6-.51.69,0,1.12.6,1.12,1.72,0,.78-.26,1.12-.77,1.12-.78,0-1.21-.52-1.21-1.55a1.08,1.08,0,0,1,.26-.78"/><line class="cls-2" x1="34.11" y1="114.94" x2="34.11" y2="113.3"/><path class="cls-2" d="M40.67,115.2a7.36,7.36,0,0,1-.18-2.16q.13-3.36.26-6.46"/><path class="cls-2" d="M40.92,117.44l.69-.09c1.21,0,1.81.6,1.81,1.9a1.06,1.06,0,0,1-1.2,1.12c-1.3,0-2-.6-2-1.64,0-.78.26-1.21.69-1.21v-.08"/><path class="cls-2" d="M51.09,115h.18a1,1,0,0,1,.51-.09c1.3,0,2,.52,2,1.38s-.61,1.2-1.73,1.2-1.64-.43-1.64-1.2.18-1.29.69-1.29"/><path class="cls-2" d="M30.58,114.85c-.26-5.86-.34-10.34-.34-13.53,0-14.91,1.2-28.18,3.7-39.82"/><path class="cls-2" d="M40.75,105.11c.09-1.12.09-2.15.17-3.27"/><path class="cls-2" d="M31.79,114.94c-.35-5.43-.52-9.74-.52-12.76A229.23,229.23,0,0,1,34.8,61.67"/><path class="cls-2" d="M60.23,113.39a1.86,1.86,0,0,1,1.12-.35c.95,0,1.38.52,1.38,1.64,0,.78-.43,1.21-1.29,1.21-1,0-1.64-.43-1.64-1.21s.17-1.12.43-1.29"/><path class="cls-2" d="M41.79,83.82c.08-2.67.25-5.08.43-7.32"/><path class="cls-2" d="M38.42,225.35c.09-.78.18-1.3.18-1.56V222c-.18-3.8-.43-7.33-.52-10.52-.86-6-1.21-9.74-1.21-10.95l-.08-.94"/><path class="cls-2" d="M61.69,196.3a17.75,17.75,0,0,1,2.16-.52c.52-.17.78-.77.78-1.72s-.18-1.38-.52-1.38-.86.43-1.55,1.47a8.17,8.17,0,0,0-1.12,2.06h0c.08,0,.17.09.25.09"/><path class="cls-2" d="M61.35,197.68c.43-.26.6-.52.6-.6a1,1,0,0,0-.26-.78"/><path class="cls-2" d="M62.9,209.83h0A16.87,16.87,0,0,0,64.11,203c0-2.58-.69-4.39-2-5.43l-.44.18"/><path class="cls-2" d="M62.21,201.9a2.78,2.78,0,0,1-.43-1.12,8.21,8.21,0,0,1-.52-2.67v-.43"/><path class="cls-2" d="M61,196.56c.17.26.34.43.34.6a4.06,4.06,0,0,1-.17.61l.08-.09"/><path class="cls-2" d="M61.35,197.68c.17,0,.26.09.34.09"/><path class="cls-2" d="M61.26,197.68h.09"/><path class="cls-2" d="M62.21,201.9c0-.51.09-.86.09-1.2,0-1.47-.17-2.5-.61-2.93"/><path class="cls-2" d="M61.69,197.77c1.13.51,1.64,1.2,1.64,2,0,1.72-.26,2.67-.69,2.67-.17,0-.34-.17-.43-.52"/><path class="cls-2" d="M60.57,209.66a.69.69,0,0,1-.08-.43,5.32,5.32,0,0,1,.43-.95"/><path class="cls-2" d="M51,225.69l.51-2.67a19.07,19.07,0,0,0,.61-3.28L52.9,212A76.71,76.71,0,0,1,54,203.2c.09-.35.26-2.93.61-7.85"/><line class="cls-2" x1="61.01" y1="210" x2="60.92" y2="209.75"/><path class="cls-2" d="M60.92,209.75h-.17a.31.31,0,0,1-.18-.09"/><path class="cls-2" d="M60.75,218.28a9.1,9.1,0,0,1-.18-1.9,37.69,37.69,0,0,0,.52-5.43L61,210"/><path class="cls-2" d="M60.92,208.28v-.6c.6-2.59,1-4.48,1.29-5.78"/><path class="cls-2" d="M62.38,210.78c-.08-.09-.08-.17-.08-.34,0-.35.17-.52.6-.61"/><path class="cls-2" d="M62.9,209.83l.09.69v.17"/><line class="cls-2" x1="62.82" y1="210.95" x2="62.73" y2="210.95"/><path class="cls-2" d="M62.73,211a.46.46,0,0,1-.35-.17"/><path class="cls-2" d="M63,210.69c0,.09-.09.18-.17.26"/><path class="cls-2" d="M60.92,208.28c.26.09.34.43.34.86,0,.18-.08.26-.08.43"/><path class="cls-2" d="M61.18,209.57c-.09.09-.17.09-.26.18"/><path class="cls-2" d="M63.33,217.68a20.26,20.26,0,0,0,.43-3.62,6.49,6.49,0,0,0-.77-3.37"/><path class="cls-2" d="M62.21,219.14a7.33,7.33,0,0,1-.26-2.5,22,22,0,0,1,.78-5.69"/><path class="cls-2" d="M62.82,219.05c-.09-1.12-.18-1.72-.18-1.81A31.25,31.25,0,0,0,63,212.5L62.82,211"/><path class="cls-2" d="M61.44,217.42a2.43,2.43,0,0,1-.18-1,15.11,15.11,0,0,1,.52-4"/><path class="cls-2" d="M60.06,218.28a9.1,9.1,0,0,1-.18-1.9A16.19,16.19,0,0,1,61,210"/><path class="cls-2" d="M59,217.42v-.52c0-3.1.52-5.6,1.55-7.24"/><path class="cls-2" d="M49.54,237.93a17.47,17.47,0,0,1,0-4.31A37.07,37.07,0,0,1,51,225.78"/><polyline class="cls-2" points="51.01 225.78 50.92 225.69 51.01 225.69"/><line class="cls-2" x1="51.01" y1="225.69" x2="51.01" y2="225.78"/><path class="cls-2" d="M61.78,212.33a13,13,0,0,1,.6-1.55"/><path class="cls-2" d="M61.78,212.33a12.13,12.13,0,0,0-.6-2.76"/><path class="cls-2" d="M28.68,37.71a5.07,5.07,0,0,0-1-2.93,4.49,4.49,0,0,1-1.12-2.32h0l.09-.26c.17-.86.25-1.38.25-1.38a3.44,3.44,0,0,0-.6-1.81c-.43-.78-.6-1.29-.43-1.73a7.5,7.5,0,0,1,1.64-2.41c1-1,2-3.62,2.93-7.5s2.07-6.55,3.36-8.1c2.24-2.67,4.22-4,6-4a5.14,5.14,0,0,1,2,.52"/><path class="cls-2" d="M38.25,13.41a2.74,2.74,0,0,0-2.84,1.21,6.81,6.81,0,0,0-1.64,3.87,25.5,25.5,0,0,0-.35,4.31,15.93,15.93,0,0,1-.51,3.62"/><path class="cls-2" d="M48.59,21.25h0a33.38,33.38,0,0,0-2.67-6,5.69,5.69,0,0,0-5-2.85c-1,0-1.63.26-1.89.78"/><path class="cls-2" d="M59,26.51c-1.29-1.38-2.24-2.33-2.76-2.93A23.64,23.64,0,0,1,52,16c-.87-2.67-2.25-4.31-3.88-4.91"/><path class="cls-2" d="M38.85,12.29a15.55,15.55,0,0,1,2.94-6.55"/><path class="cls-2" d="M41.79,5.74a3.61,3.61,0,0,1,2.93-1.12,9.88,9.88,0,0,1,6.2,2.5,16,16,0,0,1,3.79,4.74A19.71,19.71,0,0,1,57,18.41c.43,2.24,1,4.91,2,8.1"/><path class="cls-2" d="M32.91,26.42c-.17.43-.35,1-.52,1.55a1.22,1.22,0,0,0-.17.52"/><path class="cls-2" d="M32.22,28.49a.31.31,0,0,0-.09.26,9.84,9.84,0,0,1-3.79,4L29,35.65a9.75,9.75,0,0,1-.35,2.06"/><path class="cls-2" d="M33.86,31a2.16,2.16,0,0,1-1.12-1.21c-.26-.6-.44-1-.52-1.29"/><path class="cls-2" d="M32.91,26.42a32,32,0,0,0,1,4.4V31"/><path class="cls-2" d="M48.59,21.25a2.8,2.8,0,0,1-.77.09c-.09-.09-.26-.09-.6-.09-.18-.08-.35,0-.35.09s-.17-.09-.34-.09l-.35.17c-.09.09-.17.09-.34.09h-.43l-.44.17"/><path class="cls-2" d="M47.73,23.15c.52.26.78.51.78.86a.69.69,0,0,1-.78.78c-.6,0-.95-.26-.95-.87l.09-.51"/><path class="cls-2" d="M46.87,23.41a2.91,2.91,0,0,0-1.21,1.29"/><path class="cls-2" d="M46.87,23.41a2,2,0,0,1,.86-.26"/><path class="cls-2" d="M49.46,23.32c0,.09-.18,0-.52-.09a3.15,3.15,0,0,0-1.21-.08"/><path class="cls-2" d="M49.46,23.32c0-.09-.09-.17-.09-.26a19.19,19.19,0,0,1-.78-1.81"/><path class="cls-2" d="M52.47,26.94a6,6,0,0,1-1.12-.86,15.3,15.3,0,0,1-1.89-2.76"/><path class="cls-2" d="M34.89,21.77a3.54,3.54,0,0,0,1-.43"/><path class="cls-2" d="M36.53,21.42l.6.09.35.17.25-.17c.26.09.44.09.61.17"/><path class="cls-2" d="M37.73,23.66c-1,0-1.63.35-1.81,1"/><path class="cls-2" d="M37.73,23.66H38a2.08,2.08,0,0,1,1,.26"/><path class="cls-2" d="M39,23.92c.17.09.17.35.17.43,0,.44-.26.69-.78.69s-.86-.25-.86-.77a.76.76,0,0,1,.17-.61"/><path class="cls-2" d="M40.06,25a2,2,0,0,0-1-1"/><path class="cls-2" d="M42,30.82l.17.17h.09c-.09-.08-.18-.08-.26-.17"/><path class="cls-2" d="M42,30.82l-.09-.09h-.08a.25.25,0,0,0,.17.09"/><path class="cls-2" d="M37.56,37.63a13.1,13.1,0,0,1-2.07-2.42"/><path class="cls-2" d="M43.51,36.42a1.27,1.27,0,0,1-.6.17,4.06,4.06,0,0,0-.61-.17"/><path class="cls-2" d="M45.32,34.61l-.52.09a6.79,6.79,0,0,0-1.21-.09,1,1,0,0,1-.68.35l-.35-.18H42l-1.21-.25"/><path class="cls-2" d="M35.49,35.21a9.31,9.31,0,0,1-.86-1.89c-.34-.86-.52-1.55-.77-2.33"/><path class="cls-2" d="M51.44,33.06a12.59,12.59,0,0,0,.77-2.84"/><path class="cls-2" d="M44.28,30.65a4.28,4.28,0,0,0-.43.08"/><path class="cls-2" d="M51.44,33.06a10.12,10.12,0,0,1-1.29,2.5,9.27,9.27,0,0,1-.87.95"/><path class="cls-2" d="M61,63.23A11.88,11.88,0,0,0,62,58c0-2.16-1.72-5.52-5.25-10-3.54-4.65-5.26-8.62-5.26-12.07V33.06"/><path class="cls-2" d="M52.9,27.11a.86.86,0,0,1-.43-.17"/><path class="cls-2" d="M59,26.51a1.08,1.08,0,0,1,.26.34c1.29,1.3,1.9,2.33,1.9,3.11a12.47,12.47,0,0,1-.69,3,5,5,0,0,0,.43,2.16,5.23,5.23,0,0,1-1.38,2.58"/><path class="cls-2" d="M53.42,28.84A20.75,20.75,0,0,0,57,34.18a12.78,12.78,0,0,1,2.59,3.53"/><path class="cls-2" d="M53.42,28.84a6.71,6.71,0,0,1-.52-1.73"/><path class="cls-2" d="M57.13,28.66a17.8,17.8,0,0,1-4.23-1.55"/><path class="cls-2" d="M52.21,30.22a1.34,1.34,0,0,0,1.21-1.38"/><path class="cls-2" d="M52.47,26.94c0,1.21-.17,2.24-.26,3.28"/><path class="cls-2" d="M14,69.78a13.08,13.08,0,0,1-1.12-5.26,9.69,9.69,0,0,1,1.46-4.4,34,34,0,0,0,2.24-3.79A21.11,21.11,0,0,0,17.31,52a15,15,0,0,1,.17-1.9c.17-.77.34-1.29.6-1.46v-.09h.09a1.13,1.13,0,0,1,.17.26l.09.09"/><path class="cls-2" d="M15.93,66.07v-.69a23.5,23.5,0,0,1,.26-3.19c-.61.35-.86,1.64-.86,3.79a20.62,20.62,0,0,0,.51,2.93"/><path class="cls-2" d="M15.84,68.91a4.35,4.35,0,0,0-1.89.87"/><path class="cls-2" d="M14,69.78h-.09v.08c-.26.78-.6,2.07-1,4a31,31,0,0,0-.61,4.39v1.55"/><path class="cls-2" d="M15.33,77v-.09h0V77"/><path class="cls-2" d="M12.22,79.77h0c-.08.09,0,.18.09.35s.17.26.34.26a.3.3,0,0,0,.26-.09.31.31,0,0,0,.09-.17,2.61,2.61,0,0,0,.17-1.29c0-.26,0-.52-.09-.52V78"/><path class="cls-2" d="M13.08,78a6.48,6.48,0,0,0-.86,1.9v-.09"/><path class="cls-2" d="M13.08,78c.09-.08.09-.08.09-.17"/><path class="cls-2" d="M15.33,77c-.35,1.12-.69,1.72-1,1.72a.94.94,0,0,1-.6-.26"/><path class="cls-2" d="M13.17,77.79a2.13,2.13,0,0,0,.52.69"/><path class="cls-2" d="M14,80.38l-1-.26"/><path class="cls-2" d="M14.21,81.15a2.38,2.38,0,0,1-.61.26c-.34,0-.6-.34-.69-1.12"/><path class="cls-2" d="M13.69,78.48c.08.6.26,1.21.34,1.9.09.26.09.51.18.77a49,49,0,0,1,.51,8A57.83,57.83,0,0,0,14,97.62c-.08,2.67.18,8.18.78,16.63s.86,12.84.77,13.19a12.84,12.84,0,0,0-.86,2,16.65,16.65,0,0,0-1,4.31c-.18,2.32-.26,3.7-.35,4.31a2.53,2.53,0,0,0,.26,1.46c.09.26.69.69,1.81,1.38"/><path class="cls-2" d="M17.48,77.19c-.26.77-.69,1.21-1.12,1.21-.86,0-1.21-.44-1-1.38"/><path class="cls-2" d="M13.17,77.79A3.41,3.41,0,0,1,16,76.58c2.16,0,3.71.61,4.57,1.82"/><path class="cls-2" d="M67.56,58a12.77,12.77,0,0,0-1.73-6.47,5.24,5.24,0,0,0-3.53-2.58c-.26,0-.52-.09-.86-.09h-1"/><path class="cls-2" d="M59.54,37.71a5.45,5.45,0,0,1,.34,1.81,19.51,19.51,0,0,1-.34,3.88,10.4,10.4,0,0,0,.34,4.74"/><path class="cls-2" d="M59.88,48.14a27.78,27.78,0,0,1-2.15-4.48,13.53,13.53,0,0,1-.6-3.45l.08-1"/><path class="cls-2" d="M59.88,48.14a3.9,3.9,0,0,0,.52.69"/><path class="cls-2" d="M56.52,60.38l-1-1"/><path class="cls-2" d="M55.49,59.35c-.6-1-1.12-1.81-1.55-2.67a24.26,24.26,0,0,1-2.5-9.4c-.43-3.79-1.21-6.12-2.24-7"/><path class="cls-2" d="M61.61,50.9a3.41,3.41,0,0,1,.6,1,15.91,15.91,0,0,1,2.5,6.55,10.11,10.11,0,0,1-.86,6.46"/><path class="cls-2" d="M62.3,48.92a2,2,0,0,1-.69,1.81v.17"/><path class="cls-2" d="M60.4,48.83a21,21,0,0,0,1.21,1.9"/><path class="cls-2" d="M63.85,64.86c-.6-.43-1-.77-1.29-1A15.76,15.76,0,0,0,61,63.23"/><path class="cls-2" d="M62.56,71.24a1,1,0,0,1,.43-.43c1.2-1.29,1.81-2.33,1.81-3.28a3.06,3.06,0,0,0-.95-2.67"/><path class="cls-2" d="M65.14,70.21a3.89,3.89,0,0,0-2.15.6"/><path class="cls-2" d="M67.21,70.55c1.21-1.89,1.81-3.19,1.81-4a15.47,15.47,0,0,0-.6-4.14A26.7,26.7,0,0,1,67.56,58"/><path class="cls-2" d="M66.43,64.69c.26,2.41-.17,4.22-1.29,5.52"/><path class="cls-2" d="M67.21,70.55a4.65,4.65,0,0,0-2.07-.34"/><path class="cls-2" d="M56.52,60.38A6.58,6.58,0,0,0,58,61.67a14.16,14.16,0,0,0,3,1.56"/><path class="cls-2" d="M60.14,69.86a2.83,2.83,0,0,0-1.2-1.46,3.16,3.16,0,0,1-1.3-2.5,4.62,4.62,0,0,1,.78-2.33"/><path class="cls-2" d="M62,71.67a6.33,6.33,0,0,0,.86-2.07c0-1.81-1-3.44-3.1-4.91a5.77,5.77,0,0,1-1.38-1.12"/><path class="cls-2" d="M58.16,73.66a1.15,1.15,0,0,0-.78,0,2.26,2.26,0,0,1-1.55-1,8.38,8.38,0,0,1-.34-.78c0-.86.43-1.37,1.46-1.55-.08.09-.17.09-.34.18-.17.25-.35.43-.35.69,0,.68.44,1,1.38,1a2.93,2.93,0,0,0,1.64-.69,1.67,1.67,0,0,0,.86-1.38v-.26"/><path class="cls-2" d="M58.16,73.66c1.38-.26,2.07-1.3,2.07-2.94l-.09-.86"/><path class="cls-2" d="M61.44,72.19c-.18.17-.52.34-.87.6-.08,0-.08,0-.08.09"/><path class="cls-2" d="M60.49,72.88a13.29,13.29,0,0,1-2.33.78"/><path class="cls-2" d="M60.66,78.57v.26"/><path class="cls-2" d="M57.9,92.53a6.62,6.62,0,0,0,.43-1.72,16.93,16.93,0,0,0,.35-2.24c.17-2.33.34-4.14.34-5.52,0-.6-.08-1.73-.08-3.36H59c.61-.35,1-.69,1.47-1,.08-.09.17-.09.17-.17a3.6,3.6,0,0,0,.78-.87c.08-.17.25-.43.34-.6"/><path class="cls-2" d="M57,89a30.74,30.74,0,0,0,1.64-9.31v-1c0-.51-.08-.86-.08-1.12"/><path class="cls-2" d="M60.66,78.83c.09.77-.26,1.2-.95,1.2L59,79.69"/><path class="cls-2" d="M61.44,72.19c-.26,2.15-1.56,3.71-3.8,4.91a6.41,6.41,0,0,0,2.85-4.22"/><path class="cls-2" d="M68,76.67a.65.65,0,0,1-.09.35"/><path class="cls-2" d="M68,76.67a3,3,0,0,0-1.3-.26,9,9,0,0,0-1.55.09"/><path class="cls-2" d="M62,71.67a4,4,0,0,1-.6.52"/><path class="cls-2" d="M65.14,76.5c.09.17.09.26,0,.34"/><path class="cls-2" d="M61.78,77.1a4.71,4.71,0,0,0,.52-2.24,6.24,6.24,0,0,0-.86-2.67"/><path class="cls-2" d="M65.14,76.84a2.21,2.21,0,0,1-.34.86c-.35.52-.69.78-.95.78-.6,0-1-.34-1.29-1a3.75,3.75,0,0,1-.18.87c-.25.51-.51.68-.94.68a1.41,1.41,0,0,1-.78-.25"/><path class="cls-2" d="M69.71,78.14v-1c0-1.64-.86-3.79-2.5-6.64"/><path class="cls-2" d="M68.42,79.6a1,1,0,0,1,.43-.43"/><path class="cls-2" d="M68.85,79.17a.63.63,0,0,0-.09.43,1.18,1.18,0,0,0-.08.52.5.5,0,0,0,.17.43c.6,0,.86-.52.86-1.55l-.09-.26"/><line class="cls-2" x1="69.62" y1="78.74" x2="69.62" y2="78.48"/><polyline class="cls-2" points="69.62 78.48 69.62 78.48 69.62 78.39 69.62 78.48"/><path class="cls-2" d="M69.19,78.74h-.26c-.68,0-1-.34-1-1.12V77"/><path class="cls-2" d="M69.62,78.48a.39.39,0,0,1-.43.26"/><path class="cls-2" d="M68.85,79.17a.6.6,0,0,1,.34-.43"/><path class="cls-2" d="M69.62,78.74a1.61,1.61,0,0,0,.09-.6"/><path class="cls-2" d="M67.9,77c-.09.17-.26.43-.43.68-.35.35-.6.52-.86.52-.69,0-1.21-.43-1.47-1.38"/><path class="cls-2" d="M71.17,139.76v-.09a5.59,5.59,0,0,0,.44-1.37c0-.35-.26-2.07-.87-5.35l-1.37-5.69c.17-11.63.08-19.73-.09-24.3a92,92,0,0,0-1.21-11.72,41.64,41.64,0,0,1-.86-6.64V81.76a1,1,0,0,1,.09-.52v-.86a25.34,25.34,0,0,1,.17-2.68"/><path class="cls-2" d="M67.3,80.38h0a3.39,3.39,0,0,0,1.12-.78"/><path class="cls-2" d="M68.42,79.6c.08,1.21-.26,1.72-1.12,1.64"/><path class="cls-2" d="M65.14,76.5a11,11,0,0,0-3.7,1.2"/><path class="cls-2" d="M61.78,77.1A5.91,5.91,0,0,0,63,73.74a6.18,6.18,0,0,0-.43-2.5"/><path class="cls-2" d="M69.71,78.14A2.88,2.88,0,0,0,68,76.67"/><path class="cls-2" d="M62.56,71.24a2.41,2.41,0,0,1-.52.43"/><path class="cls-2" d="M58.42,63.57c-1.38-1.21-2.07-2.24-1.9-3.19"/><path class="cls-2" d="M49.37,42.2a13.68,13.68,0,0,1-.17-1.9"/><path class="cls-2" d="M37,43.32a7,7,0,0,0,.6-3.8"/><path class="cls-2" d="M35.67,43.49a10,10,0,0,0,1.89-4"/><path class="cls-2" d="M35.92,47.8a12.87,12.87,0,0,0,.26-2.67c0-.87-.17-1.38-.51-1.64"/><path class="cls-2" d="M35.49,48.92c.18-.35.26-.69.43-1.12"/><path class="cls-2" d="M34.29,57.88a6.61,6.61,0,0,1,1.38-3.27,4,4,0,0,0,1.12-2.5,3.5,3.5,0,0,0-.69-2c-.43-.51-.69-.77-.78-.68l.17-.52"/><path class="cls-2" d="M34.63,50.9v-.17h-.17c.09,0,.09.09.17.17"/><path class="cls-2" d="M32.74,54.26c.17.17.6-.17,1.29-.95a2.55,2.55,0,0,0,.6-1.81v-.6"/><path class="cls-2" d="M34.29,57.88a.35.35,0,0,1,.08-.26.74.74,0,0,1,.26-.51,14.74,14.74,0,0,1,1.9-2.59,5.3,5.3,0,0,0,1.46-3c0-.86-.69-2.06-2.07-3.7"/><path class="cls-2" d="M49.28,36.51a11.87,11.87,0,0,1-3.79,2.84c-1.72.86-3.19,1-4.48.43a12.36,12.36,0,0,1-3.45-2.15"/><path class="cls-2" d="M35.49,35.21A11.11,11.11,0,0,1,32.13,40c-1.89,1.64-2.93,2.59-3.27,2.94a10.46,10.46,0,0,0-2.5,3c-.09.17-.18.43-.26.61"/><path class="cls-2" d="M26.1,46.51V45.38A21.58,21.58,0,0,1,27.74,40a11.61,11.61,0,0,0,.94-2.24"/><path class="cls-2" d="M26,51.5c-.34-.25-.43-.77-.43-1.63A8.6,8.6,0,0,1,26,46.76"/><path class="cls-2" d="M26,46.76a.29.29,0,0,1,.09-.25"/><path class="cls-2" d="M26,51.5A3,3,0,0,1,27.31,50c.77-.51,2.24-1.46,4.39-3a20,20,0,0,0,4-3.45"/><path class="cls-2" d="M18.43,48.92c0-.09.17-.17.26-.26a4.66,4.66,0,0,1,2.93-1.38c.95-.17,2.32-.34,4.39-.52"/><path class="cls-2" d="M23.17,58.05a2.5,2.5,0,0,0-.35,1.12,11,11,0,0,0-.08,4.06"/><path class="cls-2" d="M23.17,58.05a6.3,6.3,0,0,1,1.64-1.89"/><path class="cls-2" d="M18.43,48.92a18.23,18.23,0,0,1,2.33,4.65c.17.52.43,1.38.77,2.59.43,1,.95,1.72,1.64,1.89"/><path class="cls-2" d="M20.24,68.91c.08-1.29.26-2.67.52-4.3.43-2.76.68-4.49.68-5.09a4.72,4.72,0,0,0-.17-1.64"/><path class="cls-2" d="M24.81,56.16a7.45,7.45,0,0,1,.77-3.54A4.66,4.66,0,0,1,26,51.5"/><path class="cls-2" d="M24.81,56.16a14.23,14.23,0,0,1,2.06-1.29A22,22,0,0,1,30.92,53c.52-.26,1-.43,1.38-.6"/><path class="cls-2" d="M32.13,56.16a2.68,2.68,0,0,0,.61-1.73v-.17"/><path class="cls-2" d="M32.3,52.37a5.33,5.33,0,0,1,.44,1.89"/><path class="cls-2" d="M32,61a12.14,12.14,0,0,0,.6-3.11,3.49,3.49,0,0,0-.43-1.72"/><path class="cls-2" d="M34.8,59.35a1.8,1.8,0,0,1-.51-1.47h0"/><path class="cls-2" d="M22.74,63.23c.69-1.21,2.41-2.5,4.91-3.88a16.25,16.25,0,0,0,4.48-3.19"/><path class="cls-2" d="M26.53,64.69h0c.52-.08,1.29-.17,2.41-.43,1.3-.26,2.33-1.38,3-3.27"/><path class="cls-2" d="M22.22,70.81a3.88,3.88,0,0,1,2.67-1.64c1.38-.34,2.07-1,2.07-2a3.57,3.57,0,0,0-.52-2.41v-.09"/><path class="cls-2" d="M26.44,64.69h.09"/><path class="cls-2" d="M26.53,64.69h-.09"/><path class="cls-2" d="M22.74,63.23a15.07,15.07,0,0,0-.95,2.32,10.19,10.19,0,0,0-.6,3.11,3.4,3.4,0,0,0,.08.94"/><path class="cls-2" d="M17.74,68.66a1,1,0,0,1,.52-.09,8.16,8.16,0,0,1,2,.34"/><path class="cls-2" d="M20.24,68.91a22,22,0,0,0-.17,2.25,5.32,5.32,0,0,0,.08,1v.09c0,1.2.17,3.27.43,6.12"/><path class="cls-2" d="M23.26,69c.51-.26.68-.52.34-.78a.82.82,0,0,0-1-.25"/><path class="cls-2" d="M22.22,70.81v-.43A6.65,6.65,0,0,1,22.65,68"/><path class="cls-2" d="M21.62,71.24a4.85,4.85,0,0,1-.35-1.64"/><path class="cls-2" d="M18.43,64a21.08,21.08,0,0,1-.69,4.66"/><path class="cls-2" d="M22.65,68a9.39,9.39,0,0,1,1.29-1.9,4.7,4.7,0,0,1,2.5-1.38"/><path class="cls-2" d="M25.06,74.34a2.79,2.79,0,0,1-2.24-1"/><path class="cls-2" d="M22.82,73.31a5,5,0,0,1-.69-1l-.51-1"/><path class="cls-2" d="M17.48,77.19a.31.31,0,0,0,.09-.26h0a.31.31,0,0,1-.09.26"/><path class="cls-2" d="M20.84,74.26c-.08-1.64.09-2.67.78-3"/><path class="cls-2" d="M21.27,69.6a6.75,6.75,0,0,0-.86,2.59,5.2,5.2,0,0,0,.43,2.07"/><path class="cls-2" d="M20.67,78.83c0,.08-.17.17-.52.17-.52,0-.77-.26-.77-1,.08-.09.08-.17.17-.26a1.84,1.84,0,0,1-1.12.52.84.84,0,0,1-.78-.43,1.75,1.75,0,0,1-.17-.69"/><line class="cls-2" x1="20.58" y1="78.4" x2="20.67" y2="78.83"/><path class="cls-2" d="M20.84,74.26a5.35,5.35,0,0,0,.86,1"/><path class="cls-2" d="M22.82,73.31a5.42,5.42,0,0,1-.6-2.5"/><path class="cls-2" d="M40,92.53c1,.26,1.37,0,.94-.78l.52-.08a.82.82,0,0,0-.26-.61c.35,0,.43-.17.43-.43a4.58,4.58,0,0,1-.51-.69c.25-.08.34-.25.34-.34a.76.76,0,0,1-.26-.52,1.56,1.56,0,0,0,.17-.69.75.75,0,0,1-.86-.43c-.26-.51-.43-.86-.51-1a1.37,1.37,0,0,0,.94-.26l-.08-.17c.6,0,.86,0,.95-.09l-.26-.6c.34-.18.51-.35.51-.43-.08-.35-.17-.61-.17-.69a1.63,1.63,0,0,0,.09-.61,1.89,1.89,0,0,0-.43-.08l.26-.52a.43.43,0,0,0-.18-.34l-.69.08v-.17c.18,0,.18-.09.18-.17h-.78V82.7a.57.57,0,0,1,.43-.6c.35-.09.52-.17.6-.17a1,1,0,0,0-.17-.26,2.59,2.59,0,0,0,.78-.09,3.93,3.93,0,0,1-.17-.77,1.15,1.15,0,0,0,.51-.43l-.69-.26a2.06,2.06,0,0,0,.61-1l-.61.09a1,1,0,0,0,.26-.69c0-.43-.26-.69-.77-.69a1.81,1.81,0,0,1-.69.26c0-.09-.09-.18-.09-.26v-.52l.35.34a1.9,1.9,0,0,0,.25-.86,1.43,1.43,0,0,0,.87,0c0-.43,0-.6.17-.6.43,0,.69-.34.69-.95a7,7,0,0,1-.18-.86H42v-.69l-.86.09-.08-.69a1,1,0,0,1,.34-.69l-.09-.17H41.1c.08,0,.08,0,.08-.09a.68.68,0,0,0,.43-.17c.26.08.35.26.43.26.26,0,.43-.18.61-.52v-1a1.9,1.9,0,0,0-1-.34v-.6l-.43.08v-.43l.35-.26v-.69c.43.18.69.18.94,0a3.65,3.65,0,0,1,.44-1.72c-.61-.17-.78-.52-.52-1H42l-.35.25h-.17l.43-.43-.43-.08c0-.26.26-.52.6-.78a.18.18,0,0,1-.17-.17c0-.09.17-.35.6-.78H42v-.26l.61-.77-.18-.26-.25-.17"/><path class="cls-2" d="M55.49,59.35a45.78,45.78,0,0,0-13.1,2.84.27.27,0,0,0-.17.09"/><path class="cls-2" d="M39.2,65.21l.09-.09a.28.28,0,0,1,.17-.08v.08"/><path class="cls-2" d="M39.46,65.12c-.09,0-.17.09-.26.09h0"/><path class="cls-2" d="M39.46,65.12c.34-.26.52-.08.52.61,0,.25-.18.43-.52.43s-.69-.18-.69-.61a3,3,0,0,1,.43-.34"/><path class="cls-2" d="M42.22,62.28c-.87.34-1.64.69-2.42,1l-1.29-.52"/><path class="cls-2" d="M37.91,64c-.09,0-.09-.09-.09-.17s.09-.17.09-.26h.43a.18.18,0,0,0,.17.17c-.17-.26-.26-.34-.26-.43a1.36,1.36,0,0,0,.26-.52"/><path class="cls-2" d="M38.51,62.79h-.09A38.42,38.42,0,0,0,32,61"/><path class="cls-2" d="M37.91,64a.18.18,0,0,0,.17.17V64h-.17"/><path class="cls-2" d="M35.67,82.45c-.09-.18-.18-.26-.18-.35a3.86,3.86,0,0,1,.43-.09s-.08-.08-.08-.34h.86v-.43a1.52,1.52,0,0,0-1.21-.6,5.6,5.6,0,0,0-.08-.87c0-.17.08-.25.26-.34-.18.09-.26,0-.26-.35A10,10,0,0,0,36.1,78c-.18,0-.26-.08-.26-.17a2.59,2.59,0,0,0,.51-.43l-.08-.09a1.09,1.09,0,0,0,.78-.25,4.44,4.44,0,0,0-1.13-1.12c.09-.18.09-.26.18-.35a.51.51,0,0,1-.35-.09v-.34c0,.09-.08.09-.26,0v-.43l.35-.09c-.17-.08-.35-.17-.35-.26,0-.25.18-.43.61-.51-.26-.09-.26-.26-.26-.43.26,0,.43-.18.69-.35l-.18-.17c.44.34.7.26.87-.35-.26-.6-.43-.94-.52-.94.09,0,.09-.09.09-.18h-.18v-.25a1,1,0,0,1-.69,0v-.61a2.72,2.72,0,0,0,.43-.17L36.18,70c0-.17.09-.34.43-.68-.08,0-.17-.09-.26-.18s.18-.26.61-.34c-.26-.09-.43-.26-.43-.43.43.08.69,0,.69-.09a2,2,0,0,0,.34-.43l-.08-.26c.08,0,.08,0,.08-.09h.09l-.6-.77.17-.35h-.61a.76.76,0,0,1,.44-.68L37,65.64a.49.49,0,0,1-.35-.17l.52-.35a.56.56,0,0,1-.34-.43,3.93,3.93,0,0,1,.77-.26v-.08c-.08,0-.17-.09-.34-.18a.18.18,0,0,0,.17-.17h.52"/><path class="cls-2" d="M39.8,71.5a.54.54,0,0,1-.6.6.45.45,0,0,1-.52-.51c0-.43.17-.61.52-.61s.6.18.6.52"/><path class="cls-2" d="M38.51,76.33c.43-.18.69,0,.69.51,0,.35-.17.52-.43.52a.91.91,0,0,0-.43-.09v-.69a.34.34,0,0,0,.34-.17l-.17-.08"/><path class="cls-2" d="M37.91,81.67c0-.35.26-.52.6-.6s.6,0,.6.34-.26.6-.69.6-.51-.08-.51-.34"/><path class="cls-2" d="M32.3,52.37a7.65,7.65,0,0,0,3.19-3.45"/><path class="cls-2" d="M35,83.91l-.18-.34c0-.09.09-.26.09-.35h.35c0-.43.08-.69.43-.77"/><path class="cls-2" d="M35.67,82.45v0"/><polyline class="cls-2" points="34.98 83.91 34.98 84 35.06 83.91 34.98 83.91"/><path class="cls-2" d="M35.06,84.6a.25.25,0,0,1-.17.09.76.76,0,0,1-.09-.43c0-.18.09-.26.09-.35H35"/><path class="cls-2" d="M35.84,85.12v-.26c-.09,0-.17-.09-.35-.17a1.33,1.33,0,0,1-.25.17l-.18-.09V84.6"/><path class="cls-2" d="M35.06,84.6c.09,0,.09,0,.18-.09h-.18v.09"/><path class="cls-2" d="M35.75,85.29h0l-.08.09a.08.08,0,0,0,.08-.09"/><polyline class="cls-2" points="35.75 85.29 35.84 85.29 35.84 85.29"/><path class="cls-2" d="M35.84,85.29h-.09"/><path class="cls-2" d="M35.84,85.29a.3.3,0,0,1,.26-.09c-.09,0-.18-.08-.26-.08"/><path class="cls-2" d="M35,94.51c0,.09-.09.09-.18.09l-.17-.09v-.6h.26c-.17,0-.43,0-.52-.09v-.43a5.39,5.39,0,0,1,.69-.34H34.8v-.18a.45.45,0,0,1,.35-.43c0-.08-.09-.17-.09-.34a1.93,1.93,0,0,0,.86-.26v-.17a.19.19,0,0,1-.17-.18,1.19,1.19,0,0,0-.51-.86,1.19,1.19,0,0,1-.44-.86,3.58,3.58,0,0,1,.18-.52h-.35a1.1,1.1,0,0,1,.61-.77l-.35-.09c0-.34.17-.51.52-.69a.18.18,0,0,1-.17-.17c0-.17.08-.26.08-.34h.43l-.08-.09c-.09,0-.18-.09-.18-.35a1.94,1.94,0,0,0,.69-.17V86.5c.09,0,.09,0,.09-.09l-.17-.09a.58.58,0,0,1,.25-.25v-.52"/><path class="cls-2" d="M38.08,87.27a.52.52,0,1,1,0-1c.43,0,.6.08.6.43s-.17.6-.6.6"/><line class="cls-2" x1="35.84" y1="85.12" x2="35.84" y2="85.29"/><path class="cls-2" d="M37.13,92.44a1.8,1.8,0,0,0,.35-.69c.6-.08.86.09.86.52s-.17.69-.69.69a.46.46,0,0,1-.52-.52"/><path class="cls-2" d="M40.06,98.05a2.38,2.38,0,0,0,.61.17c0-.09.08-.26.08-.35l-.34-.51c.08,0,.08-.09.08-.18.43-.08.69-.25.69-.43s-.08-.43-.43-.43c.35-.08.43-.34.43-.69-.08,0-.26-.08-.26-.17a1.13,1.13,0,0,0,.18-.78l-.35.09a.28.28,0,0,1-.08.17v-.86c-.44.09-.69,0-.69-.34a.72.72,0,0,0,.08-.35h-.43v-.52"/><path class="cls-2" d="M40.06,98.05,40,98h-.09a.27.27,0,0,0,.17.09"/><path class="cls-2" d="M35.24,94.6H35v-.09"/><path class="cls-2" d="M34.2,101.84v-.26a4.59,4.59,0,0,1,.6-.78l-.17-.17c.78.26,1.12,0,1.12-.86a1.1,1.1,0,0,0-.08-.43l-.61.08v-.34l-.43.43-.08-.09v-.6l.08-.17c-.17-.09-.26-.09-.34-.17l.08-.43h.43c-.34,0-.51-.09-.51-.35,0-.08.26-.34.69-.77h-.35v-.44a.79.79,0,0,1,.61-.25.45.45,0,0,1-.26-.35l.08-.26c.43,0,.78-.08.86-.26v-.6a.46.46,0,0,0-.43-.26.29.29,0,0,0-.25.09"/><path class="cls-2" d="M35.24,94.6a.32.32,0,0,0-.26-.09"/><path class="cls-2" d="M37.56,97.87c.35.26.52.43.52.61a.54.54,0,0,1-.6.6c-.26,0-.43-.17-.43-.6s.17-.61.51-.61"/><path class="cls-2" d="M34.46,108.56c0-.17,0-.26.09-.34a1.09,1.09,0,0,0,.34-.78c.6.26,1,.17,1-.43a.82.82,0,0,0-.6-.86c-.44-.09-.61-.35-.61-1-.26.17-.34.34-.43.34V105c.09.08.17.08.17-.09a4.07,4.07,0,0,1-.08-.78,9,9,0,0,0,1-.68.28.28,0,0,0,.08.17l.09-.09-.69-.69a.48.48,0,0,1-.35.26L34.2,103v-.25l.35-.35h-.18c0,.09-.17.17-.43.17v-.51c.09-.09.17-.18.26-.26"/><path class="cls-2" d="M37.65,103.91c0,.25-.17.43-.52.43s-.52-.18-.52-.43c0-.43.18-.69.52-.69s.52.26.52.69"/><path class="cls-2" d="M38.94,115.89c.6-1,1-1.38,1-1.47v.26a.9.9,0,0,0,.34-.69.86.86,0,0,0-.94-.95.32.32,0,0,1-.26.09c0-.43.17-.69.51-.69l-.08-.26c.6.17.95.09.95-.43l-.35-.43a1.2,1.2,0,0,0,.61-.26.77.77,0,0,1-.61-.52,2.39,2.39,0,0,0,.61-.69,1.07,1.07,0,0,1-.69-.17c.08,0,.08-.09.08-.09h.35a.73.73,0,0,0-.78-.77,1.46,1.46,0,0,1-.52.09v-.78a4.11,4.11,0,0,1,.78-.26c-.09,0-.09-.17-.09-.52h.69v-.17c-.08-.26-.17-.34-.17-.43.26.09.43-.09.6-.6-.17,0-.25-.09-.25-.17a2.92,2.92,0,0,0,.17-.7.61.61,0,0,1-.09-.34,1.76,1.76,0,0,1-.69.26v-1c-.77,0-1.12-.17-1.12-.51a1,1,0,0,1,.17-.52,1.19,1.19,0,0,1,.78.43.28.28,0,0,0,.17-.08v-.78h.78a4.16,4.16,0,0,1-.17-1,.45.45,0,0,0,.51-.51,1.51,1.51,0,0,1-.43-.61c.09-.17.17-.26.17-.34a.19.19,0,0,1-.17-.18,2,2,0,0,0,.17-.6c-.25.09-.43,0-.51-.34.08-.35.08-.52,0-.52a7.15,7.15,0,0,1-.87.43l-.08-.17s.17-.26.6-.86"/><path class="cls-2" d="M22.13,86.24A25.42,25.42,0,0,0,23,89l.08,1.12a27.73,27.73,0,0,1-.34,3.19c-.17.68-.26,1.37-.43,2"/><path class="cls-2" d="M22.31,95.29V95a32.91,32.91,0,0,0,.26-3.54c0-.17-.09-1.89-.44-5.25"/><path class="cls-2" d="M34.2,101.84c0,.08.09.08.09.08s.08-.08.08-.17c0,.09-.08.09-.17.09"/><path class="cls-2" d="M34.46,108.56c.09.09.09.09.17.09-.08,0-.08-.09-.08-.09h-.09"/><path class="cls-2" d="M33.77,112.35V112c0-.43.17-.6.52-.52-.18-.43-.18-.77.08-.86s.52-.17,1-.35v-.86h-.26c0,.17-.08.26-.17.26a.31.31,0,0,0-.26-.09v-.34a.63.63,0,0,1-.43.17v-.6l.26-.26"/><path class="cls-2" d="M33.77,112.35a.32.32,0,0,1,.09.26l.08-.08c0-.09-.08-.09-.17-.18"/><path class="cls-2" d="M33.94,112.78a.25.25,0,0,1-.17.09l-.09-.17v-.43l.09.08"/><path class="cls-2" d="M33.94,112.78v0"/><path class="cls-2" d="M35.15,115.2l-.78-1.55a1.28,1.28,0,0,0,.26-.52c0-.09-.26-.09-.77-.09a.35.35,0,0,1,.08-.26"/><path class="cls-2" d="M21.1,112.7h-.52c-.34-.09-.51-.26-.51-.52a146.44,146.44,0,0,1,2.24-16.89"/><path class="cls-2" d="M35.15,115.2h-.09a.25.25,0,0,0-.17-.09,24.28,24.28,0,0,1-5.69-.52,30.29,30.29,0,0,1-5.08-1.38,6.4,6.4,0,0,0-2.16-.6"/><path class="cls-2" d="M21.1,112.7c.09-.09.26-.09.52-.17a.69.69,0,0,1,.34.08"/><path class="cls-2" d="M18.17,130.8c-.09-1.55-.17-2.68-.17-3.36a26.76,26.76,0,0,1,1.38-7.33,49.5,49.5,0,0,0,1.89-4.74"/><path class="cls-2" d="M22,112.61a19.44,19.44,0,0,1-.69,2.76"/><line class="cls-2" x1="21.27" y1="115.37" x2="21.1" y2="112.7"/><path class="cls-2" d="M62.21,112.53a38.37,38.37,0,0,1-8.7,2,6.87,6.87,0,0,1-1.9.26,42.22,42.22,0,0,0-4.48-.35,18.23,18.23,0,0,0-5.17.78c-1.38.34-2.42.6-3,.69"/><path class="cls-2" d="M37.56,109.25c0,.34-.08.52-.43.52s-.43-.18-.43-.52a2.87,2.87,0,0,1,.09-.6c.17,0,.26,0,.26.08,0-.17.08-.17.17-.17a1,1,0,0,1,.34.69"/><path class="cls-2" d="M37.56,114.16l.09.43c0,.44-.17.69-.43.69s-.52-.25-.52-.6c0-.17.09-.35.26-.35a3.06,3.06,0,0,0,.6-.17"/><path class="cls-2" d="M38.94,115.89h-.43l-1.9-.18c-.69-.25-1.12-.43-1.46-.51"/><polyline class="cls-2" points="56.95 89 56.95 89 56.95 89 56.95 89"/><path class="cls-2" d="M57.9,92.53c-.34-1.21-.69-2.33-.95-3.36-.08,0-.08-.09-.08-.17-.95-3.88-1.64-6.38-2-7.5"/><path class="cls-2" d="M58.85,96.06l-.09-.34A13.33,13.33,0,0,1,58.51,93c-.09-.95-.18-1.64-.18-2.15"/><path class="cls-2" d="M62.21,112.53a22.33,22.33,0,0,1-1-5,12.82,12.82,0,0,0-.78-3.19,8.37,8.37,0,0,1-.86-3.88,28.88,28.88,0,0,0-.69-4.4"/><path class="cls-2" d="M58.76,95.72c-.08-.35-.17-.69-.25-1a21.65,21.65,0,0,1-.61-2.15"/><path class="cls-2" d="M64.11,143.73a2.29,2.29,0,0,1-.6-1.12,7.64,7.64,0,0,1-.26-2.33c.17-1.73.34-2.93.34-3.54-.86-1-1.12-2.58-.86-4.56a15.49,15.49,0,0,1,1.55-5A30.41,30.41,0,0,0,62.38,113c-.08-.18-.08-.35-.17-.43"/><path class="cls-2" d="M22.13,86.24a50.86,50.86,0,0,1-1.46-7.41"/><path class="cls-2" d="M49.2,40.3a28.49,28.49,0,0,1,.08-3.79"/><line class="cls-2" x1="37.56" y1="39.52" x2="37.56" y2="37.63"/><path class="cls-2" d="M15.84,68.91a6.87,6.87,0,0,1,1.9-.25"/><path class="cls-2" d="M71.17,139.76a7.79,7.79,0,0,0-.34,1.64,10.58,10.58,0,0,1-.26,1.72,4.21,4.21,0,0,1-.34,1.64A15.46,15.46,0,0,1,67,146.83a17.54,17.54,0,0,1-2.67,1.2.31.31,0,0,1-.34-.34"/><path class="cls-2" d="M64.88,149.33A32.71,32.71,0,0,0,71.35,147a2.93,2.93,0,0,0,1.29-1.21l-1.47-6"/><path class="cls-2" d="M67.12,134.33a4.35,4.35,0,0,1-.43,1.47c-.08.17-.17.43-.26.69"/><path class="cls-2" d="M66.09,138.64c0,.17,0,.35-.09.43.09,3.28-.34,4.91-1.2,4.91h-.09"/><path class="cls-2" d="M61.87,147.09a8.54,8.54,0,0,1,3.1-2.33,4.34,4.34,0,0,0,1.72-3.62,4.68,4.68,0,0,0-.6-2.5"/><path class="cls-2" d="M64.71,144c-.17-.08-.43-.08-.6-.25"/><path class="cls-2" d="M61.87,147.09V147a2.4,2.4,0,0,1,.69-1.72c.08,0,.34-.18.77-.35"/><path class="cls-2" d="M63.33,144.93a12.61,12.61,0,0,0,1.38-1"/><path class="cls-2" d="M63.33,144.93a1.66,1.66,0,0,1,.78-1.2"/><path class="cls-2" d="M63.94,147.69a3.49,3.49,0,0,1,.86-2,20.85,20.85,0,0,1,1.81-1.21A2.79,2.79,0,0,0,68,141.74c0-2.93-.52-4.74-1.56-5.25"/><path class="cls-2" d="M66.43,136.49c-.08.51-.25,1.29-.34,2.15"/><path class="cls-2" d="M63.94,147.69c-.69.09-1.21.17-1.47.17-.52,0-.78-.08-.78-.26a1.16,1.16,0,0,1,.18-.51"/><path class="cls-2" d="M46.35,150.28A60.53,60.53,0,0,0,60,150c1.72-.18,3.28-.43,4.91-.69"/><path class="cls-2" d="M46.44,127.78c-1.29,2.59-2.24,4.65-2.76,5.95"/><line class="cls-2" x1="43.34" y1="129.5" x2="43.68" y2="133.73"/><polyline class="cls-2" points="43.68 133.73 44.63 144.5 44.63 144.93"/><path class="cls-2" d="M18.43,133.64c-.52-.17-.69-.77-.69-1.81,0-.6.08-1,.34-1h.09"/><path class="cls-2" d="M18.17,130.8c.52.08.78.86.78,2.41,0,.35-.09.52-.26.52a.3.3,0,0,1-.26-.09"/><path class="cls-2" d="M18.86,144c-.17-3.7-.26-5.94-.35-7v-.69a4.94,4.94,0,0,1-.08-1.29v-1.38"/><path class="cls-2" d="M17.39,142.43a2.34,2.34,0,0,0,1.21,1.47"/><path class="cls-2" d="M18.86,144c-.09,0-.17-.08-.26-.08"/><path class="cls-2" d="M18.6,143.9c-.17.08-.26.34-.26.69,0,1.46,0,2.67-.08,3.53a2.85,2.85,0,0,0,.51,1.81,7,7,0,0,0,.95.35v.08c1.47.43,3,.69,4.48,1"/><path class="cls-2" d="M17.39,142.43a6.8,6.8,0,0,1-.34-1.38,14.22,14.22,0,0,0-.6-3.44"/><path class="cls-2" d="M43.59,151.31l2.07-.26v-.86"/><path class="cls-2" d="M45.66,150.19c-.08-.6-.08-1.47-.25-2.5-.09-1.55-.44-2.5-.78-2.76"/><path class="cls-2" d="M45.66,150.19a2.07,2.07,0,0,0,.69.09"/><path class="cls-2" d="M44.63,144.93c-11.21,1.73-19.74,1.38-25.77-1"/><path class="cls-2" d="M24.2,151.4a64,64,0,0,0,19.39-.09"/><path class="cls-2" d="M46.18,178.89a21.46,21.46,0,0,0-.34-6.81,2.46,2.46,0,0,1-.18-.77"/><path class="cls-2" d="M29.72,186a11.15,11.15,0,0,0,.08,3.71c.26,2.24,2.25,4,5.78,5.34s6.29-.34,8.27-4.82a20.24,20.24,0,0,0,.61-2.07"/><path class="cls-2" d="M43.42,198.71c.09-.25.17-.6.26-.86.26-1,.43-2.41.78-4.22.17-1.9.26-3.19.26-4l-.26-1.46"/><path class="cls-2" d="M47.13,193.28a39.74,39.74,0,0,1-.26-4.05c0-1,.26-1.63.78-1.81"/><path class="cls-2" d="M61,189.75c-7.07.17-11.47-.43-13.28-1.81a1.2,1.2,0,0,0-.08-.52"/><path class="cls-2" d="M47.65,187.42c-.52-2.5-1-5.34-1.47-8.53"/><path class="cls-2" d="M44.46,188.2a46.49,46.49,0,0,0,1.72-9.31"/><path class="cls-2" d="M29.72,186a6.54,6.54,0,0,1,.52-2,26.34,26.34,0,0,1,1.29-3.36"/><path class="cls-2" d="M29.8,194.66a1.58,1.58,0,0,1-.08-.51v-.09a5.63,5.63,0,0,1-.17-.69,13.39,13.39,0,0,1-.35-2.84,8.72,8.72,0,0,1-.34-2.5c0-1.12.26-1.81.86-2"/><path class="cls-2" d="M31.53,180.7c.17-.52.26-.95.34-1.21"/><path class="cls-2" d="M28.6,194.23a.7.7,0,0,1,.26-.51c-.69-1.64-1.38-2.5-2.07-2.5-.86,0-1.21.51-1.21,1.55s.43,1.29,1.29,1.2a4.85,4.85,0,0,1,1.73.26"/><path class="cls-2" d="M28.86,195.09a.09.09,0,0,0-.09.09h-.09c-.17-.09-.25-.26-.25-.6a.46.46,0,0,1,.17-.35"/><path class="cls-2" d="M28.86,195.7v-.61"/><line class="cls-2" x1="28.86" y1="195.01" x2="28.86" y2="195.09"/><path class="cls-2" d="M28.94,194.58a3.79,3.79,0,0,0-.08.43"/><path class="cls-2" d="M29.37,194.23c-.17,0-.25.09-.43.35"/><path class="cls-2" d="M30.15,201.3c-.78,0-1.12-.78-1.12-2.24s-.17-2.67-.17-3.36"/><path class="cls-2" d="M35.67,201a7.2,7.2,0,0,1-4.23-2.58c-.6-.78-1-1.29-1.2-1.64-.09,0-.09,0-.09-.08"/><path class="cls-2" d="M30.15,196.82v-.17"/><path class="cls-2" d="M30.15,196.82a7.61,7.61,0,0,1,.6,2.76v.08"/><path class="cls-2" d="M31,201.13a1,1,0,0,0-.09-.52,3.87,3.87,0,0,1-.17-1"/><path class="cls-2" d="M30.75,199.66l-.08,1c-.18.52-.35.69-.43.69h-.09"/><path class="cls-2" d="M30.75,199.66c-.26-1-.43-2-.6-2.84"/><path class="cls-2" d="M28.94,194.58c.35.17.78.86,1.21,2.07v.17"/><path class="cls-2" d="M30.15,196.65c-.17-.78-.26-1.47-.35-2"/><path class="cls-2" d="M41.18,196.65c-1.72,2-3,3-3.79,3s-2.24-.69-4.22-2.15a23.46,23.46,0,0,1-3.37-2.85"/><path class="cls-2" d="M30.06,208.54a71.22,71.22,0,0,1-1.12-9.48,22.46,22.46,0,0,1-.08-3.36"/><path class="cls-2" d="M30.15,201.3A17.65,17.65,0,0,0,28.86,195"/><path class="cls-2" d="M29.89,209.57c-.26,0-.34-.17-.34-.51s.08-.52.34-.52h.17"/><path class="cls-2" d="M30.06,209.57h-.17"/><line class="cls-2" x1="30.92" y1="208.02" x2="30.92" y2="208.02"/><line class="cls-2" x1="30.92" y1="208.02" x2="31.01" y2="208.02"/><path class="cls-2" d="M30.92,208H31"/><path class="cls-2" d="M31,208h.26a1.51,1.51,0,0,0,.26.35v.17"/><path class="cls-2" d="M30.84,208.88a.68.68,0,0,1-.17-.51c0-.17.08-.26.25-.35"/><path class="cls-2" d="M31.1,208.88h-.26"/><path class="cls-2" d="M31.27,208.88H31.1"/><path class="cls-2" d="M32.13,216.9a30.47,30.47,0,0,0-1.46-7.67l.17-.35"/><path class="cls-2" d="M31.7,208.63c0-.09-.09-.09-.17-.09"/><path class="cls-2" d="M33,210.78c-.17-.6-.25-1-.34-1.21a4,4,0,0,0-.35-.51,1,1,0,0,0-.6-.43"/><path class="cls-2" d="M31.53,208.54c-.09.09-.09.26-.26.34"/><path class="cls-2" d="M33,210.78l-.34-.78a5.49,5.49,0,0,1-.95-1.37"/><polyline class="cls-2" points="34.11 214.23 33.25 211.13 32.99 210.78"/><path class="cls-2" d="M30.06,208.54c.35,0,.43.09.43.43a.72.72,0,0,1-.17.52"/><path class="cls-2" d="M30.32,209.49a.33.33,0,0,1-.26.08"/><path class="cls-2" d="M30.92,208c-.43-.86-.68-2.76-.77-5.77v-.95"/><path class="cls-2" d="M41.53,210A4.57,4.57,0,0,1,38,212.07a6.18,6.18,0,0,1-2.24-1,14.69,14.69,0,0,1-2.93-2.24c-.26-1.55-.69-3.45-1.29-5.78-.17-.6-.35-1.29-.52-1.89"/><path class="cls-2" d="M34.72,204a11.72,11.72,0,0,1-2.24-1.29A7.93,7.93,0,0,1,31,201.13"/><path class="cls-2" d="M47,201.82v-.09c.17-3,.26-5.26.26-7,0-.52-.09-.95-.09-1.47"/><path class="cls-2" d="M60.06,194.92a64.22,64.22,0,0,1-6.64.26,15.47,15.47,0,0,1-3.79-.69l-2.5-1.21"/><path class="cls-2" d="M42.82,223.36c.09-2.15.17-3.53.17-4.39,0-3-.26-4.74-.77-5.17a14.72,14.72,0,0,0,.43-2.33v-.34l.08-1.21a2.45,2.45,0,0,1-.26-.69,11.51,11.51,0,0,0,.26-1.55,8.65,8.65,0,0,1-.43-1c0-.08.26-1.12.86-3.1a30.13,30.13,0,0,0,.26-4.83"/><path class="cls-2" d="M46.61,207.07v-1c.09-1.55.17-2.93.35-4.22"/><path class="cls-2" d="M51,210.52a23.63,23.63,0,0,1-4.4-3.45"/><path class="cls-2" d="M40,203.28a8.8,8.8,0,0,0,3.44-4.57"/><path class="cls-2" d="M61.18,188.63a14.81,14.81,0,0,0,0-2.67,38.73,38.73,0,0,0-.52-4.22,16.29,16.29,0,0,1-.43-3.37l.26-1.89a155.21,155.21,0,0,1,4.39-27.15"/><path class="cls-2" d="M60.66,199.66a5.46,5.46,0,0,1,.09-1.29,8.08,8.08,0,0,1,.26-2.59,11.59,11.59,0,0,0,.6-2.32l-.09-.35a16.57,16.57,0,0,0,.78-3.27,5,5,0,0,0-1.12-1.21"/><path class="cls-2" d="M61,189.75a5.32,5.32,0,0,0,.17-1.12"/><line class="cls-2" x1="61.61" y1="189.84" x2="61.01" y2="189.75"/><path class="cls-2" d="M55,200.78a14.83,14.83,0,0,0,3.28-.17,5.94,5.94,0,0,0,2.41-1"/><path class="cls-2" d="M60.57,201.65h0a12.91,12.91,0,0,1,.09-2"/><path class="cls-2" d="M58.85,210.09h0a10.05,10.05,0,0,0,.95-3.36l-.09-.78a5.38,5.38,0,0,0,.86-2.41v-1.89"/><path class="cls-2" d="M55.49,203.54c.17,0,1-.26,2.67-.69a17.1,17.1,0,0,0,2.41-1.2"/><path class="cls-2" d="M58.33,214.66a.34.34,0,0,1-.08-.26,7.26,7.26,0,0,0,.43-.86l-.35-.17a5.62,5.62,0,0,0,.87-2.5,2.18,2.18,0,0,1-.35-.78"/><path class="cls-2" d="M44.63,144.5a98,98,0,0,0,18.88-1.89"/><path class="cls-2" d="M45.66,171.31a83.91,83.91,0,0,1-2.07-20"/><path class="cls-2" d="M45.66,171.31a100.57,100.57,0,0,0,.69-21"/><path class="cls-2" d="M31.53,180.7a122.33,122.33,0,0,0-7.33-29.3"/><path class="cls-2" d="M52.64,203.89A16.27,16.27,0,0,1,47,201.82"/><path class="cls-2" d="M15.41,140.88c-.26-.26-.34-.95-.43-2.07a7.85,7.85,0,0,0-.6-2.67"/><path class="cls-2" d="M45.06,235.78c-.09.17-.09.34-.17.51l-.17,6.64c-.09,1.38-.26,3.62-.61,6.72.35,3.71,1.38,5.6,3.28,5.78a10.72,10.72,0,0,0,5.6-1c1.9-.77,2.84-2.41,3-4.74s0-4.91-.18-7.67-.34-5.34-.34-7.5a1.7,1.7,0,0,1,0-.95,37.58,37.58,0,0,0-.26-4c-.09-.78-.17-1.21-.26-1.21a4.23,4.23,0,0,0,1-2.41l-.26-2.33a4.83,4.83,0,0,0,.86-1.63l.52-2.07a27.22,27.22,0,0,1,1.29-4.4,4.24,4.24,0,0,0,.09-.78c0-.08-.09-.08-.09-.08"/><path class="cls-2" d="M55.4,220.87c-.17.68-.86.86-2.24.86a3,3,0,0,1-1.72-.61c-.52-.43-.86-.69-.95-.94"/><path class="cls-2" d="M51.52,217.07a3,3,0,0,1,.95.17,8.92,8.92,0,0,0,5.86-2.58"/><path class="cls-2" d="M55.14,233.71v-.09h0v.09"/><path class="cls-2" d="M55.14,233.71a33.67,33.67,0,0,1-2.67,2.67,6.08,6.08,0,0,1-4,1.64,4.27,4.27,0,0,1-2-.52,2.91,2.91,0,0,1-1.38-1.29,3.06,3.06,0,0,0-.09-.43"/><path class="cls-2" d="M50.23,215A9.49,9.49,0,0,1,48,213.8v-.09a1.11,1.11,0,0,1-.34-.26"/><path class="cls-2" d="M45.06,235.78a15.65,15.65,0,0,0,.52-5.35,9.34,9.34,0,0,1,.77-5.08,36,36,0,0,0,1.3-3.62v-.09a4.16,4.16,0,0,0-.43-1.72,5.31,5.31,0,0,1-.52-1.81,13.34,13.34,0,0,0,1.12-4.23l-.09-.08a.7.7,0,0,0-.08-.35"/><path class="cls-2" d="M47.82,221.73l-.09-.09v-.09h.09v.18"/><path class="cls-2" d="M50.49,220.18c-.09-.09-.09-.09-.09-.18v.09l.09.09"/><path class="cls-2" d="M40.15,214c-.69.77-1.3,1.29-1.81,1.29a2.38,2.38,0,0,1-2.16-1.12"/><path class="cls-2" d="M41.44,216a14.45,14.45,0,0,1-1.55,3.28c-.52.77-1,1.2-1.21,1.2-.69,0-1.55-.69-2.41-2.06a35.76,35.76,0,0,1-2.16-4.14"/><path class="cls-2" d="M39.8,212.76a3.59,3.59,0,0,1-2.07.86"/><path class="cls-2" d="M40.06,215.61a9.28,9.28,0,0,1-1.81,1.63,34.14,34.14,0,0,1-4.14-3"/><path class="cls-2" d="M42.82,223.36c-1,.87-1.55,1.47-1.81,1.73a3.46,3.46,0,0,1-2.67.6c-1-.17-2.16-1.38-3.36-3.45a14.35,14.35,0,0,1-2.24-5"/><path class="cls-2" d="M32.74,217.24v11.38a15.27,15.27,0,0,0,.94,6.55,12.45,12.45,0,0,0,.69,1.55c.61,1.3,1.3,2.5,2,3.71A3.18,3.18,0,0,0,38.6,242a4.08,4.08,0,0,0,2.24-.52,4.16,4.16,0,0,0,1.55-2.41,15.27,15.27,0,0,0,1-4.48l-.78-7.76c.09-1.29.17-2.5.26-3.45"/><path class="cls-2" d="M53.59,223.36a4,4,0,0,1-2.41.78c-1.21,0-2.33-.78-3.36-2.41"/><path class="cls-2" d="M32.74,217.24v-.77a33.51,33.51,0,0,0-1.64-7.59"/><path class="cls-2" d="M31.7,216.9a15.53,15.53,0,0,1-.69-3.79,18.91,18.91,0,0,0-.69-3.62"/><path class="cls-2" d="M29.89,217.76a10.83,10.83,0,0,1-.52-3.45c.35-2.58.52-4.22.52-4.74"/><path class="cls-2" d="M30.92,217.59a7.85,7.85,0,0,1-.68-4,35.15,35.15,0,0,0-.18-4.05"/><path class="cls-2" d="M51.61,212.25a7.15,7.15,0,0,0,1.47.51c1.37,0,3.27-.86,5.77-2.67"/><path class="cls-2" d="M15.41,140.88a2.53,2.53,0,0,0,2,1.55"/><path class="cls-2" d="M33.6,216c-.52-3.36-1.3-5.78-2.33-7.16"/><path class="cls-2" d="M47.65,213.45a26.49,26.49,0,0,1-1-6.38"/></svg>