<?xml version="1.0" encoding="utf-8"?>
<!-- Generator: Adobe Illustrator 24.3.0, SVG Export Plug-In . SVG Version: 6.00 Build 0)  -->
<svg version="1.1" id="圖層_1" xmlns="http://www.w3.org/2000/svg" xmlns:xlink="http://www.w3.org/1999/xlink" x="0px" y="0px"
	 viewBox="0 0 512 512" style="enable-background:new 0 0 512 512;" xml:space="preserve">
<style type="text/css">
	.st0{fill:#D4D4D4;}
	.st1{fill:#FFFFFF;}
	.st2{fill:#148E56;}
	.st3{fill:#29C183;}
	.st4{fill:#3B929B;}
	.st5{fill:#5DB8C1;}
	.st6{fill:#1C4F54;}
	.st7{fill:#337180;}
	.st8{fill:#DD1212;}
	.st9{fill:#BC781E;}
	.st10{fill:#E79E2F;}
	.st11{fill:#CCAC27;}
	.st12{fill:#EDC92F;}
	.st13{fill:#E83131;}
	.st14{fill:#714E7C;}
	.st15{fill:#A076AB;}
</style>
<g>
	<path class="st0" d="M0,256C0,114.6,114.6,0,256,0s256,114.6,256,256S397.4,512,256,512C114.6,512,0,397.4,0,256z"/>
	<path class="st1" d="M383.9,363.4l47.2-28.5l-6.1-3.5l-17,6.3l-5.7-11.8l-6.8-0.2l-1.8-2.3l-13.9,3.3l-1,10.1l-27.3-38.1
		c-7.1-18.6-6.1-101-24.5-110.6c-13.1-6.9-32.7-7.7-32.7-7.7l0,0c-7.6-0.9-15.3-1.3-21.8-1.5c-0.5-0.8-3.9-7.2-0.5-20
		c7.4-6.7,12.8-15.3,15.5-25c3,0.3,5.1-0.9,6.8-11.1c1.7-9.7-0.1-12-2.8-12.8c0.2,0,0.4,0.1,0.6,0.2v-1.9l0,0
		c-0.2-38.8-11.3-49.5-36.1-49.5c-24.8,0-35.9,10.7-36.3,49.7l0,0v1.9h0.2c-2.4,0.9-3.9,3.5-2.3,12.6c1.8,10.1,3.8,11.5,6.8,11.1
		c0.8,2.7,1.8,5.2,2.7,7.4c2.9,6.7,7.2,12.7,12.8,17.5c3.4,12.8,0,19.2-0.5,20c-7.3,0.1-14.6,0.6-21.8,1.5l0,0
		c-0.3,0-19.7,0.9-32.7,7.7c-18.4,9.6-17.2,92-24.5,110.6l-27.2,38l-1-10.1l-13.9-3.3l-1.8,2.3l-6.8,0.2l-5.7,11.8l-17-6.3l-6.1,3.5
		l47.2,28.5c-7.2,2.5-12.6,8.5-14.4,15.9c-9,29.6,21.4,35.4,43.1,43.7c14.6,4.8,29.4,8.7,44.5,11.6c-23.8,7.6-39.5,19.6-37.4,25.1
		c0,0,45-6.5,92.2-14.8c47.3,8.3,92.2,14.8,92.2,14.8c2.2-5.5-13.5-17.5-37.4-25.1c15.1-2.9,29.9-6.7,44.5-11.6
		c21.8-8.4,52.1-14.1,43.1-43.7C396.7,372,391.2,366,383.9,363.4z M391.4,330.1l6.9,2.5l2.4,7.8l-8.4,3.1l-4.6-11.5L391.4,330.1z
		 M291.2,110.1L291.2,110.1c0.2,0,0.3,0.1,0.5,0.1C291.5,110.2,291.4,110.1,291.2,110.1z M113.7,332.7l6.9-2.5l3.7,2l-4.6,11.5
		l-8.4-3.1L113.7,332.7z M128.5,363.2l58.8-58.8c4-11.7,5.6-25.8,7.5-44c4.3-18.4,3.6-32.3,8.3-33.6c-1.2,6.3-1.4,12.8-0.6,19.2
		c3.5,21.7,9.7,53.3-2.4,135.9c-10.3-5.7-18-9.9-20.6-10.9C167.5,366.5,144.4,357.8,128.5,363.2z M332.6,371.1
		c-2.7,1-10.3,5.2-20.6,10.8c-12.1-82.5-6-114.2-2.4-135.9c0.8-6.4,0.6-12.9-0.6-19.2c4.6,1.2,3.9,15.2,8.3,33.6
		c2.1,18.2,3.5,32.3,7.5,44l58.8,58.8C367.6,357.8,344.5,366.5,332.6,371.1L332.6,371.1z"/>
	<circle class="st2" cx="256" cy="247.7" r="20"/>
	<circle class="st3" cx="256" cy="247.7" r="14"/>
	<circle class="st4" cx="256" cy="172.4" r="20"/>
	<circle class="st5" cx="256" cy="172.4" r="14"/>
	<circle class="st6" cx="256" cy="108.2" r="20"/>
	<circle class="st7" cx="256" cy="108.2" r="14"/>
	<circle class="st8" cx="256" cy="388.4" r="20"/>
	<circle class="st9" cx="256" cy="342.4" r="20"/>
	<circle class="st10" cx="256" cy="342.4" r="14"/>
	<circle class="st11" cx="256" cy="295.8" r="20"/>
	<circle class="st12" cx="256" cy="295.8" r="14"/>
	<circle class="st13" cx="256" cy="388.4" r="14"/>
	<circle class="st14" cx="256" cy="61.5" r="20"/>
	<circle class="st15" cx="256" cy="61.5" r="14"/>
</g>
</svg>
