<?xml version="1.0" encoding="utf-8"?>
<!-- Generator: Adobe Illustrator 24.3.0, SVG Export Plug-In . SVG Version: 6.00 Build 0)  -->
<svg version="1.1" id="圖層_1" xmlns="http://www.w3.org/2000/svg" xmlns:xlink="http://www.w3.org/1999/xlink" x="0px" y="0px"
	 viewBox="0 0 512 512" style="enable-background:new 0 0 512 512;" xml:space="preserve">
<style type="text/css">
	.st0{fill:#3FC3E2;}
	.st1{fill:#11A3D9;}
	.st2{fill:#007FD4;}
	.st3{fill:#3FC6E6;}
</style>
<g transform="translate(0)">
	<path class="st0" d="M512,256c-7.6,0-15.3-32.9-45.6-41.8h-0.2c24.6-19.9,19.2-53.3,26.2-56.1c-7,2.9-26.7-24.5-58.1-21.3h-0.1
		c15.1-27.8-2.6-56.4,2.8-61.8c-5.4,5.4-34-12.4-61.8,2.6h-0.1c3.2-31.4-24.1-51.1-21.2-58.1c-2.9,7-36.3,1.5-56.1,26l-0.1,0.1
		C288.9,15.4,256,7.6,256,0c0,7.6-32.9,15.3-41.8,45.6v0.1c-19.9-24.6-53.3-19.2-56.1-26.1c2.9,7-24.5,26.7-21.3,58.1v0.1
		c-27.8-15.1-56.4,2.6-61.8-2.8c5.4,5.4-12.4,34,2.6,61.8v0.1c-31.4-3.2-51.1,24.1-58.1,21.2c7,2.9,1.5,36.3,26,56.1l0.1,0.1
		C15.3,223.1,7.6,256,0,256c7.6,0,15.3,32.9,45.6,41.9c-24.5,19.8-19.1,53.2-26,56.1c7-2.9,26.7,24.5,58.1,21.3h0.1
		c-15.1,27.8,2.6,56.4-2.8,61.8c5.4-5.4,34,12.4,61.8-2.6h0.1c-3.2,31.4,24.1,51.1,21.2,58.1c2.9-7,36.3-1.5,56.1-26l0.1-0.1
		c8.9,30.3,41.8,38,41.8,45.6c0-7.6,32.9-15.3,41.9-45.6v-0.2c19.8,24.6,53.2,19.3,56.1,26.2c-2.9-7,24.5-26.7,21.3-58.1v-0.1
		c27.8,15.1,56.4-2.6,61.8,2.8c-5.4-5.4,12.4-34-2.6-61.8v-0.1c31.4,3.2,51.1-24.1,58.1-21.2c-7-2.9-1.5-36.3-26-56.1
		C496.7,288.9,504.4,256,512,256L512,256z"/>
	<ellipse class="st1" cx="255.8" cy="255.6" rx="203.6" ry="201"/>
	<path class="st2" d="M436.9,163.9L256,459L75.4,163.3c2.3-4.6,4.8-9,7.4-13.2h346.4C431.9,154.5,434.5,159.1,436.9,163.9z"/>
	<ellipse class="st3" cx="255.8" cy="255.6" rx="104.4" ry="107"/>
</g>
</svg>
