<?xml version="1.0" encoding="utf-8"?>
<!-- Generator: Adobe Illustrator 24.3.0, SVG Export Plug-In . SVG Version: 6.00 Build 0)  -->
<svg version="1.1" id="圖層_1" xmlns="http://www.w3.org/2000/svg" xmlns:xlink="http://www.w3.org/1999/xlink" x="0px" y="0px"
	 viewBox="0 0 512 512" style="enable-background:new 0 0 512 512;" xml:space="preserve">
<style type="text/css">
	.st0{fill:#F29C1F;}
	.st1{fill:#F0C419;}
	.st2{fill:#F3D55B;}
</style>
<g transform="translate(0 0)">
	<path class="st0" d="M512,256c-17.7,0-21.6-27.3-44.1-42.8c-6.1-4.1-12.9-7-20.1-8.6h-0.1c5.5-4.9,10-10.8,13.2-17.5
		c11.7-24.7,1.5-50.3,16.8-59.1c-15.3,8.8-32.3-12.8-59.6-15c-7.4-0.6-14.8,0.3-21.8,2.7c2.4-7,3.3-14.4,2.8-21.8
		c-2.2-27.3-23.8-44.3-15-59.6c-8.8,15.3-34.4,5-59.1,16.8c-6.6,3.2-12.6,7.7-17.5,13.2l-0.1,0.1c-1.5-7.2-4.4-14.1-8.5-20.2
		C283.3,21.6,256,17.7,256,0c0,17.7-27.3,21.6-42.8,44.1c-4.1,6.1-7,12.9-8.6,20.1v0.1c-4.9-5.5-10.8-10-17.5-13.3
		c-24.7-11.7-50.3-1.5-59.2-16.8c8.8,15.3-12.8,32.3-15,59.6c-0.6,7.4,0.3,14.8,2.7,21.8c-7-2.4-14.4-3.3-21.8-2.7
		c-27.3,2.2-44.3,23.8-59.6,15c15.3,8.8,5,34.4,16.8,59.1c3.2,6.6,7.7,12.6,13.2,17.5h0c-7.2,1.5-14.1,4.4-20.2,8.6
		C21.6,228.7,17.7,256,0,256c17.7,0,21.6,27.3,44.1,42.8c6.1,4.1,12.9,7,20.1,8.6h0.1c-5.5,4.9-10,10.8-13.3,17.5
		c-11.7,24.7-1.5,50.3-16.8,59.2c15.3-8.8,32.3,12.8,59.6,15c7.4,0.6,14.8-0.3,21.8-2.7l0.2-0.1c-2.5,7-3.5,14.5-2.9,21.9
		c2.2,27.3,23.8,44.3,15,59.6c8.8-15.3,34.4-5,59.1-16.8c6.6-3.2,12.6-7.7,17.5-13.2c1.5,7.2,4.4,14,8.6,20.1
		c15.5,22.5,42.8,26.5,42.8,44.1c0-17.7,27.3-21.6,42.8-44.1c4.1-6.1,7-12.9,8.6-20.1c4.9,5.5,10.9,9.9,17.5,13.2
		c24.7,11.7,50.3,1.5,59.1,16.8c-8.8-15.3,12.8-32.3,15-59.6c0.6-7.4-0.3-14.8-2.8-21.8c7,2.4,14.4,3.3,21.8,2.8
		c27.3-2.2,44.3-23.8,59.6-15c-15.3-8.8-5-34.4-16.8-59.1c-3.2-6.6-7.7-12.6-13.2-17.5c7.2-1.5,14-4.5,20.1-8.6
		C490.4,283.3,494.3,256,512,256L512,256z"/>
	<circle class="st1" cx="258.4" cy="255.5" r="185.3"/>
	<path class="st2" d="M411.8,155.7L256,441.4L100.2,155.7c1.1-1.9,2.4-3.8,3.7-5.6h304.2C409.4,151.9,410.7,153.8,411.8,155.7z"/>
</g>
</svg>
