<?xml version="1.0" encoding="utf-8"?>
<!-- Generator: Adobe Illustrator 24.3.0, SVG Export Plug-In . SVG Version: 6.00 Build 0)  -->
<svg version="1.1" id="圖層_1" xmlns="http://www.w3.org/2000/svg" xmlns:xlink="http://www.w3.org/1999/xlink" x="0px" y="0px"
	 viewBox="0 0 512 512" style="enable-background:new 0 0 512 512;" xml:space="preserve">
<style type="text/css">
	.st0{fill:#77C179;}
	.st1{fill:#F176A4;}
	.st2{fill:#E95C91;}
	.st3{opacity:0.35;}
	.st4{fill:#F6ACB4;}
</style>
<g transform="translate(-90.219 -645)">
	<path class="st0" d="M348.3,1013.9c38.3,25.1,85.4,33.1,129.9,22c10.5,22.9,12.7,48.8,6.1,73.2c-57.8,15.5-117.2-18.7-132.7-76.5
		C349.9,1026.5,348.8,1020.2,348.3,1013.9z"/>
	<path class="st0" d="M217.7,1035.7c44.3,11.3,91.3,3.6,129.7-21.3c-5.5,59.6-58.3,103.4-117.9,97.9c-6.1-0.6-12.2-1.6-18.1-3.2
		C204.9,1084.7,207.1,1058.7,217.7,1035.7L217.7,1035.7z"/>
	<path class="st1" d="M524.3,860.5c1.5-27.8-4.1-55.6-16.2-80.7c-32.8-2.4-65.6,5.1-94.1,21.5c-14.4-29.6-37.3-54.2-65.8-70.6
		c-28.5,16.5-51.4,41-65.7,70.6c-28.5-16.4-61.3-23.8-94.1-21.4c-12.1,25.1-17.7,52.8-16.2,80.7c-27.8,2.1-54.6,11.2-77.9,26.4
		c5,90.5,82.4,159.8,172.9,154.8c28.5-1.6,56.1-10.6,80.1-26.1l0.9-0.6c75.8,49.7,177.6,28.5,227.3-47.3c15.8-24.1,25-52,26.6-80.9
		C578.9,871.7,552.1,862.6,524.3,860.5z"/>
	<path class="st2" d="M508.1,779.8c39.5,81.6,5.4,179.8-76.2,219.3c-26,12.6-54.8,18.1-83.6,16c74.6-43,103.3-136.3,65.8-213.8
		C442.5,784.9,475.3,777.4,508.1,779.8z"/>
	<path class="st2" d="M348.3,1015.1c-90.4,6.7-169.1-61.2-175.8-151.6c-2.1-28.8,3.4-57.7,16-83.7c32.8-2.4,65.6,5.1,94.1,21.4
		C245,878.7,273.7,972,348.3,1015.1L348.3,1015.1z"/>
	<path class="st1" d="M414,801.3c37.5,77.5,8.8,170.8-65.8,213.8C269.7,969.9,242.7,869.5,288,791c14.4-25,35.2-45.8,60.3-60.3
		C376.7,747.1,399.6,771.7,414,801.3z"/>
	<g transform="translate(90.219 645)" class="st3">
		<path class="st4" d="M96,25c9.9,0,18,8.1,18,18c0,9.9-8.1,18-18,18c-9.9,0-18-8.1-18-18l0,0C78,33,86.1,25,96,25z"/>
		<path class="st4" d="M462.1,25c16.6,0,30,13.4,30,30c0,16.6-13.4,30-30,30c-16.6,0-30-13.4-30-30v0C432.1,38.4,445.5,25,462.1,25
			C462.1,25,462.1,25,462.1,25z"/>
		<path class="st4" d="M36,427c19.9,0,36,16.1,36,36c0,19.9-16.1,36-36,36S0,482.9,0,463l0,0C0,443.2,16.1,427,36,427z"/>
		<g transform="translate(0)">
			<path class="st4" d="M503.6,397.4c4.8,1.4,7.5,6.4,6.2,11.1s-6.4,7.5-11.1,6.2c-4.8-1.4-7.5-6.3-6.2-11.1
				C493.8,398.8,498.8,396,503.6,397.4C503.6,397.4,503.6,397.4,503.6,397.4z"/>
			<path class="st4" d="M503.5,139.3c4.8,1.4,7.5,6.3,6.2,11.1c-1.4,4.8-6.3,7.5-11.1,6.2c-4.8-1.4-7.5-6.3-6.2-11.1c0,0,0,0,0,0
				C493.8,140.7,498.8,138,503.5,139.3z"/>
			<path class="st4" d="M425.5,487.4c4.8,1.4,7.5,6.3,6.2,11.1c-1.4,4.8-6.3,7.5-11.1,6.2c-4.8-1.4-7.5-6.3-6.2-11.1c0,0,0,0,0,0
				C415.8,488.8,420.7,486,425.5,487.4z"/>
			<path class="st4" d="M347.5,7.3c4.8,1.4,7.5,6.3,6.2,11.1c-1.4,4.8-6.3,7.5-11.1,6.2c-4.8-1.4-7.5-6.3-6.2-11.1c0,0,0,0,0,0
				C337.7,8.7,342.7,5.9,347.5,7.3z"/>
			<path class="st4" d="M263.5,481.4c4.8,1.4,7.5,6.3,6.2,11.1c-1.4,4.8-6.3,7.5-11.1,6.2c-4.8-1.4-7.5-6.3-6.2-11.1c0,0,0,0,0,0
				C253.7,482.8,258.7,480,263.5,481.4z"/>
			<path class="st4" d="M185.5,61.3c4.8,1.4,7.5,6.3,6.2,11.1c-1.4,4.8-6.3,7.5-11.1,6.2c-4.8-1.4-7.5-6.3-6.2-11.1c0,0,0,0,0,0
				C175.7,62.7,180.7,60,185.5,61.3z"/>
			<path class="st4" d="M17.4,349.4c4.8,1.4,7.5,6.3,6.2,11.1c-1.4,4.8-6.3,7.5-11.1,6.2c-4.8-1.4-7.5-6.3-6.2-11.1c0,0,0,0,0,0
				C7.7,350.8,12.7,348,17.4,349.4z"/>
			<path class="st4" d="M11.5,115.3c4.8,1.4,7.5,6.4,6.2,11.1c-1.4,4.8-6.4,7.5-11.1,6.2c-4.8-1.4-7.5-6.3-6.2-11.1
				C1.7,116.7,6.7,114,11.5,115.3C11.5,115.3,11.5,115.3,11.5,115.3z"/>
		</g>
	</g>
</g>
</svg>
