<?xml version="1.0" encoding="utf-8"?>
<!-- Generator: Adobe Illustrator 24.3.0, SVG Export Plug-In . SVG Version: 6.00 Build 0)  -->
<svg version="1.1" id="圖層_1" xmlns="http://www.w3.org/2000/svg" xmlns:xlink="http://www.w3.org/1999/xlink" x="0px" y="0px"
	 viewBox="0 0 512 512" style="enable-background:new 0 0 512 512;" xml:space="preserve">
<style type="text/css">
	.st0{fill:#7943C2;}
	.st1{fill:#6939A4;}
	.st2{fill:#9365C8;}
	.st3{fill:#9832B9;}
	.st4{fill:#C15BDE;}
	.st5{fill:#BD90E4;}
</style>
<g>
	<g transform="translate(0 0)">
		<path class="st0" d="M413.8,373.7c5.6,15.3,5.1,32.1-1.6,47c-11.1,22.4-33.8,29.8-28.2,57c-20.9-18.5-38.6-2.5-63.6-4.1
			c-16.2-1.7-31.1-9.6-41.5-22.2H233c-10.4,12.5-25.3,20.5-41.5,22.2c-25,1.6-42.6-14.4-63.6,4.1c5.6-27.3-17.1-34.6-28.2-57
			c-6.6-14.9-7.2-31.7-1.6-47l-22.9-39.8c-16.1-2.7-30.4-11.7-40-24.9c-13.9-20.7-8.8-44.1-35.3-53c26.5-8.8,21.5-32.2,35.3-53
			c9.6-13.2,23.9-22.2,40-24.9l22.9-39.8c-5.6-15.3-5.1-32.1,1.6-47c11.1-22.4,33.8-29.8,28.2-57c20.9,18.5,38.6,2.5,63.6,4.1
			C207.7,40,222.6,48,233,60.5h45.9C289.3,48,304.2,40,320.4,38.4c25-1.6,42.6,14.4,63.6-4.1c-5.6,27.3,17.1,34.6,28.2,57
			c6.6,14.9,7.2,31.7,1.6,47l22.9,39.8c16.1,2.7,30.4,11.7,40,24.9c13.9,20.7,8.9,44.1,35.4,53c-26.5,8.8-21.5,32.2-35.3,53
			c-9.6,13.2-23.9,22.2-40,24.9L413.8,373.7z"/>
		<path class="st1" d="M198.6,418.8c4.8,14.7,16.3,26.3,30.9,31.4c1.2,0.4,2.5,0.8,3.5,1.2c23,8.4,23,16.9,23,25.2
			c0-8.4,0-16.9,23-25.2c1-0.4,2.3-0.8,3.5-1.2c14.7-5.2,26.1-16.9,31-31.7l54.7-31.5c15.2,3.2,31-0.9,42.7-11
			c0.9-0.9,1.9-1.6,2.9-2.4c16.6-13.9,24.2-12.3,30.7-8.7c0.9,0.4,1.7,1,2.6,1.4l-2.6-1.4c-6.3-4.1-11.5-9.8-7.8-31.1
			c0.2-1.1,0.4-2.4,0.7-3.7c2.9-15.3-1.5-31.1-12-42.6l0.1-63.2c10.3-11.5,14.7-27.2,11.8-42.5c-0.3-1.3-0.5-2.6-0.7-3.7
			c-3.6-21.3,1.6-27,7.8-31.1c0.9-0.4,1.7-0.9,2.6-1.4l-2.6,1.4c-6.5,3.5-14.1,5.2-30.7-8.7c-1-0.7-2-1.5-2.9-2.4
			c-11.8-10.2-27.7-14.2-42.9-11l-54.6-31.8c-4.8-14.7-16.3-26.3-30.9-31.4c-1.2-0.4-2.5-0.8-3.5-1.2c-23-8.4-23-16.9-23-25.2
			c0,8.4,0,16.9-23,25.2c-1,0.4-2.3,0.8-3.5,1.2c-14.7,5.2-26.1,16.9-31,31.7L143.8,125c-15.2-3.2-31,0.9-42.7,11
			c-0.9,0.9-1.9,1.6-2.9,2.4c-16.6,13.9-24.2,12.3-30.7,8.7c-0.9-0.4-1.7-0.9-2.6-1.4l2.6,1.4c6.3,4.1,11.5,9.8,7.8,31.1
			c-0.2,1.1-0.4,2.4-0.7,3.7c-2.9,15.3,1.5,31.1,12,42.6l-0.2,63.2c-10.3,11.5-14.7,27.2-11.8,42.4c0.3,1.3,0.5,2.6,0.7,3.7
			c3.6,21.3-1.6,27-7.8,31.1c-0.9,0.4-1.7,1-2.6,1.4l2.6-1.4c6.5-3.5,14.1-5.2,30.7,8.7c1,0.7,2,1.5,2.9,2.4
			c11.8,10.2,27.7,14.2,42.9,11L198.6,418.8z"/>
		<path class="st2" d="M145.1,170.3c-0.5-0.8-1-1.6-1.5-2.4c-7.5-13.3-7.5-29.6,0.2-42.9c7.4-16.6,18.5-31,10.6-44.8
			c7.9,13.9,26.1,11.5,44.1,13.3c15.3,0.1,29.4,8.3,37.1,21.5l1.3,2.4l37.8-0.3c0.4-0.8,0.9-1.7,1.4-2.6
			c7.8-13.2,21.9-21.3,37.3-21.4c18-1.8,36.1,0.7,44-13.1c-7.9,13.8,3.2,28.2,10.6,44.8c7.5,13.3,7.5,29.6-0.1,42.9
			c-0.4,0.8-0.9,1.6-1.4,2.3l19.1,32.6c1-0.1,1.9-0.1,2.9-0.1c15.3,0.2,29.4,8.4,37.1,21.6c10.6,14.7,17.6,31.6,33.5,31.6
			c-16,0-23,16.9-33.6,31.6c-7.7,13.1-21.8,21.2-37.1,21.4c-1,0-1.9,0-2.7-0.1l-18.7,32.8c0.5,0.8,1,1.6,1.5,2.5
			c7.5,13.3,7.5,29.6-0.2,42.9c-7.4,16.6-18.5,31-10.6,44.8c-7.9-13.9-26.1-11.5-44.1-13.3c-15.3-0.1-29.4-8.3-37.1-21.5l-1.3-2.4
			l-37.8,0.3c-0.4,0.8-0.9,1.7-1.4,2.6c-7.8,13.2-21.9,21.3-37.2,21.3c-18,1.8-36.1-0.7-44,13.1c7.9-13.8-3.2-28.2-10.6-44.8
			c-7.5-13.3-7.5-29.6,0.1-42.9c0.4-0.8,0.9-1.6,1.4-2.3l-19.1-32.6c-1,0.1-1.9,0.1-2.9,0.1c-15.3-0.2-29.4-8.4-37.1-21.6
			C75.8,273,68.9,256.1,53,256.1c16,0,23-16.9,33.6-31.6c7.7-13.1,21.8-21.2,37.1-21.4c1,0,1.9,0,2.7,0.1L145.1,170.3z"/>
		<path class="st3" d="M313.9,155.7c19.9-2.6,36.9,7.7,52.6,14.5c12.1,5.3,23.4,8.5,34.7,1.9c-11.1,6.4-14.1,17.7-15.6,30.6
			c-1.9,17-1.4,37.2-13.8,53.3l-57.9,100.3c-7.6,18.6-25.1,28.2-38.8,38.3c-10.6,7.8-19.1,16.1-19.1,29.1c0-12.9-8.3-21.1-18.7-28.9
			c-13.9-10.2-31.5-19.8-39.2-38.6L140.2,256c-12.3-15.9-11.8-35.8-13.8-52.8c-1.4-13.2-4.4-24.5-15.7-31.1
			c11.2,6.4,22.4,3.4,34.4-1.9c15.8-6.8,32.9-17.3,53-14.6H313.9z"/>
		<path class="st4" d="M189.5,232.2c-11.8,0.2-23.3,3.7-33.2,10.1c-6.2,3.5-11.7,8.2-16.2,13.8c-12.4,16.1-11.8,36.2-13.8,53.3
			c-1.5,13-4.5,24.2-15.6,30.6c11.3-6.5,22.6-3.4,34.7,1.9c15.7,6.8,32.7,17.1,52.6,14.5c7.1-1,13.9-3.4,20-7.1
			c10.5-5.4,19.2-13.7,25.3-23.7h25.1c6.1,10.1,14.9,18.3,25.3,23.7c6.1,3.7,13,6.1,20,7.1c20,2.7,37.2-7.8,53-14.7
			c12-5.2,23.2-8.2,34.3-1.8c-11.3-6.5-14.2-17.9-15.6-31.1c-1.9-16.9-1.5-36.9-13.8-52.8c-4.4-5.6-9.9-10.3-16.2-13.8
			c-9.9-6.4-21.4-9.9-33.2-10.1l-12.6-21.8c5.7-10.3,8.5-22,7.9-33.8c0.1-7.1-1.2-14.2-3.9-20.8c-7.7-18.7-25.3-28.3-39.2-38.6
			c-10.4-7.8-18.7-16-18.7-28.9c0,13.1-8.5,21.3-19.1,29.1c-13.8,10.1-31.3,19.7-38.8,38.3c-2.7,6.6-4,13.7-3.9,20.8
			c-0.6,11.8,2.2,23.5,7.9,33.8L189.5,232.2z"/>
		<circle class="st5" cx="256" cy="256" r="70.6"/>
	</g>
</g>
</svg>
