<?xml version="1.0" encoding="utf-8"?>
<!-- Generator: Adobe Illustrator 24.3.0, SVG Export Plug-In . SVG Version: 6.00 Build 0)  -->
<svg version="1.1" id="圖層_1" xmlns="http://www.w3.org/2000/svg" xmlns:xlink="http://www.w3.org/1999/xlink" x="0px" y="0px"
	 viewBox="0 0 512 512" style="enable-background:new 0 0 512 512;" xml:space="preserve">
<style type="text/css">
	.st0{fill:#B5373E;}
	.st1{fill:#E13421;}
	.st2{fill:#EF5444;}
	.st3{fill:#FB7B76;}
</style>
<g>
	<path class="st0" d="M121.3,383.3c-62.3,17.8-86.6-24.6-94.8-65.5C17.7,273.6,8.8,264.8,0,256c8.8-8.8,17.7-17.7,26.5-61.8
		c8.2-40.9,32.5-83.3,94.8-65.5l7.4-7.4c-17.8-62.3,24.6-86.6,65.5-94.8c44.1-8.8,53-17.7,61.8-26.5c8.8,8.8,17.7,17.7,61.8,26.5
		c40.9,8.2,83.3,32.5,65.5,94.8l7.4,7.4c62.3-17.8,86.6,24.6,94.8,65.5c8.8,44.1,17.7,53,26.5,61.8c-8.8,8.8-17.7,17.6-26.5,61.8
		c-8.2,40.9-32.5,83.3-94.8,65.5l-7.4,7.4c17.8,62.3-24.6,86.6-65.5,94.8c-44.1,8.8-53,17.7-61.8,26.5c-8.8-8.8-17.7-17.7-61.8-26.5
		c-40.9-8.2-83.3-32.5-65.5-94.8L121.3,383.3z"/>
	<circle class="st1" cx="258.4" cy="255.3" r="185.3"/>
	<path class="st2" d="M388.4,126.3v259.3c-0.9,1-1.8,1.9-2.7,2.7H126.3c-1-0.9-1.9-1.8-2.7-2.7V126.3c0.9-1,1.8-1.9,2.7-2.7h259.3
		C386.6,124.5,387.5,125.3,388.4,126.3L388.4,126.3z"/>
	<path class="st3" d="M256,388.4l-79.4-123.6h158.9L256,388.4z"/>
</g>
</svg>
