<?xml version="1.0" encoding="utf-8"?>
<!-- Generator: Adobe Illustrator 24.3.0, SVG Export Plug-In . SVG Version: 6.00 Build 0)  -->
<svg version="1.1" id="圖層_1" xmlns="http://www.w3.org/2000/svg" xmlns:xlink="http://www.w3.org/1999/xlink" x="0px" y="0px"
	 viewBox="0 0 512 512" style="enable-background:new 0 0 512 512;" xml:space="preserve">
<style type="text/css">
	.st0{fill:#E15C32;}
	.st1{fill:#F29C1F;}
	.st2{fill:#EC8226;}
</style>
<g transform="translate(0 0)">
	<path class="st0" d="M70.8,248.5C48,243.4,32.4,222.4,34,199.2c2.4-39.4,3.5-59.1,0.4-71.1c12-3.3,28.5-14.1,61.4-35.8
		c19.4-12.9,45.3-9.9,61.2,7.2l12.9-7.5c-6.9-22.3,3.5-46.2,24.4-56.5C229.5,17.7,247.2,8.8,256,0c8.8,8.8,26.5,17.7,61.8,35.3
		c20.9,10.3,31.2,34.2,24.4,56.5l12.9,7.5c15.9-17.1,41.8-20.1,61.2-7.2c32.9,21.7,49.4,32.6,61.4,35.8c-3.2,12.1-2,31.8,0.4,71.1
		c1.6,23.3-14,44.2-36.8,49.4v15c22.8,5.1,38.4,26.1,36.8,49.3c-2.4,39.4-3.5,59.1-0.4,71.1c-12,3.3-28.5,14.1-61.4,35.8
		c-19.4,12.9-45.3,9.9-61.2-7.2l-12.9,7.5c6.9,22.3-3.5,46.2-24.4,56.5c-35.3,17.7-53,26.5-61.8,35.3c-8.8-8.8-26.5-17.7-61.8-35.3
		c-20.9-10.3-31.2-34.2-24.4-56.5l-12.9-7.5c-15.9,17.1-41.8,20.1-61.2,7.2c-32.9-21.7-49.4-32.6-61.4-35.9
		c3.2-12.1,2-31.8-0.4-71.1c-1.6-23.3,14.1-44.2,36.8-49.3V248.5z"/>
	<circle class="st1" cx="256" cy="256" r="185.4"/>
	<circle class="st2" cx="256" cy="229.5" r="158.9"/>
	<circle class="st1" cx="256" cy="176.6" r="105.9"/>
</g>
</svg>
